<?xml version="1.0" encoding="utf-8"?>
<!-- Generator: Adobe Illustrator 21.0.0, SVG Export Plug-In . SVG Version: 6.00 Build 0)  -->
<svg version="1.1" id="Layer_1" xmlns="http://www.w3.org/2000/svg" xmlns:xlink="http://www.w3.org/1999/xlink" x="0px" y="0px"
	 viewBox="0 0 650 200" style="enable-background:new 0 0 650 200;" xml:space="preserve">
<style type="text/css">
	.st0{fill:#C9F7F5;}
	.st1{clip-path:url(#SVGID_2_);}
	.st2{fill:#233862;}
	.st3{fill:#2A4E96;}
	.st4{fill:#AEC3FF;}
	.st5{fill:#FFB27D;}
	.st6{fill:#ED7D2B;}
	.st7{fill:#F99746;}
	.st8{fill:#FFFFFF;}
	.st9{fill:#E2915A;}
	.st10{fill:#DB6516;}
	.st11{fill:#9DB0F4;}
	.st12{fill:#163560;}
	.st13{fill:#ED975D;}
	.st14{fill:#2B478B;}
	.st15{fill:#6BB7BF;}
	.st16{fill:#86D1CD;}
	.st17{fill:#F1A34F;}
	.st18{fill:#DB7714;}
	.st19{fill:#5685D8;}
	.st20{fill:#739AF0;}
	.st21{fill:#A9453D;}
</style>
<g>
	<path class="st0" d="M0,58.8c0,0,45-42.7,119.3-47.3C193.7,7,229,36.1,280.5,37.7C332,39.3,401.3,11.8,466.3,11S650,45.8,650,45.8
		V199H0V58.8z"/>
	<g>
		<g>
			<defs>
				<rect id="SVGID_1_" x="172.9" y="35" width="303.3" height="160.3"/>
			</defs>
			<clipPath id="SVGID_2_">
				<use xlink:href="#SVGID_1_"  style="overflow:visible;"/>
			</clipPath>
			<g class="st1">
				<path class="st2" d="M282.8,191c0,0,0.3,3.7-0.5,4h-10.4c0,0,0-1.1,1.7-1.4c1.7-0.3,4.6-1.2,5.1-3.3
					C279.1,188.2,282.8,191,282.8,191z"/>
				<path class="st2" d="M312.7,189.5c0,0,0.3,5.1-0.5,5.5h-10.4c0,0,0-1.1,1.7-1.4c1.7-0.3,4.6-1.2,5.1-3.3
					C309,188.2,312.7,189.5,312.7,189.5z"/>
				<path class="st3" d="M313,190.2c0,0-2.1,1-3,1.2c-1,0.2-2.8,0.1-2.8,0.1c-3.5-9.1-14.5-45.8-14.5-45.8
					c-0.5,10.2-2.4,20.3-4.4,28.5c-0.1,0.2-0.1,0.4-0.2,0.7c0,0.2-0.1,0.4-0.1,0.6l0,0c-2.4,9.6-4.9,16.2-4.9,16.2s-0.6,0.8-2.4,0.4
					c-2-0.4-2.7-1.2-2.7-1.2c1.3-39.2,2-61.3,2-61.3s17.4-9,22.1-1.3C306.9,135.7,313,190.2,313,190.2z"/>
				<path class="st4" d="M306,133.4c-2.3-7.7-2.6-15-2.6-21c0-8.6,0.8-14.6-1.9-15.7c0,0-8.4-2.3-14.2-3.3c-0.9-0.5-1.9-1-2.7-1.3
					c-1.8-0.7-8.9-10.5-10.1-12.9s-3.2-12.6-3.2-12.6l-2.8,0.8c0,0-0.8,11.5-0.4,14.5s9.2,15.9,9.9,17c3.1,10.9,0,28.7,1.4,32.6
					c0.7,2,14.4,5.8,21.9,5.3c0.4,0,0.7-0.1,1.1-0.1c1.8-0.2,3.1-0.8,3.5-1.7C306.2,134.6,306.2,134,306,133.4z"/>
				<path class="st5" d="M271.3,66.5c0,0,1.6-4.3,0.4-4.5c-1.1-0.1-4-0.1-4.4,0.6c-0.4,0.7,1.2,4.7,1.2,4.7L271.3,66.5z"/>
				<path class="st6" d="M241.5,77.3l-9.2-5.3c0.2-0.3,0.5-0.6,0.8-0.8c0.3-0.2,0.6-0.4,1-0.5s0.7-0.1,1.1,0
					c0.4,0.1,0.7,0.2,1.1,0.4c0.1,0.1,0.3,0.1,0.5,0.2c0.2,0,0.3,0,0.5,0s0.3-0.1,0.4-0.2c0.1-0.1,0.2-0.2,0.3-0.3l2.5-3.9l2.2,1.2
					l-2.5,3.9c-0.2,0.3-0.2,0.6-0.1,0.9c0.1,0.3,0.3,0.6,0.6,0.7c0.7,0.4,1.1,1,1.3,1.7C242,76,241.9,76.7,241.5,77.3z"/>
				<path class="st7" d="M241.5,77.3l-6.1-3.5c-1.4-1.1-0.7-2.1,0-2.3c0.4-0.1,0.7-0.1,1.1,0c0.4,0.1,0.7,0.2,1.1,0.4
					c0.3,0.2,0.6,0.2,1,0.1c0.3-0.1,0.6-0.3,0.8-0.5l2.5-3.9l0.9,0.5l-2.5,3.9c-0.2,0.3-0.2,0.6-0.1,0.9c0.1,0.3,0.3,0.6,0.6,0.7
					c0.6,0.4,1.1,1,1.3,1.7C242,76,241.9,76.7,241.5,77.3z"/>
				<path class="st7" d="M268.5,51.7l-7.5,9c-2.6,4.1-7.1,6.1-11.4,6.2c-1.4,0.1-2.9-0.1-4.3-0.4c-1.1-0.3-2.4,0.3-3.1,1.4l-0.1,0.2
					l-0.8,1.3l-1.6-0.9l0.8-1.3c0.8-1.2,0.7-2.7-0.1-3.6c-3.6-3.8-4.9-10.2-1.5-15.6l5.1-10.4L268.5,51.7z"/>
				<path class="st6" d="M237.3,55.2c0.6-3.4-1.1-5.2-2.9-7.1c-1.4-1.6-2.9-3.2-3.3-5.5c-0.4-2.6,0.9-5.4,3.2-6.7
					c1.7-1,3.7-1.1,5.3-0.1c2.3,1.4,3.1,4.1,2.5,7.8c-0.3,1.7-0.9,3.4-1.6,5l-1.4-0.6c0-0.1,4-8.3-0.3-10.9
					c-1.5-0.9-2.9-0.3-3.6,0.1c-1.7,1.1-2.8,3.2-2.5,5.3c0.3,1.9,1.5,3.3,2.9,4.7c1.9,2,4,4.3,3.3,8.4L237.3,55.2z"/>
				<path class="st7" d="M255.1,65.5c2.8-2.1,5.3-1.5,8-0.9c2.1,0.5,4.3,1,6.7,0.2c2.6-0.9,4.5-3.3,4.8-5.8c0.2-2-0.7-3.6-2.4-4.5
					c-2.4-1.3-5.3-0.7-8.4,1.6c-1.5,1.1-2.8,2.3-3.9,3.7l1.3,0.9c0.1-0.1,5.9-7.2,10.3-4.9c1.5,0.8,1.6,2.3,1.6,3.1
					c-0.2,2-1.7,3.8-3.7,4.5c-1.9,0.7-3.8,0.2-5.7-0.2c-2.8-0.7-5.9-1.4-9.3,1.1L255.1,65.5z"/>
				<path class="st6" d="M249.7,66.9c-1.4,0.1-2.9-0.1-4.3-0.4c-1.1-0.3-2.4,0.3-3.1,1.4l-0.1,0.2c-0.5,0.3-1,0.6-1.2,1l-1.2-0.7
					l0.8-1.3c0.8-1.2,0.7-2.7-0.1-3.6c-3.6-3.8-4.9-10.2-1.5-15.6l5.1-10.4l4,2.3C248.1,39.9,231.7,61.1,249.7,66.9z"/>
				<path class="st7" d="M242.4,70.2l-4-2.3c-0.3-0.2-0.5-0.4-0.5-0.7c-0.1-0.3,0-0.6,0.1-0.8c0.2-0.3,0.4-0.4,0.7-0.5
					s0.6,0,0.9,0.1l4,2.3c0.3,0.2,0.5,0.4,0.5,0.7c0.1,0.3,0,0.6-0.1,0.8c-0.2,0.3-0.4,0.4-0.7,0.5C243,70.4,242.6,70.4,242.4,70.2z
					"/>
				<path class="st8" d="M243.6,57.3l0.4-0.7c2.1,1.1,2.3,0.9,3.2-0.4l4.2-6.7c0.6-0.9,0.3-1.2-0.4-1.8l-0.5-0.4l0.4-0.6
					c1.6,0.7,3.5,1.3,4.9,1.6l-6,9.4c-0.9,1.4-0.9,1.6,1.1,2.8l-0.4,0.7L243.6,57.3z"/>
				<path class="st5" d="M267.4,62.7c0,0-0.1,1.5,0.4,1.8s0.7-1.8,0.7-1.8s0,1.7,0.4,1.8s0.6-1.9,0.6-1.9s0,1.6,0.3,1.6
					c0.3-0.1,0.4-1.6,0.4-1.6s0.1,1.2,0.5,1s0.7-1.5,0.7-1.5L267.4,62.7z"/>
				<path class="st5" d="M271.3,66.5c0,0,1.1-0.8,1.3-1.5c0.2-0.7,0.9-2,0.6-2.1c-0.4-0.2-1.4,1.4-1.4,1.4L271.3,66.5z"/>
				<path class="st5" d="M289.9,92.2l-0.1,0.7c0,0-0.6,2,2,2.9c2.6,0.8,4.8,1.2,5.1-0.4c0-1.3,0-3.3,0.2-4.3
					c0.1-0.4,0.2-0.8,0.4-1.2l-5.2-1.1l-1.6-0.1L289.9,92.2z"/>
				<path class="st9" d="M290.6,88.6l-0.5,2.4c4.9,1.2,7.1-0.9,7.3-1.3l-5.2-1.1H290.6z"/>
				<path class="st5" d="M298.1,88.7c-1.5,3-5.7,1.7-7.5,1c-0.5-0.2-0.8-0.3-0.8-0.3c-0.5-0.3-0.6-1.3-0.4-2.4
					c0.4-2.3,1.7-5.6,2.4-6.3c1-1.1,2.5-2.2,6.5-0.1C302.2,82.7,300.1,84.9,298.1,88.7z"/>
				<path class="st2" d="M291.3,77.3c1.5,0.2,2.9,0.2,4.4,0c2-0.3,4,1.2,4.7,1.7c0-0.2,0-0.3-0.1-0.5c0,0,0.3,0.3,0.2,0.6v0.1
					c0,0,0.4,0,0.6,0.2c0,0-0.2-0.1-0.3,0l0,0c2.4,2,1.4,6.3,0.2,7.1c-1.4,0.9-3.9,3.3-3.9,3.3c0.1-0.6,0.3-1.3,0.6-1.9
					c0.5-1-0.4-1.2-1.5-2c-1-0.8,0.3-1.8-0.5-2.9s-4.7-1.6-4.5-2.2C290.1,80.1,291.3,77.5,291.3,77.3z"/>
				<path class="st8" d="M292,87.6c0,0-0.3,0.4-1.3-0.1c0,0-0.9-0.4-0.7-0.8C290,86.7,291,86.7,292,87.6z"/>
				<path class="st6" d="M290.8,97.6c0,0-2.4,15-20.1,25.4l-1.7,4.6h6.4c0,0,15.9-12.7,16.9-29.5L290.8,97.6z"/>
				<path class="st10" d="M290.8,97.6v-2.3l2.9,0.8l-1.3,1.9L290.8,97.6z"/>
				<path class="st11" d="M289.9,92.2l-1.7,1.4c0,0-0.5,1.9,0.7,4.1l3.4-1.9C292.3,95.7,290.2,94.8,289.9,92.2z"/>
				<path class="st11" d="M292.3,95.7c0,0,0.3,1.8,1.2,2.6c0,0,3.9-0.6,5-2.4l-1.6-2.4C296.8,93.5,296.5,95.2,292.3,95.7z"/>
				<path class="st5" d="M315.5,134.6c0,0,0,3.4-0.3,4c-0.3,0.7-1.8,2.8-2.4,3.3c-0.7,0.5,0.1-2.7-0.1-3.3s-0.5,1.1-0.8,1.2
					c-0.3,0.1-0.4-1.4-0.5-2c-0.1-0.5,1.3-2,1.7-3.3C313.6,133.3,315.5,134.6,315.5,134.6z"/>
				<path class="st4" d="M301.5,96.7c0,0,3.4,0.9,5.7,5.7c2.4,5.1,8.9,16.4,9.2,17.9c0.2,1.6-0.4,16.1-0.4,16.1s-2.8,0.1-3.7-1.2
					c0,0-1-12.8-1.4-13.5s-11.6-13.4-10.7-16.6C301,102,301.5,96.7,301.5,96.7z"/>
				<path class="st11" d="M305.9,135c-0.8,0.7-2,1.3-3.5,1.7c-0.3,0.1-0.7,0.1-1.1,0.1c-6.2-0.6-5.3-23.7-2.3-25.4
					c3.2-1.8,4.3,0.9,4.3,0.9c0,6,0.4,13.3,2.6,21C306.2,134,306.2,134.6,305.9,135z"/>
				<path class="st2" d="M288,175.3c0-0.2,0.1-0.4,0.1-0.6C288.1,174.9,288,175.1,288,175.3z"/>
				<path class="st2" d="M288.3,174.1c1.9-8.6-0.1-31.7,0.8-32.1c0.9-0.4,3.6,3.7,3.6,3.7C292.2,155.8,290.3,165.9,288.3,174.1z"/>
				<path class="st5" d="M202,189.4l-0.6-3.8l2.3-1.8l0.7,5L202,189.4z"/>
				<path class="st2" d="M209.7,192.7h-9.4c0,0-0.2-1.4,0.3-2.4s1.2-1.6,1.3-2.4c0.6,0.6,1.3,1,2.7,0.8c0.2,0.3,1.1,1.6,1.6,2
					C206.7,191.2,209.5,191,209.7,192.7z"/>
				<path class="st7" d="M207.8,138.3c-0.6,4.7-1.1,9.2-1.5,13.3c-2.2,22.1-1.8,35.7-1.8,35.7s-0.2,0.4-1.5,0.4
					c-0.5,0-1-0.1-1.5-0.2c0,0-4.9-14.5-4.5-22.7c0-0.9,0.2-1.8,0.4-2.7c1.2-4.2-4.4-20.3,1.7-26.3C205,130,208.1,136.2,207.8,138.3
					z"/>
				<path class="st6" d="M207.8,138.3c-0.6,4.7-1.1,9.2-1.5,13.3l-9.3,13.2c0-0.9,0.2-1.8,0.4-2.7c1.2-4.2-4.4-20.3,1.7-26.3
					C205,130,208.1,136.2,207.8,138.3z"/>
				<path class="st5" d="M215.2,93.2c0,0-0.2-1.1-0.5-1.9c-0.1-0.4,0.7-2.8,1.2-3.1c0.5-0.3,2,1.3,1.6,2.6c-0.2,0.6-0.5,2.7-0.5,2.7
					L215.2,93.2z"/>
				<path class="st5" d="M215.2,93.2c0,0-0.3-0.6-0.6-0.7s-0.6-1.1-0.8-1.5c0,0,0.2-0.3,0.5,0.1c0.2,0.2,0.7,0.8,0.7,0.8L215.2,93.2
					z"/>
				<path class="st5" d="M176.3,96.9c-0.1,0.1-0.1,0.3-0.2,0.5c0-0.1,0-0.1,0-0.2c0-0.4-1.5-2.4-2.1-2.6c-0.6-0.1-1.5,1.8-0.7,2.9
					c0.4,0.6,1.3,2.4,1.3,2.4l1.6-0.8c0,0,0.1-0.7,0.3-0.9c0.2-0.2,0.2-1.2,0.2-1.7C176.7,96.6,176.5,96.4,176.3,96.9z"/>
				<path class="st5" d="M186.2,188.2c-0.1-1.2-0.2-4.4-0.2-4.4s3.4-1,3.3-0.3c-0.6,3.5-0.4,5.2-0.4,5.2l-1.4,0.8L186.2,188.2z"/>
				<path class="st7" d="M204.9,138.1c0,0-13.2,34.4-15.8,49.3c0,0-0.6,0.4-1.7,0.3c-1.3-0.1-1.6-1-1.6-1s-2.4-17.9,2.3-24.1
					c3.2-4.3-1.4-23,6.2-24.5S204.9,138.1,204.9,138.1z"/>
				<path class="st12" d="M202.6,105L202.6,105c-0.1-0.3-0.2-0.6-0.3-0.9c-0.3-0.9-0.6-1.7-1-2.5c-0.2-0.4-0.4-0.8-0.6-1.2
					c0-0.1-0.1-0.1-0.1-0.2c-0.5-0.8-1-1.4-1.5-1.6c-0.9-0.3-1.8-0.2-2.5-0.1c0.1-0.2,0.5-0.3,0.5-0.3c-0.4,0-1.3,0.5-1.3,0.5
					c-6.1-1.3-5.7,6.9-5.3,8.7c0.4,1.9-1.5,2.8-4.3,4.6c-5.3,3.6-5.2,7.4-5.2,7.4s0.1,0,0.2,0.1c0.2-0.5,0.7-1.4,1.1-1.6
					c0,0-0.4,1.3-0.5,1.9c0.8,0.4,1.9,1.1,3.1,1.8c1.6,1,3.4,2.1,4.8,3c-0.1-0.4-0.1-0.9,0-1.2l0.5,1.3l0.1,0.2
					c0.9,0.6,1.6,1.1,2,1.3c0,0,0.1,0,0.1,0.1l0.2,0.1c-0.1-0.5,0.4-1.7,1.3-3.3c0.1-0.1,0.1-0.2,0.2-0.3c0.3-0.5,0.6-1,1-1.5
					c0.1-0.2,0.3-0.4,0.4-0.6c0.1-0.2,0.2-0.3,0.3-0.5c0.3-0.4,0.5-0.8,0.8-1.1c0.7-1,1.5-2,2.2-2.9c1.1-1.3,2.1-2.5,3-3.2
					c0-0.1,0.1-0.1,0.1-0.2c0.1-0.3,0.2-0.7,0.3-1c0-0.1,0-0.2,0.1-0.3c0.2-0.8,0.2-1.6,0.2-2.4c0.1,0.8,0.1,1.6,0,2.5
					c0,0.1,0,0.3-0.1,0.4c0,0.2-0.1,0.4-0.2,0.6c0.1-0.2,0.3-0.4,0.4-0.6c0.1-0.1,0.1-0.3,0.2-0.4C203.4,110,203.2,107.4,202.6,105z
					"/>
				<path class="st5" d="M201.5,113.3c0,0-1.7,1.2-3.2,1c-1.4-0.2-2.5-1.7-2.5-1.7c0.5-0.2,0.6-0.9,0.1-4.1h0.3l4.4,0.2
					c0,0,0.1,1.3,0.3,2.5C201,112.3,201.2,113.2,201.5,113.3z"/>
				<path class="st13" d="M200.6,108.8c0,0,0.1,1.3,0.3,2.5c-2.4,0.3-4-1.6-4.7-2.7L200.6,108.8z"/>
				<path class="st12" d="M195.7,108.2c0,0-1.5-1.7-2.1-3.3c-0.4-1.1-0.4-5.4,4.1-5.5c0.9,0,1.8,0.2,2.7,0.6
					c1.1,0.5,2.7,1.6,1.7,5.6l-0.2,1.3L195.7,108.2z"/>
				<path class="st8" d="M208.3,137.4c0,0-5.7,3.2-12.8,1.6c-0.1,0-5.9-0.9-5.9-0.9c0.1-0.3,0.8-4.5,0.9-4.8
					c1.3-3.1,3.6-20,5.5-20.8c0.5,0.5,1.9,0.9,3.1,0.8c1.4-0.1,1.9-0.7,1.7-1.3c1.5,0.7,2.7,1.3,2.7,1.3
					C205.1,115.3,208.3,137.4,208.3,137.4z"/>
				<path class="st5" d="M201.5,109.8c0,0-5.6,0.9-6.1-2.4s-1.6-5.5,2-6.2s4.5,0.5,4.9,1.5C202.7,103.8,203,109.5,201.5,109.8z"/>
				<path class="st12" d="M199.9,100.8c0,0-0.9,4.1-3.2,5s-3.4,0.5-3.4,0.5s1.6-1.6,1.6-4.1C194.9,102.2,198.4,99.1,199.9,100.8z"/>
				<path class="st12" d="M199.6,101.1c0,0,1.3,0.7,1.7,1.5s0.8,2.5,1.3,2.4c0,0,0.7-2.8-0.8-4.1
					C200.2,99.5,199.6,101.1,199.6,101.1z"/>
				<path class="st14" d="M217,93.3c-0.2-0.1-0.6-0.3-1-0.3c-0.3,0-0.6,0-0.9,0.1c0,0-1.6,9.4-1.7,9.9c-0.1,0.5-6.8,7.6-8.6,7.6
					c-1.6,0-3.5,1.2-3.9,1.4c0,0,3.8,7.6,4,9c0.2,1.6,2.2,25.5,2.2,25.5s-0.1,1.1,2.1,0.5c2.2-0.6,2.7-1.1,2.7-1.1s-2-18.9-2.4-24.7
					c-0.1-0.7-0.2-1.5-0.4-2.2c-0.1-0.3-0.1-0.7,0-1s0.2-0.6,0.4-0.9c2.8-3.6,7.1-9.5,7.4-10.7C217.2,104.6,217,93.3,217,93.3z"/>
				<path class="st2" d="M194,192.7h-9.4c0,0-0.2-1.4,0.3-2.4s1.2-1.6,1.3-2.4c0.6,0.6,1.3,1,2.7,0.8c0.2,0.3,1.1,1.6,1.6,2
					C191.1,191.2,193.8,191,194,192.7z"/>
				<path class="st14" d="M200.5,121.7c-0.3-1.9-4.4-9.3-4.4-9.3s-2.6-0.7-4.3-0.1s-10.4-4.1-10.7-4.6c-0.3-0.4-5-8.7-5-8.7
					s-0.4-0.2-1,0.1c-0.2,0.1-0.3,0.2-0.4,0.4c-0.1,0.2-0.2,0.3-0.2,0.5c0,0,3.6,10.5,4.6,12.1c0.6,1,5.4,4.4,9.2,6.9
					c0.4,0.2,0.6,0.6,0.8,0.9c0.2,0.4,0.2,0.8,0.2,1.2c-0.5,3.6-0.6,5.6-1.2,11.7c-0.5,5.1-0.7,15-0.7,15s4.2,1.4,7.1,1.6
					c2.9,0.2,3.6-2.7,3.6-2.7S200.8,123.7,200.5,121.7z"/>
				<path class="st8" d="M199.7,108.2c0.5,0.2,1,0.3,1.5,0.3c0.6-0.1,0.7-0.7,0.7-0.7s-0.4-0.1-1,0C200.4,107.8,200,108,199.7,108.2
					z"/>
				<path class="st12" d="M372,108.3c0,0,1.7,2.7-1.5,4.5c0,0,2.5,0.9,3.4,0.5c-0.1,0.1-0.2,0.2-0.4,0.3c0,0,2.4,0.7,3.5,0.3
					c1.2-0.4,3.7-11.3-3.3-11.9c0,0-5.5-1.9-6.7,4s-3.3,5.3-3.3,5.3s0.5,0.4,0.8,0.5c0,0,0.5,0,0.6-0.2c0,0-0.2,0.3-0.3,0.4
					c0,0,2.2,0.8,3.6,0.4C369.9,111.8,372,109.5,372,108.3z"/>
				<path class="st2" d="M365,194.3h8.9c0,0,0.2-1.3-0.3-2.3c-0.4-0.9-1.1-1.5-1.2-2.2c-0.6,0.6-1.3,0.9-2.5,0.7
					c-0.2,0.2-1,1.5-1.5,1.9C367.8,192.9,365.2,192.7,365,194.3z"/>
				<path class="st14" d="M372.3,191.1c-0.5,0.1-1,0.2-1.6,0.3c-1.4,0.1-1.6-0.3-1.6-0.3s-1.4-11.8-5.9-34.4c-0.6-3.3-0.9-5.1-1.1-8
					c-0.1-0.9-0.1-1.8-0.2-3c-0.2-3,0.3-8.2,2.7-9.5c1.1-0.6,2.6-0.4,4.6,1.1c0.2,0.1,0.3,0.2,0.5,0.4c5.8,4.8,3.4,18.6,3.7,25.1
					c0,1.1,0.2,2,0.4,2.6c0.3,0.8,0.9,1.9,1.1,2.9C376,176.7,372.3,191.1,372.3,191.1z"/>
				<path class="st2" d="M373.3,162.8l-11.2-14.1c-0.1-0.9-0.1-1.8-0.2-3c-0.2-3,0.3-8.2,2.7-9.5l4.6,1.1c0.2,0.1,0.3,0.2,0.5,0.4
					C375.5,142.5,373.1,156.3,373.3,162.8z"/>
				<path class="st2" d="M405,176.5l-3.7-7.7c0,0-1.3,0.4-2.1,1.2c-0.7,0.8-1.2,0.6-2.9-0.4c0.6,0.9,0.7,1.4,1.1,2.6
					c0.3,0,2,1.6,3.7,2C401.9,174.3,403.4,177,405,176.5z"/>
				<path class="st14" d="M366.2,139.6c0,0,8,26.4,10.9,28.1c2.9,1.7,18.3,4,21.4,5.3c0,0,0.4-0.5,0.2-1.6c0-0.2-0.5-1.1-0.5-1.1
					s-9.5-6.8-15.8-7.5c-1.6-0.2,3.2-22.8-7.4-23.8C365.3,138.2,366.2,139.6,366.2,139.6z"/>
				<path class="st5" d="M354.8,96.3c0,0,0.2-1,0.5-1.8c0.1-0.3-0.6-2.6-1.2-2.9c-0.5-0.3-1.9,1.2-1.5,2.4c0.2,0.6,0.5,2.6,0.5,2.6
					L354.8,96.3z"/>
				<path class="st5" d="M354.8,96.3c0,0,0.3-0.6,0.5-0.7c0.3-0.1,0.5-1.1,0.7-1.4c0,0-0.2-0.3-0.5,0.1c-0.2,0.2-0.6,0.8-0.6,0.8
					L354.8,96.3z"/>
				<path class="st5" d="M391.5,99.7c0.1,0.1,0.1,0.3,0.2,0.5v-0.1c0-0.4,1.4-2.3,2-2.4s1.4,1.7,0.7,2.7c-0.4,0.5-1.3,2.3-1.3,2.3
					l-1.5-0.7c0,0-0.1-0.6-0.3-0.8c-0.2-0.2-0.2-1.2-0.2-1.6C391.1,99.5,391.3,99.3,391.5,99.7z"/>
				<path class="st5" d="M367.8,115.2c0,0,1.6,1.1,3,1c1.3-0.1,2.3-1.6,2.3-1.6c-0.5-0.2-0.6-0.9-0.1-3.8h-0.2l-4.1,0.2
					c0,0-0.1,1.2-0.3,2.3C368.2,114.3,368,115.2,367.8,115.2z"/>
				<path class="st13" d="M368.6,111c0,0-0.1,1.2-0.3,2.3c2.2,0.3,3.7-1.5,4.4-2.5L368.6,111z"/>
				<path class="st12" d="M373.2,110.4c0,0,1.4-1.6,2-3.1c0.4-1.1,0.4-5.1-3.9-5.2c-0.9,0-1.7,0.2-2.5,0.5c-1,0.5-2.5,1.5-1.6,5.2
					l0.2,1.2L373.2,110.4z"/>
				<path class="st5" d="M362.6,138.6c0,0,4,2.4,10.8,0.9c0.1,0,3.8-0.6,3.8-0.6c-0.1-0.2-4-6.4-4.1-6.7c-1.2-2.9,1.6-17-0.3-17.7
					c-0.5,0.5-1.8,0.8-2.9,0.7c-1.3-0.1-1.7-0.7-1.6-1.2c-1.5,0.7-2.6,1.3-2.6,1.3C364.3,117.1,362.6,138.6,362.6,138.6z"/>
				<path class="st5" d="M367.7,112c0,0,5.3,0.8,5.8-2.3c0.5-3.1,1.5-5.2-1.8-5.8c-3.4-0.7-4.2,0.4-4.6,1.5
					C366.6,106.3,366.3,111.7,367.7,112z"/>
				<path class="st12" d="M369.2,103.4c0,0,0.9,3.9,3,4.8s3.2,0.4,3.2,0.4s-1.5-1.5-1.5-3.8C373.9,104.8,370.6,101.8,369.2,103.4z"
					/>
				<path class="st12" d="M369.6,103.8c0,0-1.2,0.7-1.6,1.4c-0.4,0.8-0.8,2.4-1.3,2.3c0,0-0.7-2.7,0.7-3.9
					C369,102.2,369.6,103.8,369.6,103.8z"/>
				<path class="st7" d="M392.8,102.7c0,0-3.4,9.9-4.3,11.4c-0.5,0.9-6.7,4.6-10.3,7c-0.1,0-0.1,0.1-0.1,0.2
					c-0.9,1.3-3.7,9.4-3,10.9c2.8,6.1,4.7,8.5,5.4,10.2c0.1,0.2,0.1,0.4,0.1,0.6c0,0.2-0.1,0.4-0.2,0.6c-0.1,0.2-0.2,0.4-0.4,0.5
					c-0.2,0.1-0.4,0.3-0.6,0.3c-1.6,0.5-3.2,0.9-4.8,1.2c-0.4,0.1-0.8,0.1-1.2,0.2c-5.5,0.7-9.2-0.6-11.1-1.5
					c-0.4-0.2-0.8-0.5-1-0.9s-0.4-0.9-0.3-1.3c0.1-1.9,1.1-3.9,1.6-8.5c0.3-3.5-2.9-8.9-2.7-10.8c0.1-0.7,0.7-1.6,1-2.2
					c0.6-1,0.9-1.9,0.5-2.4c-2.6-3.4-8.2-8.1-8.5-9.3c-0.3-1.7-0.2-12.4-0.2-12.4c0.2-0.1,0.5-0.2,0.9-0.3c0.3,0,0.6,0,0.8,0.1
					c0,0,1.5,8.8,1.6,9.3s6.4,7.2,8.1,7.2c1.5,0,3.7,1.1,4,1.3c-0.9,1.7-1.5,3.5-1.7,5.5c-0.2,2.2,1.3,1.2,2.3-0.3
					c1.3-2,3.9-4.9,3.9-4.9s2.1-0.5,3.7,0c1.6,0.6,9.8-3.9,10.1-4.3c0.3-0.4,4.7-8.2,4.7-8.2s0.4-0.2,1,0.1c0.2,0.1,0.3,0.2,0.4,0.4
					C392.7,102.3,392.8,102.5,392.8,102.7z"/>
				<path class="st8" d="M369.2,110.3c0,0-0.2,0.4-0.5,0.4s-1.1-0.1-1.1-0.1c-0.1-0.2-0.1-0.3-0.2-0.5
					C367.4,110,368.7,110,369.2,110.3z"/>
				<path class="st6" d="M379.4,144.4c-1.6,0.5-3.2,0.9-4.8,1.2c-1.9-2.5-5.1-5.6-4.3-11.4c0.8-5.9,7-12.2,7.7-13
					c-0.9,1.3-3.7,9.4-3,10.9c2.8,6.1,4.7,8.5,5.4,10.2c0.1,0.2,0.1,0.4,0.1,0.6c0,0.2-0.1,0.4-0.2,0.6c-0.1,0.2-0.2,0.4-0.4,0.5
					C379.8,144.2,379.6,144.3,379.4,144.4z"/>
				<path class="st6" d="M360.9,120.5c0.6-1,0.9-1.9,0.5-2.4c-2.6-3.4-8.2-8.1-8.5-9.3c0.6,1.3,7.4,5.1,9.3,6.7
					C364.1,117.1,361,120.4,360.9,120.5z"/>
				<path class="st15" d="M234.1,73.4c0,0,1.3,1.7,1.1,3.6c-0.1,1.4-1.4,2.8-1.5,2.9l2.1,1.1c0,0,1.5-2.6,1-4.8
					c-0.2-0.7-0.9-1.7-1.4-2.2C235.1,73.6,234.6,73.4,234.1,73.4z"/>
				<path class="st16" d="M229.9,73.6l-1.3-2.8c0,0,6.2,0.2,8.2,5C236.8,75.8,232.4,72.9,229.9,73.6z"/>
				<path class="st15" d="M227.7,143.8c0,0-1.5-1.1-1.9-2.6c-0.3-1.2,0.4-2.6,0.5-2.7l-2-0.4c0,0-0.6,2.5,0.4,4.1
					c0.3,0.5,1.2,1.2,1.7,1.5C226.9,143.9,227.3,143.9,227.7,143.8z"/>
				<path class="st16" d="M231.1,142.7l1.8,2c0,0-5.1,1.3-8-2.1C225,142.5,229.2,143.9,231.1,142.7z"/>
				<path class="st17" d="M431.8,153.4c0,0-0.1-1.8,3.5-2.7c1.6-0.4,5.2,0.3,2.9,3.7c-2.4,3.5-4.5,2.2-4.5,2.2s5-3.7,3-5.4
					c-2.2-1.9-3,1.8-3,1.8C433,153.1,432.4,153.2,431.8,153.4z"/>
				<path class="st18" d="M433.1,156.8c0,0-1.3-0.7-0.8-2.2l1.9,0.3c0,0-0.7,1.7,1.1,1.9C435.3,156.8,433.5,157.2,433.1,156.8z"/>
				<path class="st19" d="M306.4,58.5c0,0,2-2.8,5.1-0.8l1.9-1.7c0,0-1.8-1.3-5.8,1C304.9,58.5,306.4,58.5,306.4,58.5z"/>
				<path class="st20" d="M304.4,61.2c0,0-0.4-3.2,5.2-5.2c0,0-2,0.9-2.6,4.1L304.4,61.2z"/>
				<path class="st7" d="M326.8,44.4c0,0,1.6-1,1.8-2.2c0,0,1.6,0.1,2,0.6c0,0-0.7,2-1.6,2.4C329,45.1,327.1,45.3,326.8,44.4z"/>
				<path class="st7" d="M273.7,157.7c0,0-1.8-1.1-1.9-2.3c0,0-1.7,0.1-2.1,0.6c0,0,0.8,2.1,1.7,2.5
					C271.4,158.5,273.5,158.6,273.7,157.7z"/>
				<path class="st16" d="M346,75.7c0,0,1.8-1.1,2-2.4c0,0,1.7,0.1,2.1,0.6c0,0-0.8,2.1-1.7,2.5C348.3,76.5,346.2,76.6,346,75.7z"/>
				<path class="st5" d="M432.1,126.3c0,0-1-1.2-1.6-1.3c-0.5-0.2-1.6-1-1.7-0.6c-0.1,0.3,0.7,0.8,0.7,1.2c0,0.4-2.7,1-2.7,1.4
					s0.6,1.3,1.6,1.2s3.6-0.7,4.1-0.4C433,127.9,432.1,126.3,432.1,126.3z"/>
				<path class="st4" d="M459.6,120.5c-1.4,1.8-3.1,3.4-5.1,4.7c-5.8,3.8-12,4.4-12,4.4c-1.5-0.5-6.1-0.9-8.8-1.4
					c-1.2-0.2-2-0.4-2.1-0.5l0.1-2.3c0,0,10-0.5,11.6-1.2c2.6-2.1,4.9-4.9,6.4-7.1c1.3-1.8,2.7-3.2,5-4
					C458.1,112,464.3,114.5,459.6,120.5z"/>
				<path class="st11" d="M455,123.7l-0.5,1.4c-5.8,3.8-12,4.4-12,4.4c-1.2,0-6.1-0.9-8.8-1.4c0.1,0,7.4,0.6,9,0.4
					c1.6-0.2,9.2-6.4,9.2-6.4L455,123.7z"/>
				<path class="st2" d="M448.5,195.3h11c0.8-0.5-0.2-5.5-0.2-5.5s-3-1.1-3.5,1.1c-0.5,2.2-3.8,2.9-5.6,3.2
					C449,194.3,448.6,194.9,448.5,195.3z"/>
				<path class="st2" d="M464.9,195.3h11c0.8-0.5-0.2-5.5-0.2-5.5s-3-1.1-3.5,1.1c-0.5,2.2-3.8,2.9-5.6,3.2
					C465.4,194.3,465,194.9,464.9,195.3z"/>
				<path class="st14" d="M451.5,144.3c0,0,0.5,5.9,1.1,13c0.8,9.6,2.9,33.5,2.9,33.5s1.4,1.1,4.5,0.5c0,0,2.6-8.2,3.4-17.6v-0.5
					c0.7-9.6,1.9-29.7,1.9-29.7L451.5,144.3z"/>
				<path class="st2" d="M451.3,142.3c0,0,0.7,7.9,1.2,15l10.9,16.4v-0.5c0.7-9.6,1.9-29.7,1.9-29.7L451.3,142.3z"/>
				<path class="st14" d="M454.5,142.3c0,0,7.9,18.7,10.4,25.8c1.8,5,6.9,22.7,6.9,22.7s2.2,0.6,4-0.6c0,0,1.9-18.1-1.9-23.2
					c-2-2.7-0.5-28.1-8.7-28.3C457,138.5,454.5,142.3,454.5,142.3z"/>
				<path class="st5" d="M458,114.8c1,0.5,2.2,0.7,3.4,0.4c0.8-0.2,1.6-0.5,2.3-0.9c0.3-0.2,0.6-0.4,0.9-0.7c0,0,0-0.1-0.1-0.2
					c-0.4-0.6-1.4-2.7-1-6c0,0-0.3,0-0.9,0.1c-1.6,0.4-4.7,1.2-4.8,1.2l0,0c0,0,0,0.7-0.2,2c0,0.1,0,0.2,0,0.3c0,0.1,0,0.3-0.1,0.5
					C457.4,112.9,458,114.8,458,114.8z"/>
				<path class="st13" d="M457.7,110.8c2.3,0.5,5.8-2.8,5.8-2.8c-0.2-0.2-0.5-0.3-0.8-0.4c-1.6,0.4-4.7,1.2-4.8,1.2l0,0
					C457.8,108.8,457.8,109.5,457.7,110.8z"/>
				<path class="st5" d="M456.9,108.6c0.7,0.2,1.4,0.4,2.2,0.5c1.8,0.2,4.1,0.1,4.9-2c1.2-3.5,2.8-5.6-0.8-7c-2-0.8-3.2-0.8-4.1-0.5
					c-0.7,0.2-1.2,0.7-1.5,1.2C456.8,102,455.4,108,456.9,108.6z"/>
				<path class="st21" d="M454.7,101.2c2.1,1.5,5.1,0,6,0.4s1.1,1.8,1.1,2.3s0.1,0.9,1.3,0.6c0.1,0,0.3,0,0.4,0
					c0.5,0.3-0.1,1.7-0.3,2c0,0-0.3,1,0.3,1.5c0.1,0.1,1.3,0.6,4.3-3.8c0.5-0.7,0.9-2.2,0.2-3.7c-0.7-1.5-3.8-2.9-6.3-3.7
					c-1-0.3-1.7-0.3-2.2-0.1c-0.9,0.3-1.4,1.2-1.9,2C456.7,100.2,454.7,101.2,454.7,101.2z"/>
				<path class="st4" d="M468.3,143.6c0,0-1,0.2-2.3,0.4s-2.8,0.4-3.9,0.4c-5.5,0-10.2-1.6-10.2-1.6c-1,0-1.5-1.5-1.7-3.7
					c-0.1-1.5-0.1-3.2,0-4.9c0-0.6,0.1-1.1,0.1-1.7c0.1-1.1,0.2-2.1,0.2-3c0.1-0.9,0.1-1.6,0.2-2.2c0,0-0.1-4.1-0.1-7.7
					c0-2.6,1.6-4.9,2-5.3c1.1-1.1,4.3-1.8,5-1.9h0.1c2.6,1.4,6.2-0.5,6.2-0.5c0.1,0,0.2,0,0.2,0c0.3-0.1,2.9,0.3,3.5,0.6
					c1.5,0.8,2.4,9.6,2.4,9.6c0.3,6-0.1,15.6,0.4,19.3C470.7,142.7,469.4,143.4,468.3,143.6z"/>
				<path class="st11" d="M464.1,111.9c0,0-3.9,3.9-6.7,3.1c0,0-0.4-0.5,0.9-0.7C459.5,114.2,460.8,114.2,464.1,111.9z"/>
				<path class="st8" d="M456.9,106.4c0,0-0.1,0.4,1,0.8c0,0,0.9,0.3,1.1-0.2C459,107,458.2,106.4,456.9,106.4z"/>
				<path class="st11" d="M466.2,126.5c0,0-5.7,9.1-8.9,10.7c-2.2,1.1-5.3,1.7-7,1.9c-0.1-1.4-0.1-3.2,0-4.9
					c2.3-0.3,5.9-0.7,5.9-0.7L466.2,126.5z"/>
				<path class="st11" d="M458.7,122l-3,10.5c0,0-3.6,0.2-5.3,0.2c0.1-1.1,0.1-1.1,0.2-2C450.5,130.6,454.6,128.5,458.7,122z"/>
				<path class="st5" d="M440.4,133.2c0,0-1-1.2-1.6-1.3c-0.5-0.2-1.6-1-1.7-0.6c-0.1,0.3,0.7,0.8,0.7,1.2s-2.7,1-2.7,1.4
					s0.6,1.3,1.6,1.2s3.6-0.7,4.1-0.4C441.3,134.8,440.4,133.2,440.4,133.2z"/>
				<path class="st4" d="M470.4,118.7c0,0,0.2,5.5-13.1,16.7l-2.7-4.5c-0.5-0.3,8.6-18.8,11.2-18.7
					C470.8,112.4,470.4,118.7,470.4,118.7z"/>
				<path class="st4" d="M456.2,130.3c0,0-15.1,1.6-15.6,1.9c-0.6,0.3-1.8,1.4-1.4,2.8c0,0,7.8,0.9,12.1,0.9c3.7,0,6.1-0.6,6.1-0.6
					L456.2,130.3z"/>
			</g>
		</g>
	</g>
</g>
</svg>
