<svg id="Capa_1" data-name="Capa 1" xmlns="http://www.w3.org/2000/svg" viewBox="0 0 43 56"><defs><style>.cls-1{fill:#e9e9e0;}.cls-2{fill:#d9d7ca;}.cls-3{fill:#cc4b4c;}.cls-4{fill:#fff;}</style></defs><path class="cls-1" d="M37,0H8C7.16,0,6.5.65,6.5,1.93V55c0,.35.65,1,1.46,1H48c.81,0,1.46-.65,1.46-1V13c0-.7-.09-.92-.26-1.09L37.61.26A.87.87,0,0,0,37,0Z" transform="translate(-6.5)"/><polygon class="cls-2" points="31 0.15 31 12 42.85 12 31 0.15"/><path class="cls-3" d="M19.51,33.32h0a1.61,1.61,0,0,1-1-.32,2.42,2.42,0,0,1-1.12-2.24c.18-1.63,2.2-3.34,6-5.07a68.48,68.48,0,0,0,3.79-10.75c-1-2.17-2-5-1.27-6.64a1.93,1.93,0,0,1,1.14-1.22,4.64,4.64,0,0,1,1-.17c.51,0,.95.65,1.27,1s1,1.17-.38,6.8a32,32,0,0,0,5.09,7.56A19.19,19.19,0,0,1,37.43,22c1.56,0,2.51.37,2.9,1.12a2,2,0,0,1-.39,2.16,2.65,2.65,0,0,1-2.22,1.19c-1.22,0-2.63-.77-4.21-2.28A47.75,47.75,0,0,0,24.68,27a28.68,28.68,0,0,1-2.38,4.25C21.27,32.65,20.39,33.32,19.51,33.32Zm2.67-5.12c-2.14,1.2-3,2.19-3.08,2.74,0,.09,0,.34.44.69C19.68,31.59,20.56,31.19,22.18,28.2Zm13.63-4.44c.82.62,1,.94,1.55.94a1.51,1.51,0,0,0,1.21-.44,1.38,1.38,0,0,0,.23-.42,2.07,2.07,0,0,0-1.17-.19A13.87,13.87,0,0,0,35.81,23.76Zm-7.47-6.59a71,71,0,0,1-2.67,7.57,49.73,49.73,0,0,1,6.5-2A34.77,34.77,0,0,1,28.34,17.17Zm-.6-8.46a2.4,2.4,0,0,0,.09,3.22C28.78,9.81,27.78,8.7,27.74,8.71Z" transform="translate(-6.5)"/><path class="cls-3" d="M48,56H8A1.46,1.46,0,0,1,6.5,54.54V39h43V54.54A1.46,1.46,0,0,1,48,56Z" transform="translate(-6.5)"/><path class="cls-4" d="M17.39,53H15.74V42.92h2.9a4,4,0,0,1,1.27.21,3.53,3.53,0,0,1,1.13.61,3.43,3.43,0,0,1,.81,1,2.77,2.77,0,0,1,.31,1.3,3.66,3.66,0,0,1-.26,1.39,3.14,3.14,0,0,1-.73,1,3.18,3.18,0,0,1-1.12.65,4.2,4.2,0,0,1-1.45.23H17.38V53Zm0-8.83v4h1.5a1.7,1.7,0,0,0,.59-.1,1.41,1.41,0,0,0,.54-.34,1.54,1.54,0,0,0,.4-.65,3,3,0,0,0,.15-1,2.59,2.59,0,0,0-.07-.57,1.62,1.62,0,0,0-.87-1.1,2.15,2.15,0,0,0-1-.2Z" transform="translate(-6.5)"/><path class="cls-4" d="M32.22,47.68A7.36,7.36,0,0,1,32,49.81a5.28,5.28,0,0,1-.67,1.47,3.62,3.62,0,0,1-.93.94,4.74,4.74,0,0,1-1,.52,4.19,4.19,0,0,1-.87.21c-.27,0-.46,0-.59,0H24.08V42.92h3a5.69,5.69,0,0,1,2.23.41A4.5,4.5,0,0,1,31,44.4a4.42,4.42,0,0,1,.95,1.52A5.07,5.07,0,0,1,32.22,47.68ZM27.35,51.8a2.73,2.73,0,0,0,2.41-1.07,5.42,5.42,0,0,0,.74-3.09,5.19,5.19,0,0,0-.15-1.24,2.8,2.8,0,0,0-.58-1.12,3.08,3.08,0,0,0-1.17-.8,5,5,0,0,0-1.92-.31h-.95V51.8Z" transform="translate(-6.5)"/><path class="cls-4" d="M36.27,44.17v3.17h4.21v1.12H36.27V53H34.6V42.92h6.3v1.25Z" transform="translate(-6.5)"/></svg>