<?xml version="1.0" encoding="utf-8"?>
<!-- Generator: Adobe Illustrator 24.0.2, SVG Export Plug-In . SVG Version: 6.00 Build 0)  -->
<svg version="1.1" id="Layer_1" xmlns="http://www.w3.org/2000/svg" xmlns:xlink="http://www.w3.org/1999/xlink" x="0px" y="0px"
	 viewBox="0 0 339 170" style="enable-background:new 0 0 339 170;" xml:space="preserve">
<style type="text/css">
	.st0{clip-path:url(#SVGID_2_);fill:#F5F4FF;}
	.st1{clip-path:url(#SVGID_2_);fill:#F0F7F6;}
	.st2{clip-path:url(#SVGID_2_);fill:none;stroke:#D4CBEF;stroke-miterlimit:10;}
	.st3{clip-path:url(#SVGID_2_);fill:#FFFFFF;}
	.st4{clip-path:url(#SVGID_2_);fill:#333135;}
	.st5{clip-path:url(#SVGID_2_);fill:#77B2AE;}
	.st6{clip-path:url(#SVGID_2_);fill:#689B99;}
	.st7{clip-path:url(#SVGID_2_);fill:#987DCC;}
	.st8{clip-path:url(#SVGID_2_);fill:#6B55A0;}
	.st9{clip-path:url(#SVGID_2_);fill:#DDBB66;}
	.st10{clip-path:url(#SVGID_2_);fill:#EDD674;}
	.st11{opacity:0.2;clip-path:url(#SVGID_2_);}
	.st12{fill:#808080;}
	.st13{clip-path:url(#SVGID_2_);fill:#D4CBEF;}
	.st14{clip-path:url(#SVGID_2_);fill:#E3DEF9;}
	.st15{clip-path:url(#SVGID_2_);fill:#8B7EAA;}
	.st16{clip-path:url(#SVGID_2_);fill:#6E6A72;}
	.st17{opacity:0.15;clip-path:url(#SVGID_2_);}
</style>
<g>
	<defs>
		<rect id="SVGID_1_" width="339" height="170"/>
	</defs>
	<clipPath id="SVGID_2_">
		<use xlink:href="#SVGID_1_"  style="overflow:visible;"/>
	</clipPath>
	<path class="st0" d="M36.5,0C36.5,0,8,23.6,4.1,40.3s7.7,43.8,8.7,56c1,12.2-15,27-12.6,45.1c2.4,18,14.5,28.6,14.5,28.6H339V0
		H36.5z"/>
	<path class="st1" d="M189.5,161.3c7.3-9.1,11.9-20.1,13.2-31.7c1.3-11.6-0.6-23.4-5.6-33.9c-5-10.5-12.9-19.4-22.8-25.7
		c-9.8-6.2-21.2-9.5-32.9-9.5c-11.6,0-23,3.3-32.9,9.5c-9.8,6.2-17.7,15.1-22.8,25.7c-5,10.5-7,22.3-5.6,33.9
		c1.3,11.6,5.9,22.6,13.2,31.7H189.5z"/>
	<path class="st1" d="M239.7,81.1c21.2,0,38.4-17.3,38.4-38.6S260.9,4,239.7,4s-38.4,17.3-38.4,38.6S218.5,81.1,239.7,81.1z"/>
	<path class="st1" d="M275.9,121.5c8.5,0,15.4-6.9,15.4-15.5c0-8.5-6.9-15.5-15.4-15.5s-15.4,6.9-15.4,15.5
		C260.5,114.5,267.4,121.5,275.9,121.5z"/>
	<path class="st1" d="M102.5,55.7c7.2,0,13.1-5.9,13.1-13.1s-5.8-13.1-13.1-13.1c-7.2,0-13.1,5.9-13.1,13.1S95.3,55.7,102.5,55.7z"
		/>
	<path class="st2" d="M271.4,47.6v-10l-4.5-0.6c-0.7-3.5-2.1-6.9-4-9.8l2.8-3.6l-7.1-7.1l-3.5,2.8c-3-2-6.3-3.3-9.8-4.1l-0.6-4.5
		h-10l-0.6,4.5c-3.5,0.7-6.8,2.1-9.8,4.1l-3.5-2.8l-7.1,7.1l2.8,3.6c-2,3-3.3,6.3-4,9.8l-4.4,0.6v10l4.4,0.6
		c0.7,3.5,2.1,6.9,4.1,9.8l-2.8,3.6l7.1,7.1l3.5-2.8c3,2,6.3,3.4,9.8,4.1l0.6,4.5h10l0.6-4.5c3.5-0.7,6.8-2.1,9.8-4.1l3.5,2.8
		l7.1-7.1l-2.8-3.6c2-3,3.3-6.3,4-9.8L271.4,47.6z"/>
	<path class="st2" d="M239.4,66.7c13.3,0,24.1-10.8,24.1-24.2c0-13.4-10.8-24.2-24.1-24.2s-24.1,10.8-24.1,24.2
		C215.3,55.9,226.1,66.7,239.4,66.7z"/>
	<path class="st2" d="M239.4,49.5c3.8,0,7-3.1,7-7c0-3.9-3.1-7-7-7c-3.8,0-7,3.1-7,7C232.4,46.4,235.5,49.5,239.4,49.5z"/>
	<path class="st1" d="M251.2,99.4c-0.3-1.5-0.9-2.9-1.7-4.1l1.2-1.5l-3-3l-1.5,1.2c-1.2-0.8-2.6-1.4-4.1-1.7l-0.2-1.9h-4.2l-0.2,1.9
		c-1.5,0.3-2.9,0.9-4.1,1.7l-1.5-1.2l-3,3l1.2,1.5c-0.8,1.3-1.4,2.7-1.7,4.1l-1.9,0.2v4.2l1.9,0.2c0.3,1.5,0.9,2.9,1.7,4.1l-1.2,1.5
		l3,3l1.5-1.2c1.2,0.8,2.6,1.4,4.1,1.7l0.2,1.9h4.2l0.2-1.9c1.5-0.3,2.9-0.9,4.1-1.7l1.5,1.2l3-3l-1.2-1.5c0.8-1.3,1.4-2.7,1.7-4.1
		l1.9-0.2v-4.2L251.2,99.4z M239.6,111.9c-2,0-4-0.6-5.6-1.7c-1.7-1.1-3-2.7-3.7-4.6c-0.8-1.9-1-3.9-0.6-5.9c0.4-2,1.4-3.8,2.8-5.2
		c1.4-1.4,3.2-2.4,5.2-2.8c2-0.4,4-0.2,5.9,0.6c1.9,0.8,3.4,2.1,4.5,3.7c1.1,1.7,1.7,3.6,1.7,5.7c0,2.7-1.1,5.3-3,7.2
		C244.8,110.8,242.3,111.9,239.6,111.9z"/>
	<path class="st1" d="M239.6,97.2c-0.9,0-1.7,0.3-2.5,0.8c-0.7,0.5-1.3,1.2-1.6,2c-0.3,0.8-0.4,1.7-0.3,2.6c0.2,0.9,0.6,1.7,1.2,2.3
		c0.6,0.6,1.4,1.1,2.3,1.2c0.9,0.2,1.8,0.1,2.6-0.3c0.8-0.3,1.5-0.9,2-1.6c0.5-0.7,0.8-1.6,0.8-2.5c0-1.2-0.5-2.3-1.3-3.2
		C241.9,97.7,240.8,97.2,239.6,97.2z M239.6,105.7c-0.8,0-1.6-0.2-2.2-0.7c-0.7-0.4-1.2-1.1-1.5-1.8c-0.3-0.7-0.4-1.5-0.2-2.3
		c0.2-0.8,0.5-1.5,1.1-2c0.6-0.6,1.3-0.9,2-1.1c0.8-0.2,1.6-0.1,2.3,0.2c0.7,0.3,1.3,0.8,1.8,1.5c0.4,0.7,0.7,1.4,0.7,2.2
		c0,1.1-0.4,2.1-1.2,2.8C241.6,105.3,240.6,105.7,239.6,105.7z"/>
	<path class="st1" d="M239.6,104.6c1.6,0,2.9-1.3,2.9-2.9c0-1.6-1.3-2.9-2.9-2.9c-1.6,0-2.9,1.3-2.9,2.9
		C236.7,103.3,238,104.6,239.6,104.6z"/>
	<path class="st3" d="M286.1,103.9c-0.3-1.3-0.8-2.6-1.5-3.7l1-1.3l-2.6-2.7l-1.3,1c-1.1-0.7-2.4-1.3-3.7-1.5l-0.2-1.7H274l-0.2,1.7
		c-1.3,0.3-2.6,0.8-3.7,1.5l-1.3-1l-2.7,2.7l1,1.3c-0.7,1.1-1.3,2.4-1.5,3.7l-1.7,0.2v3.8l1.7,0.2c0.3,1.3,0.8,2.6,1.5,3.7l-1,1.3
		l2.6,2.6l1.3-1c1.1,0.7,2.4,1.3,3.7,1.5l0.2,1.7h3.7l0.2-1.7c1.3-0.3,2.6-0.8,3.7-1.5l1.3,1l2.6-2.7l-1-1.3
		c0.7-1.1,1.3-2.4,1.5-3.7l1.7-0.2v-3.8L286.1,103.9z M275.7,115c-1.8,0-3.5-0.5-5-1.5c-1.5-1-2.6-2.4-3.3-4.1
		c-0.7-1.7-0.9-3.5-0.5-5.2c0.3-1.8,1.2-3.4,2.5-4.6c1.3-1.3,2.9-2.1,4.6-2.5c1.8-0.4,3.6-0.2,5.2,0.5c1.7,0.7,3.1,1.9,4.1,3.3
		c1,1.5,1.5,3.2,1.5,5c0,1.2-0.2,2.4-0.7,3.5c-0.5,1.1-1.1,2.1-2,2.9c-0.8,0.8-1.8,1.5-2.9,2C278.1,114.8,276.9,115,275.7,115
		L275.7,115z"/>
	<path class="st3" d="M108.6,41.3c-0.2-0.8-0.5-1.5-0.9-2.2l0.6-0.8l-1.6-1.6l-0.8,0.6c-0.7-0.4-1.4-0.8-2.2-0.9l-0.1-1h-2.2l-0.1,1
		c-0.8,0.2-1.5,0.5-2.2,0.9l-0.8-0.6l-1.6,1.6l0.6,0.8c-0.4,0.7-0.7,1.4-0.9,2.2l-1,0.1v2.2l1,0.1c0.2,0.8,0.5,1.5,0.9,2.2l-0.6,0.8
		l1.6,1.6l0.8-0.6c0.7,0.4,1.4,0.8,2.2,0.9l0.1,1h2.2l0.1-1c0.8-0.2,1.5-0.5,2.2-0.9l0.8,0.6l1.6-1.6l-0.6-0.8
		c0.4-0.7,0.8-1.4,0.9-2.2l1-0.1v-2.3L108.6,41.3z M102.5,48c-1.1,0-2.1-0.3-3-0.9c-0.9-0.6-1.6-1.4-2-2.4c-0.4-1-0.5-2.1-0.3-3.1
		c0.2-1,0.7-2,1.5-2.8c0.8-0.8,1.7-1.3,2.8-1.5c1-0.2,2.1-0.1,3.1,0.3c1,0.4,1.8,1.1,2.4,2c0.6,0.9,0.9,1.9,0.9,3
		c0,0.7-0.1,1.4-0.4,2.1c-0.3,0.7-0.7,1.3-1.2,1.8c-0.5,0.5-1.1,0.9-1.7,1.2C103.9,47.8,103.2,48,102.5,48z"/>
	<path class="st4" d="M299,165c-12.2-7.3-58.4-12.6-113.5-12.6S84.2,157.7,72,165H299z"/>
	<path class="st5" d="M138.8,138.1c-0.1-1.9-0.3-3.7-0.5-5.6c-0.2-1.2-1.1-3.4-2.8-2.9c-0.4,0.1-0.6,0.4-0.8,0.7
		c-0.1,0-0.2,0.1-0.3,0.1c-0.2-0.6-0.4-1.1-0.5-1.6c-0.5-1.8-1.1-3.6-1.8-5.4c-0.5-1.1-0.9-2.4-1.7-3.4c-0.3-0.4-0.7-0.7-1.1-0.9
		c-0.4-0.2-0.9-0.3-1.4-0.3c-1,0.1-1.7,0.8-2.3,1.5c-0.1,0.1-0.9,1-0.8,1.2c-1.5-2.5-3.1-5.4-6-6.4c-0.8-0.3-1.7-0.3-2.5,0
		c-1.6,0.6-2,2.4-1.9,3.9c0.2,1.4,0.5,2.7,1,4c0.1,0.3,1.3,3.8,1.4,3.8c-1,0.2-2.3,0-2.9,1.1c-0.8,1.5,0.8,3.4,1.7,4.5
		c0.9,1.1,1.9,2.2,2.9,3.2c1.1,0.9,2.2,1.7,3.2,2.8c-1.1,0.1-2.5,0.5-2.4,1.9c0,1.7,2.4,3.4,3.5,4.2c3.4,2.5,7.3,4.3,11.4,5.2
		c1,0.2,2.1,0.4,3.1,0.6c0.2,0,0.4,0.1,0.5-0.2C138.7,146.1,139,142.1,138.8,138.1z"/>
	<path class="st6" d="M137.6,150.3c0.1,0,0.2,0,0.4,0c-8.4-17.9-17.9-30-22.1-34.9c-1.1,0.8-1.4,2.3-1.2,3.6c0.2,1.4,0.5,2.7,1,4
		c0.1,0.3,1.3,3.9,1.4,3.8c-1,0.2-2.3,0-2.9,1.1c-0.8,1.5,0.8,3.4,1.7,4.5c0.9,1.1,1.9,2.2,2.9,3.2c1.1,0.9,2.2,1.7,3.2,2.8
		c-1.1,0.1-2.5,0.5-2.4,1.9c0,1.7,2.4,3.4,3.5,4.2c3.4,2.5,7.3,4.3,11.4,5.2C135.5,150,136.5,150.1,137.6,150.3z"/>
	<path class="st1" d="M136.2,146.3c-1.6-3.2-3.4-6.4-5.2-9.5c-1.8-3.1-3.8-6.1-5.8-9.1c-2-3-4.2-5.9-6.4-8.7c0,0,0,0,0,0
		c0,0,0,0,0,0c0,0,0,0,0,0c0,0,0,0,0,0c0,0,0,0,0,0c0,0,0,0,0,0c0,0,0,0,0,0c0,0,0,0,0,0c2.2,2.8,4.3,5.8,6.3,8.7c2,3,3.9,6,5.7,9.2
		c1.8,3.1,3.5,6.3,5.1,9.5c0.6,1.3,1.2,2.6,1.8,3.9c0.2,0,0.4,0,0.4-0.2c0,0,0,0,0,0C137.5,148.8,136.9,147.5,136.2,146.3z"/>
	<path class="st5" d="M135.8,144.9c-0.7-1.7-1.5-3.3-2.3-4.9c-0.6-1.1-2.1-2.8-3.5-1.7c-0.3,0.2-0.5,0.5-0.5,0.9
		c-0.1,0.1-0.2,0.1-0.2,0.2c-0.3-0.5-0.7-0.9-1-1.3c-1-1.5-2.2-3-3.4-4.4c-0.8-0.9-1.6-1.9-2.6-2.5c-0.4-0.3-0.8-0.4-1.3-0.5
		c-0.5,0-0.9,0-1.4,0.2c-0.8,0.4-1.3,1.3-1.6,2.2c-0.1,0.2-0.5,1.2-0.3,1.3c-2.2-1.7-4.6-3.9-7.6-3.9c-0.8,0-1.7,0.3-2.3,0.8
		c-1.2,1.1-1.1,2.9-0.4,4.2c0.6,1.2,1.4,2.3,2.2,3.3c0.2,0.3,2.4,3.1,2.6,3c-0.9,0.5-2.1,0.8-2.3,1.9c-0.2,1.7,1.9,2.9,3,3.6
		c1.2,0.8,2.4,1.4,3.7,1.9c1.3,0.4,2.6,0.9,3.8,1.5c-1,0.5-2.1,1.3-1.6,2.5c0.6,1.5,3.3,2.3,4.6,2.7c3.9,1.1,8.1,1.5,12.2,1
		c1-0.1,2-0.3,3-0.5c0.2,0,0.4-0.1,0.4-0.4C138.4,152.3,137.3,148.5,135.8,144.9z"/>
	<path class="st6" d="M138.7,156.5c0.1,0,0.2-0.1,0.3-0.1c-13.5-13.7-26.3-21.6-31.7-24.6c-0.7,1.1-0.5,2.5,0.1,3.7
		c0.6,1.2,1.4,2.3,2.2,3.3c0.2,0.3,2.4,3.1,2.6,3c-0.9,0.5-2.1,0.8-2.3,1.9c-0.2,1.7,1.9,2.9,3,3.6c1.2,0.8,2.4,1.4,3.7,1.9
		c1.3,0.4,2.6,0.9,3.8,1.5c-1,0.5-2.1,1.3-1.6,2.5c0.6,1.5,3.3,2.3,4.6,2.7c3.9,1.1,8.1,1.5,12.2,1
		C136.7,156.9,137.7,156.7,138.7,156.5z"/>
	<path class="st1" d="M136.1,153.3c-2.5-2.4-5.2-4.7-7.9-7c-2.7-2.2-5.5-4.4-8.3-6.4c-2.8-2-5.8-4-8.8-5.8c0,0,0,0,0,0c0,0,0,0,0,0
		c0,0,0,0,0,0c0,0,0,0,0,0c3,1.9,5.8,3.8,8.6,5.9c2.8,2.1,5.6,4.2,8.2,6.5c2.7,2.3,5.3,4.6,7.8,7c1,1,2,1.9,2.9,2.9
		c0.2,0,0.4-0.1,0.3-0.4c0,0,0,0,0,0C138.1,155.2,137.1,154.2,136.1,153.3z"/>
	<path class="st5" d="M134.7,153.1c-0.7-0.8-1.4-1.5-2.1-2.2c-0.5-0.5-1.6-1.1-2.2-0.3c-0.1,0.2-0.2,0.4-0.1,0.6
		c0,0-0.1,0.1-0.1,0.2c-0.3-0.2-0.5-0.4-0.8-0.5c-0.8-0.6-1.7-1.2-2.6-1.7c-0.6-0.4-1.2-0.7-1.9-0.9c-0.3-0.1-0.5-0.1-0.8,0
		c-0.3,0.1-0.5,0.2-0.7,0.4c-0.3,0.4-0.5,0.9-0.4,1.4c0,0.1-0.1,0.7,0.1,0.8c-1.5-0.5-3.2-1.3-4.8-0.7c-0.5,0.1-0.8,0.5-1.1,0.9
		c-0.5,0.8-0.1,1.7,0.6,2.3c0.5,0.5,1.1,1,1.8,1.4c0.2,0.1,1.9,1.2,1.9,1.1c-0.4,0.4-1,0.8-0.9,1.5c0.2,0.9,1.5,1.2,2.3,1.4
		c0.8,0.2,1.6,0.3,2.4,0.3c0.8,0,1.6,0,2.3,0.1c-0.5,0.4-0.9,1.1-0.4,1.7c0.6,0.7,2.2,0.6,3,0.6c2.3-0.1,4.6-0.7,6.7-1.7
		c0.5-0.2,1-0.5,1.5-0.8c0.1-0.1,0.2-0.1,0.1-0.3C137.4,156.6,136.2,154.7,134.7,153.1z"/>
	<path class="st6" d="M138.4,158.8c0.1,0,0.1-0.1,0.1-0.1c-6.8-3.4-14-5.9-21.4-7.4c-0.1,0.4,0,0.7,0.1,1.1c0.1,0.3,0.3,0.7,0.6,0.9
		c0.5,0.5,1.1,1,1.8,1.4c0.2,0.1,1.9,1.2,1.9,1.1c-0.4,0.4-1,0.8-0.9,1.5c0.2,0.9,1.5,1.2,2.3,1.4c0.8,0.2,1.6,0.3,2.4,0.3
		c0.8,0,1.6,0,2.3,0.1c-0.5,0.4-0.9,1.1-0.4,1.7c0.6,0.7,2.2,0.6,3,0.6c2.3-0.1,4.6-0.7,6.7-1.7
		C137.3,159.4,137.8,159.1,138.4,158.8z"/>
	<path class="st1" d="M136.4,157.5c-1.8-0.8-3.6-1.6-5.5-2.3c-1.8-0.7-3.7-1.3-5.6-1.9c-1.9-0.6-3.8-1.1-5.7-1.5c0,0,0,0,0,0
		c0,0,0,0,0,0c0,0,0,0,0,0c0,0,0,0,0,0c0,0,0,0,0,0c0,0,0,0,0,0c1.9,0.5,3.8,1,5.7,1.6c1.9,0.6,3.7,1.3,5.6,2
		c1.8,0.7,3.7,1.5,5.4,2.3c0.7,0.3,1.4,0.7,2.1,1c0.1-0.1,0.2-0.1,0.1-0.2v0C137.8,158.2,137.1,157.8,136.4,157.5z"/>
	<path class="st7" d="M261.9,122.2c-0.2-0.1-0.3-0.1-0.5-0.2c0.1-0.1,0.1-0.2,0.1-0.3s0-0.2,0-0.3c-0.1-0.2-0.2-0.4-0.4-0.5
		c-1-0.5-2.3-0.3-3.3-0.1c-2.5,0.5-4.8,1.8-6.5,3.6c-0.5,0.5-1,1-1.4,1.6c-0.1,0.1-0.1,0.2,0,0.3c0,0,0.1,0,0.1,0
		c1.3,0,2.6,0.1,3.9,0.3c1.2,0.2,2.4,0.6,3.6,0.8c0.8,0.1,1.7,0.1,2.5,0c0.8-0.1,1.6-0.3,2.1-1s0.4-1.9-0.2-2.4
		C262.5,123.5,262.8,122.6,261.9,122.2z"/>
	<path class="st8" d="M259.5,123.5c-3.1-0.2-6.8,0.8-9.7,2.4c-0.4,0.2-0.1,0.8,0.3,0.6c2.7-1.6,6.4-2.6,9.4-2.7
		C259.7,123.8,259.7,123.6,259.5,123.5z"/>
	<path class="st7" d="M254.9,138.4c-0.1-0.1-0.3-0.1-0.5-0.2c0.1-0.1,0.1-0.2,0.2-0.2c0-0.1,0-0.2,0-0.3c-0.1-0.2-0.2-0.4-0.4-0.5
		c-0.9-0.6-2.2-0.5-3.3-0.4c-2.5,0.3-4.9,1.3-6.8,3c-0.6,0.4-1.1,0.9-1.5,1.5c-0.1,0.1-0.1,0.2-0.1,0.3c0,0,0.1,0,0.1,0
		c1.3,0.1,2.6,0.3,3.8,0.7c1.2,0.3,2.3,0.9,3.5,1.1c0.8,0.2,1.7,0.3,2.5,0.2c0.8,0,1.6-0.1,2.2-0.8c0.6-0.7,0.6-1.9,0-2.4
		C255.3,139.8,255.7,138.9,254.9,138.4z"/>
	<path class="st8" d="M252.4,139.5c-3.1-0.5-6.9,0.2-9.8,1.5c-0.4,0.2-0.2,0.8,0.2,0.6c2.8-1.4,6.6-2,9.6-1.8
		C252.5,139.8,252.5,139.5,252.4,139.5z"/>
	<path class="st7" d="M264.4,89.8c-0.1,0-0.3,0-0.4,0.1c0-0.1,0-0.2,0-0.2c0-0.1-0.1-0.1-0.1-0.2c-0.1-0.1-0.3-0.2-0.5-0.2
		c-0.9,0-1.8,0.6-2.5,1.2c-1.7,1.3-2.9,3-3.6,5c-0.2,0.5-0.4,1.1-0.5,1.7c0,0.1,0,0.2,0.1,0.2c0,0,0.1,0,0.1,0
		c0.9-0.5,1.9-0.9,2.9-1.2c1-0.3,2-0.5,3-0.8c0.7-0.3,1.3-0.6,1.8-1c0.5-0.4,1.1-0.8,1.2-1.5c0.1-0.7-0.3-1.5-1-1.6
		C265.3,90.5,265.1,89.8,264.4,89.8z"/>
	<path class="st8" d="M263,91.7c-2.4,1.1-4.7,3.2-6.3,5.4c-0.2,0.3,0.2,0.6,0.4,0.3c1.4-2.2,3.8-4.2,6-5.5
		C263.2,91.8,263.2,91.7,263,91.7z"/>
	<path class="st7" d="M261.2,103.1c-0.1,0-0.2,0-0.3,0c0,0,0-0.1,0-0.1c0,0,0-0.1,0-0.1c-0.1-0.1-0.2-0.1-0.3-0.2
		c-0.6,0-1.2,0.1-1.7,0.4c-1.2,0.6-2.1,1.6-2.7,2.8c-0.2,0.3-0.3,0.7-0.5,1c0,0.1,0,0.1,0,0.2c0,0,0,0,0.1,0c0.6-0.2,1.3-0.4,2-0.5
		c0.6-0.1,1.3-0.1,1.9-0.2c0.4-0.1,0.9-0.2,1.2-0.4c0.4-0.1,0.7-0.4,0.9-0.8c0.1-0.2,0.1-0.4,0-0.6c-0.1-0.2-0.2-0.4-0.4-0.5
		C261.7,103.6,261.7,103.2,261.2,103.1z"/>
	<path class="st8" d="M260.2,104.1c-1.7,0.5-3.2,1.4-4.4,2.7c-0.2,0.2,0.1,0.4,0.2,0.2c1.2-1.3,2.6-2.2,4.3-2.8
		C260.3,104.2,260.3,104.1,260.2,104.1z"/>
	<path class="st7" d="M260,81c-0.1,0-0.1,0-0.2,0.1c0,0,0-0.1,0-0.1c0,0,0-0.1-0.1-0.1c-0.1,0-0.2-0.1-0.3,0
		c-0.5,0.2-0.9,0.4-1.2,0.8c-0.7,0.8-1.2,1.8-1.4,2.9c-0.1,0.3-0.1,0.6-0.1,0.9c0,0,0,0.1,0.1,0.1c0,0,0,0,0.1,0
		c0.4-0.3,0.9-0.7,1.4-0.9c0.5-0.3,1-0.4,1.4-0.7c0.3-0.2,0.6-0.4,0.8-0.7c0.3-0.2,0.4-0.5,0.5-0.9c0-0.2-0.1-0.3-0.2-0.5
		c-0.1-0.1-0.3-0.2-0.4-0.2C260.5,81.3,260.4,80.9,260,81z"/>
	<path class="st8" d="M259.5,82.1c-1.2,0.8-2.1,2-2.7,3.3c0,0,0,0,0,0.1c0,0,0,0,0,0.1s0,0,0,0.1c0,0,0,0,0,0c0,0,0,0,0.1,0
		s0,0,0.1,0s0,0,0,0c0,0,0,0,0-0.1C257.6,84.2,258.5,83.1,259.5,82.1C259.6,82.1,259.6,82,259.5,82.1z"/>
	<path class="st7" d="M258.1,75.1c0,0-0.1,0-0.1,0.1c0,0,0-0.1,0-0.1c0,0,0,0-0.1-0.1c-0.1,0-0.1,0-0.2,0c-0.3,0.1-0.6,0.3-0.8,0.6
		c-0.5,0.6-0.8,1.3-0.9,2c0,0.2,0,0.4,0,0.6c0,0,0,0.1,0,0.1c0,0,0,0,0,0c0.3-0.3,0.6-0.5,0.9-0.7c0.3-0.2,0.7-0.3,1-0.5
		c0.2-0.1,0.4-0.3,0.6-0.5c0.2-0.2,0.3-0.4,0.3-0.6c0-0.1-0.1-0.2-0.1-0.3s-0.2-0.1-0.3-0.1C258.5,75.3,258.4,75,258.1,75.1z"/>
	<path class="st8" d="M257.8,75.9c-0.8,0.6-1.4,1.4-1.8,2.4c0,0,0,0,0,0c0,0,0,0,0,0c0,0,0,0,0,0c0,0,0,0,0,0c0,0,0,0,0,0
		c0,0,0,0,0,0s0,0,0,0c0,0,0,0,0,0C256.5,77.4,257.1,76.6,257.8,75.9C257.8,75.9,257.8,75.8,257.8,75.9z"/>
	<path class="st7" d="M242.5,149.2c-0.1,0-0.1-0.1-0.2-0.1c0,0,0.1-0.1,0.1-0.1c0,0,0-0.1,0-0.1c0-0.1-0.1-0.2-0.2-0.3
		c-0.5-0.3-1.1-0.4-1.7-0.4c-1.3,0-2.6,0.4-3.6,1.2c-0.3,0.2-0.6,0.4-0.8,0.7c0,0-0.1,0.1,0,0.2c0,0,0,0,0.1,0
		c0.7,0.1,1.3,0.3,1.9,0.5c0.6,0.2,1.2,0.5,1.8,0.7c0.4,0.1,0.8,0.2,1.3,0.2c0.2,0,0.4,0,0.6,0c0.2-0.1,0.4-0.1,0.6-0.3
		c0.2-0.2,0.2-0.4,0.3-0.6c0-0.2,0-0.4-0.2-0.6C242.7,149.9,242.9,149.5,242.5,149.2z"/>
	<path class="st8" d="M241.2,149.6c-1.7-0.4-3.5-0.3-5.1,0.3c-0.2,0.1-0.1,0.4,0.1,0.3c1.6-0.6,3.3-0.8,5-0.5
		C241.2,149.8,241.3,149.6,241.2,149.6z"/>
	<path class="st7" d="M244.7,110.4c-0.4,0-0.8,0.2-1.1,0.5c-0.3,0.3-0.5,0.7-0.5,1c0,0.8,0.5,1.5,1,2c0.6,0.6,1.2,1.2,1.9,1.6
		c1,0.7,2.2,1.2,3.2,1.8c1.1,0.7,2.1,1.5,3,2.4c0,0,0.1,0.1,0.1,0.1c0.1,0,0.2-0.1,0.2-0.3c0.1-0.7,0.1-1.4,0-2.1
		c-0.1-2.5-1.1-5-2.8-6.9c-0.7-0.8-1.6-1.7-2.7-1.9c-0.2,0-0.4,0-0.6,0.1c-0.1,0.1-0.1,0.1-0.2,0.2c0,0.1-0.1,0.2,0,0.3
		c-0.1-0.1-0.3-0.1-0.5-0.2C244.9,108.9,244.6,109.7,244.7,110.4z"/>
	<path class="st8" d="M246.9,111.5c2.6,1.8,4.8,4.9,5.8,8.1c0.1,0.4-0.5,0.7-0.6,0.2c-0.8-3-3.1-6.1-5.4-8.1
		C246.7,111.6,246.8,111.5,246.9,111.5z"/>
	<path class="st7" d="M234.6,133.9c-0.4-0.1-0.8-0.1-1.2,0.1c-0.4,0.2-0.6,0.5-0.8,0.9c-0.3,0.8,0.1,1.6,0.4,2.2
		c0.4,0.8,0.8,1.5,1.3,2.1c0.8,1,1.7,1.8,2.5,2.8c0.8,1,1.6,2.1,2.2,3.2c0,0,0,0.1,0.1,0.1c0.1,0,0.2-0.1,0.2-0.2
		c0.3-0.7,0.5-1.3,0.6-2c0.6-2.5,0.4-5.1-0.6-7.4c-0.5-1-1.1-2.1-2-2.7c-0.2-0.1-0.4-0.1-0.6-0.1c-0.1,0-0.2,0.1-0.2,0.1
		c-0.1,0.1-0.1,0.2-0.1,0.2c-0.1-0.1-0.3-0.2-0.4-0.3C235.2,132.6,234.7,133.2,234.6,133.9z"/>
	<path class="st8" d="M236.4,135.7c2,2.5,3.1,6.1,3.1,9.5c0,0.5-0.6,0.5-0.6,0c0.1-3.2-1.1-6.8-2.7-9.3
		C236.1,135.7,236.3,135.5,236.4,135.7z"/>
	<path class="st7" d="M244.5,124c-0.2,0-0.5,0-0.6,0.2c-0.2,0.1-0.3,0.3-0.4,0.5c0,0.4,0.1,0.9,0.4,1.2c0.3,0.4,0.6,0.8,0.9,1.1
		c0.5,0.5,1.1,0.8,1.6,1.3c0.5,0.5,1,1,1.5,1.6c0,0,0,0,0.1,0c0.1,0,0.1-0.1,0.1-0.1c0.1-0.4,0.2-0.8,0.2-1.2c0.1-1.4-0.2-2.8-0.9-4
		c-0.3-0.6-0.8-1-1.3-1.3c-0.1,0-0.2,0-0.3,0c0,0-0.1,0.1-0.1,0.1s0,0.1-0.1,0.1c-0.1-0.1-0.2-0.1-0.2-0.1
		C244.8,123.2,244.5,123.6,244.5,124z"/>
	<path class="st8" d="M245.6,124.8c1.3,1.4,2.2,3.1,2.5,5c0,0.3-0.3,0.3-0.3,0.1c-0.3-1.8-1.1-3.5-2.3-4.9
		C245.5,124.8,245.6,124.7,245.6,124.8z"/>
	<path class="st7" d="M252,84.8c-0.2,0-0.4,0.1-0.6,0.3c-0.2,0.2-0.2,0.4-0.2,0.6c0.1,0.4,0.3,0.8,0.6,1.1c0.3,0.3,0.7,0.6,1.1,0.8
		c0.6,0.3,1.3,0.6,1.9,0.9c0.6,0.3,1.2,0.7,1.8,1.2c0,0,0,0,0.1,0c0.1,0,0.1-0.1,0.1-0.2c0-0.4,0-0.8-0.1-1.2
		c-0.2-1.4-0.8-2.7-1.8-3.7c-0.4-0.5-1-0.8-1.6-1c-0.1,0-0.2,0-0.3,0.1c0,0-0.1,0.1-0.1,0.1s0,0.1,0,0.1c-0.1,0-0.2-0.1-0.3-0.1
		C252.1,83.9,251.9,84.4,252,84.8z"/>
	<path class="st8" d="M253.3,85.3c1.6,1,2.8,2.5,3.5,4.3c0.1,0.2-0.2,0.4-0.3,0.1c-0.7-1.7-1.8-3.2-3.3-4.3
		C253.2,85.4,253.2,85.3,253.3,85.3z"/>
	<path class="st7" d="M252.5,78.1c-0.1,0-0.3,0.1-0.3,0.3c-0.1,0.1-0.1,0.3-0.1,0.4c0,0.1,0.1,0.3,0.2,0.4c0.1,0.1,0.2,0.2,0.3,0.3
		c0.3,0.2,0.5,0.3,0.8,0.4c0.4,0.2,0.9,0.2,1.3,0.4c0.5,0.1,0.9,0.3,1.3,0.6c0,0,0,0,0.1,0c0,0,0-0.1,0-0.1c0-0.3-0.1-0.5-0.2-0.8
		c-0.3-0.9-0.8-1.7-1.6-2.2c-0.3-0.3-0.7-0.4-1.1-0.5c-0.1,0-0.2,0-0.2,0.1c0,0,0,0.1,0,0.1c0,0,0,0.1,0,0.1c-0.1,0-0.1,0-0.2,0
		C252.5,77.6,252.4,77.9,252.5,78.1z"/>
	<path class="st8" d="M253.4,78.3c1.1,0.5,2.1,1.3,2.8,2.3c0,0,0,0,0,0c0,0,0,0,0,0c0,0,0,0,0,0c0,0,0,0,0,0c0,0,0,0,0,0
		c0,0,0,0,0,0c0,0,0,0,0,0c0,0,0,0,0,0C255.3,79.8,254.4,79,253.4,78.3C253.3,78.4,253.4,78.3,253.4,78.3z"/>
	<path class="st7" d="M247.6,94.9c-0.4,0.1-0.8,0.2-1,0.6c-0.3,0.3-0.4,0.7-0.4,1.1c0,0.8,0.7,1.4,1.2,1.9c0.6,0.6,1.3,1.1,2,1.5
		c1.1,0.6,2.3,1,3.4,1.5c1.2,0.6,2.2,1.3,3.3,2.1c0,0,0.1,0.1,0.1,0.1c0.1,0,0.1-0.2,0.1-0.3c0-0.7-0.1-1.4-0.2-2.1
		c-0.3-2.5-1.5-4.8-3.4-6.6c-0.8-0.7-1.8-1.5-2.9-1.7c-0.2,0-0.4,0-0.6,0.2c-0.1,0.1-0.1,0.1-0.2,0.2c0,0.1,0,0.2,0,0.3
		c-0.2-0.1-0.3-0.1-0.5-0.1C247.7,93.4,247.4,94.2,247.6,94.9z"/>
	<path class="st8" d="M249.9,95.8c2.8,1.5,5.2,4.4,6.5,7.5c0.2,0.4-0.4,0.7-0.6,0.3c-1.1-2.9-3.6-5.8-6.1-7.5
		C249.7,95.9,249.8,95.7,249.9,95.8z"/>
	<path class="st8" d="M230.6,154.6c4.9-4.9,9.2-10.5,12.7-16.5c3.6-6.1,6.6-12.5,8.7-19.3c0.6-1.7,1.1-3.4,1.5-5.1
		c0.5-2.1,0.8-3.1,1.2-5.2c0.4-2.1,0.6-3.1,0.9-5.2c0.1-0.9,0.3-1.7,0.4-2.6c0.1-1.1,0.1-1.6,0.2-2.6c0.7-7,0.2-14-0.8-20.9
		c0-0.1,0-0.1,0-0.2s0.1-0.1,0.2-0.1c0,0,0.1,0,0.1,0c0,0,0.1,0,0.1,0c0,0,0,0,0.1,0.1c0,0,0,0.1,0,0.1c1.1,6.9,1.7,13.9,1.1,21
		c-0.1,1.1-0.1,1.6-0.2,2.7c-0.1,0.9-0.2,1.8-0.3,2.6c-0.3,2.1-0.5,3.2-0.8,5.3c-0.4,2.1-0.7,3.2-1.2,5.2c-0.4,1.7-0.9,3.5-1.5,5.2
		c-2.1,6.8-5,13.4-8.6,19.6c-3.6,6.1-7.9,11.8-12.8,16.9c-0.1,0.1-0.1,0.1-0.2,0.2c-0.1,0-0.2,0.1-0.3,0.1s-0.2,0-0.3-0.1
		c-0.1,0-0.2-0.1-0.2-0.2c-0.1-0.1-0.2-0.3-0.2-0.5C230.4,154.9,230.5,154.8,230.6,154.6L230.6,154.6z"/>
	<path class="st7" d="M250.8,131.9c-0.4-0.3-1.2,0-1.4,0.4c-0.2,0.5-0.3,1-0.1,1.5c0.1,0.5,0.3,1,0.5,1.5c0.4,0.7,0.9,1.3,1.3,1.9
		c0.4,0.7,0.8,1.4,1,2.2c0,0,0,0,0,0c0,0,0,0,0,0c0.1,0,0.1,0,0.2-0.1c0.2-0.4,0.4-0.8,0.6-1.2c0.7-1.4,0.9-3,0.7-4.6
		c-0.1-0.7-0.3-1.4-0.8-1.9c-0.1-0.1-0.2-0.1-0.4-0.1c-0.1,0-0.1,0-0.2,0.1c-0.1,0-0.1,0.1-0.1,0.1c-0.1-0.1-0.1-0.2-0.2-0.2
		C251.5,131.1,251,131.4,250.8,131.9z"/>
	<path class="st8" d="M251.6,133.2c0.8,1.8,1,4.2,0.7,6.2c0,0.3-0.4,0.2-0.4,0c0.3-2,0.1-4.1-0.5-6.1
		C251.5,133.1,251.6,133.1,251.6,133.2z"/>
	<path class="st7" d="M243,139.7c-0.3-0.1-0.5-0.1-0.8,0c-0.3,0.1-0.5,0.3-0.6,0.5c-0.1,0.2-0.1,0.5-0.1,0.7c0,0.3,0.1,0.5,0.1,0.7
		c0.2,0.5,0.4,1,0.7,1.4c0.4,0.6,1,1.2,1.4,1.8c0.5,0.7,0.9,1.3,1.2,2.1c0,0,0,0.1,0.1,0.1c0,0,0.1,0,0.2-0.1
		c0.2-0.4,0.4-0.8,0.5-1.2c0.5-1.5,0.6-3.1,0.2-4.6c-0.2-0.7-0.4-1.4-1-1.8c-0.1,0-0.1-0.1-0.2-0.1c-0.1,0-0.1,0-0.2,0
		c-0.1,0-0.1,0-0.2,0.1c0,0-0.1,0.1-0.1,0.1c-0.1-0.1-0.1-0.2-0.2-0.2C243.6,138.8,243.2,139.2,243,139.7z"/>
	<path class="st8" d="M244,140.9c1,1.9,1.4,4,1.3,6.1c0,0.3-0.4,0.3-0.4,0c0.1-2.1-0.2-4.1-1-6C243.8,140.9,243.9,140.8,244,140.9z"
		/>
	<path class="st7" d="M269.2,122.8c-0.1-0.2-0.3-0.3-0.5-0.3c-0.2,0-0.4,0-0.6,0.1c-0.3,0.3-0.6,0.6-0.6,1.1
		c-0.1,0.4-0.2,0.9-0.2,1.3c0,0.6,0.1,1.3,0.2,1.9c0,0.7,0,1.3-0.1,2c0,0,0,0,0,0.1c0,0,0.1,0,0.2,0c0.3-0.2,0.6-0.4,0.9-0.7
		c1-0.8,1.7-1.9,2.1-3.2c0.2-0.5,0.3-1.1,0.1-1.7c0-0.1-0.1-0.2-0.2-0.2c0,0-0.1,0-0.1,0c0,0-0.1,0-0.1,0.1c0-0.1,0-0.2,0-0.2
		C269.9,122.5,269.5,122.6,269.2,122.8z"/>
	<path class="st8" d="M269.3,124.1c-0.1,1.7-0.7,3.4-1.7,4.9c-0.1,0.2-0.4,0-0.3-0.2c1-1.4,1.6-3,1.9-4.7
		C269.2,124,269.3,124,269.3,124.1z"/>
	<path class="st7" d="M262.5,127.7c-0.1-0.1-0.2-0.1-0.4-0.1c-0.1,0-0.3,0-0.4,0.1c-0.2,0.2-0.3,0.5-0.3,0.7c0,0.3,0,0.6,0,0.8
		c0.1,0.4,0.2,0.8,0.3,1.2c0.1,0.4,0.1,0.8,0.2,1.2c0,0,0,0,0,0s0.1,0,0.1,0c0.2-0.2,0.3-0.3,0.5-0.5c0.5-0.6,0.9-1.4,1-2.2
		c0.1-0.4,0-0.7-0.1-1.1c0,0,0-0.1-0.1-0.1c0,0-0.1,0-0.1,0c0,0-0.1,0-0.1,0c0,0-0.1,0-0.1,0c0-0.1,0-0.1-0.1-0.2
		C262.9,127.4,262.7,127.5,262.5,127.7z"/>
	<path class="st8" d="M262.7,128.5c0.1,1.1-0.1,2.2-0.6,3.2c-0.1,0.1-0.3,0.1-0.2-0.1C262.4,130.6,262.7,129.6,262.7,128.5
		C262.6,128.5,262.7,128.4,262.7,128.5z"/>
	<path class="st7" d="M275.7,123.4c0-0.1-0.1-0.2-0.2-0.2c-0.1,0-0.2,0-0.3,0c-0.2,0.1-0.3,0.3-0.4,0.5c-0.1,0.2-0.2,0.4-0.2,0.6
		c-0.1,0.3-0.1,0.7-0.1,1c-0.1,0.3-0.1,0.7-0.2,1c0,0,0,0,0,0c0,0,0.1,0,0.1,0c0.2-0.1,0.3-0.2,0.5-0.2c0.6-0.3,1.1-0.8,1.4-1.4
		c0.2-0.3,0.2-0.6,0.2-0.9c0-0.1,0-0.1-0.1-0.1c0,0,0,0-0.1,0s0,0-0.1,0c0,0,0-0.1,0-0.1C276.1,123.3,275.9,123.3,275.7,123.4z"/>
	<path class="st8" d="M275.6,124.1c-0.2,0.9-0.7,1.7-1.3,2.3c-0.1,0.1-0.2,0-0.1-0.1C274.8,125.6,275.3,124.9,275.6,124.1
		C275.6,124,275.6,124,275.6,124.1z"/>
	<path class="st7" d="M279.7,123.2c0-0.1-0.1-0.1-0.2-0.2c-0.1,0-0.1,0-0.2,0c-0.1,0.1-0.2,0.2-0.3,0.3c-0.1,0.1-0.1,0.3-0.2,0.4
		c-0.1,0.2-0.1,0.5-0.1,0.7c0,0.2-0.1,0.5-0.2,0.7c0,0,0,0,0,0c0,0,0,0,0,0c0,0,0,0,0.1,0c0.1,0,0.2-0.1,0.4-0.2
		c0.4-0.2,0.8-0.6,1-1c0.1-0.2,0.2-0.4,0.2-0.6c0,0,0-0.1-0.1-0.1c0,0,0,0,0,0c0,0,0,0,0,0c0,0,0-0.1,0-0.1
		C279.9,123.2,279.8,123.2,279.7,123.2z"/>
	<path class="st8" d="M279.6,123.7c-0.2,0.6-0.5,1.2-1,1.6c-0.1,0.1-0.1,0-0.1-0.1C279,124.8,279.3,124.3,279.6,123.7
		C279.6,123.7,279.6,123.7,279.6,123.7C279.6,123.7,279.6,123.7,279.6,123.7C279.6,123.7,279.6,123.7,279.6,123.7
		C279.6,123.7,279.6,123.7,279.6,123.7z"/>
	<path class="st7" d="M240,149c-0.1,0-0.3,0-0.4,0s-0.2,0.2-0.3,0.3c0,0.1,0,0.3,0,0.4c0,0.1,0.1,0.3,0.1,0.4
		c0.1,0.3,0.2,0.5,0.4,0.7c0.2,0.3,0.6,0.6,0.8,0.9c0.3,0.3,0.5,0.7,0.7,1c0,0,0,0,0,0c0,0,0.1,0,0.1-0.1c0.1-0.2,0.2-0.4,0.2-0.6
		c0.2-0.8,0.2-1.6-0.1-2.4c-0.1-0.3-0.3-0.7-0.6-0.9c-0.1,0-0.1-0.1-0.2,0c0,0-0.1,0-0.1,0c0,0,0,0,0,0.1c0,0-0.1-0.1-0.1-0.1
		C240.3,148.6,240.1,148.8,240,149z"/>
	<path class="st8" d="M240.6,149.6c0.6,0.9,0.9,2,0.9,3c0,0,0,0,0,0s0,0,0,0c0,0,0,0,0,0c0,0,0,0,0,0s0,0,0,0c0,0,0,0,0,0
		c0,0,0,0,0,0s0,0,0,0C241.3,151.6,241,150.6,240.6,149.6C240.5,149.6,240.6,149.6,240.6,149.6z"/>
	<path class="st7" d="M263,138c-0.1-0.1-0.1-0.2-0.2-0.2c0.1,0,0.1,0,0.1-0.1c0,0,0.1-0.1,0.1-0.1c0-0.1,0-0.3-0.1-0.4
		c-0.4-0.5-1-1-1.7-1.2c-1.5-0.6-3.1-0.6-4.6-0.1c-0.4,0.1-0.8,0.3-1.2,0.5c-0.1,0-0.1,0.1-0.1,0.2c0,0,0,0,0.1,0.1
		c0.7,0.3,1.4,0.8,2.1,1.3c0.6,0.5,1.2,1,1.8,1.5c0.4,0.3,0.9,0.6,1.4,0.7c0.4,0.2,0.9,0.3,1.4,0.2c0.2-0.1,0.4-0.3,0.5-0.5
		c0.1-0.2,0.1-0.5,0-0.7C262.9,138.9,263.3,138.5,263,138z"/>
	<path class="st8" d="M261.3,137.9c-1.8-1.1-3.8-1.7-5.9-1.6c-0.1,0-0.1,0-0.1,0.1c0,0-0.1,0.1-0.1,0.1c0,0.1,0,0.1,0.1,0.1
		c0,0,0.1,0.1,0.1,0.1c2-0.1,4.1,0.4,5.8,1.3C261.3,138.1,261.4,137.9,261.3,137.9z"/>
	<path class="st7" d="M251.3,149c-0.1-0.1-0.2-0.1-0.3-0.2c0,0,0.1-0.1,0.1-0.1c0,0,0-0.1,0-0.2c0-0.1-0.1-0.3-0.2-0.3
		c-0.5-0.4-1.3-0.5-2-0.6c-1.6-0.1-3.1,0.4-4.4,1.3c-0.4,0.2-0.7,0.5-1,0.8c-0.1,0-0.1,0.1-0.1,0.2c0,0,0.1,0,0.1,0
		c0.8,0.1,1.6,0.3,2.4,0.6c0.7,0.2,1.4,0.6,2.1,0.9c0.5,0.2,1,0.3,1.5,0.3c0.5,0.1,1,0,1.4-0.3c0.2-0.2,0.3-0.4,0.3-0.7
		s0-0.5-0.2-0.7C251.5,149.8,251.8,149.3,251.3,149z"/>
	<path class="st8" d="M249.7,149.3c-2-0.6-4.2-0.5-6.2,0.3c-0.3,0.1-0.1,0.5,0.1,0.4c1.9-0.7,4-0.9,6-0.5
		C249.8,149.5,249.8,149.4,249.7,149.3z"/>
	<path class="st7" d="M254.9,141.5c0,0-0.1-0.1-0.1-0.1c0,0,0.1,0,0.1-0.1c0,0,0-0.1,0-0.1c0-0.1,0-0.1-0.1-0.2
		c-0.3-0.3-0.7-0.4-1-0.5c-0.9-0.2-1.8,0-2.5,0.4c-0.2,0.1-0.4,0.2-0.6,0.4c0,0-0.1,0.1-0.1,0.1c0,0,0,0,0,0
		c0.4,0.1,0.8,0.3,1.2,0.5c0.4,0.2,0.7,0.5,1.1,0.7c0.3,0.1,0.5,0.2,0.8,0.3c0.3,0.1,0.5,0.1,0.8,0c0.1-0.1,0.2-0.2,0.2-0.3
		c0-0.1,0-0.3,0-0.4C254.9,142,255.1,141.7,254.9,141.5z"/>
	<path class="st8" d="M254,141.6c-1.1-0.5-2.3-0.6-3.4-0.4c0,0,0,0,0,0c0,0,0,0,0,0c0,0,0,0,0,0c0,0,0,0,0,0c0,0,0,0,0,0
		c0,0,0,0,0,0c0,0,0,0,0,0c0,0,0,0,0,0C251.7,141.2,252.9,141.3,254,141.6C254,141.7,254,141.6,254,141.6z"/>
	<path class="st7" d="M276,128.5c0,0-0.1-0.1-0.1-0.1c0,0,0.1,0,0.1,0c0,0,0,0,0.1-0.1c0-0.1,0-0.1,0-0.2c-0.2-0.3-0.6-0.6-0.9-0.7
		c-0.8-0.4-1.7-0.4-2.5-0.2c-0.2,0-0.5,0.1-0.7,0.2c0,0-0.1,0-0.1,0.1c0,0,0,0,0,0c0.4,0.2,0.8,0.5,1.1,0.8c0.3,0.3,0.6,0.6,0.9,0.9
		c0.2,0.2,0.5,0.3,0.7,0.5c0.2,0.1,0.5,0.2,0.8,0.1c0.1-0.1,0.2-0.2,0.3-0.3c0.1-0.1,0.1-0.3,0-0.4C275.9,129,276.2,128.8,276,128.5
		z"/>
	<path class="st8" d="M275.1,128.4c-0.9-0.7-2.1-1.1-3.2-1.1c0,0-0.1,0-0.1,0c0,0,0,0,0,0.1c0,0,0,0.1,0,0.1c0,0,0,0,0.1,0
		C273,127.5,274.1,127.9,275.1,128.4C275.1,128.5,275.1,128.4,275.1,128.4z"/>
	<path class="st7" d="M279.7,127C279.7,127,279.7,126.9,279.7,127c0-0.1,0-0.1,0-0.1c0,0,0,0,0,0c0,0,0-0.1,0-0.1
		c-0.1-0.2-0.3-0.4-0.5-0.6c-0.5-0.3-1-0.5-1.6-0.4c-0.2,0-0.3,0-0.5,0.1c0,0-0.1,0-0.1,0l0,0c0.2,0.2,0.4,0.4,0.6,0.6
		c0.2,0.2,0.3,0.5,0.5,0.7c0.1,0.2,0.3,0.3,0.4,0.4c0.1,0.1,0.3,0.2,0.5,0.2c0.1,0,0.2-0.1,0.2-0.2c0.1-0.1,0.1-0.2,0.1-0.3
		C279.6,127.3,279.8,127.2,279.7,127z"/>
	<path class="st8" d="M279.1,126.8c-0.5-0.6-1.2-1-2-1.1c-0.1,0-0.1,0.1,0,0.1C277.9,126,278.5,126.3,279.1,126.8
		C279.1,126.9,279.1,126.8,279.1,126.8z"/>
	<path class="st7" d="M271.4,132.9c0-0.1-0.1-0.2-0.2-0.3c0.1,0,0.1,0,0.1-0.1c0,0,0.1-0.1,0.1-0.1c0-0.1,0-0.3,0-0.4
		c-0.4-0.6-0.9-1-1.6-1.3c-1.4-0.7-3-0.9-4.5-0.5c-0.4,0.1-0.9,0.2-1.3,0.4c-0.1,0-0.1,0.1-0.1,0.1c0,0.1,0,0,0.1,0.1
		c0.7,0.4,1.3,0.9,1.9,1.4c0.6,0.5,1.1,1.1,1.6,1.6c0.4,0.3,0.8,0.6,1.3,0.9c0.4,0.3,0.9,0.4,1.4,0.3c0.2-0.1,0.4-0.3,0.5-0.5
		c0.1-0.2,0.1-0.5,0.1-0.7C271.3,133.8,271.7,133.4,271.4,132.9z"/>
	<path class="st8" d="M269.8,132.7c-1.6-1.3-3.7-2.1-5.8-2.1c-0.3,0-0.3,0.4,0,0.4c2,0.1,4,0.7,5.7,1.9
		C269.8,132.9,269.9,132.7,269.8,132.7z"/>
	<path class="st8" d="M240,156.9c1.8-4,4-7.7,6.7-11.1c2.7-3.5,5.8-6.6,9.2-9.3c0.8-0.7,1.7-1.4,2.6-2c1.1-0.8,1.6-1.1,2.7-1.9
		c1.1-0.7,1.7-1,2.8-1.7c0.5-0.3,0.9-0.5,1.4-0.8c0.6-0.3,0.9-0.4,1.5-0.7c3.9-1.9,8-3.2,12.3-4.1c0,0,0.1,0,0.1-0.1
		c0,0,0-0.1,0-0.1c0,0,0,0,0-0.1c0,0,0,0,0,0c0,0,0,0-0.1,0c0,0,0,0-0.1,0c-4.3,0.8-8.4,2.2-12.4,4c-0.6,0.3-0.9,0.4-1.5,0.7
		c-0.5,0.2-1,0.5-1.5,0.8c-1.2,0.6-1.7,1-2.9,1.6c-1.1,0.7-1.7,1.1-2.8,1.8c-0.9,0.6-1.8,1.3-2.7,2c-3.5,2.7-6.7,5.9-9.4,9.4
		c-2.8,3.4-5.1,7.2-7,11.2c0,0.1,0,0.1,0,0.2c0,0.1,0,0.1,0,0.2c0,0.1,0.1,0.1,0.1,0.1c0,0,0.1,0.1,0.1,0.1c0.1,0,0.2,0,0.3,0
		C239.9,157.1,240,157,240,156.9L240,156.9z"/>
	<path class="st7" d="M260.3,146.4c0,0-0.1,0-0.1,0c0,0,0,0,0-0.1s0,0,0-0.1c0,0-0.1-0.1-0.1-0.1c-0.3,0-0.6,0.1-0.8,0.2
		c-0.5,0.3-1,0.8-1.2,1.3c-0.1,0.2-0.2,0.3-0.2,0.5c0,0,0,0.1,0,0.1h0c0.3-0.1,0.6-0.2,0.9-0.2c0.3,0,0.6,0,0.9-0.1
		c0.2,0,0.4-0.1,0.6-0.2c0.1,0,0.2-0.1,0.3-0.2c0.1-0.1,0.1-0.2,0.2-0.2c0-0.1,0-0.2,0-0.3c0-0.1-0.1-0.2-0.2-0.2
		C260.6,146.6,260.6,146.4,260.3,146.4z"/>
	<path class="st8" d="M259.9,146.9c-0.8,0.2-1.5,0.7-2,1.3c-0.1,0.1,0,0.2,0.1,0.1C258.5,147.6,259.2,147.2,259.9,146.9
		C259.9,146.9,259.9,146.8,259.9,146.9z"/>
	<path class="st7" d="M259.9,150.6c0,0-0.1,0-0.1,0c0,0,0,0,0-0.1c0,0,0,0,0-0.1c0,0-0.1-0.1-0.1-0.1c-0.3,0-0.5,0-0.8,0.1
		c-0.6,0.2-1,0.7-1.4,1.2c-0.1,0.1-0.2,0.3-0.3,0.4c0,0,0,0.1,0,0.1h0c0.3-0.1,0.6-0.1,0.9-0.1c0.3,0,0.6,0,0.9,0
		c0.2,0,0.4-0.1,0.6-0.1c0.1,0,0.2-0.1,0.3-0.1c0.1-0.1,0.1-0.1,0.2-0.2c0-0.1,0-0.2,0-0.3c0-0.1-0.1-0.2-0.2-0.2
		C260.1,150.9,260.1,150.7,259.9,150.6z"/>
	<path class="st8" d="M259.4,151.1c-0.8,0.1-1.5,0.5-2.1,1.1c-0.1,0.1,0,0.2,0.1,0.1C257.9,151.7,258.6,151.3,259.4,151.1
		C259.4,151.1,259.4,151,259.4,151.1z"/>
	<path class="st7" d="M258.6,138.8C258.6,138.8,258.5,138.8,258.6,138.8c-0.1,0-0.1,0-0.1,0c0,0,0,0,0,0c0,0,0,0-0.1,0s0,0-0.1,0
		c-0.2,0.1-0.4,0.3-0.5,0.4c-0.3,0.4-0.4,0.9-0.5,1.4c0,0.1,0,0.3,0,0.4c0,0,0,0.1,0,0c0,0,0,0,0,0c0.2-0.2,0.4-0.3,0.6-0.5
		c0.2-0.1,0.4-0.3,0.6-0.4c0.1-0.1,0.3-0.2,0.4-0.4c0.1-0.1,0.2-0.3,0.2-0.4c0-0.2-0.2-0.3-0.3-0.3
		C258.9,138.9,258.8,138.7,258.6,138.8z"/>
	<path class="st8" d="M258.4,139.3c-0.5,0.5-0.9,1-1.1,1.7c0,0.1,0.1,0.1,0.1,0C257.7,140.4,258,139.8,258.4,139.3
		C258.5,139.3,258.5,139.3,258.4,139.3z"/>
	<path class="st7" d="M258.8,142L258.8,142C258.8,142,258.8,142,258.8,142C258.8,142,258.8,142,258.8,142c-0.1-0.1-0.1-0.1-0.2-0.1
		c-0.1,0-0.3,0.1-0.4,0.2c-0.2,0.2-0.4,0.5-0.4,0.8c0,0.1,0,0.2,0,0.3c0,0,0,0,0,0c0.1-0.1,0.3-0.2,0.4-0.2c0.1-0.1,0.3-0.1,0.4-0.2
		c0.1,0,0.2-0.1,0.3-0.2c0.1-0.1,0.1-0.2,0.2-0.3c0-0.1,0-0.1,0-0.1c0,0-0.1-0.1-0.1-0.1C259,142.1,258.9,142,258.8,142z"/>
	<path class="st8" d="M258.7,142.3c-0.4,0.2-0.6,0.6-0.8,0.9c0,0,0,0,0,0c0,0,0,0,0,0s0,0,0,0c0,0,0,0,0,0c0,0,0,0,0,0c0,0,0,0,0,0
		c0,0,0,0,0,0c0,0,0,0,0,0C258.1,142.9,258.4,142.6,258.7,142.3C258.7,142.4,258.7,142.3,258.7,142.3z"/>
	<path class="st7" d="M257,137.1L257,137.1C256.9,137.1,256.9,137.1,257,137.1C256.9,137.1,256.9,137.1,257,137.1
		c-0.1,0-0.1,0-0.1,0c-0.1,0.1-0.2,0.2-0.2,0.3c-0.1,0.2-0.1,0.5-0.1,0.8c0,0.1,0,0.1,0,0.2c0,0,0,0,0,0c0.1-0.1,0.2-0.2,0.3-0.3
		c0.1-0.1,0.2-0.2,0.3-0.3c0.1-0.1,0.1-0.1,0.1-0.2c0-0.1,0.1-0.2,0-0.2c0,0,0-0.1-0.1-0.1c0,0-0.1,0-0.1,0
		C257.1,137.1,257.1,137,257,137.1z"/>
	<path class="st8" d="M256.9,137.3c-0.2,0.3-0.4,0.6-0.4,1c0,0,0.1,0.1,0.1,0C256.6,137.9,256.8,137.6,256.9,137.3
		C256.9,137.3,256.9,137.3,256.9,137.3z"/>
	<path class="st7" d="M256.1,135.8L256.1,135.8C256.1,135.8,256.1,135.8,256.1,135.8C256.1,135.8,256.1,135.8,256.1,135.8
		C256,135.8,256,135.8,256.1,135.8C256,135.8,256,135.8,256.1,135.8c-0.2,0-0.2,0.1-0.2,0.2c-0.1,0.2-0.1,0.4-0.1,0.5
		c0,0.1,0,0.1,0,0.1c0-0.1,0.1-0.2,0.2-0.2c0.1-0.1,0.1-0.1,0.2-0.2c0,0,0.1-0.1,0.1-0.2c0-0.1,0-0.1,0-0.2c0,0,0-0.1-0.1-0.1
		C256.2,135.9,256.2,135.9,256.1,135.8C256.2,135.8,256.2,135.8,256.1,135.8z"/>
	<path class="st8" d="M256.1,136c-0.1,0.2-0.2,0.4-0.2,0.7c0,0,0,0,0,0c0,0,0,0,0,0c0,0,0,0,0,0c0,0,0,0,0,0c0,0,0,0,0,0
		c0,0,0,0,0,0c0,0,0,0,0,0c0,0,0,0,0,0C255.9,136.5,256,136.2,256.1,136C256.1,136,256.1,136,256.1,136z"/>
	<path class="st7" d="M257.8,154C257.8,154,257.8,154,257.8,154C257.8,154,257.8,154,257.8,154C257.8,153.9,257.8,153.9,257.8,154
		c-0.1-0.1-0.1-0.1-0.1-0.1c-0.1,0-0.3,0-0.4,0c-0.3,0.1-0.6,0.3-0.7,0.5c-0.1,0.1-0.1,0.1-0.1,0.2c0,0,0,0,0,0c0.2,0,0.3,0,0.5,0
		c0.2,0,0.3,0,0.5,0c0.1,0,0.2,0,0.3,0c0.1,0,0.2-0.1,0.2-0.2c0,0,0-0.1,0-0.2c0-0.1,0-0.1-0.1-0.1C257.9,154.1,257.9,154,257.8,154
		z"/>
	<path class="st8" d="M257.5,154.2c-0.4,0-0.8,0.2-1.1,0.4c0,0,0,0.1,0,0.1C256.8,154.4,257.1,154.3,257.5,154.2
		C257.6,154.2,257.6,154.2,257.5,154.2z"/>
	<path class="st7" d="M255.5,144.9c-0.1,0-0.2,0.1-0.2,0.2c0,0.1-0.1,0.2,0,0.3c0,0.1,0.1,0.2,0.2,0.2c0.1,0.1,0.1,0.1,0.2,0.2
		c0.2,0.1,0.4,0.2,0.6,0.2c0.3,0.1,0.6,0.1,0.9,0.2c0.3,0.1,0.6,0.2,0.9,0.3h0c0,0,0,0,0-0.1c0-0.2-0.1-0.3-0.1-0.5
		c-0.2-0.6-0.6-1.1-1.1-1.4c-0.2-0.2-0.5-0.2-0.8-0.2c-0.1,0-0.1,0-0.1,0.1c0,0,0,0,0,0.1s0,0,0,0.1c0,0-0.1,0-0.1,0
		C255.5,144.6,255.5,144.8,255.5,144.9z"/>
	<path class="st8" d="M256.1,145c0.8,0.3,1.4,0.8,1.9,1.4c0.1,0.1-0.1,0.2-0.1,0.1C257.5,145.9,256.8,145.4,256.1,145
		C256.1,145,256.1,145,256.1,145z"/>
	<path class="st7" d="M254.9,151c-0.1,0-0.2,0-0.3,0.1c-0.1,0.1-0.1,0.2-0.1,0.3c0,0.2,0.1,0.4,0.2,0.5c0.1,0.1,0.3,0.3,0.5,0.4
		c0.2,0.2,0.5,0.3,0.8,0.4c0.3,0.2,0.5,0.4,0.7,0.6c0,0,0,0,0,0c0,0,0,0,0-0.1c0-0.2,0-0.3,0-0.5c0-0.6-0.3-1.2-0.7-1.7
		c-0.2-0.2-0.4-0.4-0.7-0.5c-0.1,0-0.1,0-0.1,0c0,0,0,0,0,0c0,0,0,0,0,0.1c0,0-0.1,0-0.1,0C254.9,150.7,254.9,150.9,254.9,151z"/>
	<path class="st8" d="M255.4,151.3c0.7,0.5,1.1,1.2,1.4,2c0,0,0,0,0,0c0,0,0,0,0,0s0,0,0,0c0,0,0,0,0,0c0,0,0,0,0,0c0,0,0,0,0,0
		c0,0,0,0,0,0c0,0,0,0,0,0C256.4,152.6,256,151.9,255.4,151.3C255.4,151.3,255.4,151.3,255.4,151.3z"/>
	<path class="st7" d="M256.5,148c-0.1,0-0.1,0-0.1,0.1c0,0,0,0.1,0,0.2c0,0.1,0,0.1,0.1,0.1c0,0,0.1,0.1,0.1,0.1
		c0.1,0.1,0.2,0.1,0.3,0.2c0.2,0.1,0.3,0.1,0.5,0.2c0.2,0.1,0.3,0.2,0.5,0.3c0,0,0,0,0,0c0-0.1,0-0.2,0-0.3
		c-0.1-0.3-0.2-0.6-0.5-0.9c-0.1-0.1-0.2-0.2-0.4-0.2c0,0-0.1,0-0.1,0c0,0,0,0,0,0c0,0,0,0,0,0h-0.1
		C256.5,147.8,256.4,147.9,256.5,148z"/>
	<path class="st8" d="M256.8,148.1c0.4,0.2,0.7,0.6,0.9,1c0,0.1,0,0.1-0.1,0C257.4,148.8,257.1,148.4,256.8,148.1
		C256.7,148.2,256.8,148.1,256.8,148.1z"/>
	<path class="st7" d="M255.4,138.5c-0.1,0-0.1,0.1-0.1,0.1c0,0.1,0,0.1,0,0.2c0,0.1,0.1,0.2,0.2,0.2c0.1,0,0.2,0.1,0.3,0.1
		c0.2,0,0.3,0,0.5,0.1c0.2,0,0.3,0.1,0.5,0.1h0c0,0,0,0,0,0c0-0.1-0.1-0.2-0.1-0.3c-0.1-0.3-0.4-0.6-0.7-0.7
		c-0.1-0.1-0.3-0.1-0.4-0.1c0,0-0.1,0-0.1,0c0,0,0,0,0,0s0,0,0,0h-0.1C255.4,138.3,255.4,138.4,255.4,138.5z"/>
	<path class="st8" d="M255.7,138.5c0.4,0.1,0.8,0.4,1.1,0.7c0,0,0,0.1-0.1,0.1C256.5,139,256.1,138.7,255.7,138.5
		C255.7,138.6,255.7,138.5,255.7,138.5z"/>
	<path class="st7" d="M255,136.9C255,136.9,255,137,255,136.9c-0.1,0.1-0.1,0.2-0.1,0.2c0,0.1,0.1,0.1,0.2,0.1c0.1,0,0.1,0,0.2,0
		c0.1,0,0.2,0,0.3,0c0.1,0,0.2,0,0.3,0c0,0,0,0,0,0c0-0.1-0.1-0.1-0.1-0.2c-0.1-0.2-0.3-0.3-0.5-0.4c-0.1,0-0.2-0.1-0.3,0
		c0,0,0,0,0,0c0,0,0,0,0,0c0,0,0,0,0,0h0C255,136.8,255,136.9,255,136.9z"/>
	<path class="st8" d="M255.3,136.9c0.3,0,0.6,0.1,0.8,0.3c0,0,0,0.1,0,0C255.8,137.1,255.5,137,255.3,136.9
		C255.2,136.9,255.2,136.9,255.3,136.9z"/>
	<path class="st7" d="M255.1,141.1c-0.1,0-0.2,0.1-0.2,0.2c0,0.1,0,0.2,0,0.3c0.1,0.2,0.2,0.3,0.4,0.4c0.2,0.1,0.4,0.1,0.6,0.2
		c0.3,0.1,0.6,0.1,0.9,0.1c0.3,0.1,0.6,0.1,0.9,0.3c0,0,0,0,0,0c0,0,0,0,0-0.1c-0.1-0.2-0.1-0.3-0.2-0.5c-0.3-0.6-0.7-1-1.2-1.3
		c-0.2-0.1-0.5-0.2-0.8-0.2c0,0-0.1,0-0.1,0.1c0,0,0,0,0,0.1c0,0,0,0,0,0.1c0,0-0.1,0-0.1,0C255,140.8,255,141,255.1,141.1z"/>
	<path class="st8" d="M255.7,141.2c0.8,0.2,1.5,0.6,2,1.3c0.1,0.1,0,0.2-0.1,0.1C257.1,141.9,256.4,141.5,255.7,141.2
		C255.7,141.2,255.7,141.2,255.7,141.2z"/>
	<path class="st8" d="M255.5,156.1c0.8-1.5,1.4-3.1,1.8-4.7c0.4-1.7,0.6-3.4,0.6-5.1c0-0.4,0-0.9,0-1.3c0-0.5,0-0.8-0.1-1.3
		s-0.1-0.8-0.2-1.3c0-0.2-0.1-0.4-0.1-0.6l-0.1-0.6c-0.4-1.6-0.9-3.2-1.7-4.7c0,0,0,0,0,0c0,0,0,0,0,0c0,0,0,0,0,0c0,0,0,0,0,0
		c0,0,0,0,0,0c0,0,0,0,0,0c0.8,1.5,1.4,3.1,1.7,4.8c0.1,0.3,0.1,0.4,0.1,0.6c0.1,0.3,0.1,0.4,0.1,0.6c0.1,0.5,0.1,0.8,0.2,1.3
		c0.1,0.5,0.1,0.8,0.1,1.3c0,0.4,0,0.9,0,1.3c0,1.7-0.2,3.5-0.6,5.1c-0.4,1.7-1,3.3-1.7,4.8c0,0,0,0,0,0.1c0,0,0,0-0.1,0
		c0,0,0,0-0.1,0c0,0,0,0-0.1,0c0,0-0.1-0.1-0.1-0.1C255.4,156.2,255.4,156.1,255.5,156.1L255.5,156.1z"/>
	<path class="st7" d="M259.2,148.7c-0.1,0-0.2,0-0.2,0.1s-0.1,0.1-0.1,0.2c0,0.1,0,0.1,0,0.2c0,0.1,0.1,0.1,0.1,0.2
		c0.1,0.1,0.2,0.2,0.3,0.3c0.2,0.1,0.4,0.2,0.6,0.3c0.2,0.1,0.4,0.3,0.5,0.4c0,0,0,0,0,0c0,0,0,0,0,0c0,0,0,0,0,0c0-0.1,0-0.3,0-0.4
		c0-0.5-0.2-0.9-0.4-1.3c-0.1-0.2-0.3-0.3-0.4-0.4c0,0-0.1,0-0.1,0c0,0,0,0,0,0c0,0,0,0,0,0.1l-0.1,0
		C259.3,148.5,259.2,148.6,259.2,148.7z"/>
	<path class="st8" d="M259.6,149c0.5,0.4,0.8,0.9,1,1.5c0,0.1-0.1,0.1-0.1,0C260.3,149.9,260,149.4,259.6,149
		C259.6,149,259.6,148.9,259.6,149z"/>
	<path class="st7" d="M258.3,151.7c-0.1,0-0.1,0.1-0.2,0.1c-0.1,0.1-0.1,0.1-0.1,0.2c0,0.1,0,0.1,0.1,0.2c0,0.1,0.1,0.1,0.1,0.2
		c0.1,0.1,0.2,0.2,0.4,0.3c0.2,0.1,0.4,0.2,0.6,0.3c0.2,0.1,0.4,0.2,0.6,0.4h0c0,0,0,0,0,0c0-0.1,0-0.3,0-0.4
		c-0.1-0.5-0.2-0.9-0.5-1.2c-0.1-0.2-0.3-0.3-0.5-0.3c0,0,0,0-0.1,0c0,0,0,0-0.1,0c0,0,0,0,0,0c0,0,0,0,0,0.1c0,0-0.1,0-0.1,0
		C258.3,151.4,258.2,151.6,258.3,151.7z"/>
	<path class="st8" d="M258.7,151.9c0.5,0.4,0.9,0.8,1.1,1.4c0,0.1-0.1,0.1-0.1,0.1C259.4,152.8,259.1,152.3,258.7,151.9
		C258.6,152,258.6,151.9,258.7,151.9z"/>
	<path class="st7" d="M262.8,144c-0.1,0-0.1,0-0.2,0c-0.1,0-0.1,0.1-0.1,0.1c-0.1,0.1-0.1,0.2,0,0.4c0,0.1,0.1,0.2,0.1,0.4
		c0.1,0.2,0.2,0.3,0.3,0.5c0.1,0.2,0.2,0.3,0.2,0.5c0,0,0,0,0,0c0-0.1,0.1-0.2,0.1-0.3c0.2-0.3,0.2-0.7,0.1-1.1
		c0-0.2-0.1-0.3-0.2-0.5c0,0,0,0,0,0c0,0,0,0,0,0c0,0,0,0,0,0c0,0,0,0,0,0c0,0,0,0,0-0.1C263,143.9,262.8,143.9,262.8,144z"/>
	<path class="st8" d="M263,144.4c0.2,0.5,0.2,1,0.2,1.5c0,0.1-0.1,0.1-0.1,0C263.2,145.4,263.1,144.9,263,144.4
		C263,144.4,263,144.3,263,144.4z"/>
	<path class="st7" d="M261.7,146.1c0,0-0.1,0-0.1,0c0,0-0.1,0-0.1,0.1c0,0.1,0,0.1,0,0.2c0,0.1,0.1,0.1,0.1,0.2
		c0.1,0.1,0.2,0.2,0.2,0.3c0.1,0.1,0.1,0.2,0.2,0.3c0,0,0,0,0,0c0-0.1,0-0.1,0.1-0.2c0.1-0.2,0.1-0.5,0-0.7c0-0.1-0.1-0.2-0.2-0.3
		c0,0,0,0-0.1,0c0,0,0,0,0,0c0,0,0,0,0,0l0,0C261.8,146,261.7,146.1,261.7,146.1z"/>
	<path class="st8" d="M261.9,146.3c0.2,0.3,0.3,0.6,0.3,0.9c0,0-0.1,0-0.1,0C262.1,146.9,262,146.6,261.9,146.3
		C261.9,146.3,261.9,146.3,261.9,146.3z"/>
	<path class="st7" d="M264.5,143.4C264.5,143.3,264.5,143.3,264.5,143.4c-0.1,0-0.1,0-0.2,0c0,0.1-0.1,0.1,0,0.2c0,0.1,0,0.1,0,0.2
		c0,0.1,0.1,0.2,0.1,0.3c0,0.1,0.1,0.2,0.1,0.3c0,0,0,0,0,0c0,0,0.1-0.1,0.1-0.1c0.1-0.2,0.2-0.3,0.2-0.5c0-0.1,0-0.2-0.1-0.2
		c0,0,0,0,0,0c0,0,0,0,0,0c0,0,0,0,0,0v0C264.6,143.3,264.6,143.3,264.5,143.4z"/>
	<path class="st8" d="M264.6,143.5c0.1,0.3,0,0.5,0,0.8c0,0-0.1,0,0,0C264.6,144.1,264.6,143.8,264.6,143.5
		C264.6,143.5,264.6,143.5,264.6,143.5z"/>
	<path class="st7" d="M265.5,142.8C265.5,142.8,265.5,142.8,265.5,142.8c-0.1,0-0.1,0-0.1,0c0,0,0,0.1,0,0.1c0,0,0,0.1,0,0.1
		c0,0.1,0,0.1,0.1,0.2c0,0.1,0,0.1,0,0.2c0,0,0.1-0.1,0.1-0.1c0.1-0.1,0.1-0.3,0.1-0.4c0-0.1,0-0.1,0-0.2
		C265.7,142.8,265.6,142.8,265.5,142.8C265.6,142.8,265.6,142.8,265.5,142.8C265.6,142.8,265.6,142.8,265.5,142.8L265.5,142.8
		C265.6,142.8,265.6,142.8,265.5,142.8z"/>
	<path class="st8" d="M265.6,142.9c0,0.2,0,0.4-0.1,0.5c0,0,0,0,0,0C265.6,143.3,265.6,143.1,265.6,142.9
		C265.6,142.9,265.6,142.9,265.6,142.9z"/>
	<path class="st7" d="M258.7,154.5C258.7,154.5,258.6,154.6,258.7,154.5c-0.1,0.1-0.1,0.1-0.1,0.2c0,0,0,0.1,0,0.1
		c0,0,0,0.1,0.1,0.1c0.1,0.1,0.1,0.1,0.2,0.1c0.1,0,0.2,0.1,0.3,0.1c0.1,0,0.2,0.1,0.3,0.2c0,0,0,0,0,0c0-0.1,0-0.1,0-0.2
		c0-0.2-0.2-0.4-0.3-0.6c-0.1-0.1-0.2-0.1-0.3-0.1c0,0,0,0-0.1,0c0,0,0,0,0,0c0,0,0,0,0,0h0C258.7,154.4,258.7,154.5,258.7,154.5z"
		/>
	<path class="st8" d="M258.9,154.6c0.3,0.2,0.5,0.4,0.6,0.7c0,0,0,0,0,0c0,0,0,0,0,0c0,0,0,0,0,0c0,0,0,0,0,0
		C259.3,155,259.1,154.8,258.9,154.6C258.9,154.6,258.9,154.6,258.9,154.6z"/>
	<path class="st7" d="M263.2,148.7C263.1,148.7,263.1,148.7,263.2,148.7C263.1,148.7,263.1,148.7,263.2,148.7c0-0.1,0-0.1-0.1-0.1
		c0,0,0-0.1-0.1-0.1c-0.2-0.1-0.4-0.1-0.6-0.1c-0.4,0-0.9,0.2-1.2,0.6c-0.1,0.1-0.2,0.2-0.3,0.3c0,0,0,0,0,0.1h0
		c0.2,0,0.5,0,0.7,0.1c0.2,0,0.4,0.1,0.6,0.2c0.1,0,0.3,0,0.4,0c0.1,0,0.3,0,0.4-0.1c0-0.1,0.1-0.1,0.1-0.2c0-0.1,0-0.1-0.1-0.2
		C263.3,149,263.3,148.8,263.2,148.7z"/>
	<path class="st8" d="M262.7,148.9c-0.6-0.1-1.2,0.1-1.7,0.4c-0.1,0,0,0.1,0,0.1C261.6,149.1,262.1,148.9,262.7,148.9
		C262.8,149,262.8,148.9,262.7,148.9z"/>
	<path class="st7" d="M261.6,153.1C261.5,153.1,261.5,153.1,261.6,153.1C261.5,153,261.5,153,261.6,153.1
		C261.5,153,261.5,153,261.6,153.1c-0.1-0.1-0.1-0.1-0.2-0.2c-0.2,0-0.4,0-0.6,0.1c-0.4,0.2-0.8,0.5-1,0.9c-0.1,0.1-0.1,0.2-0.2,0.3
		c0,0,0,0,0,0.1c0,0,0,0,0,0s0,0,0,0c0.2-0.1,0.4-0.1,0.7-0.2c0.2,0,0.4,0,0.7-0.1c0.1,0,0.3-0.1,0.4-0.1c0.1,0,0.3-0.1,0.3-0.2
		c0-0.1,0-0.1,0-0.2c0-0.1-0.1-0.1-0.1-0.2C261.7,153.3,261.7,153.1,261.6,153.1z"/>
	<path class="st8" d="M261.2,153.4c-0.6,0.1-1.1,0.4-1.5,0.9c-0.1,0.1,0,0.1,0.1,0.1C260.2,153.9,260.7,153.6,261.2,153.4
		C261.3,153.4,261.2,153.4,261.2,153.4z"/>
	<path class="st7" d="M261.5,150.7L261.5,150.7C261.5,150.7,261.5,150.7,261.5,150.7C261.5,150.6,261.5,150.6,261.5,150.7
		C261.5,150.6,261.5,150.6,261.5,150.7c-0.2-0.1-0.3-0.1-0.4-0.1c-0.2,0.1-0.5,0.2-0.6,0.4c0,0.1-0.1,0.1-0.1,0.2c0,0,0,0,0,0
		c0.1,0,0.3,0,0.4,0c0.1,0,0.2,0,0.4,0c0.1,0,0.2,0,0.2,0c0.1,0,0.1-0.1,0.2-0.1c0,0,0-0.1,0-0.1c0,0,0-0.1-0.1-0.1
		C261.6,150.8,261.6,150.7,261.5,150.7z"/>
	<path class="st8" d="M261.3,150.8c-0.3,0-0.7,0.1-0.9,0.4c0,0,0,0.1,0,0C260.7,151,261,150.9,261.3,150.8
		C261.3,150.8,261.3,150.8,261.3,150.8z"/>
	<path class="st7" d="M265.3,144.6L265.3,144.6C265.2,144.6,265.2,144.6,265.3,144.6C265.3,144.6,265.3,144.6,265.3,144.6
		c0-0.1,0-0.1-0.1-0.1c-0.1-0.1-0.2-0.1-0.3-0.1c-0.3,0-0.5,0.1-0.7,0.3c-0.1,0-0.1,0.1-0.2,0.1c0,0,0,0,0,0c0.1,0,0.3,0,0.4,0.1
		c0.1,0,0.2,0.1,0.4,0.1c0.1,0,0.2,0,0.2,0c0.1,0,0.2,0,0.2-0.1c0,0,0-0.1,0-0.1c0,0,0-0.1,0-0.1
		C265.3,144.8,265.4,144.7,265.3,144.6z"/>
	<path class="st8" d="M265,144.7c-0.3-0.1-0.7,0-1,0.1c0,0,0,0.1,0,0.1C264.4,144.8,264.7,144.7,265,144.7L265,144.7z"/>
	<path class="st7" d="M266,143.8L266,143.8C266,143.7,266,143.7,266,143.8C266,143.7,266,143.7,266,143.8
		C266,143.7,266,143.7,266,143.8c-0.1-0.1-0.2-0.2-0.2-0.2c-0.2,0-0.3,0-0.5,0.1c0,0-0.1,0-0.1,0.1v0c0.1,0,0.2,0.1,0.2,0.1
		c0.1,0,0.1,0.1,0.2,0.1c0.1,0,0.1,0,0.2,0c0,0,0,0,0.1,0c0,0,0,0,0.1,0c0,0,0,0,0-0.1c0,0,0-0.1,0-0.1
		C266,143.8,266.1,143.8,266,143.8z"/>
	<path class="st8" d="M265.9,143.8c-0.2-0.1-0.4-0.1-0.6,0c0,0,0,0,0,0C265.4,143.7,265.6,143.7,265.9,143.8
		C265.8,143.8,265.9,143.8,265.9,143.8z"/>
	<path class="st7" d="M264.7,146.3L264.7,146.3C264.6,146.3,264.6,146.3,264.7,146.3c0-0.1,0-0.1,0-0.1c0,0,0-0.1-0.1-0.1
		c-0.2-0.1-0.4-0.1-0.6-0.1c-0.4,0-0.9,0.2-1.2,0.5c-0.1,0.1-0.2,0.2-0.3,0.3c0,0,0,0,0,0.1c0,0,0,0,0,0c0.2,0,0.5,0.1,0.7,0.1
		c0.2,0.1,0.4,0.2,0.6,0.2c0.1,0,0.3,0.1,0.4,0.1c0.1,0,0.3,0,0.4-0.1c0-0.1,0.1-0.1,0.1-0.2c0-0.1,0-0.1-0.1-0.2
		C264.7,146.6,264.8,146.4,264.7,146.3z"/>
	<path class="st8" d="M264.2,146.5c-0.6-0.1-1.2-0.1-1.7,0.2c0,0,0,0,0,0c0,0,0,0,0,0c0,0,0,0,0,0c0,0,0,0,0,0c0,0,0,0,0,0s0,0,0,0
		c0,0,0,0,0,0c0,0,0,0,0,0C263,146.5,263.6,146.5,264.2,146.5C264.2,146.5,264.2,146.5,264.2,146.5z"/>
	<path class="st8" d="M259.7,156.5c-0.1-1.2,0.1-2.5,0.3-3.7c0.3-1.2,0.6-2.4,1.2-3.6c0.1-0.3,0.3-0.6,0.4-0.8
		c0.2-0.3,0.3-0.5,0.5-0.8c0.2-0.3,0.3-0.5,0.5-0.8c0.1-0.1,0.2-0.3,0.3-0.4c0.1-0.1,0.2-0.2,0.3-0.4c0.8-1,1.6-1.9,2.6-2.6
		c0,0,0,0,0,0c0,0,0,0,0,0c0,0,0,0,0,0c0,0,0,0,0,0c0,0,0,0,0,0c0,0,0,0,0,0c-1,0.8-1.9,1.6-2.7,2.6c-0.1,0.2-0.2,0.2-0.3,0.4
		s-0.2,0.3-0.3,0.4c-0.2,0.3-0.3,0.5-0.5,0.8c-0.2,0.3-0.3,0.5-0.5,0.8c-0.2,0.3-0.3,0.6-0.4,0.9c-0.5,1.2-0.9,2.4-1.2,3.6
		c-0.3,1.2-0.4,2.5-0.4,3.8c0,0,0,0,0,0c0,0,0,0,0,0c0,0,0,0,0,0c0,0,0,0,0,0c0,0,0,0,0,0C259.6,156.7,259.6,156.6,259.7,156.5
		C259.7,156.6,259.7,156.6,259.7,156.5C259.7,156.6,259.7,156.6,259.7,156.5L259.7,156.5z"/>
	<path class="st9" d="M230,29.4h-89c-2.3,0-4.2,1.9-4.2,4.2v122.1c0,2.3,1.9,4.2,4.2,4.2h89c2.3,0,4.2-1.9,4.2-4.2V33.7
		C234.2,31.3,232.3,29.4,230,29.4z"/>
	<path class="st10" d="M230,29.8c1,0,2,0.4,2.7,1.1c0.7,0.7,1.1,1.7,1.1,2.7v122.1c0,1-0.4,2-1.1,2.7c-0.7,0.7-1.7,1.1-2.7,1.1h-89
		c-1,0-2-0.4-2.7-1.1c-0.7-0.7-1.1-1.7-1.1-2.7V33.7c0-1,0.4-2,1.1-2.7c0.7-0.7,1.7-1.1,2.7-1.1H230z"/>
	<path class="st3" d="M228.7,33.9h-86.5v121.6h86.5V33.9z"/>
	<g class="st11">
		<path class="st12" d="M199.2,29.4h-27.5l0.3,0.6c0.6,1.3-0.3,2.7-1.8,2.7h-5.2c-0.3,0-0.7,0.1-1,0.2c-0.3,0.2-0.5,0.4-0.7,0.7
			L162,36c-0.2,0.3-0.2,0.6-0.2,1c0.1,0.5,0.4,1,0.8,1.3c0.4,0.3,0.9,0.5,1.4,0.5h43c0.5,0,1-0.2,1.4-0.5s0.7-0.8,0.8-1.3
			c0-0.3,0-0.7-0.2-1l-1.4-2.4c-0.2-0.3-0.4-0.5-0.7-0.7s-0.6-0.2-1-0.2h-5.2c-1.5,0-2.4-1.4-1.8-2.7L199.2,29.4z"/>
	</g>
	<path class="st13" d="M205.4,32.1h-5.1c-0.3,0-0.7-0.1-1-0.2c-0.3-0.2-0.5-0.4-0.7-0.7c-0.2-0.3-0.3-0.6-0.3-0.9s0-0.7,0.1-1
		l1.1-2.6c0.2-0.4,0.2-0.9,0.1-1.3l-4.4-15.6c-0.1-0.4-0.4-0.8-0.7-1.1c-0.4-0.3-0.8-0.4-1.2-0.4h-15.6c-0.4,0-0.9,0.1-1.2,0.4
		c-0.4,0.3-0.6,0.6-0.7,1.1l-4.3,15.6c-0.1,0.4-0.1,0.9,0.1,1.3l1.1,2.6c0.1,0.3,0.2,0.6,0.1,1c0,0.3-0.1,0.7-0.3,0.9
		c-0.2,0.3-0.4,0.5-0.7,0.7c-0.3,0.2-0.6,0.2-1,0.2h-5.1c-0.3,0-0.7,0.1-1,0.3c-0.3,0.2-0.6,0.4-0.7,0.7l-1.6,2.6
		c-0.2,0.3-0.3,0.7-0.3,1.1c0,0.5,0.2,1,0.6,1.4c0.4,0.4,0.9,0.6,1.4,0.6h43c0.3,0,0.5,0,0.8-0.2c0.2-0.1,0.5-0.2,0.7-0.4
		c0.2-0.2,0.3-0.4,0.4-0.7c0.1-0.2,0.2-0.5,0.2-0.8c0-0.4-0.1-0.7-0.3-1.1l-1.6-2.6c-0.2-0.3-0.4-0.6-0.7-0.7
		C206.1,32.2,205.8,32.1,205.4,32.1z"/>
	<path class="st14" d="M193.3,8.6c0.4,0,0.7,0.1,1,0.4c0.3,0.2,0.5,0.6,0.6,0.9l4.4,15.6c0.1,0.4,0.1,0.8-0.1,1.1l-1.1,2.6
		c-0.1,0.4-0.2,0.7-0.2,1.1c0,0.4,0.2,0.7,0.4,1.1c0.2,0.3,0.5,0.6,0.8,0.8c0.3,0.2,0.7,0.3,1.1,0.3h5.1c0.3,0,0.6,0.1,0.8,0.2
		c0.3,0.1,0.5,0.4,0.6,0.6l1.6,2.6c0.2,0.3,0.2,0.6,0.3,0.9c0,0.3-0.1,0.6-0.2,0.9s-0.4,0.5-0.6,0.6c-0.3,0.2-0.6,0.2-0.9,0.2h-43
		c-0.3,0-0.6-0.1-0.9-0.2c-0.3-0.2-0.5-0.4-0.6-0.6c-0.2-0.3-0.2-0.6-0.2-0.9c0-0.3,0.1-0.6,0.3-0.9l1.6-2.6
		c0.2-0.3,0.4-0.5,0.6-0.6c0.3-0.1,0.6-0.2,0.8-0.2h5.1c0.4,0,0.8-0.1,1.1-0.3c0.3-0.2,0.6-0.4,0.8-0.8s0.3-0.7,0.4-1.1
		c0-0.4,0-0.8-0.2-1.1l-1.1-2.6c-0.1-0.4-0.2-0.8-0.1-1.1L176,9.9c0.1-0.4,0.3-0.7,0.6-0.9c0.3-0.2,0.7-0.4,1-0.4L193.3,8.6
		L193.3,8.6z M193.3,8.3h-15.6c-0.4,0-0.9,0.1-1.2,0.4c-0.4,0.3-0.6,0.6-0.7,1.1l-4.3,15.6c-0.1,0.4-0.1,0.9,0.1,1.3l1.1,2.6
		c0.1,0.3,0.2,0.6,0.1,1c0,0.3-0.1,0.7-0.3,0.9c-0.2,0.3-0.4,0.5-0.7,0.7c-0.3,0.2-0.6,0.2-1,0.2h-5.1c-0.3,0-0.7,0.1-1,0.3
		c-0.3,0.2-0.6,0.4-0.7,0.7l-1.6,2.6c-0.2,0.3-0.3,0.7-0.3,1c0,0.4,0.1,0.7,0.3,1c0.2,0.3,0.4,0.6,0.7,0.8c0.3,0.2,0.7,0.3,1,0.3h43
		c0.4,0,0.7-0.1,1-0.3c0.3-0.2,0.6-0.4,0.7-0.8c0.2-0.3,0.3-0.7,0.3-1c0-0.4-0.1-0.7-0.3-1l-1.6-2.6c-0.2-0.3-0.4-0.5-0.7-0.7
		c-0.3-0.2-0.6-0.3-1-0.3h-5.1c-0.3,0-0.7-0.1-1-0.2c-0.3-0.2-0.5-0.4-0.7-0.7c-0.2-0.3-0.3-0.6-0.3-0.9c0-0.3,0-0.7,0.1-1l1.1-2.6
		c0.2-0.4,0.2-0.9,0.1-1.3l-4.4-15.6c-0.1-0.4-0.4-0.8-0.7-1.1C194.2,8.5,193.7,8.3,193.3,8.3L193.3,8.3z"/>
	<path class="st15" d="M209,36.8c0-0.2,0-0.4-0.1-0.6H162c-0.1,0.2-0.1,0.4-0.1,0.6c0,0.5,0.2,1,0.6,1.4c0.4,0.4,0.9,0.6,1.4,0.6h43
		c0.3,0,0.5,0,0.8-0.2c0.2-0.1,0.5-0.2,0.7-0.4c0.2-0.2,0.3-0.4,0.4-0.7C209,37.3,209,37,209,36.8z"/>
	<path class="st15" d="M195,23.7h-19l-0.2,0.8h19.3L195,23.7z"/>
	<path class="st15" d="M194.2,19.9h-17.5l-0.1,0.7h17.7L194.2,19.9z"/>
	<path class="st15" d="M193.6,16.6h-16.1l-0.1,0.6h16.4L193.6,16.6z"/>
	<path class="st14" d="M185.5,15.4c1.5,0,2.7-1.2,2.7-2.7c0-1.5-1.2-2.7-2.7-2.7s-2.7,1.2-2.7,2.7C182.8,14.2,184,15.4,185.5,15.4z"
		/>
	<path class="st3" d="M185.5,15.2c1.4,0,2.5-1.1,2.5-2.5c0-1.4-1.1-2.5-2.5-2.5s-2.5,1.1-2.5,2.5C183,14,184.1,15.2,185.5,15.2z"/>
	<path class="st16" d="M221.4,80.4h-30c-0.1,0-0.3,0-0.4,0.1c-0.1,0.1-0.3,0.1-0.4,0.2c-0.1,0.1-0.2,0.2-0.2,0.4
		c-0.1,0.1-0.1,0.3-0.1,0.4c0,0.2,0,0.3,0.1,0.4c0.1,0.1,0.1,0.3,0.2,0.4c0.1,0.1,0.2,0.2,0.4,0.2c0.1,0.1,0.3,0.1,0.4,0.1h30
		c0.1,0,0.3,0,0.4-0.1c0.1-0.1,0.3-0.1,0.4-0.2c0.1-0.1,0.2-0.2,0.2-0.4c0.1-0.1,0.1-0.3,0.1-0.4c0-0.3-0.1-0.6-0.3-0.8
		C222,80.5,221.7,80.4,221.4,80.4z"/>
	<path class="st16" d="M187.7,80.4h-38c-0.2,0-0.3,0-0.4,0.1s-0.3,0.1-0.4,0.2c-0.1,0.1-0.2,0.2-0.2,0.4c-0.1,0.1-0.1,0.3-0.1,0.4
		c0,0.2,0,0.3,0.1,0.4c0.1,0.1,0.1,0.3,0.2,0.4c0.1,0.1,0.2,0.2,0.4,0.2c0.1,0.1,0.3,0.1,0.4,0.1h38c0.2,0,0.3,0,0.4-0.1
		c0.1-0.1,0.3-0.1,0.4-0.2c0.1-0.1,0.2-0.2,0.2-0.4c0.1-0.1,0.1-0.3,0.1-0.4c0-0.2,0-0.3-0.1-0.4c-0.1-0.1-0.1-0.3-0.2-0.4
		c-0.1-0.1-0.2-0.2-0.4-0.2S187.8,80.4,187.7,80.4z"/>
	<path class="st16" d="M159.9,85.3h-10.3c-0.3,0-0.6,0.1-0.8,0.3c-0.2,0.2-0.3,0.5-0.3,0.8c0,0.2,0,0.3,0.1,0.4
		c0.1,0.1,0.1,0.3,0.2,0.4c0.1,0.1,0.2,0.2,0.4,0.2s0.3,0.1,0.4,0.1h10.3c0.3,0,0.6-0.1,0.8-0.3c0.2-0.2,0.3-0.5,0.3-0.8
		c0-0.2,0-0.3-0.1-0.4c-0.1-0.1-0.1-0.3-0.2-0.4c-0.1-0.1-0.2-0.2-0.4-0.2C160.2,85.3,160.1,85.3,159.9,85.3z"/>
	<path class="st16" d="M196.2,85.3h-31.9c-0.1,0-0.3,0-0.4,0.1c-0.1,0.1-0.3,0.1-0.4,0.2c-0.1,0.1-0.2,0.2-0.2,0.4
		c-0.1,0.1-0.1,0.3-0.1,0.4c0,0.3,0.1,0.6,0.3,0.8c0.2,0.2,0.5,0.3,0.8,0.3h31.9c0.3,0,0.6-0.1,0.8-0.3c0.2-0.2,0.3-0.5,0.3-0.8
		c0-0.2,0-0.3-0.1-0.4c-0.1-0.1-0.1-0.3-0.2-0.4c-0.1-0.1-0.2-0.2-0.4-0.2C196.5,85.3,196.3,85.3,196.2,85.3z"/>
	<path class="st16" d="M221.4,85.3h-21c-0.1,0-0.3,0-0.4,0.1c-0.1,0.1-0.3,0.1-0.4,0.2c-0.1,0.1-0.2,0.2-0.2,0.4
		c-0.1,0.1-0.1,0.3-0.1,0.4c0,0.3,0.1,0.6,0.3,0.8c0.2,0.2,0.5,0.3,0.8,0.3h21c0.3,0,0.6-0.1,0.8-0.3c0.2-0.2,0.3-0.5,0.3-0.8
		c0-0.2,0-0.3-0.1-0.4c-0.1-0.1-0.1-0.3-0.2-0.4c-0.1-0.1-0.2-0.2-0.4-0.2C221.7,85.3,221.5,85.3,221.4,85.3z"/>
	<path class="st16" d="M171.3,90.2h-21.7c-0.3,0-0.6,0.1-0.8,0.3c-0.2,0.2-0.3,0.5-0.3,0.8c0,0.2,0,0.3,0.1,0.4
		c0.1,0.1,0.1,0.3,0.2,0.4c0.1,0.1,0.2,0.2,0.4,0.2c0.1,0.1,0.3,0.1,0.4,0.1h21.7c0.1,0,0.3,0,0.4-0.1c0.1-0.1,0.3-0.1,0.4-0.2
		c0.1-0.1,0.2-0.2,0.2-0.4c0.1-0.1,0.1-0.3,0.1-0.4c0-0.3-0.1-0.6-0.3-0.8C171.9,90.3,171.6,90.2,171.3,90.2z"/>
	<path class="st16" d="M185.2,90.2h-9.7c-0.1,0-0.3,0-0.4,0.1c-0.1,0.1-0.3,0.1-0.4,0.2c-0.1,0.1-0.2,0.2-0.2,0.4
		c-0.1,0.1-0.1,0.3-0.1,0.4c0,0.3,0.1,0.6,0.3,0.8s0.5,0.3,0.8,0.3h9.7c0.1,0,0.3,0,0.4-0.1c0.1-0.1,0.3-0.1,0.4-0.2
		c0.1-0.1,0.2-0.2,0.2-0.4c0.1-0.1,0.1-0.3,0.1-0.4c0-0.3-0.1-0.6-0.3-0.8C185.8,90.3,185.5,90.2,185.2,90.2z"/>
	<path class="st16" d="M210.8,90.2h-21.3c-0.3,0-0.6,0.1-0.8,0.3c-0.2,0.2-0.3,0.5-0.3,0.8c0,0.2,0,0.3,0.1,0.4
		c0.1,0.1,0.1,0.3,0.2,0.4c0.1,0.1,0.2,0.2,0.4,0.2c0.1,0.1,0.3,0.1,0.4,0.1h21.3c0.2,0,0.3,0,0.4-0.1c0.1-0.1,0.3-0.1,0.4-0.2
		c0.1-0.1,0.2-0.2,0.2-0.4c0.1-0.1,0.1-0.3,0.1-0.4c0-0.2,0-0.3-0.1-0.4c-0.1-0.1-0.1-0.3-0.2-0.4c-0.1-0.1-0.2-0.2-0.4-0.2
		C211.1,90.3,210.9,90.2,210.8,90.2z"/>
	<path class="st16" d="M221.4,90.2H215c-0.1,0-0.3,0-0.4,0.1c-0.1,0.1-0.3,0.1-0.4,0.2c-0.1,0.1-0.2,0.2-0.2,0.4
		c-0.1,0.1-0.1,0.3-0.1,0.4c0,0.2,0,0.3,0.1,0.4c0.1,0.1,0.1,0.3,0.2,0.4c0.1,0.1,0.2,0.2,0.4,0.2c0.1,0.1,0.3,0.1,0.4,0.1h6.4
		c0.1,0,0.3,0,0.4-0.1c0.1-0.1,0.3-0.1,0.4-0.2c0.1-0.1,0.2-0.2,0.2-0.4c0.1-0.1,0.1-0.3,0.1-0.4c0-0.2,0-0.3-0.1-0.4
		c-0.1-0.1-0.1-0.3-0.2-0.4c-0.1-0.1-0.2-0.2-0.4-0.2C221.7,90.3,221.5,90.2,221.4,90.2z"/>
	<path class="st16" d="M160.9,95.2h-11.3c-0.2,0-0.3,0-0.4,0.1c-0.1,0.1-0.3,0.1-0.4,0.2c-0.1,0.1-0.2,0.2-0.2,0.4
		c-0.1,0.1-0.1,0.3-0.1,0.4c0,0.3,0.1,0.6,0.3,0.8c0.2,0.2,0.5,0.3,0.8,0.3h11.3c0.1,0,0.3,0,0.4-0.1c0.1-0.1,0.3-0.1,0.4-0.2
		c0.1-0.1,0.2-0.2,0.2-0.4c0.1-0.1,0.1-0.3,0.1-0.4c0-0.3-0.1-0.6-0.3-0.8C161.5,95.3,161.2,95.2,160.9,95.2z"/>
	<path class="st16" d="M172.7,95.2h-8.1c-0.3,0-0.6,0.1-0.8,0.3c-0.2,0.2-0.3,0.5-0.3,0.8c0,0.2,0,0.3,0.1,0.4
		c0.1,0.1,0.1,0.3,0.2,0.4c0.1,0.1,0.2,0.2,0.4,0.2s0.3,0.1,0.4,0.1h8.1c0.1,0,0.3,0,0.4-0.1s0.3-0.1,0.4-0.2
		c0.1-0.1,0.2-0.2,0.2-0.4c0.1-0.1,0.1-0.3,0.1-0.4c0-0.3-0.1-0.6-0.3-0.8C173.3,95.3,173,95.2,172.7,95.2z"/>
	<path class="st16" d="M178.9,95.2h-2.3c-0.3,0-0.6,0.1-0.8,0.3c-0.2,0.2-0.3,0.5-0.3,0.8c0,0.2,0,0.3,0.1,0.4
		c0.1,0.1,0.1,0.3,0.2,0.4c0.1,0.1,0.2,0.2,0.4,0.2s0.3,0.1,0.4,0.1h2.3c0.3,0,0.6-0.1,0.8-0.3c0.2-0.2,0.3-0.5,0.3-0.8
		c0-0.2,0-0.3-0.1-0.4c-0.1-0.1-0.1-0.3-0.2-0.4c-0.1-0.1-0.2-0.2-0.4-0.2C179.2,95.2,179,95.2,178.9,95.2z"/>
	<path class="st4" d="M191.1,47.4h-39.5c-0.8,0-1.7,0.3-2.3,0.9c-0.6,0.6-0.9,1.4-0.9,2.3c0,0.8,0.3,1.7,0.9,2.3s1.4,0.9,2.3,0.9
		h39.5c0.8,0,1.7-0.3,2.3-0.9s0.9-1.4,0.9-2.3c0-0.8-0.3-1.7-0.9-2.3C192.8,47.8,192,47.4,191.1,47.4z"/>
	<path class="st4" d="M219.3,47.4h-18.8c-0.8,0-1.7,0.3-2.2,0.9c-0.6,0.6-0.9,1.4-0.9,2.3c0,0.4,0.1,0.8,0.2,1.2
		c0.2,0.4,0.4,0.7,0.7,1c0.3,0.3,0.6,0.5,1,0.7c0.4,0.2,0.8,0.2,1.2,0.2h18.8c0.4,0,0.8-0.1,1.2-0.2c0.4-0.2,0.7-0.4,1-0.7
		c0.3-0.3,0.5-0.6,0.7-1c0.2-0.4,0.2-0.8,0.2-1.2c0-0.4-0.1-0.8-0.2-1.2c-0.2-0.4-0.4-0.7-0.7-1c-0.3-0.3-0.6-0.5-1-0.7
		C220.2,47.5,219.8,47.4,219.3,47.4z"/>
	<path class="st4" d="M170.5,74.5h-20.4c-0.2,0-0.4,0-0.6,0.1c-0.2,0.1-0.4,0.2-0.5,0.4c-0.2,0.2-0.3,0.3-0.4,0.5
		c-0.1,0.2-0.1,0.4-0.1,0.6c0,0.4,0.2,0.9,0.5,1.2s0.7,0.5,1.2,0.5h20.4c0.4,0,0.9-0.2,1.2-0.5c0.3-0.3,0.5-0.7,0.5-1.2
		c0-0.4-0.2-0.9-0.5-1.2C171.3,74.7,170.9,74.5,170.5,74.5z"/>
	<path class="st4" d="M185,74.5h-9.7c-0.4,0-0.9,0.2-1.2,0.5c-0.3,0.3-0.5,0.7-0.5,1.2c0,0.4,0.2,0.9,0.5,1.2
		c0.3,0.3,0.7,0.5,1.2,0.5h9.7c0.4,0,0.9-0.2,1.2-0.5s0.5-0.7,0.5-1.2c0-0.4-0.2-0.9-0.5-1.2C185.9,74.7,185.5,74.5,185,74.5z"/>
	<path class="st16" d="M221.4,111.1h-30c-0.3,0-0.6,0.1-0.8,0.3c-0.2,0.2-0.3,0.5-0.3,0.8c0,0.2,0,0.3,0.1,0.4
		c0.1,0.1,0.1,0.3,0.2,0.4c0.1,0.1,0.2,0.2,0.4,0.2c0.1,0.1,0.3,0.1,0.4,0.1h30c0.3,0,0.6-0.1,0.8-0.3c0.2-0.2,0.3-0.5,0.3-0.8
		c0-0.2,0-0.3-0.1-0.4c-0.1-0.1-0.1-0.3-0.2-0.4c-0.1-0.1-0.2-0.2-0.4-0.2C221.7,111.1,221.5,111.1,221.4,111.1z"/>
	<path class="st16" d="M187.7,111.1h-38c-0.3,0-0.6,0.1-0.8,0.3c-0.2,0.2-0.3,0.5-0.3,0.8c0,0.1,0,0.3,0.1,0.4
		c0.1,0.1,0.1,0.3,0.2,0.4c0.1,0.1,0.2,0.2,0.4,0.2c0.1,0.1,0.3,0.1,0.4,0.1h38c0.2,0,0.3,0,0.4-0.1c0.1-0.1,0.3-0.1,0.4-0.2
		c0.1-0.1,0.2-0.2,0.2-0.4c0.1-0.1,0.1-0.3,0.1-0.4c0-0.3-0.1-0.6-0.3-0.8C188.3,111.2,188,111.1,187.7,111.1z"/>
	<path class="st16" d="M159.9,116h-10.3c-0.2,0-0.3,0-0.4,0.1c-0.1,0.1-0.3,0.1-0.4,0.2c-0.1,0.1-0.2,0.2-0.2,0.4
		c-0.1,0.1-0.1,0.3-0.1,0.4c0,0.3,0.1,0.6,0.3,0.8c0.2,0.2,0.5,0.3,0.8,0.3h10.3c0.1,0,0.3,0,0.4-0.1c0.1-0.1,0.3-0.1,0.4-0.2
		s0.2-0.2,0.2-0.4c0.1-0.1,0.1-0.3,0.1-0.4c0-0.3-0.1-0.6-0.3-0.8C160.5,116.1,160.2,116,159.9,116z"/>
	<path class="st16" d="M196.2,116h-31.9c-0.3,0-0.6,0.1-0.8,0.3c-0.2,0.2-0.3,0.5-0.3,0.8c0,0.2,0,0.3,0.1,0.4
		c0.1,0.1,0.1,0.3,0.2,0.4c0.1,0.1,0.2,0.2,0.4,0.2c0.1,0.1,0.3,0.1,0.4,0.1h31.9c0.1,0,0.3,0,0.4-0.1c0.1-0.1,0.3-0.1,0.4-0.2
		c0.1-0.1,0.2-0.2,0.2-0.4c0.1-0.1,0.1-0.3,0.1-0.4c0-0.3-0.1-0.6-0.3-0.8C196.8,116.1,196.5,116,196.2,116z"/>
	<path class="st16" d="M221.4,116h-21c-0.3,0-0.6,0.1-0.8,0.3c-0.2,0.2-0.3,0.5-0.3,0.8c0,0.2,0,0.3,0.1,0.4
		c0.1,0.1,0.1,0.3,0.2,0.4s0.2,0.2,0.4,0.2c0.1,0.1,0.3,0.1,0.4,0.1h21c0.1,0,0.3,0,0.4-0.1c0.1-0.1,0.3-0.1,0.4-0.2
		c0.1-0.1,0.2-0.2,0.2-0.4c0.1-0.1,0.1-0.3,0.1-0.4c0-0.3-0.1-0.6-0.3-0.8C222,116.1,221.7,116,221.4,116z"/>
	<path class="st16" d="M171.3,120.9h-21.7c-0.2,0-0.3,0-0.4,0.1s-0.3,0.1-0.4,0.2c-0.1,0.1-0.2,0.2-0.2,0.4
		c-0.1,0.1-0.1,0.3-0.1,0.4c0,0.3,0.1,0.6,0.3,0.8c0.2,0.2,0.5,0.3,0.8,0.3h21.7c0.3,0,0.6-0.1,0.8-0.3c0.2-0.2,0.3-0.5,0.3-0.8
		c0-0.2,0-0.3-0.1-0.4c-0.1-0.1-0.1-0.3-0.2-0.4c-0.1-0.1-0.2-0.2-0.4-0.2S171.5,120.9,171.3,120.9z"/>
	<path class="st16" d="M185.2,120.9h-9.7c-0.3,0-0.6,0.1-0.8,0.3c-0.2,0.2-0.3,0.5-0.3,0.8c0,0.2,0,0.3,0.1,0.4
		c0.1,0.1,0.1,0.3,0.2,0.4c0.1,0.1,0.2,0.2,0.4,0.2s0.3,0.1,0.4,0.1h9.7c0.3,0,0.6-0.1,0.8-0.3c0.2-0.2,0.3-0.5,0.3-0.8
		c0-0.2,0-0.3-0.1-0.4c-0.1-0.1-0.1-0.3-0.2-0.4c-0.1-0.1-0.2-0.2-0.4-0.2S185.3,120.9,185.2,120.9z"/>
	<path class="st16" d="M210.8,120.9h-21.3c-0.1,0-0.3,0-0.4,0.1s-0.3,0.1-0.4,0.2c-0.1,0.1-0.2,0.2-0.2,0.4
		c-0.1,0.1-0.1,0.3-0.1,0.4c0,0.3,0.1,0.6,0.3,0.8c0.2,0.2,0.5,0.3,0.8,0.3h21.3c0.2,0,0.3,0,0.4-0.1c0.1-0.1,0.3-0.1,0.4-0.2
		c0.1-0.1,0.2-0.2,0.2-0.4c0.1-0.1,0.1-0.3,0.1-0.4c0-0.3-0.1-0.6-0.3-0.8C211.4,121.1,211.1,120.9,210.8,120.9z"/>
	<path class="st16" d="M221.4,120.9H215c-0.3,0-0.6,0.1-0.8,0.3c-0.2,0.2-0.3,0.5-0.3,0.8c0,0.2,0,0.3,0.1,0.4
		c0.1,0.1,0.1,0.3,0.2,0.4c0.1,0.1,0.2,0.2,0.4,0.2c0.1,0.1,0.3,0.1,0.4,0.1h6.4c0.1,0,0.3,0,0.4-0.1s0.3-0.1,0.4-0.2
		c0.1-0.1,0.2-0.2,0.2-0.4c0.1-0.1,0.1-0.3,0.1-0.4c0-0.3-0.1-0.6-0.3-0.8C222,121.1,221.7,120.9,221.4,120.9z"/>
	<path class="st16" d="M160.9,125.9h-11.3c-0.2,0-0.3,0-0.4,0.1c-0.1,0.1-0.3,0.1-0.4,0.2c-0.1,0.1-0.2,0.2-0.2,0.4
		c-0.1,0.1-0.1,0.3-0.1,0.4c0,0.2,0,0.3,0.1,0.4c0.1,0.1,0.1,0.3,0.2,0.4c0.1,0.1,0.2,0.2,0.4,0.2c0.1,0.1,0.3,0.1,0.4,0.1h11.3
		c0.3,0,0.6-0.1,0.8-0.3c0.2-0.2,0.3-0.5,0.3-0.8c0-0.3-0.1-0.6-0.3-0.8C161.5,126,161.2,125.9,160.9,125.9z"/>
	<path class="st16" d="M172.7,125.9h-8.1c-0.3,0-0.6,0.1-0.8,0.3c-0.2,0.2-0.3,0.5-0.3,0.8c0,0.3,0.1,0.6,0.3,0.8s0.5,0.3,0.8,0.3
		h8.1c0.3,0,0.6-0.1,0.8-0.3s0.3-0.5,0.3-0.8c0-0.3-0.1-0.6-0.3-0.8C173.3,126,173,125.9,172.7,125.9z"/>
	<path class="st16" d="M178.9,125.9h-2.3c-0.3,0-0.6,0.1-0.8,0.3c-0.2,0.2-0.3,0.5-0.3,0.8c0,0.3,0.1,0.6,0.3,0.8
		c0.2,0.2,0.5,0.3,0.8,0.3h2.3c0.1,0,0.3,0,0.4-0.1c0.1-0.1,0.3-0.1,0.4-0.2c0.1-0.1,0.2-0.2,0.2-0.4c0.1-0.1,0.1-0.3,0.1-0.4
		c0-0.2,0-0.3-0.1-0.4c-0.1-0.1-0.1-0.3-0.2-0.4c-0.1-0.1-0.2-0.2-0.4-0.2C179.2,125.9,179,125.9,178.9,125.9z"/>
	<path class="st4" d="M170.5,105.2h-20.4c-0.2,0-0.4,0-0.6,0.1c-0.2,0.1-0.4,0.2-0.5,0.4c-0.2,0.2-0.3,0.3-0.4,0.5
		c-0.1,0.2-0.1,0.4-0.1,0.6c0,0.2,0,0.4,0.1,0.6c0.1,0.2,0.2,0.4,0.4,0.5c0.2,0.2,0.3,0.3,0.5,0.4c0.2,0.1,0.4,0.1,0.6,0.1h20.4
		c0.4,0,0.9-0.2,1.2-0.5c0.3-0.3,0.5-0.7,0.5-1.2c0-0.2,0-0.4-0.1-0.6c-0.1-0.2-0.2-0.4-0.4-0.5c-0.2-0.2-0.3-0.3-0.5-0.4
		C170.9,105.2,170.7,105.2,170.5,105.2z"/>
	<path class="st4" d="M185,105.2h-9.7c-0.2,0-0.4,0-0.6,0.1c-0.2,0.1-0.4,0.2-0.5,0.4c-0.2,0.2-0.3,0.3-0.4,0.5
		c-0.1,0.2-0.1,0.4-0.1,0.6c0,0.4,0.2,0.9,0.5,1.2c0.3,0.3,0.7,0.5,1.2,0.5h9.7c0.4,0,0.9-0.2,1.2-0.5c0.3-0.3,0.5-0.7,0.5-1.2
		c0-0.2,0-0.4-0.1-0.6c-0.1-0.2-0.2-0.4-0.4-0.5s-0.3-0.3-0.5-0.4C185.4,105.2,185.2,105.2,185,105.2z"/>
	<path class="st4" d="M160.2,146.9h-10.9c-0.2,0-0.5,0.1-0.6,0.3c-0.2,0.2-0.3,0.4-0.3,0.6c0,0.2,0.1,0.5,0.3,0.6
		c0.2,0.2,0.4,0.3,0.6,0.3h10.9c0.2,0,0.5-0.1,0.6-0.3c0.2-0.2,0.3-0.4,0.3-0.6c0-0.2-0.1-0.5-0.3-0.6
		C160.7,146.9,160.5,146.9,160.2,146.9z"/>
	<path class="st4" d="M168,146.9h-5.2c-0.1,0-0.2,0-0.3,0.1c-0.1,0-0.2,0.1-0.3,0.2c-0.1,0.1-0.1,0.2-0.2,0.3c0,0.1-0.1,0.2-0.1,0.3
		c0,0.2,0.1,0.5,0.3,0.6c0.2,0.2,0.4,0.3,0.6,0.3h5.2c0.2,0,0.5-0.1,0.6-0.3c0.2-0.2,0.3-0.4,0.3-0.6c0-0.2-0.1-0.5-0.3-0.6
		C168.4,147,168.2,146.9,168,146.9z"/>
	<path class="st16" d="M176.9,57.4h-17.9c-0.3,0-0.6,0.1-0.8,0.3c-0.2,0.2-0.3,0.5-0.3,0.8c0,0.2,0,0.3,0.1,0.4
		c0.1,0.1,0.1,0.3,0.2,0.4c0.1,0.1,0.2,0.2,0.4,0.2c0.1,0.1,0.3,0.1,0.4,0.1h17.9c0.1,0,0.3,0,0.4-0.1c0.1-0.1,0.3-0.1,0.4-0.2
		c0.1-0.1,0.2-0.2,0.2-0.4c0.1-0.1,0.1-0.3,0.1-0.4c0-0.3-0.1-0.6-0.3-0.8C177.5,57.6,177.2,57.4,176.9,57.4z"/>
	<path class="st16" d="M211.9,57.4h-30c-0.1,0-0.3,0-0.4,0.1c-0.1,0.1-0.3,0.1-0.4,0.2c-0.1,0.1-0.2,0.2-0.2,0.4
		c-0.1,0.1-0.1,0.3-0.1,0.4c0,0.3,0.1,0.6,0.3,0.8s0.5,0.3,0.8,0.3h30c0.1,0,0.3,0,0.4-0.1c0.1-0.1,0.3-0.1,0.4-0.2
		c0.1-0.1,0.2-0.2,0.2-0.4c0.1-0.1,0.1-0.3,0.1-0.4c0-0.3-0.1-0.6-0.3-0.8C212.5,57.6,212.2,57.4,211.9,57.4z"/>
	<path class="st16" d="M186.7,61.6h-23.5c-0.3,0-0.6,0.1-0.8,0.3c-0.2,0.2-0.3,0.5-0.3,0.8s0.1,0.6,0.3,0.8c0.2,0.2,0.5,0.3,0.8,0.3
		h23.5c0.3,0,0.6-0.1,0.8-0.3c0.2-0.2,0.3-0.5,0.3-0.8c0-0.3-0.1-0.6-0.3-0.8C187.3,61.7,187,61.6,186.7,61.6z"/>
	<path class="st16" d="M201.1,61.6h-9.7c-0.3,0-0.6,0.1-0.8,0.3c-0.2,0.2-0.3,0.5-0.3,0.8s0.1,0.6,0.3,0.8c0.2,0.2,0.5,0.3,0.8,0.3
		h9.7c0.2,0,0.3,0,0.4-0.1c0.1-0.1,0.3-0.1,0.4-0.2c0.1-0.1,0.2-0.2,0.2-0.4c0.1-0.1,0.1-0.3,0.1-0.4c0-0.2,0-0.3-0.1-0.4
		c-0.1-0.1-0.1-0.3-0.2-0.4c-0.1-0.1-0.2-0.2-0.4-0.2C201.4,61.6,201.3,61.6,201.1,61.6z"/>
	<path class="st16" d="M207.8,61.6h-2.1c-0.3,0-0.6,0.1-0.8,0.3c-0.2,0.2-0.3,0.5-0.3,0.8s0.1,0.6,0.3,0.8c0.2,0.2,0.5,0.3,0.8,0.3
		h2.1c0.3,0,0.6-0.1,0.8-0.3c0.2-0.2,0.3-0.5,0.3-0.8s-0.1-0.6-0.3-0.8C208.4,61.7,208.1,61.6,207.8,61.6z"/>
	<path class="st16" d="M178.7,145.6h-30c0,0-0.1,0-0.1,0c0,0,0,0,0-0.1s0-0.1,0-0.1c0,0,0,0,0.1,0h30c0,0,0.1,0,0.1,0
		C178.8,145.4,178.8,145.4,178.7,145.6C178.8,145.5,178.8,145.5,178.7,145.6C178.8,145.5,178.7,145.6,178.7,145.6z"/>
	<path class="st5" d="M243.6,129.1h-26.8c-1.1,0-2,0.9-2,2v27c0,1.1,0.9,2,2,2h26.8c1.1,0,2-0.9,2-2v-27
		C245.6,130,244.7,129.1,243.6,129.1z"/>
	<path class="st6" d="M243.6,129.5c0.4,0,0.8,0.2,1.1,0.5c0.3,0.3,0.5,0.7,0.5,1.1v27c0,0.4-0.2,0.8-0.5,1.1s-0.7,0.5-1.1,0.5h-26.8
		c-0.4,0-0.8-0.2-1.1-0.5s-0.5-0.7-0.5-1.1v-27c0-0.4,0.2-0.8,0.5-1.1s0.7-0.5,1.1-0.5L243.6,129.5"/>
	<path class="st10" d="M241.9,135.3c-6.5,3.7-11.7,9.1-16.7,14.6c-0.1-0.3-0.3-0.6-0.5-0.8c-1.1-1.8-2.4-3.5-3.9-5.1
		c-0.4-0.4-0.8-0.8-1.2-1.2c-0.3-0.4-0.7-0.7-1.2-1c-0.1,0-0.2-0.1-0.2-0.1c-0.1,0-0.2,0-0.2,0.1c-0.1,0.1-0.1,0.1-0.1,0.2
		c0,0.2,0.1,0.4,0.2,0.5l0.4,0.6c2,3.1,3.8,6.5,5.1,9.9c0,0,0,0.1,0,0.1c0.3,0.7,0.6,2.1,1.6,2.2c0.7,0.1,1.2-0.5,1.6-1
		c2.4-3,4.7-6.1,7.3-8.9c1.7-1.7,3.3-3.6,4.9-5.3c1.2-1.3,2-1.9,3.4-4.2c0-0.1,0-0.2,0-0.2c0-0.1-0.1-0.2-0.1-0.2
		c-0.1-0.1-0.1-0.1-0.2-0.1C242.1,135.2,242,135.2,241.9,135.3z"/>
	<g class="st17">
		<path class="st12" d="M155.1,89.9l0.7-2.8l2.7-1l0.1-2.9l2.4-1.5l-0.5-2.8l2-2l-1.1-2.7l1.6-2.4l-1.6-2.4l1.1-2.7l-2-2l0.5-2.8
			l-2.4-1.5l-0.1-2.9l-2.7-1l-0.7-2.8l-2.8-0.4l-1.3-2.6l-2.8,0.2l-1.8-2.2l-2.8,0.8l-2.2-1.8l-2.5,1.3l-2.1-1.1v66.3l2.1-5.8
			l8.6,24.3l7.4-8l10.8,1.5l-12.7-35.9L155.1,89.9z"/>
	</g>
	<path class="st13" d="M146.4,85.2l-18.1-6.5l-16.1,45.4l10.8-1.5l7.4,8L146.4,85.2z"/>
	<path class="st7" d="M144.8,84.7l-15.1-5.4l-15.1,42.7l8.9-1.2l6.1,6.6L144.8,84.7z"/>
	<path class="st8" d="M144.3,84.5l-14-5l-14.8,41.8l8.3-1.2l5.7,6.2L144.3,84.5z"/>
	<path class="st13" d="M131.4,85.2l18.2-6.5l16.1,45.4l-10.8-1.5l-7.4,8L131.4,85.2z"/>
	<path class="st7" d="M132.9,84.7l15.1-5.4l15.1,42.7l-8.9-1.2l-6.1,6.6L132.9,84.7z"/>
	<path class="st8" d="M133.4,84.5l14-5l14.8,41.8l-8.3-1.2l-5.7,6.2L133.4,84.5z"/>
	<g class="st11">
		<path class="st12" d="M149.5,78.7l-1.5,0.5l-0.5,0.2l-7,2.5l-1.6,0.6l-1.6-0.6l-7-2.5l-0.5-0.2l-1.5-0.5l-3.9,10.9l0.2,0l1.4,2.7
			l3.1-0.2l1.9,2.4l2.9-0.8l2.4,2l2.7-1.4l2.7,1.4l2.4-2l2.9,0.8l1.9-2.4l3.1,0.2l1.4-2.7l0.2,0L149.5,78.7z"/>
	</g>
	<path class="st8" d="M138.9,47l2.5-1.3l2.2,1.8l2.8-0.8l1.8,2.2l2.8-0.2l1.3,2.6l2.8,0.4l0.7,2.8l2.7,1l0.1,2.9L161,60l-0.5,2.8
		l2,2l-1.1,2.7l1.6,2.4l-1.6,2.4l1.1,2.7l-2,2l0.5,2.8l-2.4,1.5l-0.1,2.9l-2.7,1l-0.7,2.8l-2.8,0.4l-1.3,2.6l-2.8-0.2l-1.8,2.2
		l-2.8-0.8l-2.2,1.8l-2.5-1.3l-2.5,1.3l-2.2-1.8l-2.8,0.8l-1.8-2.2l-2.8,0.2l-1.3-2.6l-2.8-0.4l-0.7-2.8l-2.7-1l-0.1-2.9l-2.4-1.5
		l0.5-2.8l-2-2l1-2.7l-1.6-2.4l1.6-2.4l-1-2.7l2-2l-0.5-2.8l2.4-1.5l0.1-2.9l2.7-1l0.7-2.8l2.8-0.4l1.3-2.6l2.8,0.2l1.8-2.2l2.8,0.8
		l2.2-1.8L138.9,47z"/>
	<path class="st7" d="M138.9,47.2l2.5-1.3l2.2,1.8l2.7-0.8l1.8,2.2l2.8-0.2l1.3,2.5l2.8,0.4l0.7,2.7l2.6,1l0.1,2.8l2.4,1.5l-0.5,2.8
		l2,2l-1,2.6l1.6,2.4l-1.6,2.4l1,2.6l-2,2l0.5,2.8l-2.4,1.5l-0.1,2.8l-2.6,1l-0.7,2.7l-2.8,0.4l-1.3,2.5l-2.8-0.2l-1.8,2.2l-2.7-0.8
		l-2.2,1.8l-2.5-1.3l-2.5,1.3l-2.2-1.8l-2.7,0.8l-1.8-2.2l-2.8,0.2l-1.3-2.5l-2.8-0.4l-0.7-2.7l-2.6-1l-0.1-2.8l-2.4-1.5l0.5-2.8
		l-2-2l1-2.6l-1.6-2.4l1.6-2.4l-1-2.6l2-2l-0.5-2.8l2.4-1.5l0.1-2.8l2.6-1l0.7-2.7l2.8-0.4l1.3-2.5l2.8,0.2l1.8-2.2l2.7,0.8l2.2-1.8
		L138.9,47.2z"/>
	<path class="st13" d="M138.9,91.6c12,0,21.7-9.7,21.7-21.8s-9.7-21.8-21.7-21.8c-12,0-21.7,9.7-21.7,21.8S126.9,91.6,138.9,91.6z"
		/>
	<path class="st8" d="M154,85c8.3-8.4,8.3-22,0-30.3c-8.3-8.4-21.9-8.4-30.2,0s-8.3,22,0,30.3S145.6,93.4,154,85z"/>
</g>
</svg>
