<?xml version="1.0" encoding="utf-8"?>
<!-- Generator: Adobe Illustrator 21.0.0, SVG Export Plug-In . SVG Version: 6.00 Build 0)  -->
<svg version="1.1" id="Layer_1" xmlns="http://www.w3.org/2000/svg" xmlns:xlink="http://www.w3.org/1999/xlink" x="0px" y="0px"
	 viewBox="0 0 1000 169" style="enable-background:new 0 0 1000 169;" xml:space="preserve">
<style type="text/css">
	.st0{fill:#CDF3FF;}
	.st1{fill:#3B9BFF;}
	.st2{clip-path:url(#SVGID_2_);}
	.st3{opacity:0.6;fill:#EBF3FA;enable-background:new    ;}
	.st4{fill:#C0D8FB;}
	.st5{fill:#DFEBFD;}
	.st6{fill:#B7D3F3;}
	.st7{fill:#122544;}
	.st8{fill:#D2E3FC;}
	.st9{fill:#82B378;}
	.st10{fill:#A8D29F;}
	.st11{fill:#2B478B;}
	.st12{fill:#EA9E6A;}
	.st13{fill:#D88D59;}
	.st14{fill:#8E342E;}
	.st15{fill:#233862;}
	.st16{fill:#B24940;}
	.st17{fill:#C65447;}
	.st18{fill:#F9DDBF;}
	.st19{fill:#ED7D2B;}
	.st20{fill:#FFB27D;}
	.st21{fill:#ED985F;}
	.st22{fill:#FFFFFF;}
	.st23{fill:#F99746;}
	.st24{fill:#FFC397;}
	.st25{fill:#2C3A64;}
</style>
<path class="st0" d="M0,25.2c0,0,99.3-31.1,167-21.8c67.7,9.3,118.2,27.3,167.7,21.8c49.5-5.5,145.5-31.8,198-23.5
	c52.5,8.3,142.4,31,192.9,24.6C776.1,19.7,871-0.6,898.3,0C925.6,0.6,1000,24.1,1000,24.1V135H0V25.2z"/>
<path class="st1" d="M0,57.4c0,0,99.3-31.3,167-22c67.7,9.3,118.2,27.5,167.7,22c49.5-5.5,145.5-32.1,198-23.7
	s142.4,31.3,192.9,24.8c50.5-6.5,145.4-27,172.7-26.4c27.3,0.6,101.7,24.3,101.7,24.3v111.8H0V57.4z"/>
<g>
	<defs>
		<rect id="SVGID_1_" x="263.5" y="43.1" width="525" height="124.5"/>
	</defs>
	<clipPath id="SVGID_2_">
		<use xlink:href="#SVGID_1_"  style="overflow:visible;"/>
	</clipPath>
	<g class="st2">
		<path class="st3" d="M766.7,148.3c0,6.7-0.4,13.5-1.3,20.2c-0.2,1.5-16.9-0.2-17.1,1.3l-104.3,0.3h-233V170l233-0.8l104.3-0.3
			c0.2-1.5,16.9,0.3,17.1-1.3C766.3,161.2,766.7,154.8,766.7,148.3z"/>
		<path class="st4" d="M376.4,55.3h-26.8c-1.2,0-2.2,1-2.2,2.1v24.7c0,1.2,1,2.1,2.2,2.1h26.8c1.2,0,2.2-1,2.2-2.1V57.4
			C378.6,56.2,377.6,55.3,376.4,55.3z"/>
		<path class="st5" d="M375.2,56.5h-24.4c-1.1,0-2,0.9-2,1.9V81c0,1.1,0.9,1.9,2,1.9h24.4c1.1,0,2-0.9,2-1.9V58.5
			C377.3,57.4,376.4,56.5,375.2,56.5z"/>
		<path class="st6" d="M363,59.8c0.4,0,0.6-0.3,0.6-0.6s-0.3-0.6-0.6-0.6c-0.4,0-0.6,0.3-0.6,0.6S362.7,59.8,363,59.8z"/>
		<path class="st6" d="M367.6,60c0.1-0.1,0.2-0.2,0.3-0.2s0.2-0.1,0.4-0.1c0.1,0,0.2,0.1,0.3,0.1c0.1,0.1,0.2,0.2,0.2,0.3
			c0,0.1,0,0.2,0,0.4c0,0.1-0.1,0.2-0.2,0.3c-0.1,0.1-0.2,0.1-0.3,0.1c-0.1,0-0.3,0-0.4-0.1c-0.1,0-0.1-0.1-0.2-0.2
			c-0.1-0.1-0.1-0.1-0.1-0.2c0-0.1,0-0.2,0-0.2C367.5,60.2,367.6,60.1,367.6,60z"/>
		<path class="st6" d="M372.1,63.4c0.1-0.1,0.2-0.1,0.4-0.1c0.1,0,0.3,0,0.4,0.1c0.1,0.1,0.2,0.2,0.2,0.3c0,0.1,0.1,0.2,0,0.4
			c0,0.1-0.1,0.2-0.2,0.3c-0.1,0.1-0.2,0.1-0.3,0.2c-0.1,0-0.3,0-0.4,0c-0.1,0-0.2-0.1-0.3-0.2c-0.1-0.1-0.1-0.3-0.1-0.5
			C371.8,63.7,371.9,63.5,372.1,63.4z"/>
		<path class="st6" d="M374.9,69.6c0.1-0.3,0-0.7-0.4-0.8c-0.3-0.1-0.7,0-0.8,0.3c-0.1,0.3,0,0.7,0.4,0.8
			C374.4,70,374.7,69.9,374.9,69.6z"/>
		<path class="st6" d="M373.1,74.8c0.1,0.1,0.2,0.2,0.2,0.3c0,0.1,0,0.2,0,0.4c0,0.1-0.1,0.2-0.2,0.3c-0.1,0.1-0.2,0.1-0.4,0.1
			c-0.1,0-0.3,0-0.4-0.1c-0.1-0.1-0.2-0.2-0.2-0.3c0-0.1-0.1-0.2,0-0.4c0-0.1,0.1-0.2,0.2-0.3c0.1-0.1,0.3-0.2,0.5-0.2
			C372.9,74.6,373,74.7,373.1,74.8z"/>
		<path class="st6" d="M368.6,79.7c0.4,0,0.6-0.3,0.6-0.6s-0.3-0.6-0.6-0.6c-0.4,0-0.6,0.3-0.6,0.6S368.3,79.7,368.6,79.7z"/>
		<path class="st6" d="M363,81.3c0.4,0,0.6-0.3,0.6-0.6c0-0.3-0.3-0.6-0.6-0.6c-0.4,0-0.6,0.3-0.6,0.6C362.4,81,362.7,81.3,363,81.3
			z"/>
		<path class="st6" d="M358.4,60c-0.1-0.1-0.2-0.2-0.3-0.2c-0.1-0.1-0.2-0.1-0.4-0.1c-0.1,0-0.2,0.1-0.3,0.1
			c-0.1,0.1-0.2,0.2-0.2,0.3c0,0.1,0,0.2,0,0.4c0,0.1,0.1,0.2,0.2,0.3c0.1,0.1,0.2,0.1,0.3,0.1c0.1,0,0.3,0,0.4-0.1
			c0.1,0,0.1-0.1,0.2-0.2s0.1-0.1,0.1-0.2c0-0.1,0-0.2,0-0.2S358.5,60.1,358.4,60z"/>
		<path class="st6" d="M354,63.4c-0.1-0.1-0.2-0.1-0.4-0.1c-0.1,0-0.3,0-0.4,0.1c-0.1,0.1-0.2,0.2-0.2,0.3c0,0.1-0.1,0.2,0,0.4
			c0,0.1,0.1,0.2,0.2,0.3c0.1,0.1,0.2,0.1,0.3,0.2c0.1,0,0.3,0,0.4,0c0.1,0,0.2-0.1,0.3-0.2c0.1-0.1,0.1-0.3,0.1-0.5
			C354.2,63.7,354.1,63.5,354,63.4z"/>
		<path class="st6" d="M351.7,69.9c0.4,0,0.6-0.3,0.6-0.6c0-0.3-0.3-0.6-0.6-0.6s-0.6,0.3-0.6,0.6C351.1,69.7,351.4,69.9,351.7,69.9
			z"/>
		<path class="st6" d="M352.9,74.8c-0.1,0.1-0.2,0.2-0.2,0.3c0,0.1,0,0.2,0,0.4c0,0.1,0.1,0.2,0.2,0.3c0.1,0.1,0.2,0.1,0.4,0.1
			c0.1,0,0.3,0,0.4-0.1c0.1-0.1,0.2-0.2,0.2-0.3c0-0.1,0.1-0.2,0-0.4c0-0.1-0.1-0.2-0.2-0.3c-0.1-0.1-0.3-0.2-0.5-0.2
			C353.2,74.6,353,74.7,352.9,74.8z"/>
		<path class="st6" d="M357.4,79.7c0.4,0,0.6-0.3,0.6-0.6s-0.3-0.6-0.6-0.6s-0.6,0.3-0.6,0.6S357,79.7,357.4,79.7z"/>
		<path class="st6" d="M363.5,69.9c0.4,0,0.6-0.3,0.6-0.6c0-0.3-0.3-0.6-0.6-0.6s-0.6,0.3-0.6,0.6C362.9,69.7,363.1,69.9,363.5,69.9
			z"/>
		<path class="st6" d="M363.6,61.6h-0.2v7.7h0.2V61.6z"/>
		<path class="st6" d="M367.5,65.9l-4.3,3.2l0.3,0.4l4.3-3.2L367.5,65.9z"/>
		<path class="st6" d="M434.8,125.6h-2.9l3.5,42.6h7L434.8,125.6z"/>
		<path class="st7" d="M491.9,113.1l-0.6,0.1c-1.3,0.3-2.7,0-3.8-0.7c-1.1-0.7-1.9-1.8-2.2-3.1l-0.7-3.1c-0.3-1.3,0-2.6,0.8-3.7
			c0.7-1.1,1.9-1.8,3.2-2.1l0.6-0.1c1.3-0.3,2.7,0,3.8,0.7c1.1,0.7,1.9,1.8,2.2,3.1l0.7,3.1c0.3,1.3,0,2.6-0.8,3.7
			C494.4,112.1,493.3,112.9,491.9,113.1z"/>
		<path class="st6" d="M431.9,125.6c0,0,15.7-7,37.2-2.4l-34.3,2.4H431.9z"/>
		<path class="st8" d="M442.4,168.6l-7.6-43c0,0,24.1-7.7,42.7,0l11.1,42.7L442.4,168.6z"/>
		<path class="st9" d="M608.7,155.3c-0.4,4.7-3.2,6.1-4.4,6c-1.2-0.1-8.3-2.7-8.5-1.8c-0.2,0.9,4.1,4.1,7.1,4.2c0,0-5.6,5.9-9.4,4.2
			c-3.7-1.7-4.1-4.4-6.4-5.5c-2.3-1-4.3-1-3.4,0c1,1,5.2,2.1,6.5,4.3c0.3,0.5,0.6,1,0.9,1.5l-7.9,0c-2.5-1.2-4.6-2.8-4.8-4.6
			c0-0.1,0-0.3,0-0.4l-0.2-2.7c0,0-4.1-4.5-1.9-8.3c0.4-0.7,1-1.3,1.6-1.8c0,0,3.8-2.2,6.9-2c0,0-2.4,3.8-3.1,6.1
			c-0.2,0.8-0.3,1.4,0.1,1.6c0.4,0.2,0.9-0.4,1.5-1.3c1.4-2.3,2.8-6.8,2.8-6.8s2.3-0.2,4.9-0.2c1.2,0,2.4,0,3.5,0.1
			c1.2,0.1,2.3,0.3,3,0.6l-0.4,0.3c-0.4,0.3-1,0.8-1.7,1.4c-2,1.7-4.7,4.2-3.7,4.4c0.8,0.2,3.3-1.3,5.6-2.7c2.1-1.3,3.9-2.6,3.9-2.6
			S609.1,150.6,608.7,155.3z"/>
		<path class="st9" d="M604.8,155.4c0,0-21.7-0.8-26.5,5.1c0,0-1.1,3-4.3,5.8l-0.5,1.3c0,0,3.8-3.8,5.1-4
			C578.5,163.6,576.4,156.3,604.8,155.4z"/>
		<path class="st9" d="M574.8,166.3c-0.2,0.2-0.5,0.5-0.9,0.8c-0.1,0.1-0.3,0.3-0.4,0.4c-0.2,0.2-0.4,0.5-0.6,0.7h-1
			c0.6-0.7,1.2-1.3,2-1.9C574,166.3,575.9,165.2,574.8,166.3z"/>
		<path class="st10" d="M554.5,152.8c0,0,8.8-4.7,4.7-11.1c0,0-3.3-3.9-6.8-4.9c0,0,1.9,9.5,0,9.7c-1.9,0.2-1.3-10.7-1.3-10.7
			s-9.2-4.2-12.9-3.9c0,0,5.7,9.3,3.9,9.1s-8.3-9.6-8.3-9.6s-9.5-1.7-11,3.7c-1.5,5.4,0.9,8,2.3,8.4c1.4,0.3,10.4,0.2,10.2,1.3
			c-0.2,1.1-6.3,2.9-9.7,1.9c0,0,3.7,8.8,8.6,8.4c4.9-0.4,6.4-3.4,9.5-3.6c3-0.2,5.3,0.6,3.7,1.3c-1.5,0.8-6.7,0.3-9.1,2.3
			c-2.5,2-4.4,3.2,0.1,4.1c4.6,0.9,12.7,0.3,14.4-3L554.5,152.8z"/>
		<path class="st9" d="M527.2,136.7c0,0,24.5,7.6,27.4,16.1c0,0-0.1,3.8,2.3,8.2v1.7c0,0-2.6-5.7-4-6.5
			C552.9,156.2,558.4,148.8,527.2,136.7z"/>
		<path class="st9" d="M559.2,168.2h-1.4c0-1.9-0.3-4.1-1-5.8c-0.1-0.2-0.2-0.4-0.3-0.6c-0.3-0.5-0.5-0.9-0.6-1.2
			c-0.7-1.7,1,0.4,1,0.4C558.2,163.2,559,165.7,559.2,168.2z"/>
		<path class="st10" d="M568.5,146.3c0,0-11.6-6.2-6.2-14.6c0,0,4.3-5.2,8.9-6.5c0,0-2.5,12.5,0,12.8c2.5,0.3,1.7-14.1,1.7-14.1
			s12.2-5.6,16.9-5.2c0,0-7.6,12.2-5.1,11.9c2.5-0.3,10.9-12.7,10.9-12.7s12.5-2.2,14.5,4.9c2,7.1-1.2,10.6-3.1,11.1
			c-1.8,0.4-13.7,0.3-13.4,1.8c0.3,1.5,8.3,3.8,12.8,2.5c0,0-4.9,11.6-11.4,11.1c-6.5-0.6-8.5-4.4-12.5-4.7c-4-0.3-6.9,0.7-4.9,1.8
			c2,1,8.8,0.3,12,3c3.2,2.6,5.9,4.3-0.2,5.4c-6,1.2-16.8,0.4-19-4L568.5,146.3z"/>
		<path class="st9" d="M604.5,125.1c0,0-32.4,10-36.1,21.2c0,0,0.2,5-3.1,10.8v2.2c0,0,3.4-7.5,5.2-8.5
			C570.6,150.8,563.4,141,604.5,125.1z"/>
		<path class="st9" d="M566.7,156.6c-0.2,0.4-0.4,0.9-0.8,1.6c-0.1,0.2-0.3,0.5-0.4,0.8c-1.1,2.7-1.3,6.3-1.3,9.2h-1.9
			c-0.2-6.4,3-11.1,3-11.1C565.5,157,567.7,154.4,566.7,156.6z"/>
		<path class="st11" d="M511,168.3h-44c-0.7-1.6-1.2-3.2-1.7-4.8c-1.3-4.2-2.1-8.8-2.6-13.3c0-0.1,0-0.1,0-0.2
			c-0.9-7.8-0.9-15.4-0.8-19.9c0.1-2.6,0.2-4.2,0.2-4.3l0.3-0.1c2.3-0.9,4.6-1.7,6.7-2.4h0c1.8-0.6,3.5-1.1,5.2-1.5
			c2.7-0.7,5.4-1.3,8.2-1.7c2.7-0.4,5.4-0.7,8.1-0.7h0.3c0.6,0,1.3,0,1.8,0c6,0.1,10,1.3,12,2c0.3,0.1,0.5,0.2,0.7,0.3l0.1,0
			c0.2,0.1,0.4,0.2,0.5,0.2c0,0,0,0,0,0c0.1,0,0.1,0.1,0.2,0.1l3.2,31.9L511,168.3z"/>
		<path class="st11" d="M554.8,161.4c-4.4,2-30.6,3.6-33.1,2.9c-1.3-0.4-6.7-4.9-12.1-10.5c-5.1-5.3-10.3-11.5-12.1-16
			c-3.6-9.2-0.5-17.4-0.5-17.4s6.7,0,9.4,1.5c2.7,1.6,18.3,29,20.4,29.7c2.1,0.7,26.8,2.1,29.6,3.4
			C556.3,155.1,559.2,159.5,554.8,161.4z"/>
		<path class="st12" d="M490.9,120.4v1.6c0,0,0.4,4.9-5.8,5.6c-6.2,0.7-11-1.9-10.8-5.6c0.6-2.9,1.2-4.9,1.2-7.3
			c0-1-0.1-1.9-0.2-2.9l12.1-0.2l3.6,0.6L490.9,120.4z"/>
		<path class="st13" d="M490.9,112l0,8.4c-1.4,0.6-2.9,0.9-4.4,0.9c-5.6,0-11.1-8.6-11.3-9.6L490.9,112z"/>
		<path class="st12" d="M491.6,116.1c0,0-15.5,3-17.3-6.2c-1.8-9.3-5-15.1,4.8-17.4c9.8-2.3,12.4,0.9,13.8,3.8
			C494.3,99.2,495.6,115,491.6,116.1z"/>
		<path class="st14" d="M495.9,89.3c0,0-4.3-0.3-9.4-2.4c-4.1-1.7-9.4,0.2-11.1,1c0.1-0.4,0.2-0.7,0.4-1c0,0-0.8,0.5-0.9,1.2
			c-0.1,0.1-0.1,0.1-0.1,0.1c0,0-0.9-0.1-1.4,0.1c0,0,0.4-0.1,0.5,0.2c0,0,0,0,0.1,0.1c-6.4,3-7,12.8-5,15c2.5,2.7,5.5,8.8,5.5,8.8
			s1.1-1.4,0.6-3.8c-0.5-2.4,1.7-2.4,4.4-3.5c2.7-1.1,0.4-4.1,2.8-6c2.4-1.9,11.1-0.8,11-2.2C496.8,95.9,495.9,89.6,495.9,89.3z"/>
		<path class="st15" d="M467,168.3c-0.7-1.6-1.2-3.2-1.7-4.8c-1.3-4.2-2.1-8.8-2.6-13.3c0-0.1,0-0.1,0-0.2c0,0,0.1,0.1,0.1,0.1
			c1.7-2,6.4-4.2,12,3.8c1.1,1.6,6.1,12.6,6.9,14.5L467,168.3z"/>
		<path class="st12" d="M471.6,168.3c-0.1-0.7,0-1.6,0.6-2.7c0,0,0.7-0.4,1.7-1c1.4-0.8,3.4-1.7,4.3-1.6c0.2,0,0.4,0.1,0.6,0.1
			c2.1,0.5,7,1.9,7.8,2.8c0.6,0.7,1.4,1.6,2,2.4L471.6,168.3z"/>
		<path class="st11" d="M474.8,168.3h-41.4c-0.1-0.4-0.1-0.9,0-1.3c1.2-3,3.6-7.9,6.4-13.2c2-3.9,4.3-7.9,6.4-11.6
			c2.9-5.1,5.6-9.3,7.2-11c1.3-1.4,2.8-2.5,4.5-3.5c1.3-0.8,2.7-1.4,4.2-2l0.3-0.1c1.7-0.7,3.4-1.2,5.2-1.6c0,0,0,1.3,0,3.2
			c0,5.6-0.2,16.8-2.1,19.6c-0.5,0.8-1.5,1.9-2.7,3.3l-0.1,0.1c-0.7,0.7-1.4,1.5-2.1,2.3c-4.3,4.6-9.8,10.1-10.5,10.7
			c0,0-0.1,0.1-0.1,0.1h0.1l11.6,0.2l3.6,0l7.4,0.1c0.5,0.2,0.9,0.6,1.2,1C474.6,165.6,474.8,167.1,474.8,168.3z"/>
		<path class="st15" d="M554.8,161.4c-4.4,2-30.6,3.6-33.1,2.9c-1.3-0.4-6.7-4.9-12.1-10.5c0.3,0,2.8-3.9,14.1,5.5c0,0,3,1.3,11,0.6
			C542.7,159.2,553.1,159,554.8,161.4z"/>
		<path class="st16" d="M529,168.2h-29.9c0-0.3,0.1-0.6,0.2-0.9c0.1-0.3,0.3-0.5,0.5-0.7c0.2-0.2,0.5-0.4,0.8-0.5
			c0.3-0.1,0.6-0.2,0.9-0.2H529V168.2z"/>
		<path class="st16" d="M528.9,137.1h46.3l-11.1,31.2h-46.6L528.9,137.1z"/>
		<path class="st17" d="M575.9,137.1l-11.1,31.2h-46.6l11.4-31.2H575.9z"/>
		<path class="st18" d="M551,152.4c-0.3,1.2-1.5,2.2-2.8,2.2c-1.2,0-2-1-1.7-2.2c0.3-1.2,1.5-2.2,2.8-2.2
			C550.5,150.2,551.2,151.2,551,152.4z"/>
		<path class="st16" d="M575.9,137.1l-11.1,31.2h-21.7l26-31.2H575.9z"/>
		<path class="st7" d="M478.8,113.1l-0.6,0.1c-1.3,0.3-2.7,0-3.8-0.7c-1.1-0.7-1.9-1.8-2.2-3.1l-0.7-3.1c-0.3-1.3,0-2.6,0.8-3.7
			c0.7-1.1,1.9-1.8,3.2-2.1l0.6-0.1c1.3-0.3,2.7,0,3.8,0.7c1.1,0.7,1.9,1.8,2.2,3.1l0.7,3.1c0.3,1.3,0,2.6-0.8,3.7
			C481.3,112.1,480.1,112.9,478.8,113.1z"/>
		<path class="st7" d="M474,102c-0.4-0.7-1-6.5,0.6-11c0.8-2.2,2.1-3.5,3.7-4.3c0.6-0.3,1.2-0.5,1.9-0.5l1.6,0
			c-5.4,2.2-6.6,13.8-6.2,15c0,0,0-0.1,0-0.1L474,102z"/>
		<path class="st7" d="M489.6,114.1c-9,0-13.5-6.8-13.5-6.9l0.8-0.5l-0.4,0.2l0.4-0.2c0,0.1,4.2,6.4,12.7,6.4h0.2l0,0.9H489.6z"/>
		<path class="st11" d="M477.4,110.1l-0.3,0.1c-0.7,0.1-1.3,0-1.9-0.4c-0.6-0.4-1-0.9-1.1-1.5l-0.3-1.5c-0.1-0.6,0-1.3,0.4-1.8
			c0.4-0.5,1-0.9,1.6-1l0.3-0.1c0.7-0.1,1.3,0,1.9,0.4c0.6,0.4,1,0.9,1.1,1.5l0.3,1.5c0.1,0.6,0,1.3-0.4,1.8
			C478.6,109.6,478,110,477.4,110.1z"/>
		<path class="st7" d="M490.8,114.4h-0.8c-0.2,0-0.4-0.1-0.6-0.2c-0.1-0.1-0.2-0.3-0.2-0.5c0-0.2,0.1-0.4,0.2-0.5
			c0.1-0.1,0.3-0.2,0.6-0.2h0.8c0.2,0,0.4,0.1,0.6,0.2c0.1,0.1,0.2,0.3,0.2,0.5c0,0.2-0.1,0.4-0.2,0.5
			C491.2,114.3,491,114.4,490.8,114.4z"/>
		<path class="st14" d="M310.7,100.9c0,0-7.6,3.7-2,11.6c0,0-6.5,0.7-8.1-1.1c0,0,0.2,0.8,0.5,1.2c0,0-6.3-0.8-8.5-3.1
			c-2.3-2.3,4.8-32.6,21.5-26.4c0,0,14.9,1.3,10.7,17.3c-4.2,16,1.3,16.9,1.3,16.9s-1.7,0.5-2.4,0.4c0,0-1-0.6-1.1-1.2
			c0,0,0.1,0.9,0.3,1.3c0,0-6.1-0.4-8.7-3.1C311.4,112.2,309.3,104.2,310.7,100.9z"/>
		<path class="st19" d="M321.5,108.9l-0.6,0.1c-1.3,0.2-2.6-0.2-3.7-0.9c-1-0.8-1.7-1.9-1.9-3.1l-0.4-3c-0.2-1.2,0.2-2.5,1-3.5
			c0.8-1,2-1.7,3.3-1.8l0.6-0.1c1.3-0.2,2.6,0.2,3.7,0.9c1,0.8,1.7,1.9,1.9,3.1l0.4,3c0.2,1.2-0.2,2.5-1,3.5
			C323.9,108,322.8,108.7,321.5,108.9z"/>
		<path class="st20" d="M323.2,133.1c-2.3,1.7-3.7,7.7-7.3,8.7c-13.6,3.7-20.9-11.7-23.3-19.3c1.4-0.8,3-1.4,4.6-1.6
			c1-0.2,2-0.3,2.9-0.4c1.5-1.2,3.5-6,3.7-13.2l0.7,0.1l11,2.3c0,0-0.3,3.3-0.4,6.5c-0.1,2.5-0.1,3,0.1,3.3c0.9,0.1,1.9,2.2,1.9,2.2
			v0C319.4,125.3,321.5,129.1,323.2,133.1z"/>
		<path class="st21" d="M315.4,109.7c0,0-0.3,3.3-0.4,6.5c-6.2-0.3-9.3-5.8-10.6-8.8L315.4,109.7z"/>
		<path class="st8" d="M371.4,164.4c0,0-6.5,0.2-13.5,0.2c-0.8,0-1.7,0-2.5,0c-5.7,0-11.4-0.2-13.8-0.8c-2.3-0.6-11.3-6.4-18.5-13.5
			c-0.6,1.3-1,2.2-1,2.3c-0.2,1.6-0.6,3.2-1,4.7c-1.1,3.8-2.6,7.4-4.4,10.9h-3.9l-30.1-0.1c0,0,5.7-8.4,4.2-29.8
			c0-0.5,5.2-17.9,5.2-17.9s4.1-0.7,8.8-1.1c0.4,0.4,1.4,11.8,7.3,12.4c1,0.1,7.2,9.1,7.2,9.1l1.9-9.2l-2.2-12.3
			c2.8,0.8,4.4,1.1,6.8,2c1.6,0.6,2.9,1.8,3.8,3.2c4.1,7.2,17.6,30.6,19,31.2c1.3,0.5,6.1,1.4,11.3,2.3c6.9,1.2,14.2,2.3,14.2,2.3
			L371.4,164.4z"/>
		<path class="st20" d="M317.2,112.9c0,0-14.6-0.3-14.3-9c0.3-8.7-1.4-14.6,8-14.8c9.4-0.2,11.1,3.2,11.7,6.1
			S321.1,112.8,317.2,112.9z"/>
		<path class="st6" d="M357.9,164.6c-0.8,0-1.7,0-2.5,0c-5.7,0-11.4-0.2-13.8-0.8c-2.3-0.6-11.3-6.4-18.5-13.5c0,0,1.5-5.6,2.2-6.5
			c0.7-0.9,3.2,8.1,9.3,11.8c6,3.7,15.5,6.3,20.1,5.2C357.7,160.1,358,162.8,357.9,164.6z"/>
		<path class="st22" d="M314.4,108.1c0,0,0.1,1,2.5,1.2c0,0,2,0.1,2.1-1C319,108.3,317.1,107.2,314.4,108.1z"/>
		<path class="st7" d="M315.2,111.6c-8.3-2.5-10.4-10-10.4-10.1l0.9-0.2l-0.4,0.1l0.4-0.1c0,0.1,2,7.1,9.8,9.5l0.2,0l-0.3,0.8
			L315.2,111.6z"/>
		<path class="st19" d="M316.1,112.2l-0.8-0.2c-0.2-0.1-0.4-0.2-0.4-0.4c-0.1-0.2-0.1-0.4-0.1-0.6c0.1-0.2,0.2-0.3,0.4-0.4
			c0.2-0.1,0.4-0.1,0.6,0l0.8,0.2c0.2,0.1,0.4,0.2,0.4,0.4c0.1,0.2,0.1,0.4,0.1,0.6c-0.1,0.2-0.2,0.3-0.4,0.4
			C316.5,112.2,316.3,112.2,316.1,112.2z"/>
		<path class="st14" d="M318.1,87.9c0,0-3.8,10.6-9.4,12.4c-5.6,1.8-7.5-0.3-7.5-0.3s4.1-3.6,4.6-9.5
			C305.8,90.5,314.9,83.6,318.1,87.9z"/>
		<path class="st14" d="M311.1,91.1c0,0,7.6-0.4,9.9,1.7c1.6,1.5,1.6,2.3,1.7,4.3c0,0,3.3-4.9-0.1-8.4C319,85,311.1,91.1,311.1,91.1
			z"/>
		<path class="st14" d="M317.7,89.1c0,0-1.9,10.2-8.9,13.9c0,0,6.8-6.6,6.9-13.3C315.9,83,317.7,89.1,317.7,89.1z"/>
		<path class="st14" d="M292.5,109.6c2.3,2.3,8.5,3.1,8.5,3.1c-0.3-0.4-0.5-1.2-0.5-1.2c3.2,2.5,11.2,0.7,11.2,0.7
			c-6.3-1.3-4.3-10.1-2.1-10.4c1.3-6.6,3.7-14.8,4.9-18.5c-0.3,0-0.4-0.1-0.4-0.1C297.3,77,290.3,107.3,292.5,109.6z"/>
		<path class="st19" d="M306.3,108l-0.6,0.1c-1.3,0.2-2.6-0.2-3.7-0.9c-1-0.8-1.7-1.9-1.9-3.1l-0.4-3c-0.2-1.2,0.2-2.5,1-3.5
			c0.8-1,2-1.7,3.3-1.8l0.6-0.1c1.3-0.2,2.6,0.2,3.7,0.9c1,0.8,1.7,1.9,1.9,3.1l0.4,3c0.2,1.2-0.2,2.5-1,3.5
			C308.7,107.1,307.6,107.8,306.3,108z"/>
		<path class="st19" d="M302.3,96.9c-0.4-0.6,0.9-5.7,2.8-9.5c0.9-1.9,3.2-4.4,4.8-5c0.6-0.2,1.4-0.1,2,0c0.5,0.1,1.7,0.7,1.7,0.7
			c-5.3,1.6-9.9,12.2-9.6,13.3c0,0,0-0.1,0-0.1L302.3,96.9z"/>
		<path class="st23" d="M305.1,105l-0.3,0c-0.6,0.1-1.3-0.1-1.8-0.5c-0.5-0.4-0.9-0.9-1-1.6l-0.2-1.5c-0.1-0.6,0.1-1.2,0.5-1.7
			c0.4-0.5,1-0.8,1.6-0.9l0.3,0c0.6-0.1,1.3,0.1,1.8,0.5c0.5,0.4,0.9,0.9,1,1.6l0.2,1.5c0.1,0.6-0.1,1.2-0.5,1.7
			C306.3,104.5,305.7,104.9,305.1,105z"/>
		<path class="st20" d="M340.6,159.3c0,0,6.3-0.3,6.9,0c1,0.5,4.4,2.6,4.9,3.2c0.5,0.6,1.9,3,1.9,3s-0.6,0.2-0.9-0.1
			c-0.3-0.2-2.3-2.3-2.3-2.3l2.1,3.1c0,0-0.7,0-1-0.3c-0.3-0.3-2.3-2.2-2.3-2.2l-0.7-0.1c0.4,0.3,0.7,0.6,1.1,1
			c0.2,0.3,0.4,0.6,0.6,1c-0.3,0-0.5-0.1-0.8-0.2c-0.2-0.1-2-1.6-2-1.6l0.9,1.2c0,0-0.6,0-0.8-0.2c-0.2-0.1-1.6-1.3-1.8-1.3
			c-0.2,0-2-0.1-2.7-0.4c-0.8-0.4-3.1-1.3-3.1-1.3L340.6,159.3z"/>
		<path class="st6" d="M301.8,117.8c0,0-4.2,1.2-5.2,2.1c0,0,4.4,10.7,10.7,15.7l1.7-1.1v2.6l6.3,4C315.4,141,301.5,121,301.8,117.8
			z"/>
		<path class="st6" d="M321.1,157.4c-1.1,3.8-2.6,7.4-4.4,10.9h2.1h-2.2h-20c0,0,2.3,0,2.3,0c-0.1-0.2,3.4-9.1-2.3-12.8
			c-5.7-3.7-7.8-12.7-7.8-12.7l18.2-4.2c0,0,7.5,10.4,9.6,12.4c1.6,1.5,5.4,1.6,5.4,1.6L321.1,157.4z"/>
		<path class="st6" d="M315.1,119.5c0,0,1.9,14.6,0.3,21.5c0,0,2.6-4.6,3-5.4l-0.4-2.5l1.7,0.6c0,0-1.5-11.6-2.8-13.7
			c-1.3-2-1.8-2.2-1.8-2.2L315.1,119.5z"/>
		<path class="st20" d="M371.4,164.4c0,0-8.1,0.3-16,0.2c-2-2.9,0.4-6.4,0.4-6.4c6.9,1.2,14.2,2.3,14.2,2.3L371.4,164.4z"/>
		<path class="st19" d="M372.2,168.2h-29.9c0-0.3,0.1-0.6,0.2-0.9c0.1-0.3,0.3-0.5,0.5-0.7c0.2-0.2,0.5-0.4,0.8-0.5
			c0.3-0.1,0.6-0.2,0.9-0.2h27.6V168.2z"/>
		<path class="st19" d="M418.4,137.1l-11.1,31.2h-46.6l11.4-31.2H418.4z"/>
		<path class="st23" d="M418.4,137.1l-11,30.9l-0.1,0.3h-45.9l11.4-31.2H418.4z"/>
		<path class="st24" d="M394.1,152.4c-0.3,1.2-1.5,2.2-2.8,2.2c-1.2,0-2-1-1.7-2.2s1.5-2.2,2.8-2.2
			C393.6,150.2,394.4,151.2,394.1,152.4z"/>
		<path class="st19" d="M418.4,137.1l-11,30.9h-21.1l25.7-30.9H418.4z"/>
		<path class="st20" d="M340.6,161.7c0,0-15.4,1.3-23.9,0.9v-8c5.6,1.5,23.9,4.7,23.9,4.7L340.6,161.7z"/>
		<path class="st8" d="M296.7,119.9c0,0-8.8,0.2-11.5,3c-2.7,2.8,2.7,18.7,2.7,18.7s16.4,19.2,24.6,20.6c0,0,3.6,0.5,5.3,0.5
			c0,0-1.6-4.6,1.4-7.4c0,0-3.5-0.9-3.7-1.4C315.3,153.5,296.7,119.9,296.7,119.9z"/>
		<path class="st25" d="M665.1,83.6c0,0-8.9-3.2-14.5,3.1c-3.2,3.6-23.7,40.9-23.4,44.1c0.2,3.3,2.2,4.9,2.2,4.9s-0.9-2.9-0.2-4.3
			c0,0-0.4,5,2.8,7.2c1.7,1.1,43.8-1.1,47.5-5.9c8-10.6-9.4-16.1-9-27.5C670.7,98.4,677.5,84.3,665.1,83.6z"/>
		<path class="st19" d="M673.6,107.3l-0.6,0.1c-1.3,0.2-2.6,0-3.7-0.7c-1.1-0.7-1.9-1.8-2.1-3l-0.6-3c-0.3-1.2,0-2.5,0.7-3.5
			c0.7-1,1.9-1.8,3.1-2l0.6-0.1c1.3-0.2,2.6,0,3.7,0.7c1.1,0.7,1.9,1.8,2.1,3l0.6,3c0.3,1.2,0,2.5-0.7,3.5S674.8,107.1,673.6,107.3z
			"/>
		<path class="st23" d="M711.8,168.2h-27.9c-4.7-7.2-8.9-16.9-9.9-24.5c-0.5-3.6-0.2-6.7,1.1-8.8c3.9-6.6-2.3-14.3-2.3-14.3
			s8.5,2.3,10.5,9c2,6.8,7.4,29.6,7.4,29.6l20.7,4.1C712.4,165.6,711.8,168.2,711.8,168.2z"/>
		<path class="st19" d="M711.8,168.2h-27.9c-4.7-7.2-8.9-16.9-9.9-24.5l4.1-1.2c0,0,5.2,22.9,8.3,23.2
			C689.4,166.1,711.8,168.2,711.8,168.2z"/>
		<path class="st20" d="M676.8,131.4c-2.1,1.8-4.9,3.4-8.5,4.6c-13.4,4.5-19.9-6-22.8-13.4c1.3-0.9,2.9-1.5,4.5-1.9
			c1-0.2,2-0.4,2.9-0.5c1.4-1.3,3.2-6.2,2.8-13.4l0.7,0.1l11.1,1.7c0,0-0.1,3.3,0,6.5c0.1,2.4,0.3,4.8,0.9,5.3
			c0.9,0.1,1.4,0.1,1.4,0.1c0,0,0,0,0,0C672.5,123.9,674.9,127.6,676.8,131.4z"/>
		<path class="st21" d="M667.6,108.6c0,0-0.1,3.3,0,6.5c-6.2,0.1-9.7-5.2-11.2-8.1L667.6,108.6z"/>
		<path class="st23" d="M682.2,142.5c0,0.2-3,9.5-3,9.7c-1,7.7-2.9,16-2.9,16h-4.1l-27-0.1c0,0,3.3-9.4-5.3-23.8
			c-0.3-0.5-0.6-0.9-0.9-1.4c-1.2-1.9,6.5-22.5,6.5-22.5s3.4-0.6,8.1-0.9c0.4,0.4,3.7,11.9,9.7,12.3c7.8,0.5,4.8-12.4,4.8-12.4
			c3.2,0.6,4.3,0.8,8.4,2.7C676.4,122.1,682.3,141.2,682.2,142.5z"/>
		<path class="st20" d="M669.6,111.6c0,0-14.6,0.6-14.9-8.1s-2.3-14.5,7-15.3c9.3-0.7,11.2,2.5,12.1,5.4
			C674.6,96.5,673.4,111.2,669.6,111.6z"/>
		<path class="st22" d="M666.4,106.9c0,0,0.2,1,2.6,1.1c0,0,2,0,2-1.1C671,106.9,669.1,105.9,666.4,106.9z"/>
		<path class="st7" d="M667.4,110.4c-8.5-2-11-9.4-11-9.5l0.9-0.3l-0.4,0.1l0.4-0.1c0,0.1,2.4,7,10.4,8.9l0.2,0l-0.2,0.9
			L667.4,110.4z"/>
		<path class="st25" d="M668.4,110.9l-0.8-0.2c-0.2,0-0.4-0.2-0.5-0.3c-0.1-0.2-0.1-0.4-0.1-0.6c0-0.2,0.2-0.3,0.3-0.4
			s0.4-0.1,0.6-0.1l0.8,0.2c0.2,0,0.4,0.2,0.5,0.3c0.1,0.2,0.1,0.4,0.1,0.6c0,0.1-0.1,0.2-0.1,0.3c-0.1,0.1-0.1,0.1-0.2,0.2
			c-0.1,0-0.2,0.1-0.3,0.1C668.6,111,668.5,111,668.4,110.9z"/>
		<path class="st25" d="M661.3,82.8c0,0,9.4-1.4,13.3,6.1c3,5.7,0.5,9.3-0.7,10.4c0,0-1.5-8.2-4.4-8.9c0,0-1.9-0.5-3.1,0.9
			c-1.3,1.4-3.1,7.7-5.2,8.6c0,0-6.5,1.5-6.9-0.6c-0.3-2.2-0.1-9,1.5-10.1C657.5,88.1,661.3,82.8,661.3,82.8z"/>
		<path class="st19" d="M658.3,107.3l-0.6,0.1c-1.3,0.2-2.6,0-3.7-0.7c-1.1-0.7-1.9-1.8-2.1-3l-0.6-3c-0.3-1.2,0-2.5,0.7-3.5
			c0.7-1,1.9-1.8,3.1-2l0.6-0.1c1.3-0.2,2.6,0,3.7,0.7c1.1,0.7,1.9,1.8,2.1,3l0.6,3c0.3,1.2,0,2.5-0.7,3.5
			C660.7,106.4,659.6,107.1,658.3,107.3z"/>
		<path class="st19" d="M653.7,96.6c-0.4-0.6-1-5.6,0.6-9.6c0.3-0.8,0.8-1.6,1.4-2.2c0.6-0.6,1.4-1.2,2.2-1.5
			c0.6-0.3,1.2-0.4,1.9-0.4l1.6,0c-5.2,1.9-6.4,12-6,13.1c0,0,0-0.1,0-0.1L653.7,96.6z"/>
		<path class="st23" d="M656.9,104.4l-0.3,0.1c-0.6,0.1-1.3,0-1.8-0.3c-0.5-0.3-0.9-0.9-1.1-1.5l-0.3-1.5c-0.1-0.6,0-1.2,0.4-1.8
			c0.4-0.5,0.9-0.9,1.6-1l0.3-0.1c0.6-0.1,1.3,0,1.8,0.3c0.5,0.3,0.9,0.9,1.1,1.5l0.3,1.5c0.1,0.6,0,1.2-0.4,1.8
			C658.1,103.9,657.6,104.3,656.9,104.4z"/>
		<path class="st19" d="M645.1,168.2c0,0,3.3-9.4-5.3-23.8l3.2-3.8c0,0,5.7,15.3,12.7,19.8c7.1,4.5,15.4,3.5,16.4,7.9L645.1,168.2z"
			/>
		<path class="st23" d="M645.4,120.5c0,0-5.8,0.5-9.7,7.1c-3.9,6.6-11.3,31.2-11.3,40.6h31.2c0,0,0.6-2.6-0.4-4.9l-19.3-3.6
			c0,0,11.6-16.5,11.7-23.6S645.4,120.5,645.4,120.5z"/>
		<path class="st20" d="M655.7,165.2c0,0,6.1-0.6,7.1-0.3c1,0.3,3.9,1.4,4.5,1.8c0.6,0.4,1.9,1.5,1.9,1.5s-0.8,0.1-1.2,0
			c-0.5-0.1-1.8-0.2-2.2-0.2c-0.4,0-1.7,0.2-1.7,0.2h-9.4L655.7,165.2z"/>
		<path class="st15" d="M710.7,168.2h-29.9c0-0.6,0.3-1.2,0.7-1.6c0.4-0.4,1.1-0.7,1.7-0.7h27.6V168.2z"/>
		<path class="st15" d="M757,137.1l-11.1,31.2h-46.6l11.4-31.2H757z"/>
		<path class="st11" d="M757,137.1L746,168l-0.1,0.3h-45.9l11.4-31.2H757z"/>
		<path class="st23" d="M732.7,152.4c-0.3,1.2-1.5,2.2-2.8,2.2c-1.2,0-2-1-1.7-2.2c0.3-1.2,1.5-2.2,2.8-2.2
			C732.2,150.2,733,151.2,732.7,152.4z"/>
		<path class="st15" d="M757,137.1L746,168h-21.1l25.7-30.9H757z"/>
	</g>
</g>
</svg>
