<?xml version="1.0" encoding="utf-8"?>
<!-- Generator: Adobe Illustrator 21.0.0, SVG Export Plug-In . SVG Version: 6.00 Build 0)  -->
<svg version="1.1" id="Layer_1" xmlns="http://www.w3.org/2000/svg" xmlns:xlink="http://www.w3.org/1999/xlink" x="0px" y="0px"
	 viewBox="0 0 400 200" style="enable-background:new 0 0 400 200;" xml:space="preserve">
<style type="text/css">
	.st0{fill:#FFE2E5;}
	.st1{clip-path:url(#SVGID_4_);}
	.st2{fill:url(#SVGID_5_);}
	.st3{fill:url(#SVGID_6_);}
	.st4{fill:url(#SVGID_7_);}
	.st5{fill:url(#SVGID_8_);}
	.st6{fill:url(#SVGID_9_);}
	.st7{fill:#FFFFFF;}
	.st8{fill:url(#SVGID_10_);}
	.st9{fill:url(#SVGID_11_);}
	.st10{fill:url(#SVGID_12_);}
	.st11{fill:url(#SVGID_13_);}
	.st12{fill:#706865;}
	.st13{fill:#BDAFAA;}
	.st14{fill:#EB4646;}
	.st15{opacity:0.72;fill:#D9D9D9;enable-background:new    ;}
	.st16{fill:#EEA886;}
	.st17{fill:#FFC655;}
	.st18{fill:#C4C6D1;}
	.st19{fill:#292C47;}
	.st20{fill:#D44040;}
	.st21{fill:#434343;}
	.st22{fill:#A77860;}
	.st23{fill:#6E6760;}
	.st24{fill:#C98462;}
	.st25{fill:#807066;}
</style>
<g>
	<defs>
		<rect id="SVGID_1_" x="97.5" y="23" width="205" height="154"/>
	</defs>
	<clipPath id="SVGID_2_">
		<use xlink:href="#SVGID_1_"  style="overflow:visible;"/>
	</clipPath>
</g>
<path class="st0" d="M0,62C0,62,27.7,20,73.4,15.5s67.5,24.2,99.2,25.8c31.7,1.6,74.3-25.5,114.3-26.3c40-0.8,113.1,34.3,113.1,34.3
	V200H0V62z"/>
<g>
	<defs>
		<rect id="SVGID_3_" x="108.5" y="44" width="181" height="155"/>
	</defs>
	<clipPath id="SVGID_4_">
		<use xlink:href="#SVGID_3_"  style="overflow:visible;"/>
	</clipPath>
	<g class="st1">
		
			<linearGradient id="SVGID_5_" gradientUnits="userSpaceOnUse" x1="239.6151" y1="52.9161" x2="280.5544" y2="52.9161" gradientTransform="matrix(1 0 0 -1 0 202)">
			<stop  offset="0" style="stop-color:#3076A1"/>
			<stop  offset="1" style="stop-color:#639C38"/>
		</linearGradient>
		<path class="st2" d="M240.2,179.2c-2.2-9.4,2.5-11.7,7-14c3.7-1.9,7.2-3.6,7-9.1c-0.2-7.3,5-10,9.6-12.3c3.5-1.8,6.7-3.4,7.2-6.7
			c1.2-8,9-18,9-18.1l0.5,0.3c-0.1,0.1-7.8,10-8.9,17.8c-0.5,3.6-3.9,5.3-7.5,7.2c-4.7,2.4-9.6,4.9-9.3,11.8
			c0.2,5.9-3.6,7.8-7.3,9.7c-4.5,2.3-8.8,4.4-6.7,13.4L240.2,179.2z"/>
		
			<linearGradient id="SVGID_6_" gradientUnits="userSpaceOnUse" x1="27906.7578" y1="58.583" x2="39499.5312" y2="58.583" gradientTransform="matrix(1 0 0 -1 0 202)">
			<stop  offset="0" style="stop-color:#3076A1"/>
			<stop  offset="1" style="stop-color:#639C38"/>
		</linearGradient>
		<path class="st3" d="M242.5,176.8c-0.1,0-0.2,0-0.3,0c-2-0.1-3.9-1.5-6-4.4l-0.1-0.2l0.2-0.2c0,0,3.5-4,2.2-11.6
			c-0.2-1.4-0.6-2.8-1-4.2c-0.5-1.6-0.8-2.6-0.2-3.4c0.7-1.1,2.4-1.6,7.4-2.7c5.3-1.2,7.1-6.9,8.6-11.8c1.5-4.7,2.9-9.1,7-9
			c3.8,0.1,9.5-5.5,14.6-10.4c4.7-4.6,9.1-8.9,12-8.9c0.3,0,0.7,0.1,0.9,0.2c0.3,0.1,0.6,0.3,0.8,0.6c2.5,2.9,0.2,7.2-2.1,11.4
			c-1.9,3.6-3.8,7-2.6,9.2c1.5,2.8,1.7,5.3,0.6,7.3c-1.3,2.4-4.3,3.9-9,4.5c-4.3,0.6-4.7,5-5.2,9.7c-0.6,5.4-1.2,11.6-8.4,12.2
			c-5.3,0.4-8.9,4-12,7.1C247.2,174.7,245.1,176.8,242.5,176.8z M236.8,172.2c2,2.6,3.7,3.9,5.4,4c2.4,0.2,4.5-2,7-4.4
			c3.2-3.2,6.9-6.8,12.4-7.3c6.7-0.5,7.2-6.2,7.8-11.7c0.5-4.9,1-9.5,5.7-10.2c4.5-0.6,7.3-2,8.5-4.2c1-1.8,0.8-4.2-0.6-6.8
			c-1.3-2.5,0.6-6,2.6-9.7c2.2-4,4.5-8.2,2.2-10.8c-0.2-0.2-0.3-0.3-0.6-0.4c-0.2-0.1-0.5-0.2-0.7-0.2c-2.6-0.1-6.9,4.2-11.5,8.7
			c-5.3,5.2-10.8,10.6-14.9,10.6h-0.2c-3.6-0.1-4.9,3.9-6.4,8.6c-1.6,5.1-3.4,11-9.1,12.2c-4.5,1-6.5,1.6-7,2.5
			c-0.4,0.6-0.1,1.5,0.3,3c0.4,1.4,0.8,2.8,1,4.2C240.2,167.4,237.5,171.4,236.8,172.2z"/>
		
			<linearGradient id="SVGID_7_" gradientUnits="userSpaceOnUse" x1="16349.3516" y1="66.251" x2="21171.1914" y2="66.251" gradientTransform="matrix(1 0 0 -1 0 202)">
			<stop  offset="0" style="stop-color:#3076A1"/>
			<stop  offset="1" style="stop-color:#639C38"/>
		</linearGradient>
		<path class="st4" d="M242.8,174.9c-0.1,0-0.1,0-0.2,0c-3.2-0.3-5.7-6.9-8-13.4c-1.1-3.1-2.2-5.9-3.2-7.8c-0.8-1.4-1.8-2.9-2.8-4.4
			c-2.6-3.9-5.4-7.9-4.5-11.4c0.5-1.8,1.9-3.4,4.3-4.7c5.3-2.9,4.4-4.5,2.7-8.1c-1.3-2.6-3.1-6.2-3.1-11.8c0-2.4-0.1-4.5-0.1-6.4
			c-0.2-5.9-0.2-8.9,1.1-10c0.6-0.4,1.3-0.6,2.4-0.4c1.9,0.3,2.7,1.8,3.6,3.3c1.1,2,2.4,4.2,6.1,4.9c3.5,0.7,7,1.7,7.9,3.9
			c0.7,1.6,0,3.6-1.9,6.3c-0.5,0.7-0.6,1.2-0.5,1.7c0.3,1.1,2.1,1.9,4.1,2.8c2.9,1.3,6.5,2.9,7.6,6.2c0.8,2.7-0.1,6-2.9,10.2
			c-6.6,9.9-6.3,16.6-6.1,22.6c0.2,4.4,0.3,8.6-2.5,13.2C245.2,173.9,244,174.9,242.8,174.9z M230.2,97.2c-0.4,0-0.8,0.1-1.1,0.3
			c-1.1,0.9-1,4-0.9,9.5c0.1,1.8,0.1,3.9,0.1,6.4c0.1,5.5,1.8,9,3.1,11.6c1.8,3.5,2.8,5.7-2.9,8.8c-2.2,1.2-3.5,2.6-4,4.3
			c-0.8,3.3,1.8,7.2,4.4,10.9c1,1.5,2,3,2.8,4.4c1.1,1.9,2.1,4.8,3.3,7.9c2.2,6,4.7,12.8,7.5,13c1.1,0.1,2.2-0.8,3.4-2.8
			c2.7-4.5,2.6-8.4,2.4-12.9c-0.2-6-0.5-12.8,6.2-22.9c2.7-4,3.6-7.2,2.9-9.7c-0.9-3.1-4.3-4.6-7.2-5.9c-2.2-1-4.1-1.8-4.4-3.1
			c-0.2-0.7,0-1.4,0.6-2.2c1.8-2.5,2.4-4.4,1.9-5.8c-0.8-2-4.2-2.9-7.5-3.6c-4.1-0.8-5.4-3.3-6.5-5.2c-0.8-1.5-1.5-2.7-3.2-3
			C230.7,97.2,230.4,97.2,230.2,97.2L230.2,97.2z"/>
		
			<linearGradient id="SVGID_8_" gradientUnits="userSpaceOnUse" x1="5531.6499" y1="59.1854" x2="5975.1279" y2="59.1854" gradientTransform="matrix(1 0 0 -1 0 202)">
			<stop  offset="0" style="stop-color:#3076A1"/>
			<stop  offset="1" style="stop-color:#639C38"/>
		</linearGradient>
		<path class="st5" d="M242.8,178.4l-0.6-0.2c3.2-9.7-2.6-31.4-4.4-36.7c-0.9-2.6-0.1-6.5,0.7-10.3c1-4.9,2-10-0.6-11.9
			c-4.9-3.6-4.6-11.8-4.6-12.2l0.6,0c0,0.1-0.2,8.3,4.4,11.7c2.9,2.1,1.8,7.4,0.8,12.4c-0.7,3.7-1.5,7.6-0.7,10
			C240.6,147.9,246,168.8,242.8,178.4z"/>
		
			<linearGradient id="SVGID_9_" gradientUnits="userSpaceOnUse" x1="14066.2461" y1="57.216" x2="18686.3398" y2="57.216" gradientTransform="matrix(1 0 0 -1 0 202)">
			<stop  offset="0" style="stop-color:#3076A1"/>
			<stop  offset="1" style="stop-color:#639C38"/>
		</linearGradient>
		<path class="st6" d="M218.4,115.5c-1.3-3.2-6.6-2.8-6.1,1.8c0.5,4.6,3.9,9.5-1.3,17.3c-5.1,7.8,6.6,9.3,10.8,14.2
			c4.2,4.9,5.6,11.6,9.2,15.9c3.5,4.3,6,14.5,8.8,10.7c2.9-3.8,0.2-8.8,0.5-15.7c0.3-6.9,6.8-11.2,0.3-15.7
			c-6.4-4.4-12.9-5.8-10.8-15.8C230.7,123.8,222.6,125.5,218.4,115.5z"/>
		<path class="st7" d="M244.5,176.2c0-0.2-3.6-20.3-11.6-25.9c-8.2-5.6-9.7-10.8-12.5-23.1l0.6-0.1c2.8,12.1,4.3,17.2,12.3,22.7
			c8.2,5.7,11.7,25.4,11.9,26.2L244.5,176.2z"/>
		
			<linearGradient id="SVGID_10_" gradientUnits="userSpaceOnUse" x1="-21696.2344" y1="-42069.4062" x2="-4540.1953" y2="-9141.2588" gradientTransform="matrix(1 0 0 -1 0 202)">
			<stop  offset="0" style="stop-color:#3076A1"/>
			<stop  offset="1" style="stop-color:#639C38"/>
		</linearGradient>
		<path class="st8" d="M237.2,175.5c0,0,2.4-5.6-2-13.5c-4.3-7.9-7.8-6.7,2.6-12.8c10.4-6.1,0.1-25.4,9-27.8
			c8.9-2.4,16.6-33.6,23.4-29.6c6.8,4-2.3,19.2,2.6,23.8c4.8,4.6,5.5,10.4-4.5,15.1c-10,4.7,7.1,22.8-6.4,28.3
			C248.3,164.4,252.2,186,237.2,175.5z"/>
		<path class="st7" d="M241.4,181.4c0-0.1-1.5-7.2,3.1-16.5c4.7-9.4,6.9-19.7,6-27.5c-0.5-4.2,2.4-5.9,5.1-7.5
			c2.7-1.6,5.5-3.2,5.4-7.4c-0.1-3.8,1.5-12.6,1.6-13l0.6,0.1c0,0.1-1.7,9.2-1.6,12.9c0.2,4.5-2.8,6.2-5.7,7.9
			c-2.7,1.6-5.3,3.1-4.8,6.9c0.9,7.9-1.3,18.3-6,27.9c-4.5,9.1-3.1,16-3.1,16.1L241.4,181.4z"/>
		<path class="st7" d="M252.3,142c3-2.7,7-3.1,6.2,0.9c-0.8,4-3.7,5.1-2.3,7.6c1.4,2.5,3.8,5-0.2,8.1c-4.1,3.1-6.3,3.4-7.5,9.2
			c-1.2,5.8-1,9.7-6.2,10c-5.3,0.2-3.2-7-1.6-10.3c0.8-1.3,1.2-2.8,1.4-4.3c0.1-1.5,0-3-0.5-4.4c-1.7-4.9-4.9-7.6,1.9-9.3
			C250.3,147.7,250.2,143.8,252.3,142z"/>
		
			<linearGradient id="SVGID_11_" gradientUnits="userSpaceOnUse" x1="7030.4414" y1="38.9607" x2="7661.6577" y2="38.9607" gradientTransform="matrix(1 0 0 -1 0 202)">
			<stop  offset="0" style="stop-color:#3076A1"/>
			<stop  offset="1" style="stop-color:#639C38"/>
		</linearGradient>
		<path class="st9" d="M242.6,181.4c0-0.7-0.4-17.4,2.9-20.2c3.4-2.9,4-7.9,4.1-10.7c0.1-3.6,5-5.7,5.2-5.8l0.2,0.5
			c0,0-4.8,2.1-4.9,5.3c-0.1,3.5-0.9,8.2-4.3,11.1c-3.1,2.6-2.7,19.6-2.7,19.7L242.6,181.4z"/>
		
			<linearGradient id="SVGID_12_" gradientUnits="userSpaceOnUse" x1="231.9058" y1="17.6019" x2="254.968" y2="17.6019" gradientTransform="matrix(1 0 0 -1 0 202)">
			<stop  offset="0" style="stop-color:#BAD0DE"/>
			<stop  offset="1" style="stop-color:#F5F2FF"/>
		</linearGradient>
		<path class="st10" d="M255,174.6l-5.4,19.6h-12.2l-5.4-19.6H255z"/>
		
			<linearGradient id="SVGID_13_" gradientUnits="userSpaceOnUse" x1="231.9058" y1="17.6019" x2="254.968" y2="17.6019" gradientTransform="matrix(1 0 0 -1 0 202)">
			<stop  offset="0" style="stop-color:#9FA0AD"/>
			<stop  offset="0.99" style="stop-color:#55B5FF"/>
		</linearGradient>
		<path class="st11" d="M255,174.6c0,0-12,2.1-12,19.6h-5.6l-5.4-19.6H255z"/>
		<path class="st12" d="M227.8,92.5h-2.4v101.7h2.4V92.5z"/>
		<path class="st12" d="M173.3,92.5h-2.4v101.7h2.4V92.5z"/>
		<path class="st13" d="M231,50h-63.4c-3.9,0-7.1,3-7.1,6.7v114c0,3.7,3.2,6.7,7.1,6.7H231c3.9,0,7.1-3,7.1-6.7v-114
			C238.1,53,234.9,50,231,50z"/>
		<path class="st7" d="M229,52.1h-59.3c-3.9,0-7,3-7,6.6v107.1c0,3.7,3.1,6.6,7,6.6H229c3.9,0,7-3,7-6.6V58.7
			C236,55.1,232.9,52.1,229,52.1z"/>
		<path class="st12" d="M210.9,49.1h-23.1v5h23.1V49.1z"/>
		<path class="st14" d="M177.8,79.5h-7c-1.3,0-2.3,1-2.3,2.2v6.7c0,1.2,1,2.2,2.3,2.2h7c1.3,0,2.3-1,2.3-2.2v-6.7
			C180.1,80.5,179,79.5,177.8,79.5z"/>
		<path class="st15" d="M223.5,64.9h-37.9c-0.7,0-1.2,0.5-1.2,1.1v1.2c0,0.6,0.5,1.1,1.2,1.1h37.9c0.7,0,1.2-0.5,1.2-1.1V66
			C224.7,65.4,224.1,64.9,223.5,64.9z"/>
		<path class="st15" d="M229.1,70.4h-43.5c-0.7,0-1.2,0.5-1.2,1.1v1.2c0,0.6,0.5,1.1,1.2,1.1h43.5c0.7,0,1.2-0.5,1.2-1.1v-1.2
			C230.3,70.9,229.7,70.4,229.1,70.4z"/>
		<path class="st14" d="M177.8,63.8h-7c-1.3,0-2.3,1-2.3,2.2v6.7c0,1.2,1,2.2,2.3,2.2h7c1.3,0,2.3-1,2.3-2.2V66
			C180.1,64.8,179,63.8,177.8,63.8z"/>
		<path class="st15" d="M185.5,80.5h28.2c0.3,0,0.5,0.1,0.7,0.3c0.2,0.2,0.3,0.4,0.3,0.7V83c0,0.3-0.1,0.5-0.3,0.7
			c-0.2,0.2-0.5,0.3-0.7,0.3h-28.2c-0.3,0-0.5-0.1-0.7-0.3c-0.2-0.2-0.3-0.4-0.3-0.7v-1.5c0-0.3,0.1-0.5,0.3-0.7
			C184.9,80.6,185.2,80.5,185.5,80.5z"/>
		<path class="st15" d="M220.6,86.1h-35c-0.6,0-1.1,0.5-1.1,1v1.4c0,0.6,0.5,1,1.1,1h35c0.6,0,1.1-0.5,1.1-1v-1.4
			C221.6,86.5,221.1,86.1,220.6,86.1z"/>
		<path class="st15" d="M227.1,96.2h-41.4c-0.7,0-1.3,0.5-1.3,1.2v1c0,0.7,0.6,1.2,1.3,1.2h41.4c0.7,0,1.3-0.5,1.3-1.2v-1
			C228.3,96.7,227.8,96.2,227.1,96.2z"/>
		<path class="st15" d="M223.5,101.7h-38c-0.6,0-1.1,0.5-1.1,1.1v1.3c0,0.6,0.5,1.1,1.1,1.1h38c0.6,0,1.1-0.5,1.1-1.1v-1.3
			C224.7,102.2,224.2,101.7,223.5,101.7z"/>
		<path class="st14" d="M177.8,95.2h-7c-1.3,0-2.3,1-2.3,2.2v6.7c0,1.2,1,2.2,2.3,2.2h7c1.3,0,2.3-1,2.3-2.2v-6.7
			C180.1,96.1,179,95.2,177.8,95.2z"/>
		<path class="st14" d="M177.8,127.3h-7c-1.3,0-2.3,1-2.3,2.2v6.7c0,1.2,1,2.2,2.3,2.2h7c1.3,0,2.3-1,2.3-2.2v-6.7
			C180.1,128.3,179,127.3,177.8,127.3z"/>
		<path class="st15" d="M223.5,112.7h-37.9c-0.7,0-1.2,0.5-1.2,1.1v1.2c0,0.6,0.5,1.1,1.2,1.1h37.9c0.7,0,1.2-0.5,1.2-1.1v-1.2
			C224.7,113.2,224.1,112.7,223.5,112.7z"/>
		<path class="st15" d="M229.1,118.2h-43.5c-0.7,0-1.2,0.5-1.2,1.1v1.2c0,0.6,0.5,1.1,1.2,1.1h43.5c0.7,0,1.2-0.5,1.2-1.1v-1.2
			C230.3,118.7,229.7,118.2,229.1,118.2z"/>
		<path class="st14" d="M177.8,111.6h-7c-1.3,0-2.3,1-2.3,2.2v6.7c0,1.2,1,2.2,2.3,2.2h7c1.3,0,2.3-1,2.3-2.2v-6.7
			C180.1,112.6,179,111.6,177.8,111.6z"/>
		<path class="st15" d="M213.6,128.3h-28.2c-0.6,0-1,0.4-1,1v1.5c0,0.5,0.5,1,1,1h28.2c0.6,0,1-0.4,1-1v-1.5
			C214.7,128.8,214.2,128.3,213.6,128.3z"/>
		<path class="st15" d="M220.6,133.9h-35c-0.6,0-1.1,0.5-1.1,1v1.4c0,0.6,0.5,1,1.1,1h35c0.6,0,1.1-0.5,1.1-1v-1.4
			C221.6,134.3,221.1,133.9,220.6,133.9z"/>
		<path class="st15" d="M227.1,144h-41.4c-0.7,0-1.3,0.5-1.3,1.2v1c0,0.7,0.6,1.2,1.3,1.2h41.4c0.7,0,1.3-0.5,1.3-1.2v-1
			C228.3,144.5,227.8,144,227.1,144z"/>
		<path class="st15" d="M223.5,149.5h-38c-0.6,0-1.1,0.5-1.1,1.1v1.3c0,0.6,0.5,1.1,1.1,1.1h38c0.6,0,1.1-0.5,1.1-1.1v-1.3
			C224.7,150,224.2,149.5,223.5,149.5z"/>
		<path class="st14" d="M177.8,143h-7c-1.3,0-2.3,1-2.3,2.2v6.7c0,1.2,1,2.2,2.3,2.2h7c1.3,0,2.3-1,2.3-2.2v-6.7
			C180.1,143.9,179,143,177.8,143z"/>
		<path class="st13" d="M243.7,68.3h-0.7V44.7h-12.3V44h13.1V68.3z"/>
		<path class="st16" d="M174.6,117.7c0,0,1,2.1,1.9,1.8c0.9-0.3,2.3-0.2,2.7-0.1c0.6,0.1,2.4-0.4,2.3,0.3c-0.1,0.7-3,0.8-3.6,1
			c-0.6,0.1,1.6,1.6,1.7,2.2c0.1,0.6-2.9,3.8-4.3,2.7c-1.4-1.2-1.9-3.3-2.2-3.4c-0.3-0.2-1.5-1.8-1.5-1.8L174.6,117.7z"/>
		<path class="st16" d="M179.3,122.4c0,0,3.9,3.9,3.9,4.3c0,0.5-0.2,0.7-0.6,0.3c-0.4-0.3-3.9-3.6-3.9-3.6s3.7,5.3,3.8,5.7
			c0.1,0.2-0.4,0.6-0.6,0.4c-0.2-0.2-4.3-5.2-4.3-5.2s3.5,5,3.5,5.3c0,0.1-0.1,0.2-0.1,0.2c-0.1,0.1-0.1,0.1-0.2,0.1
			c-0.1,0-0.2,0-0.3,0c-0.1,0-0.2-0.1-0.2-0.1c-0.3-0.4-3.8-4.8-3.8-4.8s2.3,3.8,2.1,4.1c-0.1,0.2-0.5,0.5-1.1-0.5
			c-0.6-1-2.1-3.2-2.1-3.2L179.3,122.4z"/>
		<path class="st17" d="M108.5,54H128v13.4v2.8l-3-2.8h-16.5V54z"/>
		<path class="st18" d="M125.6,190.7c0,0-1.5,1-2.3,1.7c-0.8,0.7-2,1.5-2.6,3.3c-0.7,1.8,0.4,3.2,2.3,3.3c1.9,0.1,4.7-1.2,5-2.9
			c0.3-1.6,2.5-1.4,2.8-2.6s-0.1-2.5-0.1-2.5L125.6,190.7z"/>
		<path class="st16" d="M125.9,189.4l-0.2,1.3c0,0,0.8,1.4,5,0.3l-0.2-1.3L125.9,189.4z"/>
		<path class="st18" d="M130.6,191c0,0-1,0.1-1.6,0.2c-0.7,0.1-2-0.7-3.4-0.5l0.4,1.6C126.1,192.3,130.5,191.5,130.6,191z"/>
		<path class="st18" d="M152.5,190.7c0,0,1.5,1,2.3,1.7c0.8,0.7,2,1.5,2.6,3.3c0.7,1.8-0.4,3.2-2.3,3.3c-1.9,0.1-4.7-1.2-5-2.9
			c-0.3-1.6-2.5-1.4-2.8-2.6c-0.3-1.2,0.1-2.6,0.1-2.6L152.5,190.7z"/>
		<path class="st16" d="M152.3,189.4l0.2,1.3c0,0-0.8,1.4-5,0.3l0.2-1.3L152.3,189.4z"/>
		<path class="st19" d="M154.1,158.3c0,2.9-1.2,30.8-1.2,30.8c-0.3,1-4.5,0.9-5.5,0.4c-1-0.5-0.8-27.9-1-30.8
			c-0.2-3-2.7-24.7-3.6-24.6c-0.9,0.1-6,20.6-6.7,22.8c-0.7,2.2-4.9,32.6-4.9,32.6c-3.5,1.2-5.8,0-5.8,0s1.3-30.6,1.3-34.2
			c0-1.3,0.4-2.4,0.8-9.5c0.3-5.5,1.9-16.7,3-24.4c0-0.3,0.1-0.5,0.1-0.8c0.2-1.5,0.4-2.6,0.4-3.1c0-0.2,0.1-0.4,0.1-0.4
			c0.3-0.1,0.6-0.2,0.9-0.4c7.5-2.6,22,0.2,22,0.2s0,0.1,0,0.2c0,0.1,0,0.4,0.1,0.7c0.1,0.7,0.2,1.7,0.4,2.9c0,0,0,0,0,0
			c0,0,0,0.1,0,0.1c0.5,4.2,0.8,6.5,1.2,10.9C155.8,132.7,154.1,155.4,154.1,158.3z"/>
		<path class="st20" d="M147.3,77.5c0,0,12.3,2.5,13.4,5.7c1,3.3,3,10.9,5.8,19.2c1.7,5,10.1,16.3,10.1,16.3s-4.8,3.4-4.8,2.9
			c0-0.5-11.4-14.9-11.5-16.6c-0.1-1.8-3.6-10.7-3.6-10.7s-1.6,17.3-1.6,19.9c0,2.7,0.2,8.1,0.2,8.1s-4.6,1.7-13.4,1.2
			c0,0-14.1-0.5-11.7-4.5c1.8-3.1,0.7-23.9,0.4-24c-0.3-0.1-5.2,5.7-4.7,6.8c0.5,1.1,13.2,5.2,13.2,5.2s0.4,1.3-1.6,4.3
			c0,0-19-5.3-19.1-6.4c-0.1-1.1,7.9-22.6,10.5-23.7c3.8-1.6,13.6-4.2,13.6-4.2L147.3,77.5z"/>
		<path class="st18" d="M147.5,191c0,0,0.9,0.1,1.6,0.2c0.7,0.1,2-0.7,3.4-0.5l-0.4,1.6C152.1,192.3,147.6,191.5,147.5,191z"/>
		<path class="st16" d="M147.1,73.5c0,0-0.5,2.6,0.4,4.4c0,0,0.9,4.2-3.6,4.4c-4.5,0.2-4.6-3.7-4.6-3.7s1.1-1.4,0.4-5.1
			C138.8,69.7,147.1,73.5,147.1,73.5z"/>
		<path class="st16" d="M144.3,58.2c0,0,5.8,0.9,4.9,9.7c-0.9,8.8-6,8.1-6.4,8.1c-0.3,0-5.1,0.2-5.5-10.6
			C137.4,65.4,137.2,57.4,144.3,58.2z"/>
		<path class="st16" d="M149.3,65.4c0,0,0.6-0.7,0.9,0c0.2,0.7-0.8,3.5-0.9,3.8c0,0-0.1,0.3-0.3,0.1
			C148.9,69.2,149.3,65.4,149.3,65.4z"/>
		<path class="st16" d="M137.5,65.3c0,0-0.6-0.7-0.9,0c-0.2,0.7,0.8,3.7,0.8,3.8c0,0,0.1,0.3,0.3,0.1
			C137.9,69.1,137.5,65.3,137.5,65.3z"/>
		<path class="st21" d="M149.3,66.8l-0.8,1.1c0,0,0-2.4-0.1-2.7c-0.1-0.4,0.2-1.7,0-1.9c-0.1-0.3-4,0.7-10.3,0.1
			c0,0,0.7,2.1,0.3,2.3c-0.4,0.2-0.2,2.8-0.2,2.8l-0.7-0.8c0,0-0.8-4.5-0.7-5.2c0.1-1-0.2-5.6,8.6-4.8c1,0.1,2,0.5,2.8,1
			c0.9,0.7,1.9,1.7,1.8,3.2C149.9,63.7,149.3,66.8,149.3,66.8z"/>
		<path class="st22" d="M140.2,74.8c0,0,2.4,2.7,6.2,0c0,0-1.1,2-3.3,2.1C140.9,76.9,140.2,74.8,140.2,74.8z"/>
		<path class="st23" d="M147.2,92.8l-17.9-4.9l-7.8,25.7l17.9,4.9L147.2,92.8z"/>
		<path class="st24" d="M142.3,106.9c0,0,1.2,0,1.5-0.1c0.4,0,0.1,0.7-0.3,0.8C143.1,107.7,142.3,106.9,142.3,106.9z"/>
		<path class="st16" d="M143,112.2c-0.2,0.1-0.5,0.1-0.8,0.1c0,0-0.4-0.1-0.8-0.2c-0.1,0-0.2,0-0.2,0c-0.5,0-0.9-0.1-1.4-0.2
			c-0.6-0.2-2.5-1.2-2.5-1.2l0.6-1.7l0.4-1.4c0,0,3.3-0.8,3.9-0.7c0.1,0,0.1,0,0.2,0c0.5,0.2,0.7,0.5,1,0.6c0.1,0,0.9,0.5,0.9,0.8
			c0,0.1,0,0.3,0,0.4c0,0.1-0.1,0.3-0.2,0.4c0,0,0.1,0.7-0.2,1.2c0,0.2,0,0.4-0.1,0.6c-0.1,0.2-0.2,0.4-0.3,0.5
			C143.4,111.3,143.4,112,143,112.2z"/>
		<path class="st20" d="M138.9,107c0,1.6-0.6,3.1-1.6,4.3c0,0-14-4.1-15.6-4.8c-1.7-0.6,6.1-20.1,6.1-20.1l5.7,1.8l-3,5.5
			c0,0-1.5,3.1-4.6,8.1C125.7,101.9,127.7,103.6,138.9,107z"/>
		<path class="st25" d="M136,102.2c0,1.5-1.1,2.6-2.4,2.6c-1.3,0-2.4-1.2-2.4-2.6c0-1.5,1.1-2.6,2.4-2.6
			C135,99.5,136,100.7,136,102.2z"/>
		<path class="st20" d="M148.8,80.6l-1.3-3.9c0,0-2.1,0.9-8.1,0.3l-1.4,3.7C138,80.7,143.2,85,148.8,80.6z"/>
	</g>
</g>
</svg>
