<?xml version="1.0" encoding="utf-8"?>
<!-- Generator: Adobe Illustrator 21.0.0, SVG Export Plug-In . SVG Version: 6.00 Build 0)  -->
<svg version="1.1" id="Layer_1" xmlns="http://www.w3.org/2000/svg" xmlns:xlink="http://www.w3.org/1999/xlink" x="0px" y="0px"
	 viewBox="0 0 1000 170" style="enable-background:new 0 0 1000 170;" xml:space="preserve">
<style type="text/css">
	.st0{fill:#CDF3FF;}
	.st1{fill:#3B9BFF;}
	.st2{fill:#DFEBFD;}
	.st3{fill:#CDE0FB;}
	.st4{fill:#ABDDDA;}
	.st5{fill:#FFFFFF;}
	.st6{fill:#F99746;}
	.st7{opacity:0.5;}
	.st8{opacity:0.5;fill:#ABDDDA;enable-background:new    ;}
	.st9{fill:#FFB27D;}
	.st10{fill:#233862;}
	.st11{fill:#F9DDBF;}
	.st12{fill:#EF7E29;}
	.st13{fill:#2B478B;}
	.st14{fill:#ED985F;}
	.st15{fill:#2C3A64;}
	.st16{fill:#AEC3FF;}
	.st17{fill:#9DB0F4;}
	.st18{fill:#ED975D;}
	.st19{fill:#A9453D;}
	.st20{fill:#ED7D2B;}
	.st21{fill:#163560;}
</style>
<path class="st0" d="M0,24.8C0,24.8,99.3-6.3,167,3c67.7,9.3,118.2,27.3,167.7,21.8c49.5-5.5,145.5-31.8,198-23.5
	c52.5,8.3,142.4,31,192.9,24.6C776.1,19.3,871-0.9,898.3-0.4C925.6,0.2,1000,23.7,1000,23.7v110.9H0V24.8z"/>
<path class="st1" d="M0.3,59.5c0,0,99.3-31.3,167-22c67.7,9.3,118.2,27.5,167.7,22c49.5-5.5,145.5-32.1,198-23.7
	c52.5,8.3,142.4,31.3,192.9,24.8s145.4-27,172.7-26.4c27.3,0.6,101.7,24.3,101.7,24.3v111.8H0.3V59.5z"/>
<path class="st2" d="M558.8,47.3c-0.1-5.8-9.1-6.4-9.1-6.4s-8.2,7.9-9.9,7.6c-1.8-0.2,5.7-8.2,5.7-8.2c-3.2-1.2-12.7,0.8-12.7,0.8
	s-2.1,11.2-3.8,10.5c-1.7-0.7,2.4-9.8,2.4-9.8c-3.4,0.2-7.4,3.3-7.4,3.3c-5.3,5.4,1.6,12.3,1.6,12.3s-0.8,3.8-4.1,7.6
	c-0.6,0.6-1.1,1.2-1.5,1.9l0.9,0.2c0.1-0.2,0.3-0.4,0.4-0.6l0,0c0.1-0.1,0.2-0.3,0.4-0.5c0.4-0.5,0.7-0.8,0.9-1.1
	c1.2-1.5,2.9-3.4,3.8-3.7c0-0.2-0.1-0.3-0.1-0.5c0,0.2,0.1,0.3,0.1,0.5c0.7,3.8,8,6.3,12.4,6.6c4.4,0.2,2.9-1.5,1.1-4.1
	c-1.8-2.6-6.6-3.3-7.8-4.5c-1.2-1.2,1-1.4,3.7-0.4c2.7,1,3.4,4.3,7.8,5.9c4.4,1.7,9.9-6.3,9.9-6.3c-3.3,0.2-8.5-3.1-8.4-4.3
	c0.1-1.2,8.3,1.1,9.6,1.1C556,55.1,558.9,53,558.8,47.3z"/>
<path class="st3" d="M582.3,114.4c4.3-7.6-7.1-16-7.1-16s-16.6,3.4-18.7,1.6c-2.1-1.8,13.6-5.8,13.6-5.8c-3.3-4.3-17.1-9.6-17.1-9.6
	S541.8,97.3,540.1,95c-1.6-2.3,10.5-10.8,10.5-10.8c-4.6-2.7-12.1-1.9-12.1-1.9c-11,2.6-7.2,17.3-7.2,17.3s-4,4.3-11.2,6.5
	c0,0-1.4,0.3-3.5,1.2l1,1c0.3-0.2,0.7-0.4,1-0.5c0,0,0,0,0,0s0,0,0,0l0,0c0.2-0.1,0.5-0.2,0.9-0.3c0.9-0.3,1.5-0.5,2-0.7
	c2.7-0.9,6.4-2.1,7.8-1.7c0.1-0.2,0.1-0.5,0.2-0.7l-0.2,0.7c-2,5.5,5.6,15,11.2,19c5.5,4,4.9,0.4,4.6-4.4c-0.3-4.9-6-9.9-6.7-12.4
	c-0.7-2.5,2.4-1,5.2,2.6c2.8,3.5,1.2,8.4,5.7,14.2c4.5,5.8,17.7,0.1,17.7,0.1c-4.5-2.6-8.7-11.1-7.7-12.6c1-1.5,9.9,8.4,11.7,9.6
	C572.6,122.3,578,122,582.3,114.4z"/>
<path class="st3" d="M432.4,85.9c5.5-11.9,24.9-3.9,24.9-3.9s9.7,24.7,13.6,26c3.9,1.3-4.4-22.8-4.4-22.8
	c7.9,0.8,25.7,14.7,25.7,14.7s-5.9,25.4-1.8,25.7c4.1,0.3,4.1-22.8,4.1-22.8c7,3.9,12.3,14.4,12.3,14.4c6,16.7-14.6,23.9-14.6,23.9
	s-1.9,8.8,1.5,20.1c0,0,0.8,2.1,1.5,5.6l-2-0.4c-0.1-0.6-0.1-1.2-0.3-1.8c0,0,0,0,0,0c0,0,0,0,0,0c-0.1-0.4-0.2-0.9-0.3-1.5
	c-0.4-1.4-0.6-2.4-0.8-3.2c0,0,0,0,0,0c-1.1-4.4-2.9-10.2-4.5-11.6c0.2-0.3,0.4-0.6,0.6-0.9l-0.6,0.9c-4.9,7.1-22.5,5-31.9,0.9
	c-9.3-4-4.6-6.1,1.5-9.7c6.1-3.6,16.8-0.2,20.4-1.4s-0.8-4-7.4-4.7c-6.6-0.8-11,5.4-21.7,4.3c-10.6-1.1-14.8-23.3-14.8-23.3
	c6.8,3.8,20.5,2.2,21.4-0.3c1-2.5-18.2-6.1-21.1-7.5C431,105.2,426.9,97.8,432.4,85.9z"/>
<path class="st3" d="M439.6,39.5c2.5-5.5,11.4-1.8,11.4-1.8s4.4,11.3,6.2,11.9c1.8,0.6-2-10.5-2-10.5c3.6,0.4,11.8,6.7,11.8,6.7
	s-2.7,11.6-0.8,11.8c1.9,0.1,1.9-10.4,1.9-10.4c3.2,1.8,5.7,6.6,5.7,6.6c2.7,7.6-6.7,11-6.7,11s-0.9,4.1,0.7,9.2c0,0,0.4,1,0.7,2.6
	l-0.9-0.2c0-0.3-0.1-0.5-0.1-0.8c0,0,0,0,0,0v0c0-0.2-0.1-0.4-0.2-0.7c-0.2-0.6-0.3-1.1-0.4-1.5c-0.5-2-1.3-4.7-2-5.3
	c0.1-0.1,0.2-0.3,0.3-0.4l-0.3,0.4c-2.3,3.3-10.3,2.3-14.6,0.4c-4.3-1.9-2.1-2.8,0.7-4.4c2.8-1.7,7.7-0.1,9.3-0.6
	c1.6-0.5-0.4-1.8-3.4-2.2c-3-0.4-5.1,2.5-9.9,2c-4.9-0.5-6.8-10.7-6.8-10.7c3.1,1.7,9.4,1,9.8-0.1c0.4-1.2-8.4-2.8-9.7-3.4
	C439,48.4,437.1,45,439.6,39.5z"/>
<path class="st4" d="M543.1,56.6h-78.9v111.5h78.9V56.6z"/>
<path class="st5" d="M539.3,60.2h-70.5v102.9h70.5V60.2z"/>
<path class="st6" d="M489.7,56.6v3.8c0,0.5,0.1,1,0.3,1.4c0.2,0.5,0.4,0.9,0.8,1.2s0.7,0.6,1.2,0.8c0.4,0.2,0.9,0.3,1.4,0.3h19.3
	c1,0,1.9-0.4,2.5-1.1c0.7-0.7,1.1-1.7,1.1-2.7v-3.8H489.7z"/>
<path class="st4" d="M480.5,73.8h-1v-5.1h1V73.8z"/>
<path class="st4" d="M486.3,73.8h-1l-2-3.3v3.3h-1v-5.1h1l2,3.3v-3.3h1L486.3,73.8z"/>
<path class="st4" d="M490.5,72.5c0-0.1,0-0.2,0-0.2c0-0.1-0.1-0.1-0.1-0.2c-0.1-0.1-0.2-0.1-0.3-0.2c-0.2-0.1-0.3-0.1-0.5-0.2
	c-0.2-0.1-0.4-0.2-0.7-0.2c-0.2-0.1-0.4-0.2-0.5-0.3c-0.1-0.1-0.3-0.3-0.4-0.4c-0.1-0.2-0.1-0.4-0.1-0.6c0-0.2,0-0.4,0.1-0.6
	c0.1-0.2,0.2-0.3,0.4-0.4c0.2-0.1,0.4-0.2,0.6-0.3c0.2-0.1,0.5-0.1,0.7-0.1c0.3,0,0.5,0,0.8,0.1c0.2,0.1,0.4,0.2,0.6,0.3
	c0.2,0.1,0.3,0.3,0.4,0.5c0.1,0.2,0.1,0.4,0.1,0.6h-1c0-0.1,0-0.2,0-0.3c0-0.1-0.1-0.2-0.2-0.2c-0.1-0.1-0.2-0.1-0.3-0.2
	c-0.1,0-0.2-0.1-0.4-0.1c-0.1,0-0.2,0-0.4,0c-0.1,0-0.2,0.1-0.2,0.1c-0.1,0-0.1,0.1-0.1,0.2c0,0.1-0.1,0.1,0,0.2
	c0,0.1,0,0.2,0.1,0.2c0,0.1,0.1,0.1,0.2,0.2c0.2,0.1,0.5,0.2,0.7,0.3c0.2,0.1,0.5,0.2,0.7,0.3c0.2,0.1,0.4,0.2,0.5,0.4
	c0.1,0.1,0.2,0.3,0.3,0.5c0.1,0.2,0.1,0.4,0.1,0.6c0,0.2,0,0.4-0.1,0.6c-0.1,0.2-0.2,0.3-0.4,0.5c-0.2,0.1-0.4,0.2-0.6,0.3
	c-0.2,0.1-0.5,0.1-0.8,0.1c-0.2,0-0.3,0-0.5,0c-0.2,0-0.3-0.1-0.5-0.1c-0.1-0.1-0.3-0.1-0.4-0.2c-0.1-0.1-0.2-0.2-0.3-0.3
	c-0.1-0.1-0.2-0.3-0.2-0.4c-0.1-0.2-0.1-0.3-0.1-0.5h1c0,0.1,0,0.3,0.1,0.4c0,0.1,0.1,0.2,0.2,0.3c0.1,0.1,0.2,0.1,0.3,0.1
	c0.1,0,0.3,0,0.4,0c0.1,0,0.2,0,0.3,0c0.1,0,0.2-0.1,0.2-0.1c0.1,0,0.1-0.1,0.1-0.2C490.5,72.7,490.5,72.6,490.5,72.5z"/>
<path class="st4" d="M496.8,68.8v3.3c0,0.3,0,0.5-0.1,0.8c-0.1,0.2-0.2,0.4-0.4,0.6c-0.2,0.2-0.4,0.3-0.6,0.3c-0.5,0.2-1,0.2-1.5,0
	c-0.2-0.1-0.4-0.2-0.6-0.3c-0.2-0.2-0.3-0.3-0.4-0.6c-0.1-0.2-0.1-0.5-0.1-0.8v-3.3h1v3.3c0,0.3,0.1,0.6,0.2,0.7
	c0.2,0.2,0.4,0.2,0.7,0.2c0.3,0,0.5-0.1,0.7-0.2c0.2-0.2,0.2-0.4,0.2-0.7v-3.3H496.8z"/>
<path class="st4" d="M500.2,72h-0.8v1.8h-1v-5.1h1.9c0.3,0,0.5,0,0.8,0.1c0.2,0.1,0.4,0.2,0.6,0.3c0.2,0.1,0.3,0.3,0.4,0.5
	c0.1,0.2,0.1,0.4,0.1,0.7c0,0.2,0,0.3-0.1,0.5c0,0.1-0.1,0.3-0.2,0.4c-0.1,0.1-0.2,0.2-0.3,0.3c-0.1,0.1-0.2,0.2-0.4,0.2l1.1,2.1v0
	h-1.1L500.2,72z M499.4,71.1h0.8c0.1,0,0.2,0,0.4-0.1c0.1,0,0.2-0.1,0.3-0.2c0.1-0.1,0.1-0.1,0.2-0.2c0-0.1,0.1-0.2,0.1-0.3
	c0-0.1,0-0.2,0-0.3c0-0.1-0.1-0.2-0.2-0.3c-0.1-0.1-0.3-0.2-0.6-0.2h-0.8V71.1z"/>
<path class="st4" d="M506.4,72.8h-1.8l-0.3,1h-1.1l1.9-5.1h1l1.9,5.1h-1.1L506.4,72.8z M504.8,71.9h1.3l-0.6-1.9L504.8,71.9z"/>
<path class="st4" d="M513.1,73.8h-1l-2-3.3v3.3h-1v-5.1h1l2,3.3v-3.3h1L513.1,73.8z"/>
<path class="st4" d="M518.7,72.1c0,0.2-0.1,0.5-0.2,0.7c-0.1,0.2-0.2,0.4-0.4,0.6c-0.2,0.2-0.4,0.3-0.6,0.4
	c-0.3,0.1-0.5,0.1-0.8,0.1c-0.3,0-0.6-0.1-0.9-0.2c-0.3-0.1-0.5-0.3-0.7-0.5c-0.2-0.2-0.3-0.5-0.4-0.8c-0.1-0.3-0.1-0.7-0.1-1v-0.3
	c0-0.3,0-0.7,0.1-1c0.1-0.3,0.2-0.5,0.4-0.8c0.2-0.2,0.4-0.4,0.7-0.5c0.3-0.1,0.6-0.2,0.9-0.2c0.3,0,0.6,0,0.8,0.1
	c0.2,0.1,0.4,0.2,0.6,0.4c0.2,0.2,0.3,0.3,0.4,0.6c0.1,0.2,0.2,0.5,0.2,0.7h-1c0-0.1,0-0.3-0.1-0.4c0-0.1-0.1-0.2-0.2-0.3
	c-0.1-0.1-0.2-0.1-0.3-0.2c-0.1,0-0.3-0.1-0.4-0.1c-0.4,0-0.6,0.1-0.8,0.4s-0.3,0.7-0.3,1.2v0.3c0,0.2,0,0.5,0.1,0.7
	c0,0.2,0.1,0.3,0.2,0.5c0.1,0.1,0.2,0.2,0.3,0.3c0.1,0.1,0.3,0.1,0.5,0.1c0.1,0,0.3,0,0.4-0.1c0.1,0,0.2-0.1,0.3-0.2
	c0.1-0.1,0.1-0.2,0.2-0.3c0-0.1,0.1-0.3,0.1-0.4L518.7,72.1z"/>
<path class="st4" d="M523.1,71.6h-2V73h2.3v0.8h-3.4v-5h3.4v0.8h-2.3v1.2h2V71.6z"/>
<path class="st6" d="M504.3,155.4c-1.2,0.4-2.3,0.6-3.2,0.5c-1.4-0.1-2.1-0.9-2.1-2.1c0-1,0.4-1.8,1.1-2.5c0-0.1,0-0.1,0-0.2
	c0-0.7,0.1-1.2,0.4-1.4c0.5-0.3,1.3,0.1,1.3,0.1l-0.2,0.3c-0.2-0.1-0.7-0.3-1-0.2c-0.2,0.2-0.3,0.6-0.3,1c0.6-0.5,1.4-0.9,2.4-1.1
	c0.7-0.2,1.5-0.3,2.3-0.4c0-0.1,0-0.2,0-0.2c0-0.2,0.1-0.4,0.2-0.4c0.1,0,0.2,0,0.3,0.2c0.1,0.1,0.1,0.3,0.1,0.4c0.3,0,0.5,0,0.7,0
	l0,0c0-0.4,0-0.9,0.1-1.3c0.1-0.4,0.2-0.6,0.4-0.7c0.1,0,0.1,0,0.2,0c0,0,0.1,0.1,0.1,0.1c0.1,0.3-0.1,1.1-0.4,1.8
	c0.3,0.1,0.5,0.1,0.6,0.3c0,0.1,0,0.1,0,0.2c0,0.1,0,0.1-0.1,0.2c-0.2,0.2-0.4,0.2-0.5,0.1c-0.1-0.1-0.1-0.1-0.2-0.2
	c-0.2,0.5-0.5,0.9-0.7,1.1c-0.1,0.1-0.1,0.1-0.2,0.1s-0.1,0-0.2,0c0,0-0.1,0-0.1-0.1c-0.1,0.2-0.2,0.4-0.3,0.6c-0.4,0.7-0.8,1-1.2,1
	c-0.2,0-0.3-0.1-0.4-0.2c-0.2,0.5-0.5,1-0.8,1.4c-0.3,0.4-0.7,0.5-1,0.4c-0.7-0.2-1.3-1.3-1.5-2.5c-0.6,0.6-0.9,1.3-0.8,2.1
	c0,1.1,0.6,1.6,1.8,1.7c3,0.3,8.3-2.7,8.7-4.8C509.5,152.5,507,154.5,504.3,155.4z M500.5,151.5c0.2,1.3,0.8,2.2,1.3,2.4
	c0.2,0.1,0.5,0,0.7-0.3c0.3-0.5,0.6-1,0.8-1.5c-0.1-0.2-0.1-0.3-0.1-0.5c-0.1-0.5-0.1-0.9,0-1.4c-0.6,0.1-1.1,0.3-1.6,0.6
	C501.1,151,500.8,151.2,500.5,151.5z M503.7,152.1c0,0.1,0.1,0.1,0.1,0.1c0.1,0,0.1,0.1,0.2,0.1c0.3,0,0.6-0.3,0.9-0.8
	c0.1-0.3,0.3-0.6,0.4-0.9c-0.1-0.2-0.1-0.5-0.1-0.7c-0.4,0-0.8,0.1-1.2,0.2C504.1,150.5,504,151.3,503.7,152.1z M505.6,150.6
	c0.1,0.2,0.1,0.2,0.1,0.2c0.2-0.2,0.4-0.6,0.6-1c-0.2,0-0.4,0-0.5,0C505.7,150.1,505.6,150.4,505.6,150.6L505.6,150.6z M503.5,150.2
	c-0.1,0.2-0.2,0.8,0,1.4C503.6,150.9,503.7,150.4,503.5,150.2L503.5,150.2z M506.9,148c0,0.1-0.1,0.3-0.1,0.4
	C506.8,148.3,506.9,148.2,506.9,148L506.9,148z"/>
<path class="st4" d="M486.9,101.3h-13.2V87.4h13.2V101.3z M474.3,100.7h12V88.1h-12L474.3,100.7z"/>
<path class="st6" d="M480.6,98.5c-0.1,0-0.3,0-0.4-0.1c-0.1-0.1-0.2-0.2-0.3-0.3l-4.1-5.2c-0.1-0.1-0.1-0.2-0.2-0.3
	c0-0.1,0-0.3,0-0.4c0-0.1,0-0.3,0.1-0.4c0.1-0.1,0.1-0.2,0.2-0.3c0.1-0.1,0.2-0.1,0.3-0.2c0.1,0,0.2-0.1,0.4,0s0.2,0,0.3,0.1
	c0.1,0.1,0.2,0.1,0.3,0.2l3.2,4.1l5.8-10.3c0.1-0.1,0.1-0.2,0.2-0.3c0.1-0.1,0.2-0.1,0.3-0.2c0.1,0,0.2,0,0.4,0
	c0.1,0,0.2,0.1,0.3,0.1c0.1,0.1,0.2,0.2,0.3,0.3c0.1,0.1,0.1,0.2,0.2,0.3c0,0.1,0,0.3,0,0.4c0,0.1-0.1,0.3-0.1,0.4L481.4,98
	c-0.1,0.1-0.2,0.2-0.3,0.3C481,98.5,480.8,98.5,480.6,98.5L480.6,98.5z"/>
<path class="st4" d="M486.9,123h-13.2v-13.9h13.2V123z M474.3,122.4h12v-12.6h-12L474.3,122.4z"/>
<path class="st6" d="M480.6,120.1c-0.1,0-0.3,0-0.4-0.1c-0.1-0.1-0.2-0.2-0.3-0.3l-4.1-5.2c-0.1-0.1-0.1-0.2-0.2-0.3s0-0.3,0-0.4
	c0-0.1,0-0.3,0.1-0.4c0.1-0.1,0.1-0.2,0.2-0.3c0.1-0.1,0.2-0.1,0.3-0.2c0.1,0,0.2-0.1,0.4,0c0.1,0,0.2,0,0.3,0.1
	c0.1,0.1,0.2,0.1,0.3,0.2l3.2,4.1l5.8-10.3c0.1-0.2,0.3-0.4,0.6-0.4c0.2-0.1,0.5,0,0.7,0.1c0.2,0.1,0.4,0.3,0.4,0.6
	c0.1,0.3,0,0.5-0.1,0.7l-6.5,11.5c-0.1,0.1-0.2,0.3-0.3,0.3C481,120.1,480.8,120.1,480.6,120.1L480.6,120.1z"/>
<path class="st4" d="M486.9,144.3h-13.2v-13.9h13.2V144.3z M474.3,143.7h12v-12.6h-12L474.3,143.7z"/>
<path class="st6" d="M480.6,141.2c-0.1,0-0.3,0-0.4-0.1c-0.1-0.1-0.2-0.2-0.3-0.3l-4.1-5.2c-0.1-0.1-0.1-0.2-0.2-0.3
	c0-0.1,0-0.3,0-0.4c0-0.1,0-0.3,0.1-0.4c0.1-0.1,0.1-0.2,0.2-0.3c0.1-0.1,0.2-0.1,0.3-0.2c0.1,0,0.2-0.1,0.4,0c0.1,0,0.2,0,0.3,0.1
	c0.1,0.1,0.2,0.1,0.3,0.2l3.2,4.1l5.8-10.3c0.1-0.2,0.3-0.4,0.6-0.5c0.2-0.1,0.5,0,0.7,0.1c0.2,0.1,0.4,0.4,0.4,0.6
	c0.1,0.3,0,0.5-0.1,0.7l-6.5,11.5c-0.1,0.1-0.2,0.3-0.3,0.3C481,141.1,480.8,141.2,480.6,141.2L480.6,141.2z"/>
<g class="st7">
	<path class="st8" d="M513,90.7h-17.2V92H513V90.7z"/>
	<path class="st8" d="M527.6,90.7h-3.9V92h3.9V90.7z"/>
	<path class="st8" d="M513,96.7h-17.2v1.4H513V96.7z"/>
	<path class="st8" d="M527.6,96.7h-5.8v1.4h5.8V96.7z"/>
	<path class="st8" d="M527.6,93.7h-4.8V95h4.8V93.7z"/>
	<path class="st8" d="M513.3,93.7h-4.8V95h4.8V93.7z"/>
	<path class="st8" d="M506.4,93.7h-10.7V95h10.7V93.7z"/>
</g>
<g class="st7">
	<path class="st8" d="M512.3,111.5h-16.6v1.4h16.6V111.5z"/>
	<path class="st8" d="M513,117.6h-17.2v1.4H513V117.6z"/>
	<path class="st8" d="M512.1,114.6h-4.5v1.4h4.5V114.6z"/>
	<path class="st8" d="M506.4,114.6h-10.7v1.4h10.7V114.6z"/>
</g>
<g class="st7">
	<path class="st8" d="M513,133h-17.2v1.4H513V133z"/>
	<path class="st8" d="M513,139h-17.2v1.4H513V139z"/>
	<path class="st8" d="M515.2,136h-7.5v1.4h7.5V136z"/>
	<path class="st8" d="M506.4,136h-10.7v1.4h10.7V136z"/>
</g>
<path class="st4" d="M482.7,151.8h-9v1h9V151.8z"/>
<path class="st4" d="M493.8,151.8h-9v1h9V151.8z"/>
<path class="st4" d="M486.2,153.9h-12.5v1h12.5V153.9z"/>
<path class="st9" d="M542.9,111.9c0,0,0.8,2.7,0.8,3.3c-0.1,0.6-0.6,2.7-1,3.3c-0.4,0.5-0.6-2.2-0.9-2.6c-0.3-0.4-0.1,1-0.3,1.2
	c-0.2,0.1-0.6-1.1-0.8-1.5c-0.2-0.4,0.5-2,0.5-3.1C541.2,111.4,542.9,111.9,542.9,111.9z"/>
<path class="st10" d="M523.3,90.4c-0.2-3.1,3-5.2,5.5-3.6c0.1,0,0.1,0.1,0.2,0.1c3.8,2.6,11.9,14.5,12.5,15.7
	c0.6,1.2,2.2,10.7,2.2,10.7s-2,0.8-3,0c0,0-3.3-9-3.8-9.5c-0.5-0.5-13.3-8-13.4-10.8C523.4,92.2,523.4,91.3,523.3,90.4z"/>
<path class="st6" d="M490.4,91.3l1.1,3.4l16.1-5.9l-1.1-3.4L490.4,91.3z"/>
<path class="st11" d="M487.2,94.4l4.3,0.3l-1.1-3.4L487.2,94.4z"/>
<path class="st11" d="M508.7,85.9l0.4,1.1c0.1,0.3,0.1,0.7-0.1,1c-0.1,0.3-0.4,0.5-0.7,0.6l-0.7,0.3l-1.1-3.4l0.8-0.3
	c0.1-0.1,0.3-0.1,0.4-0.1c0.1,0,0.3,0,0.4,0.1c0.1,0.1,0.3,0.2,0.3,0.3C508.6,85.6,508.7,85.7,508.7,85.9z"/>
<path class="st10" d="M546.1,160.3c0,0,1.5,1.5,1.2,2.5c-0.3,1-1.7,1.7-1.9,3c-0.2,1.3-0.9,2-1.6,2h-3.2c0,0-0.5-0.9,0.7-1.2
	c1.2-0.3,1.6-1.8,1.6-3.1c-0.1-1.4,0.1-3.2,0.1-3.2l2.5-0.6L546.1,160.3z"/>
<path class="st10" d="M521.6,164.8c0,0,0.2,2.7-0.4,3l-7.6,0c0,0,0-0.8,1.2-1c1.2-0.2,3.4-0.9,3.7-2.4
	C518.9,162.8,521.6,164.8,521.6,164.8z"/>
<path class="st6" d="M520.2,117.1c0,0,0.5,5.8,1,12.8c0.7,9.5,1.6,21.2,1.7,23.4c0.1,3.9,0.7,10,0.7,10s1.4,1.5,4.2,0.8
	c0,0,2.5-8.8,3.2-18.1c0-0.2,0-0.3,0-0.5c0.7-9.5,1.7-29.4,1.7-29.4L520.2,117.1z"/>
<path class="st12" d="M520.2,117.1c0,0,0.5,5.8,1,12.8l9.9,16.2c0-0.2,0-0.3,0-0.5c0.7-9.5,1.7-29.4,1.7-29.4L520.2,117.1z"/>
<path class="st6" d="M522.3,117.7c0,0,8.1,21.1,13.5,31.1c5.3,9.9,7,12.7,7,12.7s3.1-1.3,3.3-2.1c0,0-2-19.2-5.6-23.8
	c-2-2.6-4.4-10.6-4.5-13.3c-0.1-2.8-0.7-8.3-0.7-8.3L522.3,117.7z"/>
<path class="st9" d="M529.3,86.1c0,0-5.5,2.9-8.6,1.9c0.6-0.7,1.3-1.4,2.1-1.9c-0.1-0.7-0.2-1.2-0.3-1.7c-0.1-0.6-0.1-1.2-0.2-1.8
	l2.1-1.8l2-1.7C526.3,83.8,529.3,86.1,529.3,86.1z"/>
<path class="st13" d="M534.7,115.6c-2.2,1.4-4.3,2.5-6.7,3c-2.9,0.7-6.4,0.5-7.6,0.7c-0.1,0-0.2,0-0.3-0.1c-0.1-0.1-0.6-3.7-1.1-8.4
	c0-0.2,0-0.4-0.1-0.6l0-0.1c-0.2-1.8-0.4-3.7-0.5-5.7c-0.1-1.5-0.2-3-0.3-4.4c-0.1-1.7-0.1-3.3-0.1-4.6c0-0.6,0-1.1,0.1-1.6
	c0.3-2.7,1.5-4.7,2.7-6.1l1-1.2c1.1,0.1,2.3-0.1,3.3-0.9c1.2-0.8,2.4-1.7,2.7-1.5c1.8,1,3.3,3.7,4.3,7.3c0.6,2.2,1.1,4.5,1.4,6.8
	c0.1,0.8,0.2,1.5,0.2,2.3c0,0.1,0,0.3,0,0.4c0.1,2.1,0.4,4.1,0.6,5.9c0.3,2.4,0.7,4.4,1,5.8c0.1,0.7,0.2,1.3,0.3,1.7
	C535.7,114.9,535,115.4,534.7,115.6z"/>
<path class="st14" d="M526.5,80.9c0,0-1.3,2.7-4,3.5c-0.1-0.6-0.1-1.2-0.2-1.8l2.1-1.8L526.5,80.9z"/>
<path class="st9" d="M521.3,82.6c0,0,5.3,0.8,5.7-2.6c0.4-3.4,1.4-5.6-1.9-6.2c-3.3-0.7-4.2,0.6-4.6,1.7
	C520.1,76.5,520,82.3,521.3,82.6z"/>
<path class="st15" d="M528.8,73.2c0-0.1,0.2-0.1,0.4-0.1c-0.1-0.1-0.3-0.1-0.5-0.1c-0.1-0.4-0.3-1-0.8-1.1c0.1,0.1,0.2,0.1,0.2,0.2
	c0.1,0.1,0.1,0.2,0.1,0.3c-0.7-0.7-2.2-1.2-6.2-0.8c-5.3,0.6-3.5,4.1-2.8,4.5c0.7,0.4,2.4-0.8,3.7-0.7c1.3,0.1,1.6,2,2,2.3
	c0.4,0.3,0.3-0.2,0.8-0.5s0.7,0.7,0.5,1.4c-0.2,0.7,0.7,1.5,0.7,1.5l0.8-0.9c0.8-0.9,1.5-4.9,1.1-5.7
	C528.9,73.4,528.9,73.3,528.8,73.2z"/>
<path class="st10" d="M527.2,95.9c0,0-4.4,3.6-9.1,4.3c-0.1-1.7-0.1-3.3-0.1-4.6L527.2,95.9z"/>
<path class="st9" d="M499.9,91.3c-0.1-0.1-1-3.3-2.5-3c-1,0.2-2.7,0.8-2.2,2.2c0.2,0.6,3.3,2.5,3.3,2.5L499.9,91.3z"/>
<path class="st13" d="M527.7,89c2.5,1.6,2.3,5.6-0.4,6.8c-0.1,0-0.1,0.1-0.2,0.1c-4.2,1.8-18.1,1.8-19.4,1.6
	c-1.3-0.2-9.6-4.3-9.6-4.3s0.6-2.2,1.8-2.6c0,0,8.9,2.4,9.5,2.2c0.6-0.2,13.9-6.8,16.1-5.2C526.2,88.1,526.9,88.6,527.7,89z"/>
<path class="st9" d="M599.2,98.2c0,0-0.9-1.2-1.4-1.3c-0.5-0.2-1.4-0.9-1.6-0.6c-0.1,0.3,0.6,0.8,0.6,1.2c0,0.4-2.4,0.9-2.4,1.3
	c0,0.4,0.6,1.3,1.5,1.2c0.9-0.1,3.2-0.7,3.7-0.4C600,99.8,599.2,98.2,599.2,98.2z"/>
<path class="st16" d="M623.7,92.6c-1.3,1.8-2.8,3.3-4.5,4.6c-5.1,3.8-10.7,4.3-10.7,4.3c-1.3-0.4-5.4-0.9-7.9-1.3
	c-1.1-0.2-1.8-0.3-1.8-0.5l0.1-2.2c0,0,8.9-0.5,10.4-1.2c2.3-2.1,4.4-4.8,5.7-7c1.1-1.8,2.4-3.1,4.5-3.9
	C622.4,84.2,627.9,86.7,623.7,92.6z"/>
<path class="st17" d="M619.6,95.8l-0.5,1.4c-5.1,3.8-10.7,4.3-10.7,4.3c-1.1,0-5.4-0.9-7.9-1.3c0.1,0,6.6,0.5,8,0.4
	c1.4-0.2,8.2-6.3,8.2-6.3L619.6,95.8z"/>
<path class="st10" d="M613.8,166.1h9.8c0.7-0.5-0.2-5.4-0.2-5.4s-2.7-1.1-3.1,1.1c-0.5,2.2-3.4,2.9-5,3.1
	C614.2,165.1,613.9,165.7,613.8,166.1z"/>
<path class="st10" d="M628.4,166.1h9.8c0.7-0.5-0.2-5.4-0.2-5.4s-2.7-1.1-3.1,1.1c-0.5,2.2-3.4,2.9-5,3.1
	C628.8,165.1,628.5,165.7,628.4,166.1z"/>
<path class="st13" d="M616.4,116c0,0,0.4,5.8,1,12.8c0.7,9.5,2.6,32.9,2.6,32.9s1.2,1.1,4,0.5c0,0,2.4-8.1,3.1-17.3l0-0.5
	c0.7-9.4,1.7-29.2,1.7-29.2L616.4,116z"/>
<path class="st10" d="M616.3,114c0,0,0.6,7.8,1.1,14.8l9.7,16.1l0-0.5c0.7-9.4,1.7-29.2,1.7-29.2L616.3,114z"/>
<path class="st13" d="M619.1,114c0,0,7,18.4,9.3,25.3c1.6,5,6.1,22.4,6.1,22.4s2,0.6,3.6-0.6c0,0,1.7-17.8-1.7-22.8
	c-1.8-2.7-0.4-27.7-7.7-27.9S619.1,114,619.1,114z"/>
<path class="st9" d="M622.2,86.9c0.9,0.5,2,0.7,3,0.4c0.7-0.2,1.4-0.5,2-0.9c0.3-0.2,0.6-0.4,0.8-0.7c0,0,0-0.1-0.1-0.2
	c-0.3-0.6-1.3-2.6-0.8-5.9c0,0-0.3,0-0.8,0.1c-1.4,0.3-4.2,1.2-4.3,1.2h0c0,0,0,0.7-0.1,1.9c0,0.1,0,0.2,0,0.3c0,0.1,0,0.3,0,0.5
	C621.8,85.1,622.2,86.9,622.2,86.9z"/>
<path class="st18" d="M622,83c2.1,0.5,5.2-2.7,5.2-2.7c-0.2-0.2-0.5-0.3-0.7-0.4c-1.4,0.3-4.2,1.2-4.3,1.2h0
	C622.1,81.1,622.1,81.8,622,83z"/>
<path class="st9" d="M621.3,80.9c0.6,0.2,1.3,0.4,1.9,0.5c1.6,0.2,3.7,0.1,4.3-1.9c1.1-3.4,2.5-5.5-0.7-6.9
	c-1.7-0.7-2.9-0.8-3.6-0.5c-0.7,0.2-1,0.7-1.3,1.2C621.2,74.3,619.9,80.3,621.3,80.9z"/>
<path class="st19" d="M619.3,73.6c1.9,1.4,4.5,0,5.3,0.4c0.8,0.4,1,1.8,1,2.3c0,0.5,0.1,0.8,1.2,0.6c0.1,0,0.3,0,0.4,0
	c0.5,0.3-0.1,1.7-0.3,2c0,0-0.3,1,0.3,1.5c0.1,0.1,1.2,0.6,3.8-3.7c0.4-0.7,0.8-2.2,0.2-3.7c-0.6-1.5-3.3-2.9-5.6-3.6
	c-0.9-0.3-1.5-0.3-2-0.1c-0.8,0.3-1.3,1.1-1.7,2C621.1,72.6,619.3,73.6,619.3,73.6z"/>
<path class="st16" d="M631.4,115.3c0,0-0.9,0.2-2.1,0.4c-1.1,0.2-2.5,0.4-3.5,0.4c-4.9,0-9.1-1.6-9.1-1.6c-0.9,0-1.3-1.5-1.5-3.6
	c-0.1-1.4-0.1-3.1,0-4.8c0-0.5,0.1-1.1,0.1-1.6c0.1-1.1,0.1-2.1,0.2-3c0.1-0.8,0.1-1.6,0.2-2.2c0,0-0.1-4-0.1-7.6
	c0-2.5,1.4-4.9,1.7-5.2c1-1.1,3.8-1.8,4.4-1.9l0.1,0c2.3,1.4,5.5-0.5,5.5-0.5c0.1,0,0.1,0,0.2,0c0.2-0.1,2.6,0.3,3.2,0.6
	c1.4,0.8,2.2,9.5,2.2,9.5c0.2,5.9-0.1,15.4,0.4,19C633.5,114.4,632.4,115.1,631.4,115.3z"/>
<path class="st17" d="M627.6,84.1c0,0-3.5,3.8-6,3c0,0-0.3-0.5,0.8-0.7C623.6,86.3,624.8,86.4,627.6,84.1z"/>
<path class="st5" d="M621.2,78.7c0,0-0.1,0.4,0.9,0.8c0,0,0.8,0.3,1-0.2C623.1,79.3,622.5,78.7,621.2,78.7z"/>
<path class="st17" d="M629.6,98.5c0,0-5.1,8.9-8,10.5c-2,1.1-4.7,1.6-6.2,1.9c-0.1-1.4-0.1-3.1,0-4.8c2.1-0.3,5.2-0.7,5.2-0.7
	L629.6,98.5z"/>
<path class="st17" d="M622.9,94l-2.7,10.3c0,0-3.2,0.2-4.7,0.2c0.1-1.1,0.1-1.1,0.1-2C615.6,102.5,619.2,100.4,622.9,94z"/>
<path class="st9" d="M606.5,105.1c0,0-0.9-1.2-1.4-1.3c-0.5-0.2-1.4-0.9-1.6-0.6c-0.1,0.3,0.6,0.8,0.6,1.2c0,0.4-2.4,0.9-2.4,1.3
	c0,0.4,0.6,1.3,1.5,1.2c0.9-0.1,3.2-0.7,3.7-0.4C607.4,106.7,606.5,105.1,606.5,105.1z"/>
<path class="st16" d="M633.3,90.8c0,0,0.2,5.5-11.6,16.4l-2.4-4.5c-0.4-0.3,7.6-18.5,9.9-18.4C633.7,84.6,633.3,90.8,633.3,90.8z"/>
<path class="st16" d="M620.7,102.2c0,0-13.4,1.6-13.9,1.9c-0.5,0.3-1.6,1.4-1.2,2.7c0,0,7,0.9,10.8,0.9c3.3,0,5.4-0.6,5.4-0.6
	L620.7,102.2z"/>
<path class="st9" d="M399.4,162l-0.5-3.7l2.1-1.8l0.6,4.9L399.4,162z"/>
<path class="st10" d="M406.2,165.3h-8.4c0,0-0.2-1.3,0.2-2.4c0.4-1,1.1-1.6,1.1-2.3c0.5,0.6,1.2,0.9,2.4,0.8c0.1,0.3,1,1.6,1.5,2
	C403.6,163.8,406.1,163.7,406.2,165.3z"/>
<path class="st6" d="M404.5,111.8c-0.5,4.7-1,9-1.4,13.1c-2,21.8-1.6,35.1-1.6,35.1s-0.1,0.4-1.4,0.4c-0.5,0-0.9-0.1-1.4-0.2
	c0,0-4.4-14.2-4-22.3c0-0.9,0.1-1.8,0.3-2.6c1-4.1-3.9-20,1.5-25.9C402,103.6,404.8,109.7,404.5,111.8z"/>
<path class="st20" d="M404.5,111.8c-0.5,4.7-1,9-1.4,13.1l-8.3,13c0-0.9,0.1-1.8,0.3-2.6c1-4.1-3.9-20,1.5-25.9
	C402,103.6,404.8,109.7,404.5,111.8z"/>
<path class="st9" d="M411.1,67.5c0,0-0.2-1.1-0.4-1.9c-0.1-0.4,0.6-2.7,1.1-3s1.8,1.3,1.4,2.5c-0.2,0.6-0.5,2.7-0.5,2.7L411.1,67.5z
	"/>
<path class="st9" d="M411.1,67.5c0,0-0.3-0.6-0.5-0.7c-0.2-0.1-0.5-1.1-0.7-1.5c0,0,0.2-0.3,0.5,0.1c0.2,0.2,0.6,0.8,0.6,0.8
	L411.1,67.5z"/>
<path class="st9" d="M376.5,71c-0.1,0.1-0.1,0.3-0.2,0.5c0-0.1,0-0.1,0-0.2c0-0.4-1.3-2.4-1.9-2.5c-0.5-0.1-1.3,1.8-0.6,2.8
	c0.3,0.5,1.2,2.4,1.2,2.4l1.4-0.8c0,0,0.1-0.7,0.3-0.8c0.2-0.2,0.2-1.2,0.2-1.6C376.9,70.8,376.7,70.6,376.5,71z"/>
<path class="st9" d="M385.3,160.9c-0.1-1.2-0.1-4.3-0.1-4.3s3-1,2.9-0.3c-0.6,3.4-0.4,5.2-0.4,5.2l-1.2,0.8L385.3,160.9z"/>
<path class="st6" d="M402,111.6c0,0-11.7,33.8-14,48.5c0,0-0.5,0.4-1.5,0.3c-1.1-0.1-1.4-1-1.4-1s-2.1-17.6,2.1-23.7
	c2.9-4.2-1.2-22.6,5.5-24.1C399.3,110.1,402,111.6,402,111.6z"/>
<path class="st21" d="M399.9,79C399.9,79,399.9,79,399.9,79c-0.1-0.3-0.2-0.6-0.2-0.9c-0.2-0.8-0.5-1.7-0.9-2.5
	c-0.2-0.4-0.4-0.8-0.6-1.2c0-0.1-0.1-0.1-0.1-0.2c-0.5-0.8-0.9-1.4-1.3-1.5c-0.8-0.3-1.6-0.2-2.2-0.1c0.1-0.2,0.4-0.3,0.4-0.3
	c-0.4,0-1.1,0.5-1.1,0.5c-5.4-1.3-5.1,6.8-4.7,8.6c0.4,1.8-1.4,2.7-3.8,4.6c-4.7,3.6-4.6,7.3-4.6,7.3c0,0,0.1,0,0.1,0.1
	c0.2-0.5,0.6-1.4,1-1.6c0,0-0.4,1.2-0.4,1.9c0.7,0.4,1.7,1.1,2.8,1.8c1.4,1,3,2.1,4.3,3c-0.1-0.4-0.1-0.9,0-1.2l0.4,1.3l0.1,0.2
	c0.8,0.6,1.4,1,1.8,1.3l0.1,0.1l0.1,0.1c-0.1-0.5,0.4-1.7,1.2-3.2c0.1-0.1,0.1-0.2,0.2-0.3c0.3-0.5,0.5-1,0.8-1.5
	c0.1-0.2,0.2-0.4,0.3-0.6c0.1-0.2,0.2-0.3,0.3-0.5c0.2-0.4,0.5-0.7,0.7-1.1c0.6-1,1.3-1.9,2-2.8c1-1.3,1.9-2.4,2.7-3.2
	c0-0.1,0-0.1,0.1-0.2c0.1-0.3,0.2-0.6,0.3-1c0-0.1,0-0.2,0.1-0.3c0.1-0.8,0.2-1.6,0.2-2.4c0.1,0.8,0,1.6,0,2.4c0,0.1,0,0.3-0.1,0.4
	c0,0.2-0.1,0.4-0.1,0.6c0.1-0.2,0.2-0.4,0.3-0.6c0.1-0.1,0.1-0.3,0.2-0.4C400.6,84,400.5,81.4,399.9,79z"/>
<path class="st9" d="M398.9,87.2c0,0-1.5,1.2-2.8,1c-1.2-0.2-2.2-1.6-2.2-1.6c0.5-0.2,0.5-0.9,0.1-4l0.2,0l3.9,0.2
	c0,0,0.1,1.3,0.3,2.4C398.5,86.2,398.7,87.1,398.9,87.2z"/>
<path class="st18" d="M398.1,82.8c0,0,0.1,1.3,0.3,2.4c-2.1,0.3-3.5-1.6-4.1-2.6L398.1,82.8z"/>
<path class="st21" d="M393.7,82.2c0,0-1.4-1.7-1.9-3.2c-0.3-1.1-0.4-5.3,3.7-5.4c0.8,0,1.6,0.2,2.4,0.5c1,0.5,2.4,1.6,1.5,5.5
	l-0.2,1.3L393.7,82.2z"/>
<path class="st5" d="M405,110.9c0,0-5.1,3.2-11.4,1.5c-0.1,0-5.2-0.9-5.2-0.9c0.1-0.3,0.8-4.4,0.8-4.7c1.1-3.1,3.2-19.7,4.9-20.5
	c0.4,0.5,1.7,0.8,2.8,0.7c1.2-0.1,1.6-0.7,1.5-1.3c1.4,0.7,2.4,1.3,2.4,1.3C402.1,89.2,405,110.9,405,110.9z"/>
<path class="st9" d="M399,83.8c0,0-5,0.9-5.5-2.4c-0.5-3.3-1.4-5.4,1.7-6.1c3.2-0.7,4,0.5,4.4,1.5C400,77.9,400.2,83.5,399,83.8z"/>
<path class="st21" d="M397.5,74.9c0,0-0.8,4.1-2.8,5c-2,0.9-3,0.4-3,0.4s1.4-1.6,1.4-4C393.1,76.3,396.2,73.2,397.5,74.9z"/>
<path class="st21" d="M397.2,75.2c0,0,1.1,0.7,1.5,1.5c0.4,0.8,0.7,2.5,1.2,2.4c0,0,0.7-2.8-0.7-4.1
	C397.8,73.6,397.2,75.2,397.2,75.2z"/>
<path class="st13" d="M412.7,67.5c-0.2-0.1-0.5-0.3-0.9-0.3c-0.3,0-0.5,0-0.8,0.1c0,0-1.4,9.2-1.5,9.7c-0.1,0.5-6,7.5-7.6,7.5
	c-1.4,0-3.2,1.1-3.5,1.4c0,0,3.4,7.5,3.5,8.9c0.2,1.5,1.9,25.1,1.9,25.1s-0.1,1.1,1.8,0.5c1.9-0.6,2.4-1.1,2.4-1.1
	s-1.8-18.5-2.2-24.3c0-0.7-0.2-1.4-0.3-2.2c-0.1-0.3-0.1-0.6,0-1c0.1-0.3,0.2-0.6,0.4-0.9c2.5-3.6,6.3-9.3,6.6-10.5
	C412.9,78.6,412.7,67.5,412.7,67.5z"/>
<path class="st10" d="M392.3,165.3h-8.4c0,0-0.2-1.3,0.2-2.4c0.4-1,1.1-1.6,1.1-2.3c0.5,0.6,1.2,0.9,2.4,0.8c0.1,0.3,1,1.6,1.5,2
	C389.7,163.8,392.1,163.7,392.3,165.3z"/>
<path class="st13" d="M398.1,95.5c-0.3-1.8-3.9-9.2-3.9-9.2s-2.3-0.7-3.8-0.1c-1.5,0.6-9.3-4-9.5-4.5c-0.3-0.4-4.4-8.6-4.4-8.6
	s-0.3-0.2-0.9,0.1c-0.2,0.1-0.3,0.2-0.4,0.4c-0.1,0.2-0.2,0.3-0.2,0.5c0,0,3.2,10.3,4.1,11.9c0.5,1,4.9,4.3,8.2,6.8
	c0.3,0.2,0.6,0.6,0.7,0.9c0.2,0.4,0.2,0.8,0.2,1.2c-0.5,3.5-0.6,5.5-1.1,11.5c-0.4,5-0.6,14.7-0.6,14.7s3.8,1.4,6.4,1.6
	c2.6,0.2,3.2-2.7,3.2-2.7S398.4,97.4,398.1,95.5z"/>
<path class="st5" d="M397.3,82.1c0.4,0.2,0.9,0.3,1.3,0.3c0.5-0.1,0.6-0.7,0.6-0.7s-0.3-0.1-0.9,0C398,81.8,397.6,81.9,397.3,82.1z"
	/>
</svg>
