<svg xmlns="http://www.w3.org/2000/svg" xmlns:xlink="http://www.w3.org/1999/xlink" viewBox="0 0 589.7 373.44"><defs><style>.cls-1{fill:none;}.cls-2{isolation:isolate;}.cls-3,.cls-6{fill:#b0beea;}.cls-4{fill:#8ca3ea;}.cls-5{fill:#d0def2;}.cls-6{mix-blend-mode:multiply;}.cls-7{fill:#f5a784;}.cls-8{fill:#05004a;}.cls-9{fill:#39c;}.cls-10{fill:#2c88b5;}.cls-11{fill:#e0855c;}.cls-12{fill:#fff;}.cls-13{fill:#040038;}.cls-14{clip-path:url(#clip-path);}.cls-15{fill:#29aac9;}.cls-16{clip-path:url(#clip-path-2);}.cls-17{fill:#2f92c2;}.cls-18{fill:#011948;}.cls-19{fill:#3b2645;}.cls-20{fill:#f5a42a;}.cls-21{fill:#fed32c;}.cls-22{fill:#ffe47a;}</style><clipPath id="clip-path"><path class="cls-1" d="M109.67,248.94c0,1.32-1.23,1.6-2.21,2a29.77,29.77,0,0,1-20.91.78c-2.37-.8-4.57-1.22-7-1.84a2.21,2.21,0,0,1-.89-.41,2,2,0,0,1-.34-1.9,19.94,19.94,0,0,1,2.81-6.07,13.82,13.82,0,0,0,1.72-4.2c.87-4.07-.49-7.88-1.61-12.5-.09-.36-.18-.72-.26-1.06a52,52,0,0,1-1.38-7.19c0-.28,0-.53,0-.73v-.24a20.68,20.68,0,0,1,.24-4.2c.07-.37.15-.72.24-1.06,1.54-5.65,5.5-6.06,5.5-6.06l9.12,3.17a25.84,25.84,0,0,1,4.95,3.77c.31.28.64.58,1,.91q.77.76,1.59,1.68a13.63,13.63,0,0,1,2.65,4.4c.11.27.2.55.29.82a16.86,16.86,0,0,1,.46,2,15.12,15.12,0,0,1,.17,1.76A27.2,27.2,0,0,0,105,226c-.21,1.19-.51,2.44-.65,3.68a10.81,10.81,0,0,0-.07,2.34,35,35,0,0,0,4.65,15.07A4.16,4.16,0,0,1,109.67,248.94Z"/></clipPath><clipPath id="clip-path-2"><path class="cls-1" d="M89.67,175.39c-2.1,1.27-3.85,2.37-6.37,2.63-.53.06-.77.93-.14,1,2.59.4,5.12-1.11,7.12-2.6C90.91,176,90.36,175,89.67,175.39Z"/></clipPath></defs><title>Asset 1</title><g class="cls-2"><g id="Layer_2" data-name="Layer 2"><g id="Layer_1-2" data-name="Layer 1"><path class="cls-3" d="M581.51,361.76H397.7a18.25,18.25,0,0,1,2.76-6.69,35.55,35.55,0,0,1,2.65-3.62c1.77-2.2,3.76-4.3,5.59-6.34A90.57,90.57,0,0,0,417.16,334c1.77-2.71,3.41-5.49,5-8.33a176.89,176.89,0,0,0,8.21-17.52c2.36-5.76,4.59-11.7,8.48-16.56,4.95-6.18,12.12-10.06,18.41-14.86l1-.75c5.48-4.32,10.56-9.31,16.93-12.11,11.39-5,25.93-1.45,33.71,8.24,5.22,6.5,7.59,15.24,12.41,21.81a23.31,23.31,0,0,0,4.92,5,28.18,28.18,0,0,0,6.06,3.29c4.54,1.89,9.42,3.19,13.44,6a20.48,20.48,0,0,1,2.38,1.95,26,26,0,0,1,4.07,5,49.41,49.41,0,0,1,5.18,11.55c2.28,7,3.87,14.43,7.68,20.78a24.88,24.88,0,0,0,8,8.33c2.16,1.35,7.54,2.18,8.44,4.94A2.53,2.53,0,0,1,581.51,361.76Z"/><path class="cls-4" d="M547.81,347.27l-25.13,14.49H496.53c-4.37-11.27-.54-32.14,4.34-39.16,2.42-3.47,5.79-6.16,8.52-9.4,4.86-5.77,7.52-13.08,11.85-19.24l.18-.26c2.39-3.48,13.4-14.7,17.12-7.08,1.57,3.22-3.31,10.83-6.32,15.68-.76,1.23-1.4,2.28-1.79,3q-5.91,11.61-12.26,23c-2.51,4.52-4.91,10.67-1.26,14.33,1.52-6,3.19-12.24,7.38-16.76a37,37,0,0,1,8.58-6.27c2.16-1.28,10-7.29,15.17-9.38,1.85-.76,3.35-1,4.11-.34,1.21,1.06.86,3.15,0,5.3a27.88,27.88,0,0,1-4,6.5c-3.22,3.62-7.41,6.21-11,9.47a39,39,0,0,0-11.24,18.15,41,41,0,0,1,19.59-12.48c2.62-.75,6-1,7.52,1.24C555.2,341.35,551.25,345.29,547.81,347.27Z"/><path class="cls-5" d="M507,361.76H210.86a15.32,15.32,0,0,0,3-3.09c2.32-3.39-.23-4.34-.15-8.45.24-11.34,1.3-24.22,10.2-31.25,3.87-3,8.7-4.51,13.47-6s9.57-3.2,13.18-6.63c9.87-9.37,6.75-27.69,17.37-36.22,7.9-6.34,19.63-4.13,29-8,10.35-4.24,16.18-15,22-24.54S332.56,218,343.7,217c12.8-1.16,24.32,10.26,37.08,8.78,5.07-.58,10.29-3.18,15-1.28,7.34,3,7,13.35,10.9,20.26,4,7.14,12.53,10.28,20.52,12.08s16.53,3,22.92,8.12A27.73,27.73,0,0,1,458.19,276c5.43,12.65,5.25,29.26,14.83,39.57,6.89,7.43,17.7,10.22,24.57,17.66S506.17,351.46,507,361.76Z"/><path class="cls-3" d="M278.45,361.76H0c0-3.64,3.44-8.62,6.23-11.3,5-4.79,11.41-8.2,15.86-13.45a26.55,26.55,0,0,0,2.43-3.37c4-6.49,5-14.31,4.76-22.12a91.54,91.54,0,0,0-.84-9.42c-1.64-12-4.48-24.49-.73-36.11C33,249.45,52.82,238.27,70.9,241.57c25.4,4.64,41.57,32.53,67.4,34.08,11.8.7,23-4.41,34.14-8.08,9.37-3.09,19.33-5.21,29.21-4.22s19.7,5.48,25.08,13.32c7.5,11,5,25.49,9.91,37.65.22.54.46,1.09.71,1.61a35.24,35.24,0,0,0,15,15.71c6.43,3.49,14.14,5.24,19.27,10.28S278.24,354.49,278.45,361.76Z"/><path class="cls-4" d="M67.31,312.48a14.52,14.52,0,0,1-1.82,5.62c-.28.54-.59,1.08-.91,1.6s-.79,1.28-1.19,1.9c-1.82,2.81-3.72,5.72-4.14,9a32.73,32.73,0,0,0-.07,4.32c0,.55,0,1.08,0,1.62a10,10,0,0,1-.38,2.09c-1.28,4.14-5.9,6.51-7.35,10.59-.81,2.26-.54,4.74-.32,7.13a15.21,15.21,0,0,1-.66,5.37H42.85c-2.41-4.65-2.21-9.49-7.44-13.07-3-2-6.72-3.25-8.75-6.24-1.65-2.43-1.77-5.41-2-8.4,0-.46-.05-.93-.1-1.39,0-.29,0-.57-.07-.86a15.12,15.12,0,0,0-.8-3.73c-1.62-4.34-5.83-7.11-8.37-11a14.45,14.45,0,0,1-1.17-2.15c-.17-.38-.32-.77-.46-1.16a16.38,16.38,0,0,1,1.22-13.57,8.23,8.23,0,0,1,2-2.4,4.83,4.83,0,0,1,1.22-.68l.22-.07a5.51,5.51,0,0,1,3.82.4c4,1.86,5.3,6.49,7.06,10.77.09.23.19.46.29.68a21.4,21.4,0,0,0,1,2,12.28,12.28,0,0,0,3,3.89c1.07.88,2.34,1.5,3.36,2.43,2,1.79,2.71,4.36,3,7.06.1.82.17,1.65.22,2.47s.07,1.38.11,2.06c.22,4.13,1.28,8.95,5.07,10.62-.25-3.25-.47-6.64.38-9.73a11.15,11.15,0,0,1,.62-1.76c.11-.26.23-.52.36-.77,1-1.9,2.55-3.47,3.61-5.34,1.48-2.58,2-5.56,2.76-8.44.13-.48.27-1,.43-1.44s.24-.71.37-1.06c1.4-3.58,4.81-7,8.57-6.2a3.75,3.75,0,0,1,.6.18,4.79,4.79,0,0,1,1.59.89A8,8,0,0,1,67.31,312.48Z"/><path class="cls-4" d="M436.76,351.84a30.48,30.48,0,0,1-3.83,1.37c-4,1.56-6.2,5.67-9.37,8.55h-6.32c-.25-.48-.48-1-.75-1.46a6.56,6.56,0,0,0-4.28-3.08c-2.1-.42-4.27.25-6.41.12a8.73,8.73,0,0,1-5.34-2.27,7.35,7.35,0,0,1-.9-.95,3.58,3.58,0,0,1-.9-1.94,1.71,1.71,0,0,1,1-1.76c1-.35,1.94.52,2.91.89a2.94,2.94,0,0,0,.54.14c1.38.25,2.87-.27,4.3-.48a9.47,9.47,0,0,1,8.69,3.39,30.35,30.35,0,0,1-2.55-6.39,10.25,10.25,0,0,1,.49-6.74c.59-1.2,1.48-2.23,2-3.44a16.13,16.13,0,0,0,1.07-3.75,17.31,17.31,0,0,1,.55-2.17,15.82,15.82,0,0,1,4.41-6.16c.67-.64,1.37-1.25,2-1.86a4.51,4.51,0,0,1,1.9-1.17c-.31,3.34-.61,6.68-.92,10a68.08,68.08,0,0,1-1.13,8.43c-.85,3.81-2.37,7.53-2.41,11.43,0,.36.07.82.42.91a6.41,6.41,0,0,1,3.39-4.07c1.19-.55,2.52-.73,3.7-1.31a24.43,24.43,0,0,0,3.17-2.22A11.54,11.54,0,0,1,437,344a2.15,2.15,0,0,1,1.64.19,1.91,1.91,0,0,1,.65,1A5.71,5.71,0,0,1,436.76,351.84Z"/><path class="cls-4" d="M240.73,329.63A31,31,0,0,1,235,345.77c-4.12,5.55-13.36,8.4-14,16h-4c-.71-5.48-3.35-8.72-7.51-12.7-2.25-2.17-4.45-4.86-3.48-8.11.2-.51,1-.83,1.36-.18a23.69,23.69,0,0,0,5.62,7.07,26.09,26.09,0,0,1,4,4.09c-.63-3.52-1.54-6.93-4-10.08a.72.72,0,0,1,1-1,19.5,19.5,0,0,1,5.9,10.26A41.21,41.21,0,0,1,229.29,337a.88.88,0,0,1,1.37,1.06c-2,3.77-4.86,7-7,10.69a21.9,21.9,0,0,0-2.24,5.25,34.89,34.89,0,0,1,5.35-4.67c3.69-2.75,6.6-5.49,8.67-9.64,1.66-3.34,2.51-7,4.19-10.32A.61.61,0,0,1,240.73,329.63Z"/><path class="cls-5" d="M65.49,318.1c-.28.54-.59,1.08-.91,1.6a29.37,29.37,0,0,0-5.11.18H59.4c-2.16,3.37-4.52,6.62-5.56,10.51-.49,1.8-.77,3.63-1.11,5.46,1.06.7,2.07-.1,4.23-.55a21.24,21.24,0,0,1,2.22-.34c0,.55,0,1.08,0,1.62a36.86,36.86,0,0,0-5,1.13c-.92.26-1.27.49-1.86.27-.16.68-.34,1.37-.56,2-.89,2.7-2,5.29-2.84,8a52.27,52.27,0,0,0-1.95,13.73H45a45.77,45.77,0,0,0-2.09-11.14c-1.73-4.71-4.65-8.82-7.4-13a4.27,4.27,0,0,1-1.9-.3c-1.43-.36-3.54-1.66-4.72-2.08a33.15,33.15,0,0,0-4.19-1.17c0-.46-.05-.93-.1-1.39a32,32,0,0,1,4.65,1.25,21.83,21.83,0,0,0,3.34,1.37,6.78,6.78,0,0,0,1.41-.06c-.58-.95-1.16-1.9-1.69-2.88-2.37-4.39-4.12-9-6.24-13.46-2.31,0-5.45-2.17-7.35-2.76-1.5-.46-3-.84-4.53-1.18-.17-.38-.32-.77-.46-1.16.67.11,1.33.23,2,.37,2.94.61,6.05,2.41,8.93,2.77a3.31,3.31,0,0,0,.44,0c-.64-1.27-1.31-2.52-2.07-3.74a45.94,45.94,0,0,1-4.23-8.33c-.38-1-1-4.46-1.83-7a4.83,4.83,0,0,1,1.22-.68l.22-.07c1.47,3.13,2.2,7.94,2.86,9.4,1.54,3.39,3.74,6.4,5.58,9.62,1.24-1.44,1.55-4.36,2.32-6.22.13-.32.27-.63.41-1a21.4,21.4,0,0,0,1,2c-.7,1.68-1.36,3.39-2,5.17a11,11,0,0,1-.64,1.91c1.59,3.21,2.74,6.6,4.17,9.89a57.78,57.78,0,0,0,3.54,6.64c.72-.74.81-1.94,1.31-3.33a50.14,50.14,0,0,1,3.06-6.9c.1.82.17,1.65.22,2.47l-.21.43a66.67,66.67,0,0,0-2.76,7.45c-.13.4-.23,1.21-.44,1.83a79.74,79.74,0,0,1,6.73,12.21A41.72,41.72,0,0,1,45.81,358a51.57,51.57,0,0,1,.81-5.83c1-5.15,3.19-9.92,4.48-15-1.22-1.34-2.52-4.43-3.44-5.52a23.61,23.61,0,0,0-1.93-1.93,11.15,11.15,0,0,1,.62-1.76,21,21,0,0,1,5.06,6.28l.25.4c1.09-6.14,3.11-9.93,6.37-15.11l.3-.49a19.21,19.21,0,0,0-5.25-5.63c.13-.48.27-1,.43-1.44a20.68,20.68,0,0,1,3.4,2.8c.71.75,1.41,2.19,2.19,2.92a34.22,34.22,0,0,0,4-12.8,4.79,4.79,0,0,1,1.59.89,32.09,32.09,0,0,1-2.18,8.48,28.89,28.89,0,0,1-2.06,4,23,23,0,0,0,3.85-.21C64.67,318.06,65.08,318.07,65.49,318.1Z"/><path class="cls-5" d="M429.86,351a67.19,67.19,0,0,0-5.41,5,11,11,0,0,0-2.76,5.78H419c-.52-1.8-1.18-3.51-2.89-4.56a17.13,17.13,0,0,0-7-2.1c-.24,0-.34-.41-.06-.46a12.32,12.32,0,0,1,8.14,2,6,6,0,0,1,1.81,2,76.77,76.77,0,0,1-1.75-11c-.3-6.78,3.69-11.55,5.43-17.79a.07.07,0,0,1,.13,0c-.29,3-1.38,5.23-2.47,8A22.64,22.64,0,0,0,419,350c.43,3,1.38,6.14,1.93,9.25a8.58,8.58,0,0,1,1.35-2.8,18.4,18.4,0,0,1,7.13-5.91C429.78,350.35,430.16,350.75,429.86,351Z"/><path class="cls-6" d="M115.24,370.24c-8.8-1.43-18.48-.39-27.4-.38l-13.53,0c-4.54,0-9.36-.47-13.79.66a1,1,0,0,0,0,1.84c4.42,1.13,9.25.65,13.79.66l13.53,0c8.94,0,18.58,1.06,27.4-.38A1.27,1.27,0,0,0,115.24,370.24Z"/><path class="cls-6" d="M195,370.24c-8.8-1.43-18.48-.39-27.4-.38l-13.53,0c-4.54,0-9.36-.47-13.79.66a1,1,0,0,0,0,1.84c4.42,1.13,9.25.65,13.79.66l13.53,0c8.94,0,18.58,1.06,27.4-.38A1.27,1.27,0,0,0,195,370.24Z"/><path class="cls-6" d="M548.22,370.24c-17-1.43-35.66-.39-52.88-.38l-26.11,0c-8.76,0-18.07-.47-26.6.66-1.75.23-1.75,1.61,0,1.84,8.53,1.13,17.85.65,26.6.66l26.11,0c17.25,0,35.86,1.06,52.88-.38C550.55,372.49,550.55,370.44,548.22,370.24Z"/><path class="cls-6" d="M365.5,370.23c-19.87-1.41-41.7-.38-61.84-.37l-30.54,0c-10.24,0-21.14-.46-31.11.65-2,.23-2,1.58,0,1.81,10,1.12,20.87.64,31.11.65l30.54,0c20.17,0,41.94,1,61.84-.37C368.23,372.44,368.23,370.42,365.5,370.23Z"/><path class="cls-5" d="M43,247.86a.47.47,0,0,1-.31-.12c-.94-.83-1.87-1.71-2.75-2.6a.47.47,0,1,1,.67-.66c.87.88,1.78,1.74,2.71,2.56a.47.47,0,0,1-.31.82Zm-5.27-5.34a.47.47,0,0,1-.36-.16c-.82-.95-1.62-1.94-2.37-3a.47.47,0,0,1,.75-.56c.75,1,1.53,2,2.34,2.9a.47.47,0,0,1-.36.78Zm-4.51-6a.47.47,0,0,1-.39-.21c-.69-1-1.35-2.14-2-3.23a.47.47,0,1,1,.82-.46c.61,1.08,1.27,2.15,1.94,3.18a.47.47,0,0,1-.39.73Zm450.21-5a.47.47,0,0,1,0-.94l3.23-.34a.47.47,0,1,1,.1.93l-3.24.34Zm7-.78a.47.47,0,0,1-.06-.94q1.86-.24,3.71-.51a.47.47,0,0,1,.14.93q-1.86.27-3.73.51ZM29.54,230a.47.47,0,0,1-.42-.26c-.55-1.13-1.08-2.29-1.56-3.45a.47.47,0,1,1,.87-.36c.48,1.14,1,2.28,1.54,3.4a.47.47,0,0,1-.42.68Zm468.32-.3a.47.47,0,0,1-.08-.93q1.85-.31,3.69-.65a.48.48,0,0,1,.55.38.47.47,0,0,1-.38.55q-1.85.34-3.71.65Zm7.39-1.37a.47.47,0,0,1-.09-.93q1.83-.38,3.66-.8a.47.47,0,0,1,.21.92q-1.83.42-3.68.8Zm7.32-1.68a.47.47,0,0,1-.12-.92q1.82-.46,3.62-1a.47.47,0,1,1,.25.9q-1.81.5-3.64,1Zm7.23-2a.47.47,0,0,1-.14-.92q1.79-.55,3.57-1.14a.47.47,0,0,1,.3.89q-1.79.59-3.59,1.15ZM26.65,223.06a.47.47,0,0,1-.44-.31c-.41-1.18-.8-2.39-1.15-3.6a.47.47,0,0,1,.9-.26c.34,1.2.73,2.39,1.13,3.55a.47.47,0,0,1-.29.6Zm500.28-.81a.47.47,0,0,1-.16-.91q1.76-.64,3.5-1.33a.47.47,0,1,1,.35.87q-1.75.69-3.52,1.34A.46.46,0,0,1,526.93,222.26Zm7-2.77a.47.47,0,0,1-.19-.9q1.72-.74,3.41-1.53a.47.47,0,0,1,.4.85q-1.71.8-3.44,1.55A.47.47,0,0,1,533.91,219.48Zm6.8-3.19a.47.47,0,0,1-.21-.89q1.67-.85,3.31-1.75a.47.47,0,1,1,.45.82q-1.65.91-3.33,1.76A.48.48,0,0,1,540.71,216.3Zm-516.15-.45a.47.47,0,0,1-.46-.37c-.28-1.22-.53-2.47-.74-3.71a.47.47,0,1,1,.93-.16c.21,1.22.46,2.45.73,3.66a.47.47,0,0,1-.35.56Zm522.73-3.17a.47.47,0,0,1-.24-.87q1.6-1,3.18-2a.47.47,0,0,1,.51.79q-1.59,1-3.2,2A.47.47,0,0,1,547.29,212.67Zm6.31-4.08a.47.47,0,0,1-.27-.85c1-.71,2-1.45,3-2.21a.47.47,0,1,1,.57.75c-1,.77-2,1.52-3,2.23A.47.47,0,0,1,553.6,208.6Zm-530.31-.15a.47.47,0,0,1-.47-.42c-.15-1.24-.26-2.51-.34-3.77a.47.47,0,0,1,.44-.5.46.46,0,0,1,.5.44c.08,1.24.19,2.49.33,3.72a.47.47,0,0,1-.41.52ZM559.57,204a.47.47,0,0,1-.3-.83c1-.8,1.91-1.62,2.83-2.44a.47.47,0,1,1,.63.7c-.92.83-1.89,1.66-2.86,2.47A.47.47,0,0,1,559.57,204ZM22.82,201a.47.47,0,0,1-.47-.46v-.7c0-1,0-2.07.07-3.09a.46.46,0,0,1,.49-.45.47.47,0,0,1,.45.49q-.07,1.52-.07,3v.69A.47.47,0,0,1,22.82,201ZM565.15,199a.47.47,0,0,1-.33-.81c.88-.86,1.77-1.76,2.62-2.66a.47.47,0,0,1,.68.64c-.86.92-1.75,1.82-2.65,2.69A.47.47,0,0,1,565.15,199Zm5.16-5.46a.47.47,0,0,1-.35-.78c.81-.94,1.62-1.9,2.39-2.87a.47.47,0,0,1,.73.59c-.78,1-1.59,2-2.41,2.9A.47.47,0,0,1,570.31,193.55Zm-547.16-.1a.48.48,0,0,1-.47-.52c.12-1.25.28-2.52.47-3.75a.47.47,0,0,1,.93.14c-.19,1.22-.34,2.46-.46,3.7A.47.47,0,0,1,23.15,193.45ZM575,187.67a.47.47,0,0,1-.38-.75c.73-1,1.45-2,2.13-3.07a.47.47,0,1,1,.78.52c-.69,1-1.41,2.09-2.15,3.1A.47.47,0,0,1,575,187.67ZM24.28,186h-.1a.47.47,0,0,1-.36-.56c.26-1.23.55-2.47.88-3.68a.47.47,0,1,1,.91.24c-.32,1.19-.61,2.42-.87,3.63A.47.47,0,0,1,24.28,186Zm554.84-4.62a.47.47,0,0,1-.4-.71c.64-1.07,1.26-2.16,1.84-3.25a.47.47,0,0,1,.83.44c-.59,1.1-1.21,2.21-1.86,3.29A.47.47,0,0,1,579.12,181.41Zm-552.9-2.63-.15,0a.47.47,0,0,1-.3-.59c.39-1.19.83-2.39,1.29-3.56a.47.47,0,0,1,.87.35c-.46,1.15-.88,2.33-1.27,3.5A.47.47,0,0,1,26.22,178.78Zm556.43-4a.46.46,0,0,1-.2,0,.47.47,0,0,1-.22-.62c.53-1.13,1-2.28,1.51-3.41a.47.47,0,0,1,.87.36c-.47,1.15-1,2.31-1.53,3.46A.47.47,0,0,1,582.66,174.78ZM29,171.8a.47.47,0,0,1-.42-.67c.53-1.14,1.11-2.27,1.71-3.38a.47.47,0,1,1,.82.45c-.59,1.09-1.16,2.2-1.68,3.32A.47.47,0,0,1,29,171.8Zm556.52-4-.16,0a.47.47,0,0,1-.29-.6c.41-1.17.8-2.37,1.15-3.55a.47.47,0,1,1,.9.26c-.35,1.2-.74,2.41-1.16,3.6A.47.47,0,0,1,585.51,167.84ZM32.6,165.21a.47.47,0,0,1-.4-.72c.67-1.07,1.39-2.12,2.13-3.13a.47.47,0,0,1,.76.55c-.72,1-1.43,2-2.09,3.08A.47.47,0,0,1,32.6,165.21ZM377,164.47h-1.41a.47.47,0,0,1-.46-.48.46.46,0,0,1,.48-.46q1.87,0,3.74,0a.45.45,0,0,1,.48.46.47.47,0,0,1-.46.48Zm-5.16-.14c-1.28-.07-2.54-.16-3.79-.27a.47.47,0,0,1-.42-.51.46.46,0,0,1,.51-.42c1.23.11,2.49.2,3.73.27a.47.47,0,0,1,0,.94Zm11.26-.05a.47.47,0,0,1,0-.94c1.24-.08,2.49-.18,3.73-.3a.48.48,0,0,1,.51.42.47.47,0,0,1-.42.51c-1.25.12-2.51.23-3.76.3Zm-18.74-.63h-.06c-1.25-.16-2.5-.35-3.73-.57a.47.47,0,0,1,.16-.93c1.21.21,2.46.4,3.69.56a.47.47,0,0,1-.06.94Zm26.21-.11a.47.47,0,0,1-.06-.93c1.23-.17,2.48-.37,3.69-.58a.47.47,0,0,1,.16.92c-1.23.22-2.48.42-3.73.59Zm-33.61-1.16h-.1c-1.22-.26-2.46-.55-3.67-.87a.47.47,0,1,1,.23-.91c1.2.31,2.43.6,3.64.86a.47.47,0,0,1-.1.93Zm41-.14a.47.47,0,0,1-.1-.93c1.22-.26,2.44-.55,3.64-.86a.47.47,0,1,1,.23.91c-1.21.31-2.44.6-3.67.87Zm189.66-1.59h-.11a.47.47,0,0,1-.35-.56c.28-1.2.53-2.43.74-3.65a.47.47,0,0,1,.54-.38.47.47,0,0,1,.38.54c-.22,1.24-.47,2.49-.76,3.71A.47.47,0,0,1,587.62,160.64Zm-237.95-.15-.14,0c-1.2-.36-2.41-.76-3.59-1.17a.47.47,0,0,1,.31-.89c1.17.41,2.37.8,3.55,1.16a.47.47,0,0,1-.14.92Zm55.56-.13a.47.47,0,0,1-.13-.92c1.19-.35,2.39-.74,3.56-1.13a.47.47,0,0,1,.3.89c-1.18.4-2.39.79-3.6,1.15ZM37,159.15a.47.47,0,0,1-.36-.77c.81-1,1.66-1.92,2.53-2.82a.47.47,0,0,1,.68.65c-.85.89-1.69,1.82-2.48,2.77A.47.47,0,0,1,37,159.15ZM342.59,158a.46.46,0,0,1-.17,0c-1.17-.46-2.33-1-3.48-1.47a.47.47,0,0,1,.38-.86c1.13.51,2.29,1,3.44,1.46a.47.47,0,0,1-.17.91Zm69.76-.07a.47.47,0,0,1-.17-.91l2.08-.82,1.39-.58a.47.47,0,0,1,.37.86l-1.4.59-2.1.83A.47.47,0,0,1,412.35,157.94Zm6.91-2.94a.47.47,0,0,1-.2-.9q1.67-.78,3.37-1.63a.47.47,0,0,1,.42.84q-1.71.86-3.39,1.65A.47.47,0,0,1,419.26,155Zm-83.52-.07a.47.47,0,0,1-.21-.05c-1.12-.57-2.24-1.16-3.33-1.78a.47.47,0,0,1,.46-.82c1.08.61,2.19,1.2,3.3,1.76a.47.47,0,0,1-.21.89Zm-293.53-1.2a.47.47,0,0,1-.32-.82c.89-.81,1.86-1.64,2.87-2.46a.47.47,0,0,1,.59.73c-1,.81-2,1.63-2.83,2.43A.47.47,0,0,1,42.21,153.73Zm546.7-.49h-.05a.47.47,0,0,1-.41-.52q.14-1.2.23-2.4.05-.66.08-1.31a.47.47,0,1,1,.94,0c0,.45,0,.9-.08,1.35q-.09,1.22-.23,2.43A.47.47,0,0,1,588.91,153.24ZM426,151.61a.47.47,0,0,1-.23-.88c1.1-.61,2.19-1.23,3.24-1.86a.47.47,0,0,1,.48.81c-1.06.64-2.16,1.27-3.27,1.88A.47.47,0,0,1,426,151.61Zm-96.77-.36a.47.47,0,0,1-.25-.07c-1.08-.67-2.15-1.37-3.16-2.07a.47.47,0,1,1,.53-.77c1,.69,2.05,1.38,3.12,2a.47.47,0,0,1-.25.87ZM48,149a.47.47,0,0,1-.28-.85q1.51-1.12,3.06-2.2a.47.47,0,1,1,.54.77q-1.53,1.07-3,2.18A.47.47,0,0,1,48,149Zm384.37-1.25a.47.47,0,0,1-.26-.86c1.06-.7,2.09-1.41,3.08-2.12a.47.47,0,0,1,.55.76c-1,.72-2,1.44-3.11,2.15A.47.47,0,0,1,432.4,147.74ZM323,147a.47.47,0,0,1-.29-.1c-1-.78-2-1.59-2.93-2.4a.47.47,0,1,1,.62-.71c.92.8,1.89,1.59,2.88,2.36a.47.47,0,0,1-.29.84Zm266.22-1.24a.47.47,0,0,1-.47-.45c0-1.22-.15-2.47-.3-3.7a.47.47,0,0,1,.41-.52.48.48,0,0,1,.52.41c.15,1.26.26,2.53.3,3.78a.47.47,0,0,1-.45.49Zm-535-1.07a.47.47,0,0,1-.26-.86l3.12-2.1a.47.47,0,0,1,.53.78l-3.12,2.1A.47.47,0,0,1,54.18,144.67Zm384.3-1.35a.47.47,0,0,1-.29-.83c1-.8,1.94-1.61,2.83-2.43a.47.47,0,1,1,.63.69c-.91.83-1.87,1.66-2.87,2.46A.47.47,0,0,1,438.48,143.32ZM317.36,142a.47.47,0,0,1-.33-.14c-.9-.89-1.77-1.82-2.59-2.76a.47.47,0,1,1,.71-.62c.81.92,1.66,1.84,2.55,2.71a.47.47,0,0,1-.33.8Zm-257-1.58a.47.47,0,0,1-.27-.86q1.54-1.07,3-2.17a.47.47,0,1,1,.56.76q-1.52,1.11-3.07,2.19A.47.47,0,0,1,60.4,140.46Zm527.93-2.17a.47.47,0,0,1-.46-.38c-.24-1.2-.53-2.42-.87-3.62a.47.47,0,1,1,.9-.25c.34,1.22.64,2.46.88,3.69a.47.47,0,0,1-.37.55Zm-144.32,0a.47.47,0,0,1-.34-.79c.88-.92,1.7-1.86,2.45-2.79a.47.47,0,0,1,.73.59c-.77,1-1.61,1.91-2.5,2.85A.47.47,0,0,1,444,138.25Zm-131.58-1.87a.47.47,0,0,1-.38-.19c-.74-1-1.46-2-2.15-3.12a.47.47,0,0,1,.79-.5c.67,1.06,1.38,2.09,2.11,3.06a.47.47,0,0,1-.38.75Zm-246-.38a.47.47,0,0,1-.29-.84c.82-.65,1.6-1.31,2.33-1.94l.53-.46a.47.47,0,0,1,.62.71l-.53.46c-.74.65-1.53,1.31-2.36,2A.47.47,0,0,1,66.44,136Zm382.26-3.6a.47.47,0,0,1-.39-.74l2.13-3.1a.47.47,0,0,1,.77.53l-2.13,3.1A.47.47,0,0,1,448.71,132.39ZM72.1,131.06a.47.47,0,0,1-.32-.82q1.37-1.27,2.73-2.57a.47.47,0,0,1,.65.68q-1.36,1.31-2.74,2.58A.47.47,0,0,1,72.1,131.06Zm514.23,0a.47.47,0,0,1-.44-.31c-.41-1.16-.87-2.33-1.36-3.48a.47.47,0,1,1,.86-.37c.5,1.17,1,2.36,1.38,3.53a.47.47,0,0,1-.29.6Zm-277.92-1a.47.47,0,0,1-.41-.25c-.59-1.09-1.15-2.22-1.69-3.38a.47.47,0,0,1,.85-.39c.53,1.14,1.09,2.26,1.66,3.33a.47.47,0,0,1-.19.64A.46.46,0,0,1,308.41,130.05ZM453,126.2a.47.47,0,0,1-.39-.74q1.07-1.55,2.16-3.08a.47.47,0,1,1,.77.54q-1.08,1.53-2.15,3.07A.47.47,0,0,1,453,126.2Zm-375.45-.35a.47.47,0,0,1-.33-.8q1.32-1.33,2.61-2.68a.47.47,0,1,1,.68.65q-1.3,1.36-2.63,2.7A.47.47,0,0,1,77.51,125.86Zm505.87-1.71a.47.47,0,0,1-.42-.26c-.55-1.1-1.15-2.21-1.77-3.29a.47.47,0,0,1,.81-.47c.63,1.1,1.24,2.22,1.8,3.34a.47.47,0,0,1-.42.68Zm-278.12-.9a.47.47,0,0,1-.44-.3c-.45-1.15-.89-2.34-1.31-3.54a.47.47,0,0,1,.89-.31c.41,1.19.84,2.37,1.29,3.51a.47.47,0,0,1-.44.64ZM82.69,120.42a.47.47,0,0,1-.35-.79q1.26-1.38,2.49-2.8a.47.47,0,0,1,.71.62q-1.24,1.42-2.5,2.81A.47.47,0,0,1,82.69,120.42Zm374.62-.34a.47.47,0,0,1-.38-.75q1.11-1.52,2.25-3a.47.47,0,1,1,.75.57q-1.13,1.49-2.24,3A.47.47,0,0,1,457.31,120.07Zm122.32-2.45a.47.47,0,0,1-.39-.21c-.67-1-1.39-2.07-2.12-3.08a.47.47,0,0,1,.76-.55c.74,1,1.46,2.07,2.15,3.12a.47.47,0,0,1-.39.73Zm-276.83-1.48a.47.47,0,0,1-.45-.33q-.54-1.8-1-3.63a.47.47,0,1,1,.91-.24q.49,1.81,1,3.6a.47.47,0,0,1-.31.59ZM87.62,114.75a.47.47,0,0,1-.36-.77q1.2-1.44,2.36-2.91a.47.47,0,1,1,.74.58q-1.17,1.48-2.37,2.93A.47.47,0,0,1,87.62,114.75Zm374.24-.65a.47.47,0,0,1-.37-.76q1.18-1.47,2.4-2.91a.47.47,0,1,1,.71.61q-1.21,1.42-2.38,2.88A.47.47,0,0,1,461.86,114.1Zm113.34-2.55a.47.47,0,0,1-.37-.17c-.78-1-1.59-1.92-2.42-2.85a.47.47,0,1,1,.7-.63c.84.94,1.67,1.91,2.45,2.88a.47.47,0,0,1-.37.77Zm-274.36-2.67a.47.47,0,0,1-.46-.36q-.45-1.83-.86-3.67a.47.47,0,1,1,.92-.21q.42,1.83.86,3.65a.47.47,0,0,1-.34.57Zm-208.57,0a.47.47,0,0,1-.37-.75q1.13-1.5,2.21-3a.47.47,0,0,1,.76.55q-1.09,1.53-2.23,3A.47.47,0,0,1,92.28,108.85Zm374.46-.47a.47.47,0,0,1-.35-.79c.87-.95,1.75-1.87,2.6-2.73a.47.47,0,1,1,.67.66c-.85.85-1.72,1.76-2.58,2.7A.47.47,0,0,1,466.74,108.39Zm103.46-2.44a.47.47,0,0,1-.34-.14c-.87-.89-1.78-1.76-2.68-2.6a.47.47,0,1,1,.64-.69c.92.85,1.83,1.73,2.71,2.63a.47.47,0,0,1-.33.8ZM472,103.07a.47.47,0,0,1-.32-.82c.93-.86,1.89-1.7,2.84-2.49a.47.47,0,0,1,.6.72c-.94.78-1.88,1.61-2.81,2.46A.47.47,0,0,1,472,103.07Zm-375.4-.33a.47.47,0,0,1-.39-.73q1-1.55,2.06-3.13a.47.47,0,1,1,.79.51q-1,1.59-2.07,3.15A.47.47,0,0,1,96.64,102.74Zm202.53-1.19a.47.47,0,0,1-.46-.37l-.8-3.67a.47.47,0,1,1,.92-.2l.8,3.67a.47.47,0,0,1-.36.56Zm265.51-.71a.47.47,0,0,1-.3-.11c-.95-.8-1.93-1.58-2.91-2.33a.47.47,0,0,1,.57-.75c1,.76,2,1.55,2.95,2.36a.47.47,0,0,1-.3.83ZM477.8,98.26a.47.47,0,0,1-.28-.85c1-.72,1.94-1.41,2.91-2.07l.17-.12a.47.47,0,1,1,.52.78l-.17.11c-1,.65-1.93,1.33-2.87,2A.47.47,0,0,1,477.8,98.26ZM100.68,96.41a.47.47,0,0,1-.4-.71q1-1.6,1.89-3.23a.47.47,0,1,1,.82.46q-.93,1.64-1.9,3.26A.47.47,0,0,1,100.68,96.41Zm458-.11a.47.47,0,0,1-.27-.08c-1-.71-2.08-1.39-3.13-2a.47.47,0,1,1,.49-.8c1.06.65,2.13,1.35,3.17,2.06a.47.47,0,0,1-.27.86ZM297.57,94.21a.47.47,0,0,1-.46-.37q-.41-1.83-.83-3.66a.47.47,0,1,1,.91-.21q.43,1.83.84,3.67a.47.47,0,0,1-.36.56Zm186.48-.11a.47.47,0,0,1-.24-.87c1.08-.64,2.19-1.25,3.31-1.83a.47.47,0,0,1,.43.83c-1.1.57-2.2,1.18-3.26,1.81A.47.47,0,0,1,484.05,94.1Zm68.27-1.74a.47.47,0,0,1-.23-.06c-1.1-.6-2.21-1.17-3.32-1.7a.47.47,0,1,1,.41-.85c1.12.54,2.25,1.12,3.37,1.73a.47.47,0,0,1-.23.88Zm-61.61-1.71a.47.47,0,0,1-.19-.9c1.14-.51,2.31-1,3.49-1.46a.47.47,0,1,1,.34.88c-1.16.45-2.32.94-3.44,1.44A.47.47,0,0,1,490.72,90.64Zm-386.34-.78a.46.46,0,0,1-.22-.05.47.47,0,0,1-.2-.63q.87-1.65,1.7-3.33a.47.47,0,1,1,.84.41q-.83,1.69-1.71,3.36A.47.47,0,0,1,104.38,89.87Zm441.17-.75a.47.47,0,0,1-.18,0c-1.16-.47-2.33-.91-3.49-1.31a.47.47,0,0,1,.3-.89c1.18.4,2.37.84,3.54,1.33a.47.47,0,0,1-.18.9Zm-47.83-1.2a.47.47,0,0,1-.15-.92c1.19-.39,2.4-.76,3.62-1.09a.47.47,0,0,1,.25.91c-1.2.33-2.4.69-3.57,1.07Zm-201.87-1a.47.47,0,0,1-.46-.35q-.46-1.82-1-3.61a.47.47,0,0,1,.9-.26q.51,1.81,1,3.64a.47.47,0,0,1-.34.57Zm242.59-.19-.12,0c-1.19-.33-2.41-.62-3.62-.88a.47.47,0,0,1,.2-.92c1.23.26,2.47.57,3.67.9a.47.47,0,0,1-.12.92ZM505,85.95a.47.47,0,0,1-.1-.93c1.23-.27,2.48-.5,3.71-.71a.47.47,0,1,1,.15.93c-1.22.2-2.46.43-3.67.7Zm26.13-.81H531c-1.21-.19-2.46-.35-3.7-.48a.47.47,0,0,1-.42-.51.49.49,0,0,1,.51-.42c1.26.13,2.52.29,3.75.48a.47.47,0,0,1-.07.93Zm-18.72-.4a.47.47,0,0,1-.05-.94c1.25-.14,2.51-.25,3.77-.32a.46.46,0,0,1,.5.44.47.47,0,0,1-.44.5c-1.24.07-2.49.18-3.72.31Zm11.25-.36c-1.13,0-2.24-.08-3.34-.08h-.41a.47.47,0,1,1,0-.94h.42c1.11,0,2.25,0,3.36.08a.47.47,0,0,1,0,.94ZM107.69,83.13a.47.47,0,0,1-.43-.66q.78-1.7,1.5-3.43a.47.47,0,1,1,.87.36q-.73,1.74-1.51,3.45A.47.47,0,0,1,107.69,83.13Zm186.09-3.45a.47.47,0,0,1-.45-.33c-.39-1.22-.8-2.4-1.21-3.53a.47.47,0,1,1,.88-.32c.42,1.14.83,2.34,1.22,3.57a.47.47,0,0,1-.3.59ZM110.6,76.2a.48.48,0,0,1-.17,0,.47.47,0,0,1-.27-.61q.67-1.75,1.29-3.51a.47.47,0,0,1,.89.31q-.62,1.78-1.3,3.54A.47.47,0,0,1,110.6,76.2Zm180.59-3.57a.47.47,0,0,1-.43-.29c-.49-1.17-1-2.31-1.55-3.39a.47.47,0,1,1,.84-.41c.54,1.1,1.07,2.26,1.57,3.44a.47.47,0,0,1-.43.65ZM113.07,69.11l-.14,0a.47.47,0,0,1-.31-.59q.56-1.79,1.05-3.59a.47.47,0,0,1,.91.25q-.5,1.82-1.06,3.62A.47.47,0,0,1,113.07,69.11Zm174.81-3.2a.47.47,0,0,1-.41-.24c-.61-1.07-1.27-2.13-2-3.17a.47.47,0,1,1,.78-.52c.7,1.05,1.37,2.13,2,3.22a.47.47,0,0,1-.17.64A.46.46,0,0,1,287.87,65.9Zm-172.81-4H115a.47.47,0,0,1-.35-.57q.44-1.82.81-3.65a.47.47,0,1,1,.92.19q-.38,1.85-.82,3.68A.47.47,0,0,1,115.07,61.87Zm168.66-2.21a.47.47,0,0,1-.37-.19c-.75-1-1.54-1.95-2.35-2.88a.47.47,0,1,1,.71-.62c.83,1,1.63,1.94,2.39,2.93a.47.47,0,0,1-.37.75ZM116.58,54.51h-.08a.47.47,0,0,1-.38-.54q.31-1.84.56-3.7a.47.47,0,0,1,.93.13q-.25,1.87-.57,3.73A.47.47,0,0,1,116.58,54.51ZM278.8,54a.47.47,0,0,1-.33-.14c-.86-.87-1.77-1.74-2.69-2.58a.47.47,0,0,1,.63-.7c.94.85,1.86,1.73,2.73,2.62a.47.47,0,0,1-.33.8Zm-5.57-5a.47.47,0,0,1-.29-.1c-1-.77-2-1.53-3-2.26a.47.47,0,0,1,.55-.76c1,.74,2,1.51,3,2.29a.47.47,0,0,1-.29.84ZM117.58,47.07a.48.48,0,0,1-.47-.52q.19-1.86.31-3.73a.47.47,0,0,1,.94.06q-.12,1.88-.31,3.76A.47.47,0,0,1,117.58,47.07Zm149.55-2.49a.47.47,0,0,1-.25-.07c-1-.66-2.11-1.32-3.19-1.94a.47.47,0,1,1,.47-.81c1.1.63,2.19,1.29,3.23,2a.47.47,0,0,1-.25.86Zm-6.52-3.75a.46.46,0,0,1-.21-.05c-1.09-.56-2.23-1.11-3.36-1.63a.47.47,0,0,1,.39-.85c1.15.53,2.29,1.08,3.4,1.65a.47.47,0,0,1-.21.89Zm-140.87,0c-1.12,0-2.23,0-3.28-.08a.47.47,0,0,1-.45-.49.46.46,0,0,1,.49-.44c1,.05,2.12.08,3.23.08h.49a.47.47,0,0,1,0,.94Zm4.25-.12a.47.47,0,0,1,0-.94q1.87-.1,3.73-.26a.46.46,0,0,1,.51.43.47.47,0,0,1-.43.51c-1.25.11-2.51.2-3.76.26Zm-11.25-.28h-.06c-1.28-.16-2.54-.36-3.75-.61a.47.47,0,1,1,.19-.92c1.18.24,2.41.45,3.67.6a.47.47,0,0,1-.06.94Zm18.8-.35a.5.5,0,0,1-.5-.41.44.44,0,0,1,.38-.51l3.73-.43a.46.46,0,0,1,.52.41.47.47,0,0,1-.41.52L131.6,40Zm-13.48-.46a.47.47,0,0,1-.47-.48q0-1.56,0-3.12v-.61a.47.47,0,0,1,.94,0V36q0,1.58,0,3.15A.47.47,0,0,1,118.07,39.57Zm20.87-.43a.47.47,0,0,1-.06-.94l3.72-.51a.47.47,0,0,1,.13.93l-3.73.51Zm-33.54-.3-.14,0q-.8-.25-1.58-.53c-.67-.24-1.33-.51-2-.8a.47.47,0,1,1,.38-.86c.63.28,1.28.54,1.92.78s1,.36,1.54.52a.47.47,0,0,1-.14.92Zm41-.76a.47.47,0,0,1-.07-.93l3.71-.57a.47.47,0,1,1,.15.93l-3.72.57Zm107.41-.39a.47.47,0,0,1-.18,0c-1.14-.47-2.32-.92-3.49-1.34a.47.47,0,0,1,.32-.88c1.19.43,2.37.88,3.53,1.36a.47.47,0,0,1-.18.9Zm-100-.78a.47.47,0,0,1-.07-.93l3.71-.61a.47.47,0,0,1,.15.93l-3.71.61ZM98.56,35.78a.47.47,0,0,1-.24-.07,29.87,29.87,0,0,1-3.13-2.18.47.47,0,0,1,.59-.73,29.06,29.06,0,0,0,3,2.12.47.47,0,0,1-.24.87Zm62.65-.09a.47.47,0,0,1-.08-.93l3.71-.61a.47.47,0,0,1,.15.93l-3.71.61Zm85.5-.56-.14,0c-1.17-.37-2.38-.73-3.59-1.07a.47.47,0,1,1,.25-.91c1.22.34,2.44.7,3.62,1.08a.47.47,0,0,1-.14.92Zm-78.09-.67a.47.47,0,0,1-.07-.93l3.71-.6a.47.47,0,1,1,.15.93l-3.71.6ZM176,33.29a.47.47,0,0,1-.07-.93l3.72-.55a.47.47,0,0,1,.13.93l-3.71.55Zm63.43-.17h-.11q-1.82-.44-3.65-.81a.47.47,0,0,1,.19-.92q1.85.38,3.69.81a.47.47,0,0,1-.11.93Zm-56-.9a.47.47,0,0,1-.06-.94l3.73-.48a.47.47,0,0,1,.12.93l-3.72.48ZM118,32.06a.47.47,0,0,1-.47-.46c0-1.18-.08-2.44-.14-3.75a.47.47,0,0,1,.44-.49.45.45,0,0,1,.49.44c.07,1.31.11,2.58.15,3.77a.47.47,0,0,1-.46.48Zm114.07-.43H232q-1.85-.31-3.7-.56a.47.47,0,0,1,.12-.93q1.87.25,3.73.56a.47.47,0,0,1-.08.93Zm-41.17-.32a.47.47,0,0,1-.05-.94l3.74-.38a.47.47,0,0,1,.09.93L191,31.3ZM92.72,31.1a.47.47,0,0,1-.34-.15A25.44,25.44,0,0,1,90,28a.47.47,0,0,1,.77-.54,24.42,24.42,0,0,0,2.33,2.85.47.47,0,0,1-.34.79Zm131.95-.46c-1.29-.13-2.53-.23-3.77-.32a.47.47,0,0,1,.06-.94q1.88.13,3.76.32a.47.47,0,0,1,0,.94Zm-26.25,0a.47.47,0,0,1,0-.94q1.88-.15,3.76-.26a.47.47,0,0,1,.06.94C200.95,30.42,198.43,30.6,198.42,30.6Zm7.5-.44a.47.47,0,0,1,0-.94q1.88-.07,3.76-.1a.46.46,0,0,1,.48.46.47.47,0,0,1-.46.48C208.43,30.08,205.92,30.16,205.92,30.16Zm11.26,0c-.48,0-3-.07-3.76-.08a.47.47,0,0,1-.47-.47.46.46,0,0,1,.47-.47c.79,0,3.3.06,3.76.08a.47.47,0,0,1,0,.94ZM88.46,25a.47.47,0,0,1-.43-.27,20.33,20.33,0,0,1-1.3-3.61.47.47,0,0,1,.91-.23,19.41,19.41,0,0,0,1.24,3.44.47.47,0,0,1-.42.67Zm29.18-.4a.47.47,0,0,1-.47-.43c-.11-1.3-.25-2.55-.42-3.71a.47.47,0,1,1,.93-.13c.17,1.18.31,2.44.42,3.76a.47.47,0,0,1-.43.51Zm-31-6.83a.47.47,0,0,1-.47-.45q0-.28,0-.56a15.6,15.6,0,0,1,.36-3.28.47.47,0,1,1,.92.2,14.69,14.69,0,0,0-.33,3.09c0,.18,0,.35,0,.53a.47.47,0,0,1-.45.49Zm29.94-.61a.47.47,0,0,1-.46-.37c-.27-1.27-.59-2.48-.94-3.59a.47.47,0,0,1,.89-.28c.36,1.14.69,2.38,1,3.68a.47.47,0,0,1-.36.56Zm-28.4-6.68a.47.47,0,0,1-.43-.67,18.39,18.39,0,0,1,2-3.3.47.47,0,0,1,.75.56,17.51,17.51,0,0,0-1.88,3.13A.47.47,0,0,1,88.16,10.43ZM114.25,10a.47.47,0,0,1-.42-.27A19.63,19.63,0,0,0,112,6.55a.47.47,0,0,1,.76-.55,20.54,20.54,0,0,1,1.95,3.31.47.47,0,0,1-.42.67ZM92.65,4.47a.47.47,0,0,1-.31-.83,16.09,16.09,0,0,1,3.2-2.16.47.47,0,0,1,.43.84,15.13,15.13,0,0,0-3,2A.47.47,0,0,1,92.65,4.47ZM109.8,4a.47.47,0,0,1-.3-.11A12.84,12.84,0,0,0,106.43,2a.47.47,0,0,1,.37-.86,13.79,13.79,0,0,1,3.29,2,.47.47,0,0,1-.3.83ZM99.28,1.15A.47.47,0,0,1,99.2.22a12.24,12.24,0,0,1,3.89-.11A.47.47,0,0,1,103,1a11.26,11.26,0,0,0-3.59.1Z"/><path class="cls-7" d="M189,257l-39-1.66a27,27,0,0,1,.64-4c.95-4.17,2.65-8,3.81-12.23,1.51-5.59-1.87-16.64-3.49-21.94s-.47-13.24-.47-13.24c1.29-1.53,9.4-3.52,12.28-4.62a2.94,2.94,0,0,0,1-.5c.47-.57.5-3.21.46-4.89,0-.83,0-1.43,0-1.43l.51-.43,8.53,1.31a7.44,7.44,0,0,0,.05,3,2.33,2.33,0,0,0,1.2,1.58,6.45,6.45,0,0,0,1.52.45l.12,0a27.16,27.16,0,0,0,4,.37c.9,0,1.53,0,1.53,0a44.44,44.44,0,0,1,4.4,9.67c.47,1.43.91,3,1.27,4.65,1.44,6.53,1.68,28.48,1.71,38.65C189,255,189,257,189,257Z"/><path class="cls-7" d="M169.94,370.44c-1.25.86-12.72,0-12.83-.76s-.27-1.62-.37-2.31a1.36,1.36,0,0,1,0-.18c0-5.61-1.44-18.83-1.44-18.83s6-3.93,8.31-.73c0,0-2.92,18.34-.18,19.67l.38.18a22.07,22.07,0,0,0,6,1.69S171.18,369.58,169.94,370.44Z"/><path class="cls-8" d="M169.94,370.44c-1.25.86-12.72,0-12.83-.76s-.27-1.62-.37-2.31l0-.18a22.85,22.85,0,0,0,7.08.29,22.07,22.07,0,0,0,6,1.69S171.18,369.58,169.94,370.44Z"/><path class="cls-7" d="M186.63,363.63c-1.52,0-10.59-7-10.24-7.77s.68-1.5,1-2.12a1.36,1.36,0,0,1,.08-.16c3.12-4.66,6.83-20.37,6.83-20.37s7.72.57,7.85,4.5c0,0-10.73,17.05-9.18,19.69l.22.36a22.08,22.08,0,0,0,4,4.72S188.15,363.61,186.63,363.63Z"/><path class="cls-8" d="M186.63,363.63c-1.52,0-10.59-7-10.24-7.77s.68-1.5,1-2.12l.08-.16a22.85,22.85,0,0,0,5.72,4.18,22.08,22.08,0,0,0,4,4.72S188.15,363.61,186.63,363.63Z"/><path class="cls-9" d="M185.15,352.29c-.89,1.29-6.86-1.54-6.21-4,8.31-31.77,13.49-36.13,13.49-36.13a3.37,3.37,0,0,0-.17-3.48c-9.93-14.74-19.73-33.55-19.73-33.55.2,7.5-2.65,34.76-3.29,42.26s-5.13,42.52-5.95,43c-5,2.61-8,0-8,0s-4.42-19-2.85-29.5-1.24-25.3-2.46-39.44a219.12,219.12,0,0,1-.93-29.33c.57-10.94,2.35-13.68,2.35-13.68,11.28,2.59,26.44,2.35,33.57,2,2.5-.1,4-.21,4-.21l1.46,3.93c4.49,12.07,17.77,48.2,18.55,54.76C209.9,316.8,185.15,352.29,185.15,352.29Z"/><path class="cls-10" d="M189.8,252.47l-4.85-2.05c-7.13.3-22.29.54-33.57-2,0,0-1.78,2.74-2.35,13.68,8.42.46,28.83.55,41.39-7.91Z"/><path class="cls-7" d="M218.55,160.35s-.09-3.23.83-5c1.23-2.31,11.19-2,11.19-2a2,2,0,0,1-1.48,3.33c-5.12,1.14-4.71,5.62-4.71,5.62S218.32,162.05,218.55,160.35Z"/><path class="cls-11" d="M173.22,196.32c-6.2,1.67-8.07-.26-9.05-2.44,0-.83,0-1.43,0-1.43l.51-.43,8.53,1.31A7.44,7.44,0,0,0,173.22,196.32Z"/><path class="cls-8" d="M173.6,187.2c3.94-1.81,2.07-6.67,1.57-9.88a7.65,7.65,0,0,0-1.05-3.33,5.25,5.25,0,0,0-3.66-2,6.33,6.33,0,0,0-4.65,1.19c-1.13.93-1.57,2.46-2.56,3.52-1.63,1.76-4.57,2.21-5.6,4.38a5.26,5.26,0,0,0-.36,2.65c.25,3.5,2.32,7,6.25,6.81a29.24,29.24,0,0,0,7.24-1.6,6.1,6.1,0,0,0,1.56-.65C173,187.87,172.85,187.54,173.6,187.2Z"/><path class="cls-11" d="M175,183.35a1.74,1.74,0,0,1,2.76-.5c1.68,1.41-.09,5-1.86,5.46A39.92,39.92,0,0,1,175,183.35Z"/><path class="cls-7" d="M173.62,178.54c1.09.79,1.9,4,2.41,6.32,1.52,7.12-.22,9.74-3.8,10.8s-7.67.34-9.65-6.16c-1-3.25-2-6.24-1-7.89C163,179.14,170.28,176.12,173.62,178.54Z"/><path class="cls-7" d="M162.91,188.45s-1.66-2.76-3.14-.87,1.72,5.7,4.36,4.88C164.13,192.46,164,189.31,162.91,188.45Z"/><path class="cls-11" d="M160.84,188.78a2.53,2.53,0,0,1,1.2.51,3.06,3.06,0,0,1,1,.86c.07.11-.09.22-.18.15-.27-.17-.5-.39-.75-.59a1.43,1.43,0,0,1-.44.5c-.15.09-.31-.09-.26-.24a1.29,1.29,0,0,1,.35-.49,6.65,6.65,0,0,1-1-.49A.13.13,0,0,1,160.84,188.78Z"/><path class="cls-8" d="M172.6,184.8s.66.12.37-1-.68-.76-.68-.76-.43.07-.21.93S172.6,184.8,172.6,184.8Z"/><path class="cls-8" d="M166.58,186.39s.66.12.37-1-.68-.76-.68-.76-.43.07-.21.93S166.58,186.39,166.58,186.39Z"/><path class="cls-11" d="M170.57,188.69c.31-.1,1.06,0,1.14-.41a9.3,9.3,0,0,0-.86-2.15,28.53,28.53,0,0,1-1.26-2.83c0-.05.07-.1.1,0a35.08,35.08,0,0,1,2.41,5.15.16.16,0,0,1-.11.22c-.46.08-.89.25-1.35.34C170.51,189,170.41,188.74,170.57,188.69Z"/><path class="cls-8" d="M171.32,181.59c.4-.31,1.22-.52,1.63-.11a.14.14,0,0,1-.08.23c-.22,0-.44,0-.66,0a1.82,1.82,0,0,0-.67.23C171.34,182,171.15,181.73,171.32,181.59Z"/><path class="cls-8" d="M165.15,183.77c.14-.68,1.23-.93,1.77-.63a.18.18,0,0,1,0,.31,4.13,4.13,0,0,1-.85.16,2.82,2.82,0,0,0-.64.34A.18.18,0,0,1,165.15,183.77Z"/><path class="cls-12" d="M173.74,189.71a4.44,4.44,0,0,1-4.4,1.28s.62,1.39,2.79,1C173.55,191.66,173.74,189.71,173.74,189.71Z"/><path class="cls-7" d="M152.07,212.72a20.66,20.66,0,0,1-3-2.43c-11-10.69-17.82-36.69-17.71-39.95.15-4.64,1.45-11,2.73-16.32.18-.74.36-1.46.53-2.15.49-1.92,1-3.62,1.33-4.95.51-1.83.85-2.95.85-2.95s4.47-3.11,5.85.21c0,0-.56,3.29-.69,4.73-.08.95-.42,4.72-.48,5.38-.54,6.3-1.17,14.5-1,16.7.21,2.8,10.42,20.59,21,27.79l.18.13C163.56,200.13,167.62,223,152.07,212.72Z"/><path class="cls-7" d="M137.43,146.28s-.6-1.64-1.56-3.59-3.11-6.22-3-7.81a3.92,3.92,0,0,1,.32-.7,1.46,1.46,0,0,1,.11-.18,4,4,0,0,1,1-1.09l.11-.08a3.89,3.89,0,0,1,1.28-.56l.13,0a5.61,5.61,0,0,1,1.32-.14s2.08,4.39,3.27,5.53c0,0-.56-2.95.17-3.55l.64-.09s1,3.11,1.52,4.45a9,9,0,0,1-.25,6.63S139.53,147.73,137.43,146.28Z"/><path class="cls-11" d="M135.72,132.28l.13,0a48.64,48.64,0,0,0,2.91,5.84s0,.08-.06,0A15.69,15.69,0,0,1,135.72,132.28Z"/><path class="cls-11" d="M134.32,132.92l.11-.08a49.68,49.68,0,0,0,2.9,5.84s0,.08-.06,0A15.53,15.53,0,0,1,134.32,132.92Z"/><path class="cls-11" d="M133.16,134.19a1.29,1.29,0,0,1,.11-.18,52.24,52.24,0,0,0,2.77,5.51s0,.08-.06,0A14.14,14.14,0,0,1,133.16,134.19Z"/><path class="cls-8" d="M225.57,161.37c-.42,4.31-6.24,22.78-10.48,31.76-1.2,2.53-13.38,10.08-21.28,14.86L187.15,212a4.36,4.36,0,0,1,.15.87c0,.1,0,.17-.05.19,1.35,6.12,2.57,25.82,2.74,36.63,0,.72,0,1.4,0,2a48.64,48.64,0,0,1-40-.76c.94-4.18,3.29-7.67,4.44-11.93,1.51-5.58-2.6-20.6-6.29-29.08a8,8,0,0,1-.41-1.19c-10.16-11.43-16.4-35.35-16.3-38.46.16-4.65,1.45-11,2.73-16.32,2.24.12,5,.29,7.39.28-.54,6.3-1.17,14.51-1,16.7.21,2.81,10.42,20.59,21,27.79l.18.13a1.61,1.61,0,0,1,.42.57l.58-.21c2,3.06,7,10,11.07,8.5,3-1.14,3-4.85,2.53-7.67-.05-.21-.1-.41-.13-.58a3.34,3.34,0,0,0-.08-.35c0-.13,0-.24-.05-.33s-.09-.35-.13-.5l.12,0a7.56,7.56,0,0,0,.85-.19c.58-.14,1.39-.37,2.39-.68l0,.09c2.82-.87,7.14-2.33,12.08-4.25l1.41-.56a115.08,115.08,0,0,0,12.4-5.47,294.32,294.32,0,0,0,12.83-27.11C222.21,161.51,223.47,161,225.57,161.37Z"/><path class="cls-13" d="M187.25,213.1c1.35,6.12,2.57,25.82,2.74,36.63-3.95-1.7-11.58-4.36-11.58-18.61,0-19.24-.74-29-1.5-32.93.58-.14,1.39-.37,2.39-.68l0,.09c2.82-.87,7.14-2.33,12.08-4.25L193.81,208,187.15,212a4.36,4.36,0,0,1,.15.87C187.3,213,187.28,213.08,187.25,213.1Z"/><path class="cls-7" d="M56.79,264.61a15.63,15.63,0,0,1-3.21,3c-1.56,1.22-5.31,3.47-5.88,4.81a3.56,3.56,0,0,0,0,.7,1.32,1.32,0,0,0,0,.19,3.61,3.61,0,0,0,.42,1.31l.06.11a3.55,3.55,0,0,0,.83,1l.1.07a5.11,5.11,0,0,0,1,.64s3.46-2.78,4.88-3.24c0,0-1.63,2.2-1.27,3l.49.33s2-2.17,3-3a9.59,9.59,0,0,0,2.82-5.38S59.08,264.26,56.79,264.61Z"/><path class="cls-11" d="M49,275.7l.1.07a44.34,44.34,0,0,1,4.71-3.63,0,0,0,0,0,0-.06A14.31,14.31,0,0,0,49,275.7Z"/><path class="cls-11" d="M48.13,274.61l.06.11a45.32,45.32,0,0,1,4.71-3.63s0-.08,0-.06A14.16,14.16,0,0,0,48.13,274.61Z"/><path class="cls-11" d="M47.68,273.12a1.18,1.18,0,0,0,0,.19,47.64,47.64,0,0,1,4.47-3.42s0-.07,0-.06A12.9,12.9,0,0,0,47.68,273.12Z"/><path class="cls-7" d="M86.16,205.15s-3.77-1.22-7.58,6.64-6.34,24.62-9,30.9-14.86,25.05-14.86,25.05l3.58,2.43s14.2-17.31,18.13-25S98.31,203.64,86.16,205.15Z"/><path class="cls-7" d="M132.36,298.31c-1.26,5.4-7.77,16.59-13.74,26.11-5.48,8.75-10.51,16.09-10.61,16.23a29.61,29.61,0,0,0-3,5.79,4.3,4.3,0,0,0,.51,2.2,12.47,12.47,0,0,0,3,4.53s1,1.39-.74,1.24-9-7.37-8.49-8.15,1-1.59,1.35-2.28a35.45,35.45,0,0,0,2-4s.38-1.06,1.07-2.85c0,0,1.64-7.45,4.55-16.16,2.57-7.71,6.14-16.41,10.43-21.79,0,0-8.87-9.48-18.16-20.11-6-6.93-12.28-14.35-16.32-19.95-2.19-3-3.45-6-1.17-8.74,1.13-1.37,3.16-2.66,6.41-3.86,9.73-3.59,14.34-5.53,14.34-5.53S134.79,287.9,132.36,298.31Z"/><path class="cls-7" d="M100.55,279.07c0,.26-.1.51-.14.73C99.2,285.93,87.56,315.68,86,320.19c-.71,2-4,10.72-7.38,19.78-4.07,10.88-8.32,22.33-8.49,23.54a4.42,4.42,0,0,0,.84,2.1,12.47,12.47,0,0,0,3.69,4s1.17,1.22-.54,1.34-10-5.89-9.65-6.73.71-1.72,1-2.46a32.16,32.16,0,0,0,1.33-4.26s.21-1.08.6-2.92c0,0,.79-7.34,2-15.83s2.82-18.1,4.47-22.73c1.4-3.94,4-6.07,4.86-16.32s0-46.93,0-46.93c0-.75.87-1.95,4.35-2.39a40,40,0,0,1,9.8.3C104.32,252.13,101.84,272.13,100.55,279.07Z"/><path class="cls-8" d="M80,190.84a8.41,8.41,0,0,0,2.62,4.67,10.26,10.26,0,0,0,7.21,2.08c2.9-.2,6-1,7.72-3.46,1.93-2.75,3.91-5.6,3.69-9.13a8.58,8.58,0,0,0-3.72-6.31c-2.5-1.75-5-3.47-8.12-2a8.31,8.31,0,0,0,1-4.64,5.2,5.2,0,0,0-2.41-4,5,5,0,0,0-5.56.68,6.66,6.66,0,0,0-2.13,5.36c.11,2.07,1.53,4.64,3.88,4.62C80.34,180.64,79,186.35,80,190.84Z"/><path class="cls-7" d="M78.71,252.77l28.21,3.1a158.64,158.64,0,0,0-3.67-22.9c-2-8.21-.12-8.81,0-11.41S98.63,214.34,97,211c-1.32-2.72-2.67-5-2.72-8.26a13.92,13.92,0,0,1,.19-2.51s-4.74-6.35-7.19-2.47a5.86,5.86,0,0,0-.1,1.17c-.09,1.6-.28,4.35-1.58,5.35,0,0-6.21,3.49-5.28,12.17s5.61,17.23,3.9,20.7S78.71,243.4,78.71,252.77Z"/><path class="cls-11" d="M87.19,198.92a9.49,9.49,0,0,0,7.1,3.8,13.92,13.92,0,0,1,.19-2.51s-4.74-6.35-7.19-2.47A5.86,5.86,0,0,0,87.19,198.92Z"/><path class="cls-8" d="M99.33,346.26c-.48.78,6.77,8,8.49,8.15s.74-1.24.74-1.24a12.4,12.4,0,0,1-3-4.53,14.5,14.5,0,0,1-4.86-4.66C100.3,344.67,99.85,345.43,99.33,346.26Z"/><path class="cls-8" d="M64.47,364.22c-.35.84,7.93,6.84,9.65,6.73s.54-1.34.54-1.34a12.4,12.4,0,0,1-3.69-4,14.51,14.51,0,0,1-5.52-3.85C65.18,362.5,64.86,363.32,64.47,364.22Z"/><path class="cls-7" d="M98.27,186.19c.75,1,1,3,1,5.31.23,7-3.14,9.52-5.41,9.52s-7.27-1-8-7.44c-.38-3.23-.36-5.94.38-7.6C87.79,182.49,95,181.6,98.27,186.19Z"/><path class="cls-8" d="M96.09,191.94s.6.22.51-.84-.51-.83-.51-.83-.42,0-.35.84S96.09,191.94,96.09,191.94Z"/><path class="cls-8" d="M90.39,192.08s.6.22.51-.84-.51-.83-.51-.83-.42,0-.35.84S90.39,192.08,90.39,192.08Z"/><path class="cls-11" d="M93,194.24c.3,0,1,.14,1.15-.19a8.89,8.89,0,0,0-.44-2.17c-.08-.3-.15-.58-.23-.84l.08-.06a.77.77,0,0,1,.19-.07c.28,1.11.49,2.27.75,3.32a.15.15,0,0,1-.14.19c-.45,0-.88.09-1.33.09C92.86,194.51,92.81,194.27,93,194.24Z"/><path class="cls-8" d="M95.43,188.71c.43-.22,1.24-.28,1.55.17a.13.13,0,0,1-.11.2c-.21,0-.4-.11-.62-.13a1.74,1.74,0,0,0-.67.1A.19.19,0,0,1,95.43,188.71Z"/><path class="cls-8" d="M89.49,189.37c.25-.61,1.31-.67,1.77-.29a.17.17,0,0,1-.08.29,4,4,0,0,1-.82,0,2.7,2.7,0,0,0-.66.21A.17.17,0,0,1,89.49,189.37Z"/><path class="cls-11" d="M92.24,195.9a2.92,2.92,0,0,0,1.24.47c.39,0,.8-.17,1.17,0a.1.1,0,0,1,.06.15c-.28.42-1,.46-1.47.42a1.63,1.63,0,0,1-1.32-.68A.24.24,0,0,1,92.24,195.9Z"/><path class="cls-8" d="M92.82,183.93a2.15,2.15,0,0,1-.79,1.31,4,4,0,0,1-1.49.47,1.75,1.75,0,0,0-1.29.83,4.73,4.73,0,0,0-.2,1.09,2,2,0,0,1-.92,1.31c-.42.25-.95.34-1.25.73a5.35,5.35,0,0,0-.43,1c-.16.32-.52.6-.82.44a9.67,9.67,0,0,1-1.34-3.42,5.88,5.88,0,0,1,2-5.16,6.27,6.27,0,0,1,5.29-1.25C93,181.54,93.11,182.64,92.82,183.93Z"/><path class="cls-7" d="M86.35,192.05s-1.09-2.88-2.8-1.35.64,5.65,3.27,5.33C86.81,196,87.18,193,86.35,192.05Z"/><path class="cls-11" d="M84.39,192a2.42,2.42,0,0,1,1,.68,2.93,2.93,0,0,1,.77,1c0,.12-.12.19-.2.11s-.4-.45-.61-.68a1.37,1.37,0,0,1-.5.4c-.16.06-.28-.14-.21-.27a1.23,1.23,0,0,1,.42-.4,6.35,6.35,0,0,1-.83-.62A.12.12,0,0,1,84.39,192Z"/><path class="cls-8" d="M132.36,298.31c-1.26,5.4-7.77,16.59-13.74,26.11A41.8,41.8,0,0,1,108.28,321c2.57-7.71,6.14-16.41,10.43-21.79,0,0-8.87-9.48-18.16-20.11,0,.26-.1.51-.14.73a54.11,54.11,0,0,1-1.54,5.3C95.35,295.79,87.28,316.49,86,320.19c-.71,2-4,10.72-7.38,19.78a21.35,21.35,0,0,1-9.24-1.22c1.2-8.47,2.82-18.1,4.47-22.73,1.4-3.94,4-6.07,4.86-16.32a256.24,256.24,0,0,0,.4-27.17c-.07-3-.14-5.93-.19-8.88,0-1.43,0-2.89,0-4.36a36.25,36.25,0,0,0-.23-4.8,20.92,20.92,0,0,1,4.75-15.67,1.11,1.11,0,0,1,.47-.39,1.06,1.06,0,0,1,.68,0c3.28.78,6.41,2.44,9.71,3a42.38,42.38,0,0,0,10.07.45.83.83,0,0,1,.58.11.93.93,0,0,1,.22.31c3.37,6.48,7.53,12.65,11.24,19,5.72,9.72,12.05,20,15.22,30.88C132.2,294.1,132.82,296.33,132.36,298.31Z"/><path class="cls-7" d="M124.89,196.84s1.3-2.88,2.62-5.75c.8-1.73,3-5.3,2.9-6.69a3.41,3.41,0,0,0-.29-.6,1.28,1.28,0,0,0-.1-.15,3.47,3.47,0,0,0-.93-.93l-.1-.07a3.4,3.4,0,0,0-1.14-.47l-.11,0a4.9,4.9,0,0,0-1.16-.09s-1.73,3.89-2.74,4.91c0,0,.42-2.59-.22-3.1l-.56-.07s-.78,2.74-1.23,3.92a9.21,9.21,0,0,0,0,5.83S123.08,198.15,124.89,196.84Z"/><path class="cls-11" d="M127.84,182.19l-.11,0a42.58,42.58,0,0,1-2.42,5.17s0,.07.06,0A13.73,13.73,0,0,0,127.84,182.19Z"/><path class="cls-11" d="M129.08,182.72l-.1-.07a43.49,43.49,0,0,1-2.42,5.17s0,.07.05,0A13.59,13.59,0,0,0,129.08,182.72Z"/><path class="cls-11" d="M130.12,183.8a1.15,1.15,0,0,0-.1-.15,45.72,45.72,0,0,1-2.31,4.88s0,.07.05,0A12.36,12.36,0,0,0,130.12,183.8Z"/><g class="cls-14"><rect class="cls-15" x="65.14" y="165.11" width="41.97" height="41.97"/><rect class="cls-15" x="65.14" y="207.08" width="41.97" height="41.97"/><rect class="cls-15" x="65.14" y="249.05" width="41.97" height="41.97"/><rect class="cls-15" x="107.1" y="165.11" width="41.97" height="41.97"/><rect class="cls-15" x="107.1" y="207.08" width="41.97" height="41.97"/><rect class="cls-15" x="107.1" y="249.05" width="41.97" height="41.97"/></g><g class="cls-16"><rect class="cls-15" x="65.14" y="165.11" width="41.97" height="41.97"/></g><path class="cls-17" d="M105.8,222.77A27.2,27.2,0,0,0,105,226c-.21,1.19-.51,2.44-.65,3.68-19.31-5-22.51-15.59-22.51-15.59l-.48-.42c-.39-2.42,17.53,4.64,24.26,7.37A15.12,15.12,0,0,1,105.8,222.77Z"/><path class="cls-7" d="M83.95,217s-6.63-4.73-.09-10.6c4.19-3.76,21.54,13.6,29,10.6,1.07-.43,9.79-26.22,9.79-26.22l4,1.15s-3.46,27.86-8.38,32.08C113.7,227.9,99.77,228,83.95,217Z"/><path class="cls-13" d="M100.55,279.07c0,.26-.1.51-.14.73a54.11,54.11,0,0,1-1.54,5.3c-3.89-1.51-13.67-5.77-19.76-12.57-.07-3-.14-5.93-.19-8.88,0-1.43,0-2.89,0-4.36C80.59,262.73,85.67,269,100.55,279.07Z"/><path class="cls-5" d="M476.57,147.65H419.33c-15.35,0-63.6,2.28-68-2-9.92-9.49,19.41-12.07,23.44-9.24a15,15,0,0,1,10.93-27.18c11.61,1.77,17,15.49,26.84,21.86-2.54-5.87,3.84-12.81,10.22-12.24s11.24,6.54,12.48,12.82c3.66-2.21,7.76-4.38,12-3.76s7.95,5.49,5.83,9.2a126.44,126.44,0,0,1,29.67,3.26c2.61.6,5.7,1.84,6,4.49C489.2,149.13,480.76,148.55,476.57,147.65Z"/><path class="cls-5" d="M69.51,91.88H114c11.94,0,49.46,1.78,52.92-1.54,7.71-7.38-15.1-9.38-18.23-7.18A11.7,11.7,0,0,0,140.23,62c-9,1.38-13.2,12-20.87,17,2-4.57-3-10-7.95-9.52s-8.74,5.09-9.7,10c-2.85-1.72-6-3.4-9.32-2.92s-6.18,4.27-4.53,7.15a98.34,98.34,0,0,0-23.07,2.54c-2,.47-4.43,1.43-4.68,3.49C59.69,93,66.26,92.59,69.51,91.88Z"/><path class="cls-7" d="M455.83,371.24c1.29.89,13.11,0,13.23-.78s.28-1.67.38-2.38a.72.72,0,0,0,0-.18c-1-7.35-2.37-18.36-2.37-18.36s-5.63-.74-8,2.56c0,0,6.31,14.54,3.48,15.92l-.4.18a22.76,22.76,0,0,1-6.14,1.74S454.55,370.35,455.83,371.24Z"/><path class="cls-18" d="M455.83,371.24c1.29.89,13.11,0,13.23-.78s.28-1.67.38-2.38l0-.18a23.56,23.56,0,0,1-7.29.3,22.76,22.76,0,0,1-6.14,1.74S454.55,370.35,455.83,371.24Z"/><path class="cls-7" d="M537.74,370.16c-1.28.89-13.11,0-13.23-.78s-.28-1.67-.38-2.38l0-.18c-.46-3.44-6-13.82-6-13.82s5.09-4.37,7.47-1.08c0,0,2.6,13.64,5.43,15l.4.18a22.76,22.76,0,0,0,6.14,1.74S539,369.27,537.74,370.16Z"/><path class="cls-18" d="M537.74,370.16c-1.28.89-13.11,0-13.23-.78s-.28-1.67-.38-2.38l0-.18a23.56,23.56,0,0,0,7.29.3,22.76,22.76,0,0,0,6.14,1.74S539,369.27,537.74,370.16Z"/><path class="cls-18" d="M538.27,354.1s-12.66,5.88-21.9,1.56c0,0-.24-.43-.66-1.24-.16-.29-.32-.63-.52-1-.9-1.83-2.25-4.7-3.72-8.43-.14-.33-.27-.67-.4-1-1.18-3.05-2.42-6.62-3.57-10.61-.09-.32-.18-.65-.28-1-1-3.51-1.89-7.35-2.63-11.45-.07-.37-.14-.75-.2-1.12-.33-1.92-.62-3.88-.85-5.88,0,0-.25-1.18-2.61-5.34l-.56-1c-.86-1.47-1.94-3.26-3.31-5.43-.49-.77-1-1.62-1.55-2.53l-.67-1.15c-2.19-3.79-4.65-8.45-7-13.12l-.54-1.09c-1.23-2.53-2.41-5-3.46-7.41l-.54-1.24a62,62,0,0,1-3.69-10.16s-2.11,4.94-6.18,15.29c-.21.54-8.39,21.89-10.5,27.56a4.2,4.2,0,0,0-.26,1.23,4.09,4.09,0,0,0,.06,1.12,3.6,3.6,0,0,0,.23.82l17,43.4a43.46,43.46,0,0,1-23.09-1s-.12-.3-.32-.86c-.12-.34-.28-.76-.47-1.27-.81-2.24-2.13-6.1-3.54-10.86q-.18-.6-.36-1.23c-.81-2.8-1.63-5.87-2.38-9.09-.11-.47-.22-.95-.32-1.44-.83-3.67-1.54-7.49-2-11.27,0-.28-.06-.56-.09-.84a82.19,82.19,0,0,1-.52-10.88s3.07-17.26,3.14-17.61c.81-4.16,1.72-8.66,2.75-13,.13-.54.26-1.09.38-1.62.81-3.42,1.67-6.74,2.55-9.72.11-.39.23-.77.34-1.14.6-2,1.23-3.82,1.85-5.4a17.76,17.76,0,0,1,3-5.45c2-2.12,6.75-2.84,12.33-2.68l1.58.07a83.1,83.1,0,0,1,16.76,2.86l1,.29c4.65,1.37,8.43,3,10.13,4.62a3.06,3.06,0,0,1,.92,1.32c.06.23,8.48,27.67,8.65,28.18,1.17,3.55,2.29,6.81,3.25,9.31.12.3.23.6.35.87,0,.09.07.18.1.26,1,2.57,2.63,7.06,4.52,12.43.1.29,8.93,24.94,9,25.25,1.39,3.7,2.75,7.15,4,10.11l.24.55C535.55,350,537.16,353.13,538.27,354.1Z"/><path class="cls-13" d="M505.94,266.75a26.3,26.3,0,0,1-18.33-.93c-5.76-2.44-12.19-4.57-19.68-4.17a12.86,12.86,0,0,1-10.07-4.06,17.76,17.76,0,0,1,3-5.45c2-2.12,6.75-2.84,12.33-2.68l1.58.07a83.1,83.1,0,0,1,16.76,2.86l1,.29c4.65,1.37,8.43,3,10.13,4.62a3.06,3.06,0,0,1,.92,1.32C503.6,258.85,504.55,262.12,505.94,266.75Z"/><path class="cls-7" d="M476.07,201.65c-.19,3-5,13.89-9.81,23.54-3.48,7-6.93,13.38-8.54,15.52-6.75,9-23.06,21.84-23.06,21.84s-4.34-2-3.44-6.16c0,0,15.9-18.72,18.12-22.47,1.16-2,3.65-7.36,6.13-13.07,2.28-5.17,4.56-10.6,5.9-13.9,2.47-6.07,8.82-13.84,13.05-9.77A5.72,5.72,0,0,1,476.07,201.65Z"/><path class="cls-7" d="M436.13,261s-1.45,1.46-3.05,3.46-5.08,6.44-6.83,7.14a4.6,4.6,0,0,1-.9,0l-.24,0a4.68,4.68,0,0,1-1.68-.57l-.14-.08a4.59,4.59,0,0,1-1.25-1.09l-.09-.12a6.61,6.61,0,0,1-.81-1.35s3.65-4.43,4.27-6.26c0,0-2.87,2.07-3.87,1.59l-.42-.64s2.84-2.58,4-3.85a10.65,10.65,0,0,1,7.21-3.06S436.63,258,436.13,261Z"/><path class="cls-11" d="M422,269.82l-.09-.12a57.4,57.4,0,0,0,4.78-6,0,0,0,0,1,.08,0A18.51,18.51,0,0,1,422,269.82Z"/><path class="cls-11" d="M423.42,271l-.14-.08a58.63,58.63,0,0,0,4.78-6s.1,0,.08,0A18.33,18.33,0,0,1,423.42,271Z"/><path class="cls-11" d="M425.35,271.59l-.24,0a61.65,61.65,0,0,0,4.5-5.72s.1,0,.08,0A16.71,16.71,0,0,1,425.35,271.59Z"/><path class="cls-10" d="M476.07,201.65c-.19,3-6.24,17.12-11,26.78a10.23,10.23,0,0,1-10.79-4.82c2.28-5.17,5.77-13.36,7.11-16.66,2.47-6.07,8.82-13.84,13.05-9.77A5.72,5.72,0,0,1,476.07,201.65Z"/><rect class="cls-18" x="451.05" y="194.47" width="7.45" height="14.15" rx="1.17" ry="1.17" transform="translate(-37.27 128.51) rotate(-15.46)"/><path class="cls-9" d="M505.87,259.61s-.73.22-1.91.48c-.54.11-1.2.23-1.9.34s-1.36.19-2.11.24a18.77,18.77,0,0,1-5.77-.34c-2.37-.57-4.76-1.48-7.23-2.22-.49-.15-1-.29-1.49-.42a19.87,19.87,0,0,0-7.83-.69,56.37,56.37,0,0,1-9.54.56c-.62,0-1.24-.06-1.84-.12a17.2,17.2,0,0,1-7.41-2.15,8.07,8.07,0,0,1-2.17-1.89A88,88,0,0,0,462.78,242a19.33,19.33,0,0,0,1.8-6.91s1.41-20,1.43-20.33c.1-1.45,2.44-15.39,3.61-17.72a1.5,1.5,0,0,1,.91-.69c2.26-.74,7.63.65,10.09.73,0,.1,0,.21-.05.31l0,.23c-.36,2.89.72,6.17-.34,9.57-1.39,4.51,8.56-4.78,12.35-8.68.24-.24.43-.45.62-.63l.49-.54.16-.2c8.44.84,10.72,2,10.75,2,1.17.81,1.43,2,1.25,3.74-.25,2.39-1.41,5.77-2.36,10.53-.72,3.52-1.55,7.72-2.26,12.68a53,53,0,0,0-.42,9.71A79.8,79.8,0,0,0,505.87,259.61Z"/><path class="cls-7" d="M481.52,213a153.42,153.42,0,0,1,11.1-14.52l1.19-1.42a4.88,4.88,0,0,1-1.72-.11.62.62,0,0,1-.39-.31s0,0,0,0c-.35-.85-.25-3.59-.11-5.65,0-.78.11-1.47.14-1.91,0,0,0-.08,0-.11,0-.31,0-.47,0-.47a2.18,2.18,0,0,0,0-.38,1.05,1.05,0,0,0-.06-.34c-.41-1.59-2.76-1.19-5.06-.39-1.1.4-2.2.88-3,1.29-.51.24-.93.46-1.2.61l-.41.22s.05.25.12.67c.09.58.21,1.48.28,2.43,0,.34.06.7.07,1,0,1.5-.11,2.91-.76,3.25a2.21,2.21,0,0,1-1.06.14c0,.1,0,.21-.05.31l0,.23C479.91,201.7,478.91,217.07,481.52,213Z"/><path class="cls-11" d="M482,189.51s.05.25.12.67c.09.58.21,1.48.28,2.43,0,.34.06.7.07,1a8.79,8.79,0,0,0,4.47.36,6.66,6.66,0,0,0,1-.3,8,8,0,0,0,3.59-2.73c0-.78.11-1.47.14-1.91,0,0,0-.08,0-.11,0-.31,0-.47,0-.47a2.18,2.18,0,0,0,0-.38,1.05,1.05,0,0,0-.06-.34c-.41-1.59-2.76-1.19-5.06-.39-1.1.4-2.2.88-3,1.29-.51.24-.93.46-1.2.61Z"/><path class="cls-19" d="M482.31,179.06c-.46-.24-1.33-.3-1.67.18a.14.14,0,0,0,.12.22c.23,0,.43-.12.67-.14a1.87,1.87,0,0,1,.73.11A.2.2,0,0,0,482.31,179.06Z"/><path class="cls-19" d="M489.14,179.63c-.26-.66-1.42-.72-1.91-.31a.19.19,0,0,0,.08.31,4.26,4.26,0,0,0,.89,0,2.91,2.91,0,0,1,.71.22A.19.19,0,0,0,489.14,179.63Z"/><path class="cls-18" d="M478.61,182.54a5.15,5.15,0,0,1-1-2.62c-.13-1.42.12-2.86,0-4.28-.22-2-1.23-4.19-.27-6a3.2,3.2,0,0,1,4.19-1.27c1.05.57,1.94,1.79,3.11,1.58a6,6,0,0,0,1.55-.81,2.8,2.8,0,0,1,2.88.24c1,.75,1.42,2.12,2.46,2.83s2.11.62,3,1.2a3.77,3.77,0,0,1,1.57,2.56c.44,2.4-.4,5.12-1.12,7.39-.11.35-.23,1.78-.76,1.8-.19,0-.26-.19-.33-.19l-.64,0c-3.31-.2-6.61-.43-9.91-.75-1.48-.14-2.82.24-4-.8A5.44,5.44,0,0,1,478.61,182.54Z"/><path class="cls-11" d="M479.09,182a1.79,1.79,0,0,0-2.89,0c-1.45,1.73,1,5.05,2.89,5.2A41.16,41.16,0,0,0,479.09,182Z"/><path class="cls-7" d="M478.29,183.5c0,1,0,1.83.09,2.61a1.62,1.62,0,0,1,0,.22.3.3,0,0,1,0,.09c0,.23.13.86.14,1a8.19,8.19,0,0,0,1.37,3.48,5,5,0,0,0,2.45,1.77,7.85,7.85,0,0,0,1.76.38,10.64,10.64,0,0,0,1.57.06,9.2,9.2,0,0,0,1.24-.14,6.48,6.48,0,0,0,4.76-3.82c.1-.21.18-.39.25-.57a12.33,12.33,0,0,0,.52-1.67c.08-.32.15-.65.21-1,0-.2.06-.41.08-.62l0-.24a.1.1,0,0,1,0-.06c.09-.78.18-1.55.25-2.28.25-2.53.3-4.71-.69-5.87-1.65-2-8.09-2.67-11.63-.74a5.53,5.53,0,0,0-1.13.78c-.09.08-.14.14-.2.2a1.89,1.89,0,0,0-.22.28,4.79,4.79,0,0,0-.65,1.92c-.06.3-.09.61-.12.93s-.07.86-.09,1.31,0,.84,0,1.27v.15A5.83,5.83,0,0,0,478.29,183.5Z"/><path class="cls-7" d="M492.27,184s1.17-3.11,3-1.46-.71,6.34-3.54,6C491.76,188.5,491.37,185,492.27,184Z"/><path class="cls-11" d="M494.43,183.92a2.61,2.61,0,0,0-1.12.73,3.15,3.15,0,0,0-.83,1.05c0,.13.12.2.21.12.24-.22.44-.49.66-.73a1.48,1.48,0,0,0,.54.43c.17.06.3-.15.22-.29a1.33,1.33,0,0,0-.45-.43,6.84,6.84,0,0,0,.89-.67A.13.13,0,0,0,494.43,183.92Z"/><path class="cls-18" d="M481.6,182.55s-.65.24-.55-.91.55-.89.55-.89.45,0,.38.9S481.6,182.55,481.6,182.55Z"/><path class="cls-18" d="M488.17,182.55s-.65.24-.55-.91.55-.89.55-.89.45,0,.38.9S488.17,182.55,488.17,182.55Z"/><path class="cls-11" d="M484.54,185.61c-.33,0-1.08.15-1.24-.21a9.58,9.58,0,0,1,.47-2.34,29.47,29.47,0,0,0,.76-3.1.06.06,0,0,0-.11,0,36.15,36.15,0,0,0-1.5,5.67.16.16,0,0,0,.16.2c.48,0,.95.09,1.43.1C484.66,185.9,484.71,185.63,484.54,185.61Z"/><path class="cls-12" d="M482.56,187.24a7,7,0,0,0,4.17,0,3.47,3.47,0,0,1-2.36,1.54C482.88,188.93,482.56,187.24,482.56,187.24Z"/><path class="cls-18" d="M482.46,178.71c-.45-.23-1.28-.29-1.61.18a.14.14,0,0,0,.12.21c.22,0,.42-.12.64-.14a1.8,1.8,0,0,1,.7.11A.19.19,0,0,0,482.46,178.71Z"/><path class="cls-18" d="M489.5,179c-.25-.63-1.36-.69-1.83-.3a.18.18,0,0,0,.08.3,4.1,4.1,0,0,0,.85,0,2.8,2.8,0,0,1,.68.22A.18.18,0,0,0,489.5,179Z"/><path class="cls-7" d="M455.17,212.77s-1.17-1.42-2.8-3-5.26-5.11-5.73-6.73a4.11,4.11,0,0,1,.07-.8,1.54,1.54,0,0,1,.05-.21,4.18,4.18,0,0,1,.66-1.45l.09-.12a4.1,4.1,0,0,1,1.08-1l.12-.07a5.92,5.92,0,0,1,1.27-.6s3.6,3.65,5.18,4.37c0,0-1.58-2.75-1.06-3.59l.6-.31s2,2.76,3.06,3.91a9.52,9.52,0,0,1,2.06,6.7S457.76,213.48,455.17,212.77Z"/><path class="cls-11" d="M448.59,199.41l.12-.07a51.33,51.33,0,0,0,4.93,4.8s0,.09,0,.07A16.56,16.56,0,0,1,448.59,199.41Z"/><path class="cls-11" d="M447.42,200.54l.09-.12a52.44,52.44,0,0,0,4.92,4.81s0,.09,0,.06A16.39,16.39,0,0,1,447.42,200.54Z"/><path class="cls-11" d="M446.71,202.2a1.38,1.38,0,0,1,.05-.21,55.15,55.15,0,0,0,4.68,4.53s0,.09,0,.06A14.9,14.9,0,0,1,446.71,202.2Z"/><path class="cls-10" d="M505.81,202.85c-.25,2.39-1.41,5.77-2.36,10.53-.72,3.52-1.55,7.72-2.26,12.68a53,53,0,0,0-.42,9.71c-1.05.69-2.17,1.35-3.37,2C484,244.91,479.19,239,479.19,239l9.37-9.74,11.71-20.48Z"/><path class="cls-7" d="M501.83,222a47,47,0,0,1-3.52,5.16c-7.68,9.89-16.64,13.34-20.84,11.39-6.76-3.18-18.62-19.72-21.8-24.5-1.12-1.67-1.78-2.71-1.78-2.71s2.19-3.7,5.8-2.5c0,0,.64.69,1.7,1.78,4.06,4.2,17.63,14.7,20.11,16.54.82.61,2.89-2.69,5.54-7.25,5-8.63,12-21.77,16.26-21.18C506.27,199.11,512.34,204.37,501.83,222Z"/><path class="cls-9" d="M501.83,222a47,47,0,0,1-3.52,5.16c-6.42-1.86-9.69-5.06-11.26-7.25,5-8.63,12-21.77,16.26-21.18C506.27,199.11,512.34,204.37,501.83,222Z"/><path class="cls-3" d="M62.67,181.47c5.59-3.42,9-8,9-13,0-10.61-15.29-19.2-34.15-19.2s-34.15,8.6-34.15,19.2,15.29,19.2,34.15,19.2a55.75,55.75,0,0,0,16.84-2.5C58.66,192.46,68,193,68,193,63.42,190.25,62.71,184.49,62.67,181.47Z"/><path class="cls-12" d="M20.87,169a2.71,2.71,0,0,1,.18-1,2.36,2.36,0,0,1,.51-.8,2.4,2.4,0,0,1,.8-.53,2.66,2.66,0,0,1,1-.2,2.71,2.71,0,0,1,1.06.2,2.4,2.4,0,0,1,.8.53,2.37,2.37,0,0,1,.51.8,2.87,2.87,0,0,1,0,2,2.46,2.46,0,0,1-.51.81,2.24,2.24,0,0,1-.8.53,2.81,2.81,0,0,1-1.06.19,2.76,2.76,0,0,1-1-.19,2.24,2.24,0,0,1-.8-.53,2.46,2.46,0,0,1-.51-.81A2.71,2.71,0,0,1,20.87,169Z"/><path class="cls-12" d="M35,169a2.71,2.71,0,0,1,.18-1,2.36,2.36,0,0,1,.51-.8,2.4,2.4,0,0,1,.8-.53,2.66,2.66,0,0,1,1-.2,2.71,2.71,0,0,1,1.06.2,2.4,2.4,0,0,1,.8.53,2.37,2.37,0,0,1,.51.8,2.87,2.87,0,0,1,0,2,2.46,2.46,0,0,1-.51.81,2.24,2.24,0,0,1-.8.53,2.81,2.81,0,0,1-1.06.19,2.76,2.76,0,0,1-1-.19,2.24,2.24,0,0,1-.8-.53,2.46,2.46,0,0,1-.51-.81A2.71,2.71,0,0,1,35,169Z"/><path class="cls-12" d="M49.1,169a2.71,2.71,0,0,1,.18-1,2.36,2.36,0,0,1,.51-.8,2.4,2.4,0,0,1,.8-.53,2.66,2.66,0,0,1,1-.2,2.71,2.71,0,0,1,1.06.2,2.4,2.4,0,0,1,.8.53,2.37,2.37,0,0,1,.51.8,2.87,2.87,0,0,1,0,2,2.46,2.46,0,0,1-.51.81,2.24,2.24,0,0,1-.8.53,2.81,2.81,0,0,1-1.06.19,2.76,2.76,0,0,1-1-.19,2.24,2.24,0,0,1-.8-.53,2.46,2.46,0,0,1-.51-.81A2.71,2.71,0,0,1,49.1,169Z"/><path class="cls-20" d="M202.73,247.48a14.72,14.72,0,0,1-15.81-14.66q0-3.31.1-6.39a92.68,92.68,0,0,1,2.39-18.36,68.19,68.19,0,0,1,6-16,91.66,91.66,0,0,1,10-15q4.54-5.88,8.36-11.43a79.25,79.25,0,0,0,6.45-11.1,54.65,54.65,0,0,0,3.94-11.37A41.88,41.88,0,0,0,225,130.8q-2.32-30.65-22.14-29.15a16.69,16.69,0,0,0-7,2.29,19,19,0,0,0-6.28,6.1,31.63,31.63,0,0,0-4.22,10.1l0,.12a20.36,20.36,0,0,1-18.24,15.47l-12.53.95a19.79,19.79,0,0,1-21.06-23.09,72.18,72.18,0,0,1,2.22-9.07A64.25,64.25,0,0,1,149.44,80a63.34,63.34,0,0,1,21.9-15.41A87.75,87.75,0,0,1,199.54,58a89.37,89.37,0,0,1,30.55,2.48A59.15,59.15,0,0,1,269.65,94.2q6,13,7.29,30.46a67.28,67.28,0,0,1-1.66,21.91A87.89,87.89,0,0,1,268,165.47a129,129,0,0,1-11,17.45c-4.25,5.68-8.68,11.4-13.08,17.33a56.67,56.67,0,0,0-6,10.05,49.56,49.56,0,0,0-3.46,10.32A68.32,68.32,0,0,0,233,232v.12a14.75,14.75,0,0,1-13.58,14.11Zm-15.66,57.66a30.39,30.39,0,0,1,1.17-11.35,26.47,26.47,0,0,1,5-9.33,26.86,26.86,0,0,1,8.45-6.64,29.82,29.82,0,0,1,11.49-3.08,30.34,30.34,0,0,1,12,1.31,26.91,26.91,0,0,1,9.35,5.29,26.54,26.54,0,0,1,6.36,8.47,32.13,32.13,0,0,1,1.7,22.39,27.55,27.55,0,0,1-5,9.42,25.14,25.14,0,0,1-8.45,6.64,31.54,31.54,0,0,1-11.68,3A31,31,0,0,1,205.67,330a25.09,25.09,0,0,1-9.35-5.29,27.47,27.47,0,0,1-6.37-8.56A30.39,30.39,0,0,1,187.08,305.14Z"/><path class="cls-21" d="M197,247.48a14.72,14.72,0,0,1-15.81-14.66q0-3.31.1-6.39a92.68,92.68,0,0,1,2.39-18.36,68.19,68.19,0,0,1,6-16,91.67,91.67,0,0,1,10-15q4.54-5.88,8.36-11.43a79.25,79.25,0,0,0,6.45-11.1,54.65,54.65,0,0,0,3.94-11.37,41.88,41.88,0,0,0,.81-12.43q-2.32-30.65-22.14-29.15a16.69,16.69,0,0,0-7,2.29,19,19,0,0,0-6.28,6.1,31.63,31.63,0,0,0-4.22,10.1l0,.12a20.36,20.36,0,0,1-18.24,15.47l-12.53.95a19.79,19.79,0,0,1-21.06-23.09,72.16,72.16,0,0,1,2.22-9.07A64.25,64.25,0,0,1,143.68,80a63.34,63.34,0,0,1,21.9-15.41A87.75,87.75,0,0,1,193.78,58a89.37,89.37,0,0,1,30.55,2.48A59.15,59.15,0,0,1,263.89,94.2q6,13,7.29,30.46a67.28,67.28,0,0,1-1.66,21.91,87.9,87.9,0,0,1-7.24,18.91,129,129,0,0,1-11,17.45c-4.25,5.68-8.68,11.4-13.08,17.33a56.67,56.67,0,0,0-6,10.05,49.56,49.56,0,0,0-3.46,10.32A68.33,68.33,0,0,0,227.26,232v.12a14.75,14.75,0,0,1-13.58,14.11Zm-15.66,57.66a30.39,30.39,0,0,1,1.17-11.35,26.47,26.47,0,0,1,5-9.33,26.86,26.86,0,0,1,8.45-6.64,29.82,29.82,0,0,1,11.49-3.08,30.34,30.34,0,0,1,12,1.31,26.91,26.91,0,0,1,9.35,5.29,26.54,26.54,0,0,1,6.36,8.47,32.13,32.13,0,0,1,1.7,22.39,27.55,27.55,0,0,1-5,9.42,25.14,25.14,0,0,1-8.45,6.64,31.54,31.54,0,0,1-11.68,3A31,31,0,0,1,199.9,330a25.09,25.09,0,0,1-9.35-5.29,27.47,27.47,0,0,1-6.37-8.56A30.39,30.39,0,0,1,181.31,305.14Z"/><path class="cls-22" d="M162.4,76.63c.75-1-.72-2.43-1.73-1.73-5.55,3.84-10.34,9.38-14.69,14.5C142.08,94,138.6,99,137.1,104.91c-1.25,4.91-1.23,10.54,1.52,15,1.79,2.87,5.21,5.84,8.68,4.28a.45.45,0,0,0,.09-.7c-4-3.15-7-5.18-7.48-10.82-.47-5.15,1.39-10.19,4-14.51C149,90,156.77,84.21,162.4,76.63Z"/><path class="cls-22" d="M202.56,317.19c-6.27-3.81-10.45-8.26-10.57-16.06-.12-7.63,3.67-13.56,9.5-18a.68.68,0,0,0-.52-1.24c-16.49,3.83-16.66,35.51,1,37.64C203.22,319.65,203.52,317.78,202.56,317.19Z"/><path class="cls-3" d="M526.24,114.69a29.56,29.56,0,0,0-8,51,13.37,13.37,0,0,1-3.89,13.51s9-1.38,11.77-9.09a29.56,29.56,0,1,0,.16-55.4Z"/><path class="cls-12" d="M557.28,133.23H515.66a1,1,0,0,1,0-2h41.62a1,1,0,0,1,0,2Z"/><path class="cls-12" d="M557.28,140.12H515.66a1,1,0,0,1,0-2h41.62a1,1,0,0,1,0,2Z"/><path class="cls-12" d="M557.28,147H515.66a1,1,0,0,1,0-2h41.62a1,1,0,0,1,0,2Z"/><path class="cls-12" d="M540.91,153.91H515.66a1,1,0,0,1,0-2h25.25a1,1,0,0,1,0,2Z"/><path class="cls-20" d="M361.68,304.1a31.11,31.11,0,0,1,3.26-11,26.28,26.28,0,0,1,6.67-8.33,26.88,26.88,0,0,1,9.53-5,30.34,30.34,0,0,1,12-.88,29.83,29.83,0,0,1,11.37,3.49,26.9,26.9,0,0,1,8.21,6.93,26.36,26.36,0,0,1,4.67,9.59,31.19,31.19,0,0,1,.76,11.47A30.45,30.45,0,0,1,415,321.31a26.5,26.5,0,0,1-6.66,8.24,25.72,25.72,0,0,1-9.52,4.87,31,31,0,0,1-11.85.81,31.53,31.53,0,0,1-11.57-3.42,25.7,25.7,0,0,1-8.22-6.84,26.42,26.42,0,0,1-4.68-9.5A30.38,30.38,0,0,1,361.68,304.1Zm34.77-53.72a22.34,22.34,0,0,1-19.81-23.95L387.61,86a22.34,22.34,0,0,1,24.75-20.47l9.16,1a22.34,22.34,0,0,1,19.65,25.4L421,231.36A22.34,22.34,0,0,1,396.45,250.37Z"/><path class="cls-21" d="M356.79,304.1a31.12,31.12,0,0,1,3.26-11,26.28,26.28,0,0,1,6.67-8.33,26.88,26.88,0,0,1,9.53-5,30.34,30.34,0,0,1,12-.88,29.83,29.83,0,0,1,11.37,3.49,26.9,26.9,0,0,1,8.21,6.93,26.36,26.36,0,0,1,4.67,9.59,31.19,31.19,0,0,1,.76,11.47,30.45,30.45,0,0,1-3.25,10.93,26.5,26.5,0,0,1-6.66,8.24,25.72,25.72,0,0,1-9.52,4.87,31,31,0,0,1-11.85.81,31.53,31.53,0,0,1-11.57-3.42,25.7,25.7,0,0,1-8.22-6.84,26.42,26.42,0,0,1-4.68-9.5A30.38,30.38,0,0,1,356.79,304.1Zm34.77-53.72a22.34,22.34,0,0,1-19.81-23.95L382.73,86a22.34,22.34,0,0,1,24.75-20.47l9.16,1a22.34,22.34,0,0,1,19.65,25.4L416.14,231.36A22.34,22.34,0,0,1,391.56,250.37Z"/><path class="cls-22" d="M380.66,323.67c-6.69-4.26-11.6-10.89-11.1-19.17s6-13,11.69-18.06c.25-.22.06-.74-.29-.69-8.63,1.12-14.29,10.68-14.84,18.75a22.49,22.49,0,0,0,13.37,21.93C381.13,327.11,382,324.54,380.66,323.67Z"/><path class="cls-22" d="M403.25,73.93C389.66,75.58,390.08,91.73,389,102q-1.39,12.86-2.78,25.71c-.95,8.81-2.55,17.83-2.35,26.7a.64.64,0,0,0,1.24.17c3.24-13.44,3.51-28,5-41.71.77-7.25,1.44-14.52,2.3-21.76,1-8,3.63-13,11.17-16.21A.54.54,0,0,0,403.25,73.93Z"/><path class="cls-7" d="M297.21,363.24a24.08,24.08,0,0,1,1,3.72q.06.31.12.64c.13.69.25,1.47.37,2.35s11.73,1.63,13,.76-.2-1.28-.2-1.28a18,18,0,0,1-6.42-1.88c-3.38-2.21-3.62-15.14-3.62-15.14C297.61,342.42,290.46,332.63,297.21,363.24Z"/><path class="cls-7" d="M245.29,370.55c1.29.89,13.15,0,13.27-.79s.28-1.68.38-2.38l0-.18c.47-3.45,1.17-9.67,1.17-9.67s-3.16-3.42-5.54-.12c0,0,.29,8.53-2.55,9.9l-.4.18a22.82,22.82,0,0,1-6.16,1.74S244,369.66,245.29,370.55Z"/><path class="cls-8" d="M303.3,359.4s-3.46,2.57-8.88.52c0,0-5.13-23.17-9.49-43.57-.51-2.38-8.38-23.22-11.73-32.23-.76-2-1.28-3.46-1.44-4a2.31,2.31,0,0,0-1.42-1.49c-.8-.27-1.79-.06-2.21,2.23-.07.4-.2,1.47-.36,3.06-1.51,14.76-6.44,75-6.44,75s-4.54.87-7.8-.71c0,0-3.54-45.7-4-75.54,0-2-.05-3.92-.05-5.75,0-5.46.14-10,.43-12.9l37.28-1.48s9.56,47.24,10.34,52C299.07,323.54,303.3,359.4,303.3,359.4Z"/><path class="cls-8" d="M298.18,367q.06.31.12.64c.13.69.25,1.47.37,2.35s11.73,1.63,13,.76-.2-1.28-.2-1.28a18,18,0,0,1-6.42-1.88A14.34,14.34,0,0,1,298.18,367Z"/><path class="cls-8" d="M245.29,370.55c1.29.89,13.15,0,13.27-.79s.28-1.68.38-2.38l0-.18a23.63,23.63,0,0,1-7.32.3,22.82,22.82,0,0,1-6.16,1.74S244,369.66,245.29,370.55Z"/><path class="cls-13" d="M291.45,283.3a130.66,130.66,0,0,1-18.25.82c-.76-2-1.28-3.46-1.44-4a2.31,2.31,0,0,0-1.42-1.49c-.8-.27-1.79-.06-2.21,2.23-.07.4-.2,1.47-.36,3.06-7.4-.28-14.1-.87-18.21-1.28,0-2-.05-3.92-.05-5.75,0-5.46.14-10,.43-12.9l37-1.47.88,2.84C288.57,269.12,289.95,275.88,291.45,283.3Z"/><path class="cls-7" d="M278.51,220.71c-2.1-4.09,55.54-26.64,27.06-38.87-9.28-4-27.48-7.6-27.48-7.6s-2.84,3.23-.6,6.3c0,0,19.25,6.49,22.44,8.78s-17.88,10.46-27.2,12.2C266.95,202.59,279.19,222,278.51,220.71Z"/><path class="cls-7" d="M279.81,174.67s-1.74-.6-3.83-1.58-6.64-3.16-8.33-3a4.13,4.13,0,0,0-.73.35l-.18.12a4.19,4.19,0,0,0-1.13,1.13l-.08.12a4.12,4.12,0,0,0-.57,1.37l0,.14a5.93,5.93,0,0,0-.12,1.41s4.7,2.11,5.92,3.34c0,0-3.13-.53-3.75.25l-.08.68s3.31,1,4.74,1.51a9.55,9.55,0,0,0,7-.4S281.38,176.86,279.81,174.67Z"/><path class="cls-8" d="M255.12,186.3a2.05,2.05,0,0,1-.21-.8,21,21,0,0,1,.05-5.17,9.78,9.78,0,0,1,.66-2.91,8,8,0,0,1,4-3.54,21,21,0,0,1,11.15-2,6.52,6.52,0,0,1,2.53.65,2.79,2.79,0,0,1,1.5,2,4.75,4.75,0,0,1-.24,1.66c-.95,3.71.14,7.37-1.14,10.93-.39,1.09-.47,1.26-1.1,1.22-3.4-.21-6.8-.47-10.19-.79a46.1,46.1,0,0,1-5.91-.75C255.6,186.66,255.29,186.58,255.12,186.3Z"/><path class="cls-11" d="M272.68,185.21a1.92,1.92,0,0,1,3.1,0c1.55,1.86-1.08,5.42-3.1,5.58A44.11,44.11,0,0,1,272.68,185.21Z"/><path class="cls-7" d="M245.4,206.16c.94,2.23,4.42,10.81,5.54,17.77.6,3.71,2.89,16.46,2.89,16.46,13.13,3.61,27.56,0,27.56,0s7.93-33.26,1.83-37.19a13.53,13.53,0,0,0-4.86-1.39,62.8,62.8,0,0,0-7.89-.51l-.17-1.92s-.45-4.74-.45-4.74A13.51,13.51,0,0,1,259,192a36.9,36.9,0,0,1,.45,4.36c.06,1,.1,1.92.13,2.74,0,1.43,0,2.47,0,2.47a30.52,30.52,0,0,0-5.11.52,27.84,27.84,0,0,0-8.8,3.19A.71.71,0,0,0,245.4,206.16Z"/><path class="cls-11" d="M259,192c1.69,7.66,9.39,7.13,11.2,6.12l-.32-3.46A13.48,13.48,0,0,1,259,192Z"/><path class="cls-7" d="M272.33,179.83c1,1.07,1.11,3.47,1.2,6.13.26,8-2.15,10.55-6.26,11s-8.4-1.14-9.29-8.59c-.44-3.73-.91-7.17.44-8.78C260.45,177.18,269.17,176.55,272.33,179.83Z"/><path class="cls-7" d="M258.55,187.29s-1.26-3.33-3.24-1.57.76,6.8,3.79,6.42C259.1,192.15,259.52,188.43,258.55,187.29Z"/><path class="cls-7" d="M247.85,205.26a5.12,5.12,0,0,0-3.59,2.32c-2.54,3.84-7.9,32.21-7.91,37.91,0,10.1,4.75,28.09,4.75,28.09s4.2.9,5.79-2.56c0,0-1.31-22-.87-25.89s4.2-19.34,5.92-25.83C253.45,213.61,253.09,204.62,247.85,205.26Z"/><path class="cls-11" d="M256.24,187.24a2.8,2.8,0,0,1,1.21.79,3.38,3.38,0,0,1,.89,1.13c.05.13-.14.22-.23.13-.26-.24-.46-.53-.7-.78a1.58,1.58,0,0,1-.58.46c-.18.07-.32-.16-.24-.31a1.43,1.43,0,0,1,.48-.46,7.34,7.34,0,0,1-1-.72A.14.14,0,0,1,256.24,187.24Z"/><path class="cls-8" d="M270,185.77s.7.26.59-1-.59-1-.59-1-.48,0-.41,1S270,185.77,270,185.77Z"/><path class="cls-8" d="M263,185.77s.7.26.59-1-.59-1-.59-1-.48,0-.41,1S263,185.77,263,185.77Z"/><path class="cls-11" d="M266.84,189c.35-.05,1.16.16,1.33-.22a10.28,10.28,0,0,0-.51-2.51,31.57,31.57,0,0,1-.81-3.32.07.07,0,0,1,.12,0,38.74,38.74,0,0,1,1.61,6.07.17.17,0,0,1-.17.22c-.52,0-1,.1-1.53.1C266.71,189.36,266.66,189.08,266.84,189Z"/><path class="cls-8" d="M269.23,182c.5-.25,1.43-.32,1.79.2a.15.15,0,0,1-.13.23c-.25,0-.47-.13-.71-.15a2,2,0,0,0-.78.12A.22.22,0,0,1,269.23,182Z"/><path class="cls-8" d="M261.91,182.64c.28-.71,1.52-.77,2-.34a.2.2,0,0,1-.09.33,4.56,4.56,0,0,1-1,0,3.12,3.12,0,0,0-.76.24A.2.2,0,0,1,261.91,182.64Z"/><path class="cls-9" d="M292.25,279.68c1,5.67-45.32-2-45.06-4.54,1.69-16.76,3.15-44,3.15-44s0-1.41,0-3.72c0,.21,0,.32,0,.32l-2,8.57a18.19,18.19,0,0,1-12-3.26s2.42-10.57,5.22-20.39c2-6.94,5.68-9.34,7.37-10.09a3.7,3.7,0,0,1,.6-.23l.29-.09a54.49,54.49,0,0,1,7.62-.91s-1.31,7.1,7.19,7.78c9.59.77,9.07-8.18,9.07-8.18s18.76-6,21.87-8.08a43.35,43.35,0,0,1,6.77,13.28s-11.62,5.82-17.16,13c0,1.07-.07,1.73-.07,1.73S286.14,244.06,292.25,279.68Z"/><path class="cls-7" d="M240.91,271.65s.25,1.83.32,4.13.17,7.36,1,8.81a4.14,4.14,0,0,0,.64.49l.19.11a4.2,4.2,0,0,0,1.51.5l.15,0a4.11,4.11,0,0,0,1.48-.11l.13,0a5.93,5.93,0,0,0,1.31-.53s-.23-5.14.31-6.79c0,0,.94,3,1.92,3.23l.64-.23s-.64-3.38-.79-4.91a9.55,9.55,0,0,0-3.52-6.08S242.15,269.26,240.91,271.65Z"/><path class="cls-11" d="M246.25,285.6l.13,0a51.48,51.48,0,0,1-.17-6.9,0,0,0,0,0-.08,0A16.61,16.61,0,0,0,246.25,285.6Z"/><path class="cls-11" d="M244.62,285.69l.15,0a52.61,52.61,0,0,1-.18-6.9s-.07-.06-.08,0A16.44,16.44,0,0,0,244.62,285.69Z"/><path class="cls-11" d="M242.91,285.08l.19.11a55.31,55.31,0,0,1-.14-6.53,0,0,0,0,0-.08,0A15,15,0,0,0,242.91,285.08Z"/><path class="cls-11" d="M269.26,191.37c-.75,0-1.45.35-2.22.39a7.55,7.55,0,0,0-2,0c.45.54,1.47.51,2.12.48a3.61,3.61,0,0,0,2.17-.6A.13.13,0,0,0,269.26,191.37Z"/><path class="cls-10" d="M302.35,206.19s-11.62,5.82-17.16,13l-1.09-7.66Z"/><path class="cls-7" d="M362.57,369.44a12,12,0,0,1-4.73-2.31c-.76-.6-1.38-1.16-1.49-1.59a48.18,48.18,0,0,1-.22-7.66c.51-25.22,6.26-50.13,3.84-75.42-.54-5.69-1.35-11.49-4-16.55a3.91,3.91,0,0,0-1.09-1.43,3.47,3.47,0,0,0-2.73-.34,11.34,11.34,0,0,0-7.52,6.35,22.52,22.52,0,0,0-1.87,9.93,45.27,45.27,0,0,0,2.29,14.07,33.11,33.11,0,0,1,2,7c.27,2.73-.7,4.87-1.11,7.45-.6,3.81-.25,8.11-.22,12,.12,14,3,27.47,5.62,41.15.09.8.18,2,.2,3.53,0,.76,0,1.61,0,2.56s9.55,3.38,11.06,2.67S362.57,369.44,362.57,369.44Z"/><path class="cls-18" d="M351.5,368.16c0,.88,9.55,3.38,11.06,2.67s0-1.4,0-1.4a12,12,0,0,1-4.73-2.31,14,14,0,0,1-6.32-1.52C351.53,366.36,351.53,367.21,351.5,368.16Z"/><path class="cls-7" d="M335.5,369.51a12,12,0,0,1-4.24-3.12,4.2,4.2,0,0,1-1.18-1.83,48.19,48.19,0,0,1,1.16-7.57c5-24.72,15.14-48.2,17.29-73.51.48-5.69.73-11.54-1-17a3.91,3.91,0,0,0-.81-1.61,3.47,3.47,0,0,0-2.62-.82,11.35,11.35,0,0,0-8.53,4.9,22.52,22.52,0,0,0-3.62,9.43,45.27,45.27,0,0,0-.27,14.26,33.11,33.11,0,0,1,.67,7.28c-.23,2.74-1.56,4.66-2.43,7.13-1.28,3.64-1.7,7.93-2.36,11.73-2.4,13.82-1.94,27.57-1.84,41.49-.06.8-.18,2-.44,3.51-.12.75-.28,1.59-.48,2.51s8.79,5,10.4,4.61S335.5,369.51,335.5,369.51Z"/><path class="cls-18" d="M324.83,366.28c-.18.87,8.79,5,10.4,4.61s.27-1.37.27-1.37a12,12,0,0,1-4.24-3.12,14,14,0,0,1-5.95-2.63C325.19,364.51,325,365.35,324.83,366.28Z"/><path class="cls-7" d="M361.1,228.62c-.72,2.38.7,15,.7,15s-13.19,4.58-21.87-.92c0,0-2.14-16.33-4.64-22.79l.3-11.24s5.31-1,7-3a1.07,1.07,0,0,0,.14-.16c.87-1.22.83-4.87.65-7.65-.12-1.93-.31-3.44-.31-3.44s9.24,3.28,9.38,4.94c0,0,0,.06,0,.18,0,.3-.07.93-.08,1.7,0,1.94.13,4.71,1.45,4.85a5.42,5.42,0,0,0,1.06-.1c1.82-.12,3.6-.12,3.6-.12s3.7,9.13,6.53,12.76S361.81,226.23,361.1,228.62Z"/><path class="cls-9" d="M368.54,306.43c-2.67-8.68-1.89-18.5-2.75-27.47-.87-5.22-.76-10.63-1.4-15.89q-1-8.55-1.86-17.15c-.3-3.1-.79-6.4-.91-9.67a24.86,24.86,0,0,1,.83-8.05c.54-1.82,3.32-3.83,3.39-6.28a3.73,3.73,0,0,0-.9-2.48,34.28,34.28,0,0,1-4.17-7.51,17.85,17.85,0,0,0-1.72-3.7c-.64-.85-.76-2.47-1.9-2.84a2.38,2.38,0,0,0-1.32.07l-1.35.31a3,3,0,0,0-1.31.39,9.54,9.54,0,0,1-7.13,2.11,6.16,6.16,0,0,1-3.65-2,6.39,6.39,0,0,0-3.17.83c-1.12.63-2,1.67-3.06,2.3-.56.31-.59.34-.62,1,0,.47-.23,8.61-.27,10.33-.06,2.1,1.8,5.18,2.24,7.34a18.67,18.67,0,0,1,.37,5.32c-.31,4.12-.13,9.22-2,13s-3.85,6.47-4.74,10.73c-1.62,7.78-1.07,15.83-2.43,23.64q-.27,1.56-.66,3.12c-2,7.74-6.3,14.63-9.32,22a2,2,0,0,0-.22,1.26c.3,1.19,2,1,3.21.59a13.94,13.94,0,0,1,8.72.58c2.47.87,4.73,2.69,7.39,3.06,3.52.49,6.82-1.67,10.32-2.32,4.85-.91,11.15.5,15.63,2.39C367.93,313.21,369.9,310.85,368.54,306.43Z"/><path class="cls-7" d="M396.56,213.56s2.2-1.9,4.41-3.78c1.33-1.14,4.56-3.25,5-4.46a3.12,3.12,0,0,0,0-.62,1.17,1.17,0,0,0,0-.17,3.19,3.19,0,0,0-.42-1.14l-.06-.1a3.14,3.14,0,0,0-.77-.83l-.09-.06a4.51,4.51,0,0,0-.93-.53,24.24,24.24,0,0,1-4.19,3s1.36-2,1-2.67l-.44-.27s-1.71,2-2.55,2.8a8.47,8.47,0,0,0-2.29,4.85S394.55,214,396.56,213.56Z"/><path class="cls-11" d="M404.7,202.48l-.09-.06a39.15,39.15,0,0,1-4,3.37,0,0,0,0,0,0,.06A12.63,12.63,0,0,0,404.7,202.48Z"/><path class="cls-11" d="M405.52,203.41l-.06-.1a40,40,0,0,1-4,3.38s0,.07,0,.05A12.5,12.5,0,0,0,405.52,203.41Z"/><path class="cls-11" d="M406,204.71a1.06,1.06,0,0,0,0-.17,42,42,0,0,1-3.82,3.18s0,.07,0,.05A11.37,11.37,0,0,0,406,204.71Z"/><path class="cls-7" d="M357.81,192.79c0,.17,0,.34,0,.51-.38,4.13-2,5.8-5.52,6.29-2.64.36-8.32-.53-9.71-7.78-.7-3.63-.89-6.7-.19-8.65,1.48-4.08,9.16-8.74,13.24-3.8.93,1.13,1.75,6.4,2,9A34.28,34.28,0,0,1,357.81,192.79Z"/><path class="cls-18" d="M324,225.8c-.17-2.78,1.28-5.36,2.34-7.93s1.69-5.72.07-8a18.62,18.62,0,0,1-1.95-2.43A4.67,4.67,0,0,1,325,203c.83-1.31,2-2.36,3-3.59a13,13,0,0,0,2.74-7.92c0-2.32-.52-4.94,1-6.73.91-1.1,2.39-1.58,3.44-2.55,1.47-1.36,1.94-3.33,3.3-4.78a11.13,11.13,0,0,1,4.86-3,14.61,14.61,0,0,1,8.69.23c2.45.79,5,3,4.7,5.79a.77.77,0,0,1-.09.33.84.84,0,0,1-.25.23c-.37.26-.85.44-1.2.71a2.41,2.41,0,0,0-.66,1.31,27.56,27.56,0,0,1-.46,3.11,1.51,1.51,0,0,1-1.28,1c-.58,0-1.1-.43-1.68-.41a1.67,1.67,0,0,0-1.08.56,3.52,3.52,0,0,0-1,2.68,4.07,4.07,0,0,0,1.21,2.56c3.46,3.4-2.09,7.5-1.89,11a17.65,17.65,0,0,0,.45,2.23,6.8,6.8,0,0,1-.48,4,23.81,23.81,0,0,0-1.26,2.56c-.52,1.65,0,3.42.4,5.1a15.71,15.71,0,0,1-1,9.27,11.49,11.49,0,0,1-2.86,4.13,8.26,8.26,0,0,1-4.25,2.19,20,20,0,0,1-4.78.62,16.81,16.81,0,0,1-5-.84A8.57,8.57,0,0,1,324,225.8Z"/><path class="cls-7" d="M356.92,184.94a8.61,8.61,0,0,0,2.06,3.91c1.35,1.41-2.75,2.54-2.75,2.54S356.27,185.71,356.92,184.94Z"/><path class="cls-11" d="M351.92,189.64a2,2,0,0,0-.9-1,.26.26,0,0,0-.26.45,2,2,0,0,1,.6.79,2.85,2.85,0,0,0-.67.23.24.24,0,0,0,.19.44,5.64,5.64,0,0,1,.7-.17,4.61,4.61,0,0,0,.42.9c.13.19.52.15.49-.13A5.3,5.3,0,0,0,351.92,189.64Z"/><path class="cls-11" d="M357.81,192.79a4.36,4.36,0,0,1,0,.51l-.21,0c-.44,0-1.16.1-1.45-.31a.07.07,0,0,1,0-.11c.37-.18.83,0,1.24,0A2,2,0,0,0,357.81,192.79Z"/><path class="cls-11" d="M352.38,199.52c0,.3-.07.93-.08,1.7a3.36,3.36,0,0,1-1.52-2.31A3.81,3.81,0,0,0,352.38,199.52Z"/><path class="cls-10" d="M362.45,228.2a24.86,24.86,0,0,0-.83,8.05c-4.3-6.66-3.79-16.59-3.79-16.59,2.53-.61,5.48.64,8,2.26C365.77,224.37,363,226.38,362.45,228.2Z"/><path class="cls-7" d="M354.63,214.48s-2.65-10.28,5.2-8.4c7.61,1.83,11.52,19.21,18.91,19.59,1.05.06,18.32-18.07,18.32-18.07l2.89,2.5S386.27,232,380.53,233.62C375.2,235.12,363.56,229.79,354.63,214.48Z"/><path class="cls-9" d="M355.07,205.64a10.22,10.22,0,0,1,7.22.52c3.84,1.76,3.9,2.54,7.35,2.37,0,0-9.95,12.75-16.41,12.25C353.23,220.78,350.84,211.64,355.07,205.64Z"/><path class="cls-10" d="M360.62,246c-3.51,1.37-7,2.69-10.77,3s-8.43.17-11.29-2.42a.5.5,0,0,0-.7.7,8.82,8.82,0,0,0,5.56,2.76l0,.09a6,6,0,0,0-3.49,3.69c-.48,1.43-.15,2.92-.51,4.38s-1.3,3-1.85,4.56a16.24,16.24,0,0,0-.92,8.84c.8,3.86,2.75,7,1.54,11.07a.25.25,0,0,0,.45.19,8,8,0,0,0,.7-6c-.78-3.59-2.26-6.64-1.58-10.42.51-2.82,2.09-5.19,2.79-7.91.35-1.34.05-2.74.41-4.07a5.42,5.42,0,0,1,2-2.9,10.66,10.66,0,0,0,1.22,6.83c1.3,2.65.66,4.57-.11,7.26a12.39,12.39,0,0,0-.49,5c.48,4,3.45,7,3.82,11,.41,4.39-1,8.69-.58,13.09a.23.23,0,0,0,.47,0c.37-4.06,1.46-8.14,1.35-12.24-.1-3.92-2.22-6.51-3.37-10.09a10.88,10.88,0,0,1,0-6.45c.47-1.68,1.26-3.32,1.14-5.11-.1-1.45-.91-2.5-1.51-3.77a10.74,10.74,0,0,1-.71-6.43.39.39,0,0,0,.12-.49,29.21,29.21,0,0,0,4.69.11,20.7,20.7,0,0,0,11.79-3.93C361,246.26,360.81,246,360.62,246Z"/></g></g></g></svg>