<?xml version="1.0" encoding="utf-8"?>
<!-- Generator: Adobe Illustrator 24.0.2, SVG Export Plug-In . SVG Version: 6.00 Build 0)  -->
<svg version="1.1" id="Layer_1" xmlns="http://www.w3.org/2000/svg" xmlns:xlink="http://www.w3.org/1999/xlink" x="0px" y="0px"
	 viewBox="0 0 400 200" style="enable-background:new 0 0 400 200;" xml:space="preserve">
<style type="text/css">
	.st0{fill:none;}
	.st1{fill:#FFF4DE;}
	.st2{clip-path:url(#SVGID_2_);}
	.st3{fill:#73B6F0;}
	.st4{fill:#E0E0E0;}
	.st5{fill:#2878BD;}
	.st6{fill:#D4D4D4;}
	.st7{fill:#EEA886;}
	.st8{fill:#EFAA88;}
	.st9{fill:#323657;}
	.st10{fill:#252840;}
	.st11{fill:#292C47;}
	.st12{fill:#1D2033;}
	.st13{fill:#CAC7D1;}
	.st14{fill:#EEA987;}
	.st15{fill:#252740;}
	.st16{fill:#A77860;}
	.st17{fill:#A09EA6;}
	.st18{fill:#EAE6F2;}
	.st19{fill:#3A4066;}
</style>
<rect x="97.5" y="23" class="st0" width="205" height="154"/>
<g>
	<path class="st1" d="M0,61.4c0,0,27.7-42.3,73.4-46.7s67.5,24.3,99.2,25.9c31.7,1.6,74.3-25.6,114.3-26.4
		c40-0.8,113.1,34.4,113.1,34.4V200H0V61.4z"/>
	<g>
		<defs>
			<rect id="SVGID_1_" x="154.9" y="47.9" width="83.4" height="152.1"/>
		</defs>
		<clipPath id="SVGID_2_">
			<use xlink:href="#SVGID_1_"  style="overflow:visible;"/>
		</clipPath>
		<g class="st2">
			<path class="st3" d="M173.3,185.5c-10.3-7.4-30.8-26.9-8.3-53.8c22.5-26.9,53.8-45.5,65.5-26.8c11.7,18.7-11.5,35.1-5.2,48.8
				C231.5,167.4,189.6,197.3,173.3,185.5z"/>
			<path class="st4" d="M168.3,68.2c0-0.2,0-0.5,0-0.7c1.8-1.1,6.5-5.2,6.5-18.4h-14.5c0,13.2,4.7,17.3,6.5,18.4c0,0.2,0,0.5,0,0.7
				c-1.8,1.1-6.5,5.2-6.5,18.4h14.5C174.8,73.4,170.2,69.3,168.3,68.2z"/>
			<path class="st5" d="M160.6,81.3c0,0,1.4-3.2,6.4-1.9c5,1.3,7-1.6,7-1.6l0.9,8.9h-14.3V81.3z"/>
			<path class="st5" d="M162.5,62c0,0,0.9-2.5,4.2-1.5c3.3,1,5.1,1.4,6.5-0.2c0,0-1.5,5.5-5.5,7.4C167.8,67.7,164.8,67.4,162.5,62z"
				/>
			<path class="st6" d="M175.2,87h-15.3v-0.4c0-5.8,0.9-10.4,2.6-13.9c0.6-1.2,1.3-2.3,2.2-3.3c0.5-0.6,1.1-1,1.7-1.5
				c0-0.1,0-0.1,0-0.2c-0.9-0.6-2.5-2-3.9-4.7c-1.7-3.5-2.6-8.2-2.6-14v-0.4h15.3V49c0,5.8-0.9,10.5-2.6,14c-1.4,2.8-3,4.1-3.9,4.7
				c0,0.1,0,0.1,0,0.2c0.6,0.4,1.2,0.9,1.7,1.5c0.9,1,1.6,2.1,2.2,3.3c1.7,3.5,2.6,8.2,2.6,13.9L175.2,87z M160.7,86.2h13.7
				c0-5.4-0.9-9.8-2.5-13.1c-1.4-2.8-3-4-3.8-4.5l-0.2-0.1l0-0.2c0-0.3,0-0.5,0-0.8l0-0.2l0.2-0.1c0.8-0.5,2.4-1.7,3.8-4.5
				c1.6-3.3,2.5-7.7,2.5-13.2h-13.7c0,5.4,0.9,9.9,2.5,13.1c1.4,2.8,3,4,3.8,4.5l0.2,0.1l0,0.2c0,0.3,0,0.5,0,0.8l0,0.2l-0.2,0.1
				c-0.8,0.5-2.4,1.8-3.8,4.5C161.6,76.4,160.8,80.8,160.7,86.2L160.7,86.2z"/>
			<path class="st5" d="M175.6,47.9h-16.1V49h16.1V47.9z"/>
			<path class="st5" d="M175.6,85.5h-16.1V87h16.1V85.5z"/>
			<path class="st7" d="M163.3,86.7l5,0.4c-0.4-0.3-1.1-0.8-0.9-1c0.2-0.3,1.6,0.5,2.2,0.6c0.5,0.1,1.4,0.1,2.1,0.4l1.5,0.9
				l-1.6,1.3c0,0-2.7,0.2-3.4,0.2c-1.3,0-5-1.9-5-2.2C163.1,86.8,163.3,86.7,163.3,86.7z"/>
			<path class="st8" d="M173.2,87.9c0,0,1.9,1.3,1.3,5.2h-2.8c0,0,0.5-3-1.6-3.8L173.2,87.9z"/>
			<path class="st9" d="M170.9,90.6c0,0-0.6,10.7,1.3,12.3c0.9,0.7,2.9,1,5.1,1c0.7,0,1.5,0,2.2-0.1c2.9-0.2,5.5-0.5,5.5-0.5
				s7.5,0.4,7.1-4.5c0,0-0.9-1.5-2-1.8c-1-0.3-5.7,0.5-6.6,0.6c-0.9,0-7.3,1.5-7.6,1.4c-0.3-0.1-1-2.8-1.1-4.5
				c-0.1-2.6-0.1-4.9-0.1-4.9L170.9,90.6z"/>
			<path class="st10" d="M210.5,192.6c0,0,0.6,1.6,1.2,2.2c0.5,0.6,2.6,1.8,2.6,3.7c0,2-3.4,1.5-4.8,1.4c-1.3-0.1-1.4-1.2-2-2.3
				c-0.6-1.2-1.1-1-1.2-1.9c-0.1-0.9,0.4-3,0.4-3L210.5,192.6z"/>
			<path class="st10" d="M183.6,193c0,0-1.9,2.1-3.8,2.5c-1.9,0.4-3.2,1-3.2,2.2c0,1.2,5.5,2,7.6,0.8c3.2-1.8,3.6-1.2,3.9-2.1
				c0.4-0.9-0.4-3.3-0.4-3.6C187.8,192.3,183.6,193,183.6,193z"/>
			<path class="st11" d="M183.9,133.1c0,0-2,15.1-2.8,20.1c-0.9,6-1.3,10.9-1.5,14c-0.3,3.9,3.1,24.7,2.9,25.9
				c-0.2,1.1,6.2-0.5,6.2-0.5s-2-24.8-1-28.9c0.9-3.8,4.2-20.7,5-19.7s6.1,19.6,6.7,22.6c0.6,3,6.6,26.8,6.6,26.8s4.4,1,5.6,0.1
				c0,0-3.9-21.8-4.3-27.5c-0.1-2.2-1.4-25.8-4.8-35.4C200.5,125.4,183.9,133.1,183.9,133.1z"/>
			<path class="st12" d="M184.3,131.7c0,0,8.5,0.8,15.9,0v2.6c0,0-11.2,1.7-16.3-0.5L184.3,131.7z"/>
			<path class="st9" d="M185.3,97.1c-0.7,0.2-1.4,0.4-2.1,0.4c0.1,2.1,0.5,5.3,0.7,7.7c0,0,0.2,5.9,0.5,11.6
				c0.1,0.8,0.2,1.6,0.1,2.5c-0.1,1.1-0.2,2.3-0.3,3.6v0c0,0.3-0.1,0.6-0.1,0.9v0c-0.7,6.3-1.9,13.5-2.6,15.6
				c-0.1,0.5,0.3,0.9,0.7,1.2l2.3,1.5c0,0,1-9.3,1.3-12.5c0.3-3,1.3-7.1,1.7-11.1c0.5-5.1,1.3-10,1.7-12.9c1-7.7,2.4-11.1,2.4-11.1
				C189.9,95.3,185.3,97.1,185.3,97.1z"/>
			<path class="st13" d="M191.9,96.4c0,0-0.2,2.3,1.7,2.4c1.9,0.1,3.4-1.8,3.4-1.8l-3.1,0.8l-1.9-1.7L191.9,96.4z"/>
			<path class="st14" d="M194.5,78.4c0,0-4.3,0.8-3.6,7.9c0.7,7.1,4.5,6.5,4.8,6.5c0.3,0,3.8,0.1,4-8.6
				C199.7,84.2,199.7,77.7,194.5,78.4z"/>
			<path class="st14" d="M192.6,90.7c0,0,0,2.9-0.1,3.6c-0.1,0.7,3.5,2.7,5.8,0.4c0,0-0.5-3.2-0.3-4.3S192.6,90.7,192.6,90.7z"/>
			<path class="st14" d="M190.9,84.6c0,0-0.5-0.5-0.6,0c-0.2,0.5,0.6,2.8,0.7,3.1c0,0,0.1,0.2,0.2,0.1
				C191.3,87.7,190.9,84.6,190.9,84.6z"/>
			<path class="st14" d="M199.6,84.1c0,0,0.5-0.5,0.6,0c0.2,0.5-0.5,2.9-0.6,3.1c0,0-0.1,0.2-0.3,0.1
				C199.3,87.2,199.6,84.1,199.6,84.1z"/>
			<path class="st15" d="M190.5,83.7c0.1,1,0.3,1.7,0.3,1.7l0.6,0.9c0,0,0-1.9,0.1-2.2c0-0.1,0.1-0.3,0.1-0.5
				c0.1-0.4,0.1-0.8,0.2-0.9c0.1-0.2,3.7-1.3,6.9,0.2c0,0,0,0.3,0,0.6c0,0.4,0,0.8,0.2,0.9c0.3,0.1,0.2,2.2,0.2,2.2l0.5-0.6
				c0,0,0.1-1.1,0.3-2.4c0,0,0,0,0,0c0-0.3,0.1-0.6,0.1-0.9c0.1-1.3,0-3.6-1.6-5c-1.1-0.5-2.8-0.9-5.6,0c0,0-0.6,0-0.8,0.2
				C190.2,80,190.5,83.7,190.5,83.7z"/>
			<path class="st16" d="M197.6,91.8c0,0-0.7,1-2.3,1c-1.6,0-2.3-0.9-2.3-0.9s0.8,1.7,2.3,1.7C196.9,93.5,197.6,91.8,197.6,91.8z"/>
			<path class="st17" d="M192.3,96.5l1.6,1.3c0,0-1.3-3-1.4-4.2L192.3,96.5z"/>
			<path class="st18" d="M192.5,93.5l-1.1,1.1l-1.1,3.6l2-1.7L192.5,93.5z"/>
			<path class="st14" d="M192.7,94.6c0.3,1.1,0.7,2.1,1.2,3.2c0,0,1.7-1.6,2.2-2.1C196.6,95.1,192.7,94.6,192.7,94.6z"/>
			<path class="st17" d="M195.7,96l-1.8,1.7c0,0,2.1-0.1,2.5-0.5L195.7,96z"/>
			<path class="st18" d="M198,92.8c0,0-1.4,2.4-2.3,3.2l1.6,2.7l2.5-4.8L198,92.8z"/>
			<path class="st9" d="M205.5,117.4c0.2,2.6-0.8,16.7,0.2,16.9c1,0.2,4.8-0.7,4.8-0.7s0.5-15.2,0.3-16.8
				c-0.1-1.2-1.9-18.6-2.8-19.3c-0.5-0.4-4.5-1.9-6.4-2.7c-0.4-0.1-1.5-0.6-1.8-0.8c-0.4,0.5-4,9.4-4.3,16.3
				c-0.1,2.1,0.4,6.6,0.7,10.2c0.4,3.9,0.8,6.9,1.1,10.2c0.6,6.4,1,11.5,1,11.5l6-2.8c1-0.5,2.3-2.6,2-3.7
				c-1.4-4.1-3.2-11.2-3.2-14.8c0,0,0.7-8.9,1.2-10.8C204.3,110,205.3,114.1,205.5,117.4z"/>
			<path class="st8" d="M210.5,140.8c0.1-0.3,0.2-0.5,0.2-0.8c0,0-0.1-0.5-0.1-0.9c0-0.1,0-0.2,0-0.3c0.1-0.5,0.1-1,0-1.5
				c-0.1-0.7-0.9-2.9-0.9-2.9l-1.9,0.3l-1.7-0.2c0,0-1.3,3.9-1.2,4.5c0,0.1,0,0.1,0,0.2c0.1,0.5,0.4,0.9,0.5,1.1
				c0,0.1,0.4,1.1,0.7,1.2c0.2,0.1,0.3,0.1,0.5,0.1c0.2,0,0.3-0.1,0.4-0.2c0,0,0.8,0.2,1.3,0c0,0,0.7,0.2,1.2-0.3
				C209.5,141.1,210.2,141.2,210.5,140.8z"/>
			<path class="st9" d="M205.3,124.5l0.1,11.2c0,0,2.1-0.1,5-1.2l0.2-15.8L205.3,124.5z"/>
			<path class="st19" d="M190.3,135h4v-3.1h-4V135z"/>
			<path class="st3" d="M221,94c0,0,16.9,1.3,16.4,18.8c0,0,2.6-9.6-1.1-15.4C232.5,91.6,221,94,221,94z"/>
		</g>
	</g>
</g>
</svg>
