<?xml version="1.0" encoding="utf-8"?>
<!-- Generator: Adobe Illustrator 21.0.0, SVG Export Plug-In . SVG Version: 6.00 Build 0)  -->
<svg version="1.1" id="Layer_1" xmlns="http://www.w3.org/2000/svg" xmlns:xlink="http://www.w3.org/1999/xlink" x="0px" y="0px"
	 viewBox="0 0 2578.5 1124.9" style="enable-background:new 0 0 2578.5 1124.9;" xml:space="preserve">
<style type="text/css">
	.st0{fill:#ED985F;}
	.st1{fill:#233862;}
	.st2{fill:#FFB27D;}
	.st3{fill:#B5453C;}
	.st4{fill:#DD6D22;}
	.st5{fill:#9E332E;}
	.st6{fill:#ED7D2B;}
	.st7{fill:#F99746;}
	.st8{fill:#FFFFFF;}
	.st9{fill:#ADCBF9;}
	.st10{fill:#FCECDB;}
	.st11{fill:#F4D2B8;}
	.st12{fill:#86D1CD;}
	.st13{fill:#D86713;}
	.st14{fill:#EE9849;}
	.st15{fill:#F1A34F;}
	.st16{fill:#E78B37;}
	.st17{fill:#699DEE;}
	.st18{fill:#E9F3FE;}
	.st19{fill:#AFCDFB;}
	.st20{opacity:0.6;fill:#AFCDFB;enable-background:new    ;}
	.st21{fill:#9E3732;}
	.st22{fill:#E49963;}
	.st23{fill:#163560;}
	.st24{fill:#599DAD;}
	.st25{fill:#6BB7BF;}
	.st26{fill:#5AA9AD;}
	.st27{fill:#D68D5D;}
	.st28{fill:#4A75CB;}
	.st29{fill:#2B478B;}
	.st30{fill:#F4A269;}
	.st31{fill:#C65447;}
	.st32{fill:#1C468A;}
	.st33{clip-path:url(#SVGID_2_);}
	.st34{fill:#2C3A64;}
	.st35{fill:#BC3F3F;}
	.st36{fill:#A02E2E;}
	.st37{fill:#E8945B;}
	.st38{fill:#D35C2B;}
</style>
<g id="Layer_2">
	<g id="Слой_2">
		<g id="girl_2">
			<path class="st0" d="M365.2,705c0,0-83.6,36.4-98.8,35.8s-108.7-28.5-108.7-28.5l2.4,16.1c0,0,72.2,41.5,97.4,43.9
				c24.8,2.3,109.8-22.3,118-27.5S389,710.3,365.2,705z"/>
			<path class="st1" d="M377.8,571c0,0,30.8-5.9,46.2,5.4c27.8,20.3,29.3,90.4,39.7,100.8s35.6,6,37.8,60s-10,58.5,4.6,82.6
				s-6.2,48.2-6.2,48.2s8.5-13.3,4.9-22.9c0,0-3.5,21.2-17,26.2s-15.5,8.6-17.6,15.9c0,0-114.9-58.9-115-100.6
				s-22.6-83.1-11.6-101.2c0,0-4.9,7.7-5.5,16.3c0,0-6.6-12.7,4.9-24.5s-13.5-36.3-9.8-64.6C335.7,593.2,349.4,571.9,377.8,571z"/>
			<path class="st2" d="M355.1,744.8c7.3,5.1,16.5,9.3,28.1,12c43.3,10,59.9-26.6,66.2-51.7c-4.5-2.5-9.5-4-14.7-4.5
				c-3.1-0.4-6.4-0.6-9.2-0.8c-4.9-3.7-12.1-19-13.7-42.6l-2,0.5l-34.1,9.3c0,0,1.6,10.9,2.3,21.1c0.6,8,0.7,15.7-0.8,17.6
				c-2.7,0.6-4.3,1-4.3,1l0,0C372.3,707.4,362.4,723.7,355.1,744.8z"/>
			<path class="st0" d="M375.6,667c0,0,1.6,10.8,2.3,21.1c19.3-1.9,28.3-20.4,31.8-30.5L375.6,667z"/>
			<path class="st2" d="M369.8,677.2c0,0,45.9-2.5,43.9-31.1s2.5-48.1-26.8-47.7s-34.3,11.7-36,21.4S357.8,677.1,369.8,677.2z"/>
			<path class="st1" d="M351.1,603.8c6.5-9.1,12-7.6,15.1-5.2c24.1-15.6,41.7,3.6,41.7,3.6c2.9,12.4,10.1,23.3,20.2,31
				c0,0-8,5.8-27.6,2.2c-6-1.1-11.5-4.9-16.4-9.7c5.7,7.9,12.4,15.1,20,21.2c-23.8-9-35.3-40.3-36.5-43.7c-2.6,2.7-7.7,8.6-9,14
				c-1.8,7.4-9.4,19.1-13.8,18.9C344.9,636.1,341.4,617.4,351.1,603.8z"/>
			<path class="st3" d="M462.4,838.1c4.1-21.2,17.7-105.9,4.1-133.1c-4.9-9.8-23.9-10.7-44.8-9.8c-6.5,4.2-31.3,20.1-41.5,18.1
				c-0.2-0.1-0.4-0.1-0.6-0.1c-4.8-1.2-6.6-4.6-2.6-7.5c-7.8-0.5-15.6,0-23.2,1.4c-7.3,1.4-26.8,11.5-26.8,11.5s9.9,17.8,24.4,24
				c-2.5,22.1,1.2,31.9,24.2,83c19.4,43.2-2.6,82.1-2.6,82.1s114.2,91.8,114.8,45C488.2,917.5,457.1,865.2,462.4,838.1z"/>
			<path class="st4" d="M367.3,1007.4c-6.2-0.7-11.8-4.1-15.3-9.3c-0.6-0.8-1.1-1.7-1.8-2.7c-13-19.7-18.1-79.9-47.3-144.1
				c-7.1-15.6-32.7-18.4-39.6-36.1c0,0-17.2-57.2,32.8-58.9s133.8,159.3,135.2,176.2C432.6,948.9,464.4,1018.4,367.3,1007.4z"/>
			<path class="st5" d="M168.7,1006.1h71.1c0,0,2.7-11.3-2-19.1c-4.1-6.8-2.5-10.7,0.5-16.4c-3.8,1.6-7.9,2.4-12,2.3
				c-3.5-0.2-7.3-1.8-10.6-3.7c-3.1,3.5-16.2,18.3-20.3,21.3C190.8,993.8,170.1,992.6,168.7,1006.1z"/>
			<path class="st5" d="M454.9,727.2c0,0,9.3,84.2-50.8,101.9s-77.1-77.5-28.6-84.3S454.9,727.2,454.9,727.2z"/>
			<path class="st6" d="M261.7,772.9c-4.3,32.1-21,133.5-50.5,182.9c-9.5,15.9,24,24.9,24.1,24.8c4.5-1.2,12-8.3,15.4-11.4
				c24-21.6,72.6-82.7,72.6-131.7c0-23.9,0.4-69.5-17-81.1C295.7,749.2,263.4,760.1,261.7,772.9z"/>
			<path class="st7" d="M409.7,1006.1c0,0-2.6-3.7-7.2-10.6c-5.5-8.3-11.5-24.6-18.9-45.5c-7.7-21.9-16.9-48.9-28.3-77
				c-3.5-8.7-7.3-17.4-11.3-26.2c-7.1-15.6-26.7-13.5-33.7-31.1c0,0-27.2-61.2,22.8-62.9S478,916.6,483.5,932.6
				C489.6,950.1,518.7,1022.9,409.7,1006.1z"/>
			<path class="st3" d="M220.9,1006.1H292c0,0,2.7-11.3-2-19.1c-4.1-6.8-2.5-10.7,0.5-16.4c-3.8,1.6-7.9,2.4-12,2.3
				c-3.5-0.2-7.3-1.8-10.6-3.7c-3.1,3.5-16.2,18.3-20.3,21.3C243.1,993.8,222.3,992.6,220.9,1006.1z"/>
			<path class="st6" d="M383.6,950c-7.7-21.9-16.9-48.9-28.3-77c3-21.3,9.4-39.9,20.3-47.4C375.6,825.5,401.9,907,383.6,950z"/>
			<path class="st7" d="M303.3,770.6c-4.3,32.1-10.3,135.7-39.8,185.2c-9.5,15.9,24,24.9,24.1,24.8c4.5-1.2,12-8.3,15.4-11.4
				c24-21.6,72.6-82.7,72.6-131.7c0-23.9-28-67.6-45.4-79.2C319.5,751.1,305,757.9,303.3,770.6z"/>
			<path class="st5" d="M149.3,670.9l72.8-7.7c2.1-0.2,4.1,1,4.9,3l26.1,68.5c0.9,2.5-0.4,5.2-2.8,6.1c-0.4,0.2-0.9,0.3-1.4,0.3
				l-72.3,2.9c-2,0.1-3.8-1.1-4.5-2.9l-26.7-63.7c-1-2.4,0.1-5.2,2.5-6.2C148.3,671,148.8,670.9,149.3,670.9z"/>
			<path class="st3" d="M143,671.6l72.8-7.7c2.1-0.2,4.1,1,4.9,3l26.1,68.5c0.9,2.5-0.4,5.2-2.8,6.1c-0.4,0.2-0.9,0.3-1.4,0.3
				l-72.3,2.9c-2,0.1-3.8-1.1-4.5-2.9l-26.6-63.7c-1.1-2.3,0-5.1,2.3-6.1C142,671.7,142.5,671.6,143,671.6z"/>
			<path class="st5" d="M183.3,703.5c-0.9-2.4,0.4-4.4,2.8-4.4c2.7,0.2,5,1.9,6,4.4c0.9,2.4-0.4,4.4-2.8,4.4
				C186.6,707.7,184.2,706,183.3,703.5z"/>
			<path class="st5" d="M145.1,678c-0.4-1.2,0.2-2.2,1.4-2.2c1.3,0.1,2.5,1,3,2.2c0.4,1.2-0.2,2.2-1.4,2.2
				C146.7,680.1,145.6,679.2,145.1,678z"/>
			<path class="st2" d="M449.3,705c0,0-101,37.2-116.1,36.4c-9.8-0.5-91.3-29.1-91.3-29.1s-6-9.3-12.6-11.2c0,0-11.6-5.3-14.9-6.3
				s-2.6,0-1.7,3.2c0.5,1.6,2.4,3.2,4,4.5c-5.6,1.5-11.1,3.6-13.6,4.1c-4.3,0.8-16.6,4.8-12.9,10.8s20.5,7.3,27.8,6
				s16.6,2.9,16.6,2.9s79.3,51,101.1,50.7c43.1-0.5,115.7-26.9,123.9-32.1C467.8,739.5,473.1,710.3,449.3,705z"/>
			<path class="st2" d="M150.5,706.3c0,0,7.3-11.6,9.7-12c7.3-1.4,7.3,8.2,5.7,14.3c-1.7,6.6-7.3,12.9-8.8,12.4
				S148.7,712.4,150.5,706.3z"/>
			<path class="st2" d="M150.2,708.6c0,0-2.3,13,10,19.7L150.2,708.6z"/>
			<path class="st8" d="M361.2,660.8c0,0,4.3-1.7,16.6-0.7c0,0-0.6,4.8-9.7,5.2C365.1,665.3,362.3,663.5,361.2,660.8z"/>
			<path class="st3" d="M397.3,723.3c0,0,9,28.6,40,35.1c0,0,51.2-15.8,25.7-50.7C463,707.8,437.8,689,397.3,723.3z"/>
		</g>
		<path class="st9" d="M372.8,352.9c0-2.9,0.1-5.8,0.1-8.7c0.8-21.5,4.5-42.7,10.9-63.2c-5.4,0.2-10.6,0.5-15.6,0.8
			c-5.1,17.4-8.3,35.3-9.5,53.4c-0.4,5.4-0.6,10.8-0.6,16.2v1.4c0,5.5,0.2,10.9,0.5,16.3c4.9,2.3,10,4.5,15.3,6.7
			c-0.5-5.1-0.9-10.3-1-15.5C372.9,357.9,372.8,355.4,372.8,352.9z M844,254.5c-39.5-93.7-131.3-154.6-233-154.4
			c-33.8,0-67.3,6.7-98.5,19.8c-3.7,1.6-7.4,3.3-11,5c-6,2.9-11.9,6-17.5,9.3c-18.9,11-36.4,24.4-51.8,39.9c-3.3,3.2-6.4,6.5-9.5,10
			c-3.9,4.2-7.5,8.7-11,13.2c-5.6,7.2-10.8,14.7-15.7,22.4c-2.7,4.3-5.2,8.7-7.6,13.2c-3.8,7-7.2,14.2-10.3,21.6
			c-2.4,5.6-4.5,11.2-6.4,16.9c-1.2,3.5-2.3,6.9-3.3,10.5c-5.1,17.4-8.3,35.3-9.5,53.4c-0.4,5.4-0.6,10.8-0.6,16.2v1.4
			c0,5.5,0.2,10.9,0.5,16.3c0.3,4.4,0.7,8.9,1.2,13.3c2.7,23.7,8.8,46.9,18.2,68.8c12.7,30.1,31.1,57.4,54.2,80.4
			c98.6,98.8,258.7,98.9,357.4,0.3c0.1-0.1,0.2-0.2,0.3-0.3c22.5-22.4,40.5-48.9,53.1-78.1c0.3-0.8,0.7-1.6,1-2.4
			c1.4-3.3,2.8-6.7,4-10c10.6-28.3,16-58.2,15.9-88.4C864,319,857.1,285.6,844,254.5z M830.6,445.3c-0.1,0.1-0.1,0.2-0.1,0.3
			c-1.6,3.7-3.3,7.4-5.1,11.1c-25.2,52-68.5,93.1-121.7,115.6c-89.3,37.8-192.6,17.6-261.1-51c-21.8-21.7-39.1-47.4-51.1-75.7
			c-7.7-18.2-13-37.2-15.9-56.7c-0.7-4.3-1.2-8.6-1.6-13c-0.5-5.1-0.9-10.3-1-15.5c-0.1-2.5-0.1-4.9-0.1-7.4c0-2.9,0.1-5.8,0.1-8.7
			c0.8-21.5,4.5-42.7,10.9-63.2c1.1-3.5,2.2-6.9,3.5-10.3s2.6-7.1,4.1-10.5c2.1-4.9,4.3-9.7,6.7-14.4c2.2-4.5,4.6-8.9,7.1-13.2
			c7-11.9,15-23.2,24-33.8c3.7-4.4,7.6-8.6,11.6-12.7l1.7-1.7c18-18,38.7-33,61.4-44.4c4.7-2.4,9.4-4.6,14.3-6.6
			c1.3-0.6,2.6-1.1,3.9-1.6c122.1-49,260.8,10.3,309.9,132.4C855.4,322.4,854.9,387.5,830.6,445.3L830.6,445.3z"/>
		<path class="st9" d="M891,403.9l-19.6-0.5c6.3,8.2,7.7,15.7,3.8,22c-3.9,6.5-13.3,11.8-27.3,15.9c-5.1,1.5-10.9,2.8-17.3,4
			c-17.1,3.1-38.5,4.9-63.5,5.1c-63.2,0.8-141.6-7.8-220.8-24.1c-53.3-11-102.6-24.5-143.9-39.4c-6.3-2.2-12.4-4.6-18.2-6.9
			c-3.5-1.3-6.9-2.8-10.2-4.2c-5.3-2.2-10.4-4.4-15.3-6.7c-3.5-1.5-6.8-3.1-10.1-4.7c-45.5-22.2-66.3-43.6-57-58.9
			c7.5-12.3,34.9-20.7,76.7-23.7c5-0.3,10.2-0.6,15.6-0.8c1.1-3.5,2.2-6.9,3.5-10.3c-5.5,0.1-10.7,0.4-15.8,0.6
			c-52.8,3.1-81,12.4-91.3,29.2c-11.9,19.6,4.4,45.9,56.5,71.4c7.2,3.5,14.9,7,23,10.5c5.1,2.1,10.3,4.2,15.7,6.4
			c2.5,1,5,1.9,7.5,2.9c6.2,2.3,12.5,4.6,18.9,6.9c40.6,14.1,87.8,26.8,138.5,37.2c70.9,14.5,141.4,23.1,201.7,24.5
			c8.9,0.3,17.5,0.3,25.8,0.2c21.6-0.3,40.9-1.5,57.4-3.9c6.2-0.8,12.1-1.9,17.5-3c25.7-5.3,42.7-13.7,49.4-24.7
			C897,421.3,896.5,412.9,891,403.9z"/>
		<path class="st9" d="M783,397.6c-0.2,0.5-0.5,0.9-0.8,1.3c-7.7,12.3-25,18.6-49.3,18.6c-11.6,0-24.8-1.5-39.4-4.4
			c-47.8-9.7-104.3-34.1-159.1-68.6c-53.9-33.9-99.6-73.6-129-111.9c-0.5-0.7-1-1.3-1.5-2c-2.8-3.7-5.4-7.4-7.8-10.9
			c-21.5-31.9-27.9-58.9-17.6-75.2c7.7-12.3,25-18.6,49.3-18.6c11.6,0,24.8,1.5,39.4,4.4c5.5,1.1,11.2,2.4,16.9,3.9
			c6.5,1.7,13.2,3.7,20,5.9c4.7-2.4,9.5-4.6,14.4-6.6c1.3-0.5,2.6-1.1,3.9-1.6c-7-2.5-13.9-4.8-20.7-6.9c-10.9-3.3-21.5-6-31.7-8.1
			c-51.6-10.5-88.2-3.2-103.1,20.4c-14.2,22.5-6.4,56.3,21.6,95.7c1.4,2,2.9,4,4.5,6.1c1.7,2.3,3.5,4.6,5.3,6.9
			c30.5,38.1,75.9,77,128.8,110.4c56.2,35.4,114.3,60.4,163.7,70.4c13.8,2.9,27.9,4.5,42.1,4.7c29.5,0,50.6-8.5,61-25.1
			c1.7-2.7,3.1-5.7,4.2-8.7L783,397.6L783,397.6z"/>
		<path class="st9" d="M521.8,584.7c-2.9,0-5.8-0.5-8.6-1.5c-43.4-15.7-23.3-144.1,17.6-256.8c37.8-104.3,98.9-209.8,142.6-209.8
			c2.9,0,5.8,0.5,8.6,1.5c24.7,9,26.2,53.2,23.1,88.7c-4.1,47.4-18.6,107.2-40.7,168.1C626.5,479.1,565.4,584.7,521.8,584.7z
			 M673.3,130c-27.4,0-84.9,76.9-130,201c-21.7,59.9-35.9,118.4-39.9,164.7c-4.3,49.8,4.6,71.4,14.3,74.9c1.3,0.5,2.6,0.7,4,0.7
			c27.4,0,84.9-76.9,130-201c21.7-59.9,35.9-118.4,39.9-164.7c4.3-49.8-4.6-71.4-14.3-74.9C676,130.2,674.6,130,673.3,130z"/>
		<path class="st9" d="M780.5,307c-48.3,0-92.5-4.6-131.9-13.7c-47.1-10.9-87.7-28.4-120.5-51.9c-56.4-40.4-70.3-84.4-70.9-86.3
			l12.8-3.9c0.1,0.4,13.5,42.2,66.8,79.9c49.5,35.1,144.4,73.9,315.7,59.3l1.1,13.3C828.4,305.9,803.9,307,780.5,307z"/>
		<path class="st9" d="M733,570c-93.7-69.7-186.2-101-247.3-114.9c-66.1-15-110.3-13.6-110.7-13.6l-0.5-13.4
			c1.9-0.1,46.4-1.5,114.2,13.9c62.4,14.2,156.8,46.1,252.4,117.2L733,570z"/>
		<path class="st7" d="M2512.5,1067.5c0,29.2-23.7,52.9-52.9,52.9h-430.7v-102.5h433.9c2.7,0,5.4,0.2,8,0.6
			C2494.8,1022.4,2512.4,1043.1,2512.5,1067.5z"/>
		<path class="st10" d="M2108.8,1068.5c0,13.7-5.4,26.8-15,36.5l-0.2,0.2c-9.7,9.7-22.9,15.2-36.6,15.2h-489.4v-102.5h490.5
			c13.7,0,26.8,5.5,36.3,15.3C2103.7,1042.6,2108.8,1055.2,2108.8,1068.5z"/>
		<path class="st6" d="M2149.5,1112.7c0,2-0.8,3.9-2.2,5.4c-1.4,1.5-3.4,2.3-5.4,2.3h-591.6c-4.2,0-7.7-3.4-7.7-7.6
			c0-2.1,0.8-4.1,2.3-5.5c1.4-1.4,3.4-2.2,5.4-2.2h591.6c4.1-0.1,7.5,3.2,7.6,7.3C2149.5,1112.5,2149.5,1112.6,2149.5,1112.7z"/>
		<path class="st6" d="M2149.5,1025.5c0,2-0.8,3.9-2.2,5.4c-1.4,1.5-3.4,2.3-5.4,2.3h-591.6c-4.2,0-7.7-3.4-7.7-7.6
			c0-2.1,0.8-4.1,2.3-5.5c1.4-1.4,3.4-2.2,5.4-2.2h591.6c4.1-0.1,7.5,3.2,7.6,7.3C2149.5,1025.3,2149.5,1025.4,2149.5,1025.5z"/>
		<polygon class="st11" points="1567.7,1069.1 1633.3,1070.8 1567.7,1071.8 		"/>
		<polygon class="st11" points="1567.7,1085.2 1723.8,1086.9 1567.7,1087.9 		"/>
		<path class="st6" d="M2470.8,1018.4l-141.6,101.9h-300.3v-102.5h433.9C2465.4,1017.8,2468.1,1018,2470.8,1018.4z"/>
		<path class="st12" d="M777,1120.3H480.8V999.8h299.4c27.4,0,49.6,22.2,49.6,49.6c0,0,0,0,0,0v18.1
			C829.8,1096.6,806.2,1120.2,777,1120.3C777,1120.3,777,1120.3,777,1120.3z"/>
		<path class="st10" d="M489.2,1120.3H147.9V999.8h342.4c26.6,0,48.2,21.6,48.2,48.2v23.1C538.4,1098.3,516.4,1120.3,489.2,1120.3
			C489.2,1120.3,489.2,1120.3,489.2,1120.3z"/>
		<path class="st12" d="M560.2,1120.3H137.4c-4.3,0-7.7-3.4-7.7-7.7v-2.7c0-4.3,3.4-7.7,7.7-7.7h422.8c4.3,0,7.7,3.4,7.7,7.7v2.7
			C567.8,1116.8,564.4,1120.2,560.2,1120.3z"/>
		<path class="st12" d="M560.2,1017.8H137.4c-4.3,0-7.7-3.4-7.7-7.7l0,0v-2.7c0-4.3,3.4-7.7,7.7-7.7c0,0,0,0,0,0h422.8
			c4.3,0,7.7,3.4,7.7,7.7l0,0v2.7C567.8,1014.3,564.4,1017.7,560.2,1017.8z"/>
		<polygon class="st11" points="147.9,1060.1 195.2,1062.1 147.9,1063.3 		"/>
		<polygon class="st11" points="147.9,1079 260.5,1081 147.9,1082.2 		"/>
		<path class="st13" d="M943.9,565.7l-44,522.9c0,0-4.6,31.7,19,31.8c38.8,0.1,192.9,0,192.9,0s-29.2-6.6-28.8-21.4
			c0.4-17.5,51.4-538.1,51.4-538.1L943.9,565.7z"/>
		<path class="st14" d="M1124.4,1110.8c-7.6,0-154.9,0.5-192.6,0c-16.5-0.2-19.3-14.6-19.5-24c-0.1-2.6,0.1-5.2,0.5-7.8l1.1-13.6
			l2.9-34.6l2.6-30.6l3.3-39.3l2.8-33.2l31.2-371.5l190.5-4.9c0,0-21.5,217.9-36.7,376.5c-1.7,17.7-3.3,34.6-4.8,50.4
			c-0.5,5-0.9,10-1.4,14.8c-1.4,15-2.7,28.8-3.8,41c-0.6,6.4-1.1,12.4-1.6,17.8c-1.9,21.4-3.1,35-3.1,37.6c0,1.4,0.1,2.8,0.4,4.2
			C1099.3,1110.3,1121.5,1110.8,1124.4,1110.8z"/>
		<polygon class="st15" points="481.3,281.2 588.4,711.4 603,770.3 652.9,970.7 1579.8,970.7 1395.9,281.2 		"/>
		<polygon class="st14" points="481.3,281.2 466.4,286.1 633.2,985.7 652.9,970.7 		"/>
		<polygon class="st13" points="633.2,985.7 1554.3,985.7 1579.8,970.7 652.9,970.7 		"/>
		<rect x="956.6" y="1111" class="st15" width="199.4" height="9.5"/>
		<polygon class="st15" points="1534.9,843.7 1384.5,290.3 479.8,290.3 479.8,281.2 1395.9,281.2 1545.8,842.4 		"/>
		<polygon class="st13" points="1105.4,985.7 1104.4,992.9 916.8,1030.8 919.4,1000.2 920.6,985.7 		"/>
		<path class="st16" d="M1124.4,1110.8c-7.6,0-154.9,0.5-192.6,0c-16.5-0.2-19.3-14.6-19.5-24l186.7-35.1c-1.9,21.4-3.1,35-3.1,37.6
			c0,1.4,0.1,2.8,0.4,4.2C1099.3,1110.3,1121.5,1110.8,1124.4,1110.8z"/>
		<polygon class="st16" points="1060.1,831.1 652.9,970.7 603,770.3 		"/>
		<polygon class="st17" points="481.3,281.2 1395.9,281.2 1544.3,835.4 614.5,835.4 		"/>
		<path class="st13" d="M1140.9,905.4c-2.6-13.6-15.8-24.6-29.4-24.6s-22.5,11-19.8,24.6s15.8,24.6,29.4,24.6
			S1143.6,919,1140.9,905.4z"/>
		<polygon class="st18" points="1501.1,811.3 644.8,811.3 547.8,425 540.4,395.4 534,370.1 519.1,310.8 1363.2,310.8 1379.5,370.1 
			1386.5,395.4 1394.6,425 		"/>
		<polygon class="st19" points="1379.5,370.1 534,370.1 519.1,310.8 1363.2,310.8 		"/>
		<path class="st18" d="M554.1,337.6c-1-4.1,1.5-7.4,5.6-7.4c4.4,0.2,8.1,3.2,9.3,7.4c1,4.1-1.5,7.4-5.6,7.4
			C559,344.8,555.2,341.8,554.1,337.6z"/>
		<path class="st18" d="M578.7,337.6c-1-4.1,1.5-7.4,5.6-7.4c4.4,0.2,8.1,3.2,9.3,7.4c1,4.1-1.5,7.4-5.6,7.4
			C583.6,344.8,579.8,341.8,578.7,337.6z"/>
		<path class="st18" d="M605.2,337.6c-1-4.1,1.5-7.4,5.6-7.4c4.4,0.2,8.1,3.2,9.3,7.4c1,4.1-1.5,7.4-5.6,7.4
			C610.1,344.8,606.3,341.8,605.2,337.6z"/>
		<path class="st17" d="M663.2,752.3c0-17.1,14.3-31,32-31s32,13.9,32,31s-14.3,31-32,31S663.2,769.4,663.2,752.3z"/>
		<path class="st18" d="M692.6,734.1L711,750c1.4,1.2,1.6,3.4,0.4,4.8c-0.1,0.1-0.2,0.3-0.4,0.4l-18.1,15.2
			c-1.5,1.3-3.8,1.1-5.1-0.4c-0.5-0.6-0.8-1.4-0.9-2.2l-0.3-31.1C686.5,733.7,690.2,732.1,692.6,734.1z"/>
		<path class="st19" d="M1415.9,755.9c0,1.5-0.6,3-1.7,4.1c-1.1,1.1-2.6,1.7-4.1,1.7H757.8c-3.2,0-5.8-2.6-5.8-5.8
			c0-1.5,0.6-3,1.7-4.1c1.1-1.1,2.6-1.7,4.1-1.7h652.3C1413.3,750.1,1415.9,752.7,1415.9,755.9z"/>
		<path class="st17" d="M830.3,750.1v11.7h-72.6c-3.2,0-5.8-2.6-5.8-5.8c0-1.5,0.6-3,1.7-4.1c1.1-1.1,2.6-1.7,4.1-1.7h72.6V750.1z"
			/>
		<polygon class="st19" points="1335.3,702.1 768.2,702.1 704,470 699,452.2 694.8,437 685,401.4 1243.9,401.4 1254.7,437 
			1259.4,452.2 1264.8,470 		"/>
		<polygon class="st18" points="1248.6,530.2 1062.1,530.2 1041,453.9 1039.4,448.1 1038,443.1 1034.8,431.4 1218.5,431.4 
			1222.1,443.1 1223.6,448.1 1225.4,453.9 		"/>
		<polygon class="st20" points="1138.9,511.3 1074.2,511.3 1066.9,484.8 1066.3,482.8 1065.8,481.1 1064.7,477 1128.4,477 
			1129.7,481.1 1130.2,482.8 1130.8,484.8 		"/>
		<polygon class="st20" points="1221.2,511.3 1156.5,511.3 1149.2,484.8 1148.6,482.8 1148.2,481.1 1147,477 1210.7,477 1212,481.1 
			1212.5,482.8 1213.1,484.8 		"/>
		<path class="st19" d="M1174.8,445.9h-118.2c-0.9,0-1.7-0.8-1.7-1.7l0,0c0-0.9,0.8-1.7,1.7-1.7h118.2c0.9,0,1.7,0.8,1.7,1.7l0,0
			C1176.5,445.1,1175.7,445.9,1174.8,445.9C1174.8,445.9,1174.8,445.9,1174.8,445.9z"/>
		<path class="st19" d="M1179.2,455H1061c-0.9,0-1.7-0.8-1.7-1.7l0,0c0-0.9,0.8-1.7,1.7-1.7h118.2c0.9,0,1.7,0.8,1.7,1.7l0,0
			C1180.9,454.2,1180.1,455,1179.2,455z"/>
		<path class="st19" d="M1199.6,468.2h-133c-1-0.1-1.8-0.9-1.9-1.9l0,0c0.1-1,0.9-1.8,1.9-1.9h133c1,0.1,1.8,0.9,1.9,1.9l0,0
			C1201.5,467.3,1200.6,468.2,1199.6,468.2L1199.6,468.2z"/>
		<polygon class="st18" points="1283.4,649.6 1097,649.6 1075.9,573.2 1074.2,567.4 1072.9,562.4 1069.6,550.7 1253.4,550.7 
			1256.9,562.4 1258.5,567.4 1260.2,573.2 		"/>
		<polygon class="st20" points="1173.7,630.6 1109,630.6 1101.7,604.2 1101.2,602.2 1100.7,600.4 1099.6,596.4 1163.3,596.4 
			1164.5,600.4 1165,602.2 1165.7,604.2 		"/>
		<polygon class="st20" points="1256,630.6 1191.4,630.6 1184,604.2 1183.5,602.2 1183,600.4 1181.9,596.4 1245.6,596.4 
			1246.8,600.4 1247.4,602.2 1248,604.2 		"/>
		<path class="st19" d="M1209.7,565.2h-118.2c-0.9,0-1.7-0.8-1.7-1.7l0,0c0-0.9,0.8-1.7,1.7-1.7h118.2c0.9,0,1.7,0.8,1.7,1.7l0,0
			C1211.4,564.4,1210.6,565.2,1209.7,565.2C1209.7,565.2,1209.7,565.2,1209.7,565.2z"/>
		<path class="st19" d="M1214.1,574.3h-118.2c-0.9,0-1.7-0.8-1.7-1.7l0,0c0-0.9,0.8-1.7,1.7-1.7h118.2c0.9,0,1.7,0.8,1.7,1.7l0,0
			C1215.7,573.5,1215,574.2,1214.1,574.3z"/>
		<path class="st19" d="M1217.3,583.4h-118.2c-0.9,0-1.7-0.8-1.7-1.7l0,0c0-0.9,0.8-1.7,1.7-1.7h118.2c0.9,0,1.7,0.8,1.7,1.7l0,0
			C1218.9,582.6,1218.2,583.3,1217.3,583.4z"/>
		<path class="st7" d="M296.4,1055.7c0,0-10.3,4.9-13.7,13.1c-0.6,1.4-1,2.9-1.1,4.5c-0.6,10.8,0,35.2,0,35.2l-30.4-12.2l-30.3,12.2
			v-33.1c-0.1-6.3,2.6-12.3,7.4-16.4c2.3-2.1,5.3-3.3,8.4-3.4h59.7L296.4,1055.7z"/>
		<path class="st6" d="M296.4,1055.7c0,0-10.3,4.9-13.7,13.1l-61,0.5c1.8-7.1,7.7-12.5,15-13.6H296.4z"/>
		<path class="st3" d="M1780.3,1018.7h364.5v-156h-368.6c-34.6,0-62.7,28.1-62.7,62.7v26.5
			C1713.5,988.7,1743.4,1018.7,1780.3,1018.7C1780.2,1018.7,1780.3,1018.7,1780.3,1018.7z"/>
		<path class="st10" d="M2135.8,1018.7h420.3v-156h-421.7c-33.6,0-60.9,27.2-60.9,60.9c0,0,0,0,0,0v32.7
			C2073.4,990.7,2101.3,1018.6,2135.8,1018.7C2135.7,1018.7,2135.7,1018.7,2135.8,1018.7z"/>
		<path class="st3" d="M2046.9,1018.7h521.9c5.4,0,9.7-4.3,9.7-9.7v-4c0-5.4-4.3-9.7-9.7-9.7h-521.9c-5.4,0-9.7,4.3-9.7,9.7v4
			C2037.2,1014.3,2041.5,1018.7,2046.9,1018.7z"/>
		<path class="st3" d="M2046.9,886.1h521.9c5.4,0,9.7-4.3,9.7-9.7v-4c0-5.4-4.3-9.7-9.7-9.7h-521.9c-5.4,0-9.7,4.3-9.7,9.7v4
			C2037.2,881.7,2041.5,886,2046.9,886.1z"/>
		<polygon class="st11" points="2556.1,940.7 2497.6,943.4 2556.1,944.9 		"/>
		<polygon class="st11" points="2556.1,904.8 2416.9,907.5 2556.1,909 		"/>
		<path class="st3" d="M2418.3,906.9c0,0,9.2,4.9,12.2,13.1c0.5,1.4,0.9,3,1,4.5c0.5,10.8,0,35.2,0,35.2l27.1-12.2l27.1,12.2v-33.1
			c0-6.3-2.3-12.4-6.6-16.3c-2.1-1.9-4.6-3.4-7.5-3.4H2418.3z"/>
		<path class="st21" d="M2418.3,906.9c0,0,9.2,4.9,12.2,13.1l54.4,0.5c0,0-2.1-11.6-13.4-13.6H2418.3z"/>
		<path class="st22" d="M1667.6,688.4c0,0-19.4,11-24.8,11s-26.7-4.1-32.6-1.1s-16.7,15.2-18.7,19.2c-3.6,7.2,14.6,4,23.2-2.1
			c1.2-0.9,2.8-1.2,4.3-0.9c4.5,1,13.7,2.7,18.2,1c6-2.2,37.7-4.7,37.7-4.7L1667.6,688.4z"/>
		<path class="st23" d="M1645.7,1086.3c0,0-2.1,33.6-8.6,34.1c-0.9,0.1-33,0.1-33,0.1l-41-0.2c0,0,0.3-9.9,12.3-12
			s32.1-10.5,39.3-26.4C1622.3,1065.2,1645.7,1086.3,1645.7,1086.3z"/>
		<path class="st6" d="M1815,538.4c0,0-20.1,142.7-53.3,155.5c-16.4,6.3-88.9,20.6-110.4,22c0,0-5.3-4.3-4-21.6
			c0,0,76-27.9,86.8-43.1c16.1-22.6-10-92.2,10.2-113.4S1798.4,507.5,1815,538.4z"/>
		<path class="st24" d="M1808.3,839.1c-5.9,9.8-12.4,19.2-19.6,28.1c-21.6,27.2-45.1,49.7-49.2,71c-0.9,4.6-2.2,9.2-3.8,13.6
			c-1.8,5.2-3.9,10.3-6.3,15.3c-9.2,19.9-22.9,42.2-36.5,62.5c-23.6,35-45.9,64.3-45.9,64.3l-40.8-1.7c1.6-4.1,19.4-52.5,43.2-111.6
			c9.7-24,19.9-49.5,29.8-74.1c1.3-3.3,2.6-6.6,3.9-9.8c3-7.5,6-14.9,8.9-22.2c22.3-55.5,40.1-99.7,40.1-99.7s89.3-33.8,98.5-11.9
			C1838.5,780.8,1832.2,798.5,1808.3,839.1z"/>
		<path class="st23" d="M1740.1,990.2c0,0,28.4,18.2,25.6,24.1c-0.4,0.8-16,28.9-16,28.9l-20.2,35.7c0,0-8.5-5.1-4.5-16.5
			s6.4-33.1-3.9-47.2C1710.3,1000.3,1740.1,990.2,1740.1,990.2z"/>
		<path class="st25" d="M1726.3,1022.2c0,0,17.7-15.6,20.8-27.1c0,0-73-87.5-88.9-107.1c-0.7-0.9-0.5-1.9,0.4-3
			c12-13.5,144.8-40.9,162.2-67.9c5.2-7.9,9-16.7,11.2-25.9c3.9-16.5,0.8-27.9,0.8-27.9l-132.7-3.8c0,0-110.5,68.8-123,115.7
			S1726.3,1022.2,1726.3,1022.2z"/>
		<path class="st26" d="M1658.7,885c12-13.5,144.8-40.9,162.2-67.9c5.2-7.9,9-16.7,11.2-25.9v-16.8l-56.4-8.9c0,0-16,49.2-63.4,67.7
			C1668,850.5,1659.5,881.2,1658.7,885z"/>
		<path class="st22" d="M1736.5,529.4c26.8,6.9,71.3-17.9,71.3-17.9s-17.3-11.6-23.7-37.1c-0.3-1.3-0.6-2.6-0.9-4
			c-2.8-0.6-8.1-1.7-13.8-2.9l-20.5,18.4c0.6,7,1.6,13.9,3,20.7c0.4,2.3,1,4.7,1.5,7.4C1746.8,518,1741.1,523.2,1736.5,529.4z"/>
		<path class="st7" d="M1836.3,640.7c-3.8,51.7,1.2,130.4-3.1,144c-3.8,11.8-46.7,4.8-63.8,0.8c-6.3-1.5-14-3.5-21.9-6
			c-22.1-6.8-46.2-16.6-48.8-23.9c-0.1-0.3-0.2-0.5-0.2-0.8c-0.2-1-0.2-2,0-3c0.9-3.7,4.2-7.7,4.6-16.9c0.4-10.2,0.4-22.3,0.8-35.2
			c0-1.5,0-3,0.2-4.5v-1.3c0.4-14.4,1.1-29.6,2-44.7c0.6-9.5,1.2-18.8,1.9-27.8c1.9-23.2,4.5-43.8,8-56.8
			c5.6-21.2,18-35.1,29.3-45.2l8.2-7c9.1,2,19.9,0.7,29.6-3.9c10.5-5,14.2-8.6,16-7.2C1823.3,519.9,1840.8,577.4,1836.3,640.7z"/>
		<path class="st6" d="M1747.4,779.5c-22.1-6.8-46.2-16.6-48.8-23.9c-0.1-0.3-0.2-0.5-0.2-0.8v-3c0.9-3.7,4.2-7.7,4.6-16.9
			c0.4-10.2,0.4-22.3,0.8-35.2c0-1.5,0-3,0.2-4.5v-1.3l89.4-113.9C1793.4,579.9,1853.5,705.1,1747.4,779.5z"/>
		<path class="st27" d="M1749,485.8c0.6,7,1.6,13.9,3,20.7c20-6.5,29.1-24.6,32.1-32.2c-0.3-1.3-0.6-2.6-0.9-4
			c-2.8-0.6-8.1-1.7-13.8-2.9L1749,485.8z"/>
		<path class="st22" d="M1746.3,497.4c0,0,43.7-7.3,38.7-34.4s-2.7-46.3-30.7-42.8s-31.6,14.8-32.1,24.3S1734.8,498.6,1746.3,497.4z
			"/>
		
			<rect x="1554.1" y="626.7" transform="matrix(0.9511 -0.309 0.309 0.9511 -133.8852 514.1393)" class="st28" width="4" height="106"/>
		
			<rect x="1570.5" y="723" transform="matrix(0.9998 -2.129141e-02 2.129141e-02 0.9998 -15.0962 34.7871)" class="st28" width="111.3" height="6.7"/>
		<path class="st22" d="M1679.6,733.6c0,0-35.7,9.4-49.1,8.4s-24.5-7.4-26.2-10.7s-5.2-9.2,3.9-8.1s21.6,3,22,1.3s-7.4-1.6-7.4-1.6
			s-2.4-3.4,0.6-3.6s11.7-2.5,14.9-0.9s6.2,7.6,8.6,7.3s29.9-12.4,29.9-12.4L1679.6,733.6z"/>
		<path class="st7" d="M1806.2,544.2c0,0-4.2,144.1-35.9,160.5c-15.6,8.1-86.1,30.3-107.3,34.1c0,0-5.7-3.7-6.3-21
			c0,0,72.4-36.1,81.5-52.4c13.5-24.2-20.1-90.6-2.4-113.9S1786.2,515.4,1806.2,544.2z"/>
		<path class="st29" d="M1784.2,474.3c0,0,0.5-9.3-5.2-14.6c0,0,2-9.3-1.7-10.9s-4.5,6.3-6.2,5.1s-9.2-7.1-12.5-15.7
			s-32.8,1.8-36.2,3.4s-14.5-4.1-16.7-8.8c0,0,6.2-4.9,8.9-8.6s22.1-28.6,49.2-21.5s30.8,20,29.2,31.1S1795.3,470.6,1784.2,474.3z"
			/>
		<path class="st30" d="M2077.7,593.9c0,0,13.9,20.5,21.8,63.6c6.9,37.8,13,51.7,23,59.4s65.7,30.6,65.7,30.6l-4.2,9.8
			c0,0-81.7-11.1-90.8-24.8s-44.1-94.3-41.4-112.8S2077.7,593.9,2077.7,593.9z"/>
		<path class="st2" d="M2277.6,1044.3c-0.7,8,10.4,9.9,23.2,10.5s9,3.3,26.6,6.5s24.6-1.6,25.9-4c1.1-2.1-7-5.4-15.8-9.1
			c-1.1-0.5-2.2-0.9-3.3-1.4c-9.8-4.3-15.3-13.1-23-21.3c-7.2-7.7-14.1-32.5-14.1-32.5l-23.9-5.1c0,0,6.7,22.3,9,31.8
			c1.4,5.6-0.7,11.8-2.4,16.6C2278.7,1038.8,2277.9,1041.5,2277.6,1044.3z"/>
		<path class="st31" d="M2300.8,1054.9c12.8,0.6,9,3.3,26.6,6.5s24.6-1.6,25.9-4c1.1-2.1-7-5.4-15.8-9.1l-0.1,0.1
			c-8.7,2.5-17.9,2.6-26.7,0.3c-11.6-3.2-22.9-10.1-30.9-12.4c-1.1,2.6-1.8,5.2-2.2,8C2276.9,1052.3,2288,1054.2,2300.8,1054.9z"/>
		<path class="st23" d="M2039.5,760.8c0,0,158.9-12,188.8,6.9s77.9,238.8,77.9,238.8s-3,2.4-9.6,3.1c-6.2,0.7-19.7-3-19.7-3
			s-69-98.4-73.8-123.2s-3.7-46.9-14.7-47.5s-148.9,16.8-169.8-20s-3.6-73.1-3.6-73.1L2039.5,760.8z"/>
		<path class="st2" d="M2216.8,1069.9c-0.7,8,10.4,9.9,23.2,10.5s9,3.3,26.6,6.5s24.6-1.6,25.9-4c1.1-2.1-7-5.4-15.8-9.1
			c-1.1-0.5-2.2-0.9-3.3-1.4c-9.8-4.3-15.3-13.1-23-21.3c-7.2-7.7-14.1-32.5-14.1-32.5l-23.9-5.1c0,0,6.7,22.3,9,31.8
			c1.4,5.6-0.7,11.8-2.4,16.6C2217.9,1064.4,2217.1,1067.1,2216.8,1069.9z"/>
		<path class="st31" d="M2240,1080.4c12.8,0.6,9,3.3,26.6,6.5s24.6-1.6,25.9-4c1.1-2.1-7-5.4-15.8-9.1l-0.1,0.1
			c-8.7,2.5-17.9,2.6-26.7,0.3c-11.6-3.2-22.9-10.1-30.9-12.4c-1.1,2.6-1.8,5.2-2.2,8C2216.1,1077.8,2227.2,1079.8,2240,1080.4z"/>
		<path class="st32" d="M2008.4,770.6c0,0,141.2,6.7,170.3,26.7s68.5,241.6,68.5,241.6s-3.1,2.3-9.7,2.7c-6.2,0.4-19.6-3.7-19.6-3.7
			s-65.1-101-69-126s-1.8-47-12.9-48s-149.5,11-168.9-26.6C1947.9,799.9,2008.4,770.6,2008.4,770.6z"/>
		<path class="st3" d="M2058.7,460c-6.3-4.1-14-5.1-19.5-5.1c1.3-0.9,2.7-1.5,4.3-1.7c-3.4-0.7-11.1,2.1-11.1,2.1
			c-45.9-21.3-57.9,47.5-58,63.7s-1.2,34.7-25.7,47.6c-48.1,25.3-12.4,77.5-12.4,77.5c0.3,0.2,32.1,42.2,32.1,42.2
			c-0.3-13.1,51.3-82.5,84-101c8.4-10.7,12.4-30.4,12.7-31.9c-2.4,15.6-5.6,24.3-8.4,29.1C2084.8,560,2075.3,471,2058.7,460z"/>
		<path class="st2" d="M2002.4,570.3c8.8-0.7,17.5-0.7,26.3,0c7.8,0.8,15.5,2.7,22.8,5.7c12.4,5.2,11.1,27.2-15,23.1
			S2000.6,576.8,2002.4,570.3z"/>
		<path class="st2" d="M2050.4,586.3c0.2,0.1,3.7,18.9-13.4,18.2c-11.2-0.5-35.4-14.1-33.3-23.7c1-4.6,9.5-16.4,11.2-43.5l2,0.5
			l34.3,9.2c0,0-1.5,10.9-2.2,21.2C2048.5,577,2048.5,585.3,2050.4,586.3z"/>
		<path class="st30" d="M2051.4,547.2c0,0-1.5,10.9-2.2,21.2c-19.4-1.8-28.5-20.3-32.1-30.4L2051.4,547.2z"/>
		<path class="st3" d="M2013.7,533.9c0,0-9.1-16.8-10.7-30.8c-1.1-10,6.4-46.1,42.7-38.4c7.3,1.5,14.2,4.7,20.1,9.2
			c7.6,5.9,18.3,18.3,3.3,49.3l-4.1,10.5L2013.7,533.9z"/>
		<path class="st2" d="M2057.2,557.4c0,0-46.1-2.3-44.2-31s-2.8-48.3,26.7-48.1s34.5,11.6,36.2,21.3S2069.3,557.2,2057.2,557.4z"/>
		<path class="st3" d="M2060.7,479c0,0-14.9,32.8-34.6,36.5s-27.7-2.1-27.7-2.1c10.1-7.8,17.2-18.8,20.1-31.2
			C2018.5,482.2,2052.3,462.3,2060.7,479z"/>
		<path class="st3" d="M2057.4,481.5c0,0,8.9,8.1,10.7,15.6s1.8,22.6,6.3,22.4c0,0,11-22.3,1.2-35.9
			C2065.2,469.1,2057.4,481.5,2057.4,481.5z"/>
		<path class="st32" d="M2103.4,763.2c-3.7,4.5-15.4,5.8-27.8,7.9c-9.8,1.6-20.1,3.6-27.4,7.9c-16.6,9.8-71,42.8-86.9,41.3
			c-6.2-0.6-5-12.4-1.3-28c5.9-24.7,18.2-59,18.2-73.9c0-8.1,2.7-27.4,6.3-49.4l0.9-5.4c7.2-42.8,17.1-93.3,17.1-93.3
			s11,24.1,32.6,24.1c21.6,0,16.5-18.4,16.5-18.4s19.6,2.3,24.3,7.3s16.4,26.6,18.8,32.5c0,0,0.5,7.5-18.1,11.1
			c0,0,4.5,20.4,5.1,33.9c0.4,10-6.8,41.4-8.9,60.9c-0.7,6.9-0.8,12.3,0.3,14.8c1.4,3.2,6.1,6.3,11.4,9.4
			C2094.8,752,2107.8,757.9,2103.4,763.2z"/>
		<path class="st23" d="M2084.3,745.9c11.9,20.3-32.3,26.4-39.6,30.7c-16.6,9.8-67.5,45.2-83.4,43.7c-6.2-0.6-5-12.4-1.3-28
			c5.9-24.7,18.2-59,18.2-73.9c0-8.1,2.7-27.4,6.3-49.4l19.2-18.4c0,0,20.5,53.1,40.1,61.8c9.3,4,19,7.2,28.9,9.4
			c-0.7,6.9-0.8,12.3,0.3,14.8C2074.3,739.7,2079,742.8,2084.3,745.9z"/>
		<rect x="2108.3" y="761" class="st5" width="44.5" height="5.3"/>
		<path class="st5" d="M2143.4,765.5c0.4-1.7,40.9-65.2,40.9-65.2h90l-45.1,63.5L2143.4,765.5z"/>
		<path class="st3" d="M2147.1,766.2c0.4-1.7,41-65.9,41-65.9h86l-42.9,65.9H2147.1z"/>
		<path class="st5" d="M2223,733.4c-1,2.7-3.5,4.5-6.3,4.7c-2.6,0-3.9-2.1-3.1-4.7c1-2.7,3.5-4.5,6.3-4.7
			C2222.5,728.7,2223.9,730.9,2223,733.4z"/>
		<path class="st2" d="M2121.5,738.4c-2.5-1.1-22,2.5-27.6,3.5c-17.6-3.5-75.7-15-78.5-18.7c-3.3-4.3-10.6-134.9-18.9-137
			c0,0-16.4-10-32.2,8.9s11.3,153.8,34.7,160.8c26.1,7.7,101.4-1.2,101.4-1.2l0,0c6.2,2.1,17,3.3,22.8,5.2c7.6,2.5,14.3,0.4,16-2.5
			S2124.5,739.6,2121.5,738.4z"/>
		<path class="st32" d="M2002.4,570.3c0,0-33.7,3-43.4,14.1s-12.6,41.1-12.6,41.1s29.6,23.9,65.3,14.6L2002.4,570.3z"/>
		<g>
			<defs>
				<polygon id="SVGID_1_" points="1335.3,702.1 768.2,702.1 704,470 699,452.2 694.8,437 685,401.4 1243.9,401.4 1254.7,437 
					1259.4,452.2 1264.8,470 				"/>
			</defs>
			<clipPath id="SVGID_2_">
				<use xlink:href="#SVGID_1_"  style="overflow:visible;"/>
			</clipPath>
			<g class="st33">
				<path class="st2" d="M1035.7,512.1c0,0,3.1-12.4,8.4-13.1s13.1-4,14.8,0.2s-12.5,25.8-18.2,20.5S1035.7,512.1,1035.7,512.1z"/>
				<path class="st23" d="M979.7,928.2c0,0,5.9,6.7,8.1,14.4c0.5,1.2-0.1,2.5-1.3,2.9c-0.3,0.1-0.7,0.2-1,0.2h-25.7
					c-2.6-0.1-4.8-2.2-5-4.8c-0.1-4.7,0.6-11.8,4.6-16.1C965.7,918,979.7,928.2,979.7,928.2z"/>
				<path class="st23" d="M1018.5,921.4c0,0,7.9,23.8,12.6,24.2h52.8c-1.9-4.7-6.3-8-11.3-8.7c-8.9-1.5-24.7-7.5-32.9-18.7
					C1031.1,906.4,1018.5,921.4,1018.5,921.4z"/>
				<path class="st34" d="M966.8,774.1c4.6,13.2,7.5,23.7,7.5,28.7c-0.1,22.2,43.7,122.3,43.7,122.3c14.1,6,30.3-0.1,30.3-0.1
					c-4.8-13.9-31.5-138-45.6-213.7c-6-31.8-10-54-10-54l-77.4-8.7C915.2,648.5,950.9,728.1,966.8,774.1z"/>
				<path class="st34" d="M915.2,648.5c0,0,35.6,79.7,51.5,125.7l35.8-62.9c-6-31.8-10-54-10-54L915.2,648.5z"/>
				<path class="st34" d="M956.6,665.4c0,0,21.3,221.2,26.2,264c0,0-13.2,4-29.3-2.2c0,0-29.4-102.8-32.7-133.7
					s-36.6-126.7-31-135.6S956.6,665.4,956.6,665.4z"/>
				<path class="st2" d="M902.1,476.8c0,0,8.2,19.7,8.5,25.5s-18.4,9.1-27.8,4.2s-8-9.2-8-9.2s-4.3-20-3.6-21.6
					S902.1,476.8,902.1,476.8z"/>
				<path class="st35" d="M1033.5,509.8c0,0-33.4,41.6-34.8,46.9c-19.2-22.4-48.7-50.4-50.1-51.5c-3.8-3.1-10.6-4.9-17.4-6.1
					c-7-1.1-14.1-1.7-21.2-1.8h-0.5c0.9,3.3-2.7,9.5-10.6,10c-9.4,0.6-22.7-4.5-24.1-10c-0.1-0.3-22,1.1-18.2,42.1
					c0,0.6,0.1,1.2,0.2,1.8c1.5,13.8,5.8,31.8,14.7,55.5c3.2,8.5,13.6,71.7,16.7,71.8c2.8,1.3,5.7,2.3,8.7,3.1
					c4,1.1,8.1,2.1,12.2,2.8c10.7,2,25.7,3.8,45.8,3.8c36.9,0,46.2-10.5,46.2-10.5c2,0-20.5-50.8-32.3-94.5
					c12.2,7.1,25.2,13.9,26.6,14.8c6.2,3.8,10.5,5.3,13.5,5.5h0.4c1.4,0.1,2.9-0.3,4-1.2c2.8-1.5,6.6-4.7,10.4-11.8
					c5.1-9.3,11.1-28.2,16.3-40.8c2.9-7,5.1-14.6,8-20.9C1048.1,518.9,1041,511.3,1033.5,509.8z"/>
				<path class="st36" d="M913.6,612.2c7.4,30.6-6.6,50.1-16.7,59.4c-3-0.8-5.9-1.8-8.7-3.1c-3.1-0.1-13.6-63.2-16.7-71.8
					c-8.8-23.7-13.2-41.7-14.7-55.5c0.8-0.9,1.3-1.4,1.3-1.4S902.7,566.9,913.6,612.2z"/>
				<path class="st37" d="M903,479c0,0-4.7,10.7-12.7,10.8s-19-10.6-19-10.6L903,479z"/>
				<path class="st2" d="M903.6,478.5c-2.8,2.2-5.9,4-9.2,5.4c-2.9,1.1-6.1,1.2-9,0.2c-4.8-1.5-12.2-3.9-14.1-4.9
					c-4.7-2.4-5.7-7.4-7.8-14.2c-2.4-8.1-4.9-14.5-5.3-19.1c-0.4-5.6,2.3-8.8,12-9.6c17.8-1.6,26.6,3,28.5,9.1
					c0.5,1.6,1,3.2,1.5,4.7C906,469.1,906.4,475.8,903.6,478.5z"/>
				<path class="st34" d="M899.5,447.6c0,0-4.2-4.4-9.3-2.7s-4.4,6.5-14.2,5.7s-13.3-5.3-14.4-3s1.5,15.6,1.5,15.6s-31-43.9,8-43.9
					c0,0,39.6-2.4,32.2,42.2L899.5,447.6z"/>
				<path class="st38" d="M985.7,426.4c0.1-0.7,0.2-1.2,0.2-1.2C985.7,425.6,985.7,426,985.7,426.4z"/>
				<polygon class="st34" points="1047.8,560.5 1041.4,559.6 1059.3,457.9 1059.3,457.9 				"/>
				<path class="st2" d="M1038.9,508.4c0,0,5.9,5.9,6.9,2.6s8.5-6.9,9-8.4s-8.6-2.2-10-2.2S1037.9,506.3,1038.9,508.4z"/>
				<path class="st32" d="M888.2,506.1c5.5-1,11.2-1.2,16.8-0.6c0,0,0.7,8.5-1.7,9.2s-7.5,0.1-8.6,0S888.2,506.1,888.2,506.1z"/>
				<path class="st32" d="M894.7,514.7c0,0,28.4,119.4,36,127s13.5,10,13.5,10s6-7.2,5.9-10.7s-46.8-126.4-46.8-126.4h-8.6
					L894.7,514.7z"/>
				<path class="st2" d="M934.5,631.3c0,0,19.3,6.3,25.2,6.5s12.7-9.7,10.4-12.6c-0.7-0.8-9.1,3-11.5,1.7c-3.7-2-8.3-0.5-11.3-0.1
					s-14.2-6-14.2-6L934.5,631.3z"/>
				<path class="st35" d="M941.3,620.7c-31.4-22.2-53.5-33.4-60.4-36.7c1.9-16.4,1.1-42.5-6.1-86.7c0,0-30.5,3.4-33.7,14
					c-4.7,15.4,6.4,58.1,15.5,92.3c0.1,0.1,0.3,0.2,0.4,0.2c0.8,1.3,1.7,2.4,2.9,3.4c13,10.4,81.7,30.4,81.7,30.4
					C946.6,630.5,941.3,620.7,941.3,620.7z"/>
				<polygon class="st10" points="955.3,623.8 903.8,608.4 902.1,615.8 957.4,631.3 				"/>
				<polygon class="st11" points="981.4,603.9 955.3,623.8 957.4,631.3 987.4,610.9 				"/>
				<polygon class="st34" points="958,633.5 899.1,615.6 899.3,614.1 957.4,631.3 				"/>
				<polygon class="st34" points="958,633.5 991.3,610.4 989.9,609 957.4,631.3 				"/>
				<path class="st32" d="M888.2,506.1c0,0-13.5-14-14.6-13.1s-2.5,4-1.8,4.9s18.1,10.7,18.1,10.7L888.2,506.1z"/>
				<path class="st32" d="M905,505.5c0,0,2.7-13.9,3.1-13.4s4.8,4.4,5,5.4s-5.4,8.8-8,9.4S905,505.5,905,505.5z"/>
			</g>
		</g>
	</g>
</g>
</svg>
