<?xml version="1.0" encoding="utf-8"?>
<!-- Generator: Adobe Illustrator 21.0.0, SVG Export Plug-In . SVG Version: 6.00 Build 0)  -->
<svg version="1.1" id="Layer_1" xmlns="http://www.w3.org/2000/svg" xmlns:xlink="http://www.w3.org/1999/xlink" x="0px" y="0px"
	 viewBox="0 0 577.6 407.8" style="enable-background:new 0 0 577.6 407.8;" xml:space="preserve">
<style type="text/css">
	.st0{fill:#F0F7F6;}
	.st1{fill:none;stroke:#D4CBEF;stroke-miterlimit:10;}
	.st2{fill:#FFFFFF;}
	.st3{fill:#333135;}
	.st4{fill:#77B2AE;}
	.st5{fill:#689B99;}
	.st6{fill:#987DCC;}
	.st7{fill:#6B55A0;}
	.st8{fill:#DDBB66;}
	.st9{fill:#EDD674;}
	.st10{opacity:0.2;fill:#808080;enable-background:new    ;}
	.st11{fill:#D4CBEF;}
	.st12{fill:#E3DEF9;}
	.st13{fill:#8B7EAA;}
	.st14{fill:#6E6A72;}
	.st15{opacity:0.15;fill:#808080;enable-background:new    ;}
</style>
<title>Asset 2</title>
<g>
	<g id="Layer_2">
		<g id="OBJECTS">
			<path class="st0" d="M298.9,398.4c54.3-67.5,43.6-166.3-23.9-220.6s-166.3-43.6-220.6,23.9C8.1,259.1,8.1,341,54.3,398.4H298.9z"
				/>
			<circle class="st0" cx="426.8" cy="97.7" r="97.7"/>
			<circle class="st0" cx="518.7" cy="258.3" r="39.2"/>
			<circle class="st0" cx="77.7" cy="97.7" r="33.2"/>
			<path class="st1" d="M507.4,110.4V85L496,83.6c-1.8-8.9-5.3-17.4-10.3-24.9l7-9l-18-18l-9,7c-7.5-5-16-8.5-24.9-10.3l-1.4-11.3
				h-25.4l-1.4,11.3c-8.9,1.8-17.4,5.3-24.9,10.3l-9-7l-18,18l7,9c-5,7.5-8.5,16-10.3,24.9L346.1,85v25.4l11.3,1.4
				c1.8,8.9,5.3,17.4,10.3,24.9l-7,9l18,17.9l9-7c7.5,5,16,8.5,24.9,10.3l1.4,11.3h25.4l1.4-11.3c8.9-1.8,17.4-5.3,24.9-10.3l9,7
				l18-17.9l-7-9c5-7.6,8.5-16,10.2-24.9L507.4,110.4z"/>
			<circle class="st1" cx="425.8" cy="97.5" r="61.3"/>
			<circle class="st1" cx="425.8" cy="97.5" r="17.7"/>
			<path class="st0" d="M455.9,241.6c-0.8-3.7-2.2-7.3-4.4-10.5l3-3.8l-7.5-7.5l-3.8,3c-3.2-2.1-6.7-3.6-10.5-4.4l-0.6-4.8h-10.7
				l-0.6,4.8c-3.7,0.8-7.3,2.2-10.5,4.4l-3.8-3l-7.6,7.5l3,3.8c-2.1,3.2-3.6,6.7-4.4,10.5l-4.8,0.6v10.7l4.8,0.6
				c0.8,3.7,2.2,7.3,4.4,10.5l-3,3.8l7.5,7.5l3.8-3c3.2,2.1,6.7,3.6,10.5,4.4l0.6,4.8h10.7l0.6-4.8c3.7-0.8,7.3-2.2,10.5-4.4l3.8,3
				l7.5-7.5l-3-3.8c2.1-3.2,3.6-6.7,4.4-10.5l4.8-0.6v-10.7L455.9,241.6z M426.4,273.2c-14.2,0-25.8-11.5-25.8-25.8
				c0-14.2,11.5-25.8,25.8-25.8c14.2,0,25.8,11.5,25.8,25.8c0,0,0,0,0,0C452.1,261.7,440.6,273.2,426.4,273.2L426.4,273.2z"/>
			<path class="st0" d="M426.4,236.1c-6.3,0-11.3,5.1-11.4,11.3s5.1,11.3,11.3,11.4s11.3-5.1,11.4-11.3c0,0,0,0,0,0
				C437.7,241.2,432.6,236.1,426.4,236.1z M426.4,257.5c-5.6,0-10.1-4.5-10.1-10.1s4.5-10.1,10.1-10.1c5.6,0,10.1,4.5,10.1,10.1
				c0,0,0,0,0,0C436.5,253,431.9,257.5,426.4,257.5z"/>
			<circle class="st0" cx="426.4" cy="247.5" r="7.4"/>
			<path class="st2" d="M544.7,253c-0.7-3.3-2-6.5-3.9-9.4l2.6-3.4l-6.7-6.7l-3.4,2.6c-2.8-1.9-6-3.2-9.3-3.9l-0.5-4.2H514l-0.5,4.2
				c-3.3,0.7-6.5,2-9.3,3.9l-3.4-2.6l-6.7,6.7l2.6,3.4c-1.9,2.8-3.2,6-3.9,9.4l-4.2,0.5v9.5l4.2,0.5c0.7,3.3,2,6.5,3.9,9.4l-2.6,3.4
				l6.7,6.7l3.4-2.6c2.8,1.9,6,3.2,9.3,3.9l0.5,4.2h9.5l0.5-4.2c3.3-0.7,6.5-2,9.3-3.9l3.4,2.6l6.7-6.7l-2.6-3.4
				c1.9-2.8,3.2-6,3.9-9.4l4.2-0.5v-9.5L544.7,253z M518.4,281.2c-12.7,0-23-10.3-23-23s10.3-23,23-23c12.7,0,23,10.3,23,23l0,0
				C541.4,270.9,531.1,281.2,518.4,281.2C518.4,281.2,518.4,281.2,518.4,281.2L518.4,281.2z"/>
			<path class="st2" d="M93.2,94.5c-0.4-2-1.2-3.9-2.3-5.5l1.6-2l-4-4l-2,1.6c-1.7-1.1-3.6-1.9-5.6-2.3l-0.3-2.5h-5.7l-0.3,2.5
				c-2,0.4-3.8,1.2-5.5,2.3L67,83l-4,4l1.6,2c-1.1,1.7-1.9,3.6-2.3,5.6l-2.5,0.3v5.7l2.5,0.3c0.4,2,1.2,3.9,2.3,5.6l-1.6,2l4,4
				l2-1.6c1.7,1.1,3.6,1.9,5.6,2.3l0.3,2.5h5.7l0.3-2.5c2-0.4,3.9-1.2,5.6-2.3l2,1.6l4-4l-1.6-2c1.1-1.7,1.9-3.6,2.3-5.6l2.5-0.3
				v-5.7L93.2,94.5z M77.5,111.3c-7.6,0-13.7-6.1-13.7-13.7c0-7.6,6.1-13.7,13.7-13.7c7.6,0,13.7,6.1,13.7,13.7c0,0,0,0,0,0
				C91.2,105.2,85,111.3,77.5,111.3z"/>
			<path class="st3" d="M577.6,407.8c-31-18.4-148.5-32-288.8-32S31,389.4,0,407.8H577.6z"/>
			<path class="st4" d="M170,339.5c-0.2-4.7-0.7-9.5-1.4-14.1c-0.4-3.1-2.8-8.7-7-7.3c-0.9,0.3-1.6,0.9-2.1,1.7
				c-0.3,0.1-0.5,0.2-0.7,0.4c-0.4-1.4-0.9-2.8-1.2-4.1c-1.2-4.7-2.7-9.2-4.5-13.7c-1.2-2.9-2.2-6.1-4.2-8.6c-1.5-2-3.9-3.1-6.4-3
				c-2.4,0.3-4.3,2.1-5.8,3.9c-0.3,0.4-2.3,2.4-2,2.9c-3.9-6.2-8-13.8-15.3-16.3c-2.1-0.8-4.4-0.8-6.4,0c-4,1.6-5.2,6.1-4.7,10
				c0.5,3.5,1.4,6.9,2.5,10.2c0.3,0.9,3.2,9.8,3.6,9.7c-2.6,0.5-5.9,0-7.3,2.7c-1.9,3.9,2.1,8.6,4.3,11.5c2.2,2.9,4.7,5.6,7.5,8
				c2.7,2.3,5.6,4.4,8.2,7c-2.9,0.3-6.2,1.3-6.2,4.8c0,4.2,6,8.5,8.9,10.7c8.7,6.3,18.5,10.8,29,13.2c2.6,0.6,5.2,1,7.9,1.5
				c0.6,0.1,1.1,0.1,1.2-0.6C169.8,359.9,170.4,349.7,170,339.5z"/>
			<path class="st5" d="M166.8,370.6c0.3,0.1,0.6,0.1,0.9,0c-21.3-45.4-45.6-76-56.3-88.3c-2.7,2-3.5,5.8-3.1,9.1
				c0.5,3.5,1.4,6.9,2.5,10.2c0.3,0.9,3.2,9.8,3.6,9.7c-2.6,0.5-5.9,0-7.3,2.7c-1.9,3.9,2.1,8.6,4.3,11.5c2.2,2.9,4.7,5.6,7.5,8
				c2.7,2.3,5.6,4.4,8.2,7c-2.9,0.3-6.2,1.3-6.2,4.8c0,4.2,6,8.5,8.9,10.7c8.7,6.3,18.5,10.8,29,13.2
				C161.5,369.7,164.2,370.1,166.8,370.6z"/>
			<path class="st0" d="M163.4,360.3c-4.1-8.2-8.6-16.1-13.2-24s-9.6-15.6-14.8-23.1s-10.6-14.9-16.3-22c0-0.1-0.1-0.1-0.2,0
				c-0.1,0-0.1,0.1,0,0.2c0,0,0,0,0,0c5.6,7.2,11,14.6,16.1,22.1s9.9,15.3,14.5,23.2c4.6,7.9,8.9,15.9,12.9,24.1
				c1.6,3.2,3.1,6.5,4.7,9.8c0.5,0.1,1,0,1.1-0.6c0,0,0-0.1,0-0.1C166.6,366.7,165,363.5,163.4,360.3z"/>
			<path class="st4" d="M162.4,356.9c-1.8-4.3-3.7-8.4-5.9-12.5c-1.4-2.7-5.4-7.1-8.8-4.4c-0.7,0.6-1.2,1.4-1.3,2.3
				c-0.2,0.2-0.4,0.4-0.6,0.6c-0.9-1.1-1.7-2.3-2.5-3.3c-2.7-3.9-5.5-7.6-8.6-11.1c-2-2.2-4.1-4.9-6.7-6.5c-2-1.3-4.6-1.6-6.8-0.6
				c-2.1,1-3.2,3.3-4,5.5c-0.2,0.4-1.3,3-0.8,3.3c-5.6-4.4-11.8-10-19.4-9.9c-2.2,0-4.2,0.7-5.9,2.1c-3.1,2.8-2.7,7.3-1,10.7
				c1.6,3,3.5,5.8,5.7,8.5c0.5,0.7,6.2,7.9,6.5,7.7c-2.2,1.4-5.4,2-5.8,4.9c-0.5,4.2,4.8,7.2,7.7,9.1c3,1.9,6.2,3.6,9.5,4.9
				c3.3,1.1,6.6,2.3,9.8,3.8c-2.6,1.2-5.3,3.3-4.1,6.4c1.4,3.9,8.3,5.8,11.8,6.9c10,2.9,20.6,3.8,30.9,2.5c2.6-0.3,5.2-0.8,7.7-1.3
				c0.6-0.1,1.1-0.2,1-0.9C169,375.6,166.2,366,162.4,356.9z"/>
			<path class="st5" d="M169.7,386.3c0.3,0,0.6-0.1,0.8-0.3c-34.4-34.6-66.8-54.6-80.7-62.4c-1.8,2.8-1.3,6.4,0.2,9.4
				c1.6,3,3.5,5.8,5.7,8.5c0.5,0.7,6.2,7.9,6.5,7.7c-2.2,1.4-5.4,2-5.8,4.9c-0.5,4.2,4.8,7.2,7.7,9.1c3,1.9,6.2,3.6,9.5,4.9
				c3.3,1.1,6.6,2.3,9.8,3.8c-2.6,1.2-5.3,3.3-4.1,6.4c1.4,3.9,8.3,5.8,11.8,6.9c10,2.9,20.6,3.8,30.9,2.5
				C164.6,387.3,167.1,386.8,169.7,386.3z"/>
			<path class="st0" d="M163.1,378c-6.5-6.1-13.2-12-20-17.7S129.2,349.2,122,344s-14.7-10-22.3-14.7c-0.1,0-0.2,0-0.2,0.1
				c0,0.1,0,0.1,0,0.2c7.5,4.7,14.9,9.7,22,15c7.1,5.3,14.1,10.8,21,16.5c6.8,5.7,13.4,11.6,19.8,17.8c2.5,2.4,5,4.9,7.5,7.4
				c0.5-0.1,0.9-0.3,0.8-0.9c0,0,0-0.1,0-0.1C168.1,382.8,165.6,380.4,163.1,378z"/>
			<path class="st4" d="M159.5,377.6c-1.7-2-3.5-3.8-5.4-5.6c-1.3-1.2-4.2-2.8-5.5-0.8c-0.3,0.4-0.4,1-0.3,1.5
				c-0.1,0.1-0.1,0.3-0.2,0.4c-0.7-0.5-1.3-0.9-1.9-1.3c-2.1-1.6-4.3-3-6.6-4.4c-1.5-1-3.1-1.7-4.8-2.2c-1.3-0.3-2.7,0-3.8,0.9
				c-0.8,1-1.2,2.3-1.1,3.6c0,0.3-0.1,1.8,0.1,1.9c-3.8-1.4-8.1-3.2-12.2-1.8c-1.2,0.4-2.2,1.2-2.8,2.2c-1.2,2.1-0.1,4.4,1.4,5.9
				c1.4,1.3,2.9,2.5,4.5,3.5c0.4,0.3,4.7,3.1,4.9,2.9c-0.9,1.1-2.6,2-2.2,3.7c0.5,2.3,3.9,3,5.8,3.5c2,0.5,4,0.8,6,0.9
				c2,0,4,0,5.9,0.2c-1.1,1.1-2.2,2.7-1,4.2c1.5,1.8,5.5,1.6,7.5,1.5c5.9-0.3,11.7-1.7,17-4.3c1.3-0.6,2.6-1.4,3.9-2.1
				c0.3-0.1,0.5-0.3,0.3-0.7C166.5,386.4,163.2,381.8,159.5,377.6z"/>
			<path class="st5" d="M168.8,392c0.2-0.1,0.3-0.2,0.4-0.3c-17.3-8.6-35.6-14.9-54.5-18.7c-0.3,1.9,0.4,3.8,1.8,5
				c1.4,1.3,2.9,2.5,4.5,3.5c0.4,0.3,4.7,3.1,4.9,2.9c-0.9,1.1-2.6,2-2.2,3.7c0.5,2.3,3.9,3,5.8,3.5c2,0.5,4,0.8,6,0.9
				c2,0,4,0,5.9,0.2c-1.1,1.1-2.2,2.7-1,4.2c1.5,1.8,5.5,1.6,7.5,1.5c5.9-0.3,11.7-1.7,17-4.3C166.3,393.5,167.5,392.7,168.8,392z"
				/>
			<path class="st0" d="M163.8,388.8c-4.6-2.1-9.2-4-13.9-5.8s-9.5-3.4-14.3-4.9s-9.7-2.8-14.6-3.9c0,0-0.1,0-0.1,0.1
				c0,0,0,0.1,0.1,0.1c0,0,0,0,0,0c4.9,1.2,9.7,2.5,14.5,4s9.5,3.2,14.2,5s9.3,3.8,13.8,5.9c1.8,0.9,3.6,1.7,5.4,2.6
				c0.2-0.1,0.4-0.3,0.3-0.6v0C167.4,390.4,165.6,389.6,163.8,388.8z"/>
			<path class="st6" d="M483.2,299.4c-0.4-0.2-0.8-0.3-1.2-0.4c0.3-0.4,0.5-0.9,0.3-1.4c-0.2-0.5-0.6-1-1.1-1.2
				c-2.5-1.2-5.7-0.8-8.5-0.3c-6.3,1.3-12.1,4.5-16.6,9.2c-1.3,1.2-2.5,2.6-3.6,4c-0.2,0.2-0.3,0.6-0.1,0.8c0.1,0.1,0.2,0.1,0.3,0.1
				c3.3,0,6.6,0.2,9.8,0.8c3.1,0.5,6.1,1.6,9.3,2c2.1,0.3,4.3,0.2,6.4-0.1c1.9-0.3,4.1-0.7,5.5-2.6s1.1-4.9-0.5-6.1
				C484.8,302.7,485.4,300.4,483.2,299.4z"/>
			<path class="st7" d="M477.2,302.8c-8-0.6-17.3,2.1-24.6,6.2c-1,0.6-0.3,2,0.7,1.4c6.8-4.1,16.2-6.5,23.9-6.9
				C477.5,303.5,477.5,302.8,477.2,302.8z"/>
			<path class="st6" d="M465.2,340.4c-0.4-0.2-0.8-0.4-1.2-0.5c0.4-0.3,0.5-0.9,0.5-1.4c-0.1-0.5-0.5-1-1-1.3
				c-2.4-1.5-5.6-1.3-8.4-1.1c-6.4,0.7-12.5,3.4-17.3,7.6c-1.4,1.1-2.7,2.4-3.9,3.7c-0.2,0.2-0.4,0.6-0.2,0.8
				c0.1,0.1,0.2,0.1,0.3,0.1c3.3,0.3,6.5,0.8,9.7,1.7c3.1,0.8,6,2.2,9,2.9c2.1,0.5,4.3,0.6,6.4,0.5c1.9-0.1,4.2-0.4,5.7-2.1
				s1.5-4.8,0.1-6.1C466.5,343.9,467.3,341.6,465.2,340.4z"/>
			<path class="st7" d="M458.9,343.2c-7.9-1.3-17.4,0.5-25,3.9c-1,0.5-0.5,2,0.6,1.5c7.1-3.5,16.8-5,24.4-4.7
				C459.2,343.9,459.2,343.3,458.9,343.2z"/>
			<path class="st6" d="M489.4,217.4c-0.3,0-0.7,0.1-1,0.2c0.1-0.4,0-0.8-0.2-1.1c-0.3-0.3-0.8-0.5-1.2-0.4c-2.3,0.1-4.5,1.6-6.4,3
				c-4.2,3.3-7.4,7.7-9.1,12.7c-0.5,1.4-0.9,2.8-1.2,4.2c0,0.2,0,0.6,0.2,0.6c0.1,0,0.2,0,0.3-0.1c2.4-1.2,4.9-2.3,7.5-3.1
				c2.5-0.8,5.1-1.2,7.5-2.1c1.7-0.6,3.3-1.5,4.7-2.6c1.3-0.9,2.8-2.1,3.1-3.9s-0.9-3.9-2.5-4.1
				C491.7,219.1,491.3,217.3,489.4,217.4z"/>
			<path class="st7" d="M486.1,222.1c-6.1,2.7-12.1,8-16,13.7c-0.5,0.8,0.5,1.6,1,0.7c3.5-5.5,9.7-10.8,15.2-13.9
				C486.6,222.4,486.4,222,486.1,222.1z"/>
			<path class="st6" d="M481.5,251c-0.2,0-0.4,0-0.6,0c0.1-0.2,0.1-0.5,0-0.7c-0.2-0.2-0.4-0.4-0.7-0.4c-1.5-0.1-3,0.3-4.3,1.1
				c-3,1.6-5.4,4-7,7c-0.5,0.8-0.9,1.7-1.2,2.5c0,0.1-0.1,0.3,0.1,0.4c0.1,0,0.1,0,0.2,0c1.6-0.5,3.3-0.9,5-1.2
				c1.6-0.2,3.3-0.2,4.9-0.5c1.1-0.2,2.2-0.6,3.2-1.1c1-0.4,1.9-1.1,2.3-2.1c0.4-1.1-0.1-2.3-1.1-2.8
				C482.7,252.3,482.7,251.2,481.5,251z"/>
			<path class="st7" d="M478.9,253.5c-4.3,1.2-8.3,3.6-11.3,6.8c-0.4,0.4,0.1,1,0.6,0.6c3-3.2,6.7-5.6,10.8-7.1
				C479.2,253.8,479.1,253.5,478.9,253.5z"/>
			<path class="st6" d="M478.4,195.1c-0.2,0-0.3,0.1-0.5,0.2c0-0.2-0.1-0.4-0.2-0.5c-0.2-0.1-0.4-0.2-0.6-0.1
				c-1.2,0.4-2.2,1.1-3,2.1c-1.8,2-3,4.5-3.4,7.2c-0.1,0.7-0.2,1.5-0.2,2.2c0,0.1,0,0.3,0.1,0.3c0,0,0.1,0,0.1-0.1
				c1.1-0.9,2.3-1.7,3.5-2.4c1.2-0.7,2.5-1.1,3.6-1.8c0.8-0.5,1.5-1.1,2.1-1.7c0.7-0.6,1.1-1.4,1.2-2.2c0-0.9-0.7-1.7-1.6-1.8
				C479.7,195.7,479.3,194.9,478.4,195.1z"/>
			<path class="st7" d="M477.1,197.7c-3,2.1-5.4,5-6.8,8.4c-0.1,0.1-0.1,0.4,0.1,0.5c0.1,0.1,0.4,0.1,0.5-0.1c0,0,0-0.1,0.1-0.1
				c1.5-3.3,3.6-6.2,6.4-8.5C477.4,197.9,477.2,197.6,477.1,197.7z"/>
			<path class="st6" d="M473.5,180.1c-0.1,0-0.2,0.1-0.4,0.1c0-0.1-0.1-0.3-0.2-0.4c-0.1-0.1-0.3-0.1-0.5-0.1
				c-0.8,0.3-1.5,0.8-2,1.5c-1.3,1.4-2,3.2-2.2,5.1c-0.1,0.5-0.1,1.1-0.1,1.6c0,0.1,0,0.2,0.1,0.2c0,0,0.1,0,0.1,0
				c0.8-0.6,1.6-1.2,2.4-1.7c0.8-0.5,1.7-0.8,2.5-1.4c0.5-0.4,1-0.8,1.5-1.3c0.5-0.4,0.8-1,0.8-1.6c0-0.6-0.5-1.1-1.2-1.2
				C474.4,180.5,474.1,179.9,473.5,180.1z"/>
			<path class="st7" d="M472.6,182c-2.1,1.5-3.6,3.6-4.6,6c-0.1,0.1,0,0.2,0.1,0.3c0.1,0.1,0.2,0,0.3-0.1c0,0,0,0,0-0.1
				c0.9-2.3,2.4-4.4,4.3-6.1C472.8,182.1,472.7,181.9,472.6,182z"/>
			<path class="st6" d="M433.8,367.7c-0.2-0.1-0.4-0.2-0.6-0.3c0.2-0.2,0.3-0.4,0.3-0.7c-0.1-0.3-0.2-0.5-0.4-0.7
				c-1.3-0.8-2.8-1.1-4.2-1c-3.3,0-6.5,1.1-9.2,3.1c-0.8,0.5-1.5,1.1-2.1,1.7c-0.1,0.1-0.2,0.3-0.1,0.4c0,0,0.1,0.1,0.2,0.1
				c1.7,0.3,3.3,0.7,4.9,1.2c1.5,0.5,3,1.4,4.5,1.8c1.1,0.3,2.1,0.5,3.2,0.5c1.1,0.2,2.1-0.1,3-0.8c0.8-0.8,0.9-2.1,0.3-3.1
				C434.3,369.5,434.8,368.4,433.8,367.7z"/>
			<path class="st7" d="M430.5,368.8c-4.3-1-8.8-0.7-12.9,0.9c-0.6,0.2-0.3,1,0.2,0.8c4-1.5,8.4-1.9,12.6-1.3
				C430.6,369.2,430.7,368.9,430.5,368.8z"/>
			<path class="st6" d="M439.3,269.6c-2.1,0.1-3.8,1.7-4,3.8c-0.1,2,1.4,3.7,2.6,5.1c1.4,1.6,3,3,4.8,4.2c2.6,1.8,5.6,3,8.2,4.7
				c2.8,1.8,5.4,3.8,7.8,6.1c0.1,0.1,0.2,0.2,0.3,0.2c0.3,0,0.4-0.4,0.4-0.6c0.1-1.8,0.1-3.6,0-5.4c-0.3-6.4-2.8-12.5-7-17.4
				c-1.9-2-4.2-4.2-6.9-4.9c-0.5-0.1-1.1,0-1.5,0.2c-0.4,0.3-0.6,0.7-0.6,1.2c-0.4-0.2-0.8-0.3-1.2-0.4
				C440,265.8,439.1,267.7,439.3,269.6z"/>
			<path class="st7" d="M445.1,272.4c6.6,4.5,12.1,12.4,14.7,20.4c0.4,1.1-1.1,1.7-1.5,0.5c-2.1-7.7-7.9-15.5-13.6-20.4
				C444.4,272.6,444.8,272.2,445.1,272.4z"/>
			<path class="st6" d="M413.6,329c-2-0.6-4.2,0.5-5,2.4c-0.7,1.9,0.2,3.9,1,5.6c0.9,1.9,2,3.8,3.4,5.4c2,2.5,4.4,4.5,6.5,7
				c2.1,2.6,4,5.3,5.6,8.2c0,0.1,0.1,0.2,0.2,0.3c0.2,0.1,0.5-0.2,0.6-0.5c0.7-1.7,1.2-3.4,1.6-5.1c1.6-6.2,1.1-12.8-1.5-18.7
				c-1.2-2.5-2.7-5.3-5.1-6.7c-0.5-0.3-1-0.3-1.5-0.2c-0.5,0.1-0.8,0.5-0.9,1c-0.3-0.3-0.6-0.5-1-0.8
				C415.3,325.6,413.9,327.2,413.6,329z"/>
			<path class="st7" d="M418.2,333.4c5,6.3,7.9,15.5,8,24c0,1.2-1.6,1.2-1.5,0.1c0.2-8-2.9-17.2-6.9-23.7
				C417.5,333.5,418,333.1,418.2,333.4z"/>
			<path class="st6" d="M438.8,303.9c-1.2-0.1-2.3,0.6-2.6,1.8c-0.1,1.1,0.3,2.2,1,3.1c0.6,1,1.4,1.9,2.3,2.7
				c1.3,1.2,2.8,2.1,4.1,3.3c1.4,1.2,2.6,2.6,3.8,4c0,0.1,0.1,0.1,0.1,0.1c0.1,0,0.2-0.2,0.3-0.3c0.2-1,0.4-2,0.5-3
				c0.4-3.6-0.4-7.1-2.3-10.2c-0.8-1.4-1.9-2.6-3.3-3.3c-0.3-0.1-0.6-0.1-0.9,0c-0.2,0.1-0.4,0.3-0.4,0.6c-0.2-0.1-0.4-0.2-0.6-0.3
				C439.5,301.8,438.9,302.8,438.8,303.9z"/>
			<path class="st7" d="M441.7,305.9c3.3,3.4,5.5,7.8,6.3,12.6c0.1,0.6-0.8,0.8-0.8,0.2c-0.8-4.6-2.8-8.9-5.7-12.5
				C441.3,306,441.6,305.8,441.7,305.9z"/>
			<path class="st6" d="M458,204.6c-1.2,0.1-2.1,1.1-2.1,2.3c0.2,1.1,0.8,2.1,1.6,2.8c0.8,0.8,1.8,1.5,2.8,2.1
				c1.5,0.9,3.2,1.4,4.8,2.3c1.6,0.9,3.1,1.9,4.5,3.1c0,0,0.1,0.1,0.2,0.1c0.1,0,0.2-0.2,0.2-0.4c0-1-0.1-2-0.2-3
				c-0.4-3.5-2-6.8-4.5-9.4c-1.1-1.2-2.4-2.1-4-2.5c-0.3,0-0.6,0-0.9,0.2c-0.2,0.2-0.3,0.4-0.3,0.7c-0.2-0.1-0.4-0.2-0.7-0.2
				C458.2,202.5,457.8,203.6,458,204.6z"/>
			<path class="st7" d="M461.3,206c4,2.6,7.1,6.4,8.9,10.8c0.2,0.6-0.6,1-0.8,0.4c-1.8-4.3-4.7-8-8.4-10.8
				C460.9,206.2,461.1,205.9,461.3,206z"/>
			<path class="st6" d="M459.2,187.8c-0.8,0.2-1.2,1-1.1,1.8c0.2,0.7,0.7,1.3,1.4,1.6c0.6,0.4,1.4,0.8,2.1,1.1
				c1.1,0.4,2.3,0.6,3.4,0.9c1.2,0.4,2.3,0.8,3.3,1.4c0,0,0.1,0,0.1,0c0.1,0,0.1-0.2,0.1-0.3c-0.1-0.6-0.3-1.3-0.5-1.9
				c-0.7-2.2-2.1-4.2-4-5.5c-0.8-0.7-1.8-1.1-2.9-1.2c-0.2,0-0.4,0.1-0.5,0.2c-0.1,0.1-0.2,0.3-0.1,0.5c-0.2,0-0.3,0-0.5,0
				C459.1,186.3,459,187.1,459.2,187.8z"/>
			<path class="st7" d="M461.5,188.3c2.9,1.2,5.4,3.3,7.1,5.9c0.1,0.1,0.1,0.3-0.1,0.4c-0.1,0.1-0.3,0.1-0.4-0.1
				c-1.7-2.5-4-4.6-6.7-6C461.3,188.4,461.4,188.2,461.5,188.3z"/>
			<path class="st6" d="M446.8,230.2c-2.1,0.3-3.7,2.1-3.7,4.2c0.1,2,1.7,3.6,3.1,4.8c1.6,1.4,3.3,2.7,5.2,3.7
				c2.8,1.5,5.8,2.4,8.6,3.9c2.9,1.5,5.7,3.3,8.3,5.4c0.1,0.1,0.2,0.1,0.3,0.1c0.3,0,0.4-0.4,0.4-0.7c0-1.8-0.1-3.6-0.5-5.4
				c-0.9-6.4-3.9-12.2-8.5-16.6c-2-1.9-4.5-3.9-7.3-4.2c-0.5-0.1-1.1,0.1-1.5,0.4c-0.4,0.3-0.5,0.8-0.5,1.2
				c-0.4-0.1-0.8-0.3-1.2-0.3C447,226.4,446.4,228.4,446.8,230.2z"/>
			<path class="st7" d="M452.7,232.5c7,3.9,13.2,11.2,16.5,18.9c0.5,1.1-1,1.8-1.4,0.7c-2.8-7.4-9.2-14.7-15.4-19.1
				C452.1,232.8,452.4,232.3,452.7,232.5z"/>
			<path class="st7" d="M403.6,381.4c12.5-12.5,23.4-26.6,32.4-41.8c9.3-15.4,16.7-31.7,22.3-48.8c1.4-4.2,2.8-8.5,3.8-12.9
				c1.3-5.2,2-7.8,3.1-13.1c1-5.3,1.4-7.9,2.2-13.2c0.3-2.2,0.7-4.4,0.9-6.6c0.2-2.7,0.4-4,0.6-6.7c1.7-17.8,0.5-35.6-2.1-52.9l0,0
				c-0.1-0.4,0.2-0.7,0.5-0.8c0.3-0.1,0.7,0.2,0.7,0.5c0,0,0,0,0,0c2.8,17.4,4.2,35.3,2.7,53.3c-0.2,2.7-0.3,4-0.5,6.7
				c-0.2,2.2-0.6,4.5-0.9,6.7c-0.8,5.4-1.2,8-2.1,13.4c-1.1,5.3-1.8,8-3,13.2c-1,4.4-2.3,8.8-3.7,13.1c-5.4,17.3-12.8,34-22,49.6
				c-9,15.6-20,30-32.6,42.8c-0.7,0.7-1.8,0.7-2.5,0.1c0,0,0,0-0.1-0.1C402.8,383.3,402.9,382.2,403.6,381.4L403.6,381.4
				L403.6,381.4z"/>
			<path class="st6" d="M454.9,323.8c-1-0.7-2.9,0-3.7,1.1c-0.6,1.2-0.7,2.5-0.3,3.8c0.3,1.3,0.7,2.6,1.4,3.8
				c0.9,1.7,2.2,3.2,3.2,4.9c1,1.8,1.9,3.6,2.6,5.5c0,0.1,0.1,0.1,0.1,0.2c0.1,0.1,0.3-0.1,0.4-0.2c0.6-1,1.1-2,1.6-3
				c1.7-3.6,2.3-7.7,1.7-11.7c-0.3-1.7-0.8-3.7-2-4.9c-0.3-0.2-0.6-0.4-0.9-0.3c-0.3,0-0.6,0.2-0.8,0.5c-0.1-0.2-0.3-0.4-0.5-0.6
				C456.6,321.8,455.4,322.7,454.9,323.8z"/>
			<path class="st7" d="M457,327.1c2.1,4.5,2.6,10.5,1.8,15.6c-0.1,0.7-1.1,0.6-1-0.1c0.8-5.1,0.4-10.4-1.2-15.4
				C456.6,327.1,457,326.9,457,327.1z"/>
			<path class="st6" d="M435.1,343.6c-1.4-0.4-2.8,0.2-3.5,1.4c-0.5,1.2-0.5,2.6,0,3.8c0.4,1.3,1,2.5,1.7,3.6c1.1,1.6,2.5,3,3.6,4.6
				c1.2,1.7,2.2,3.4,3.1,5.3c0,0.1,0.1,0.1,0.1,0.2s0.3-0.1,0.4-0.3c0.5-1,0.9-2,1.3-3.1c1.4-3.8,1.6-7.9,0.6-11.7
				c-0.5-1.7-1.1-3.6-2.5-4.6c-0.3-0.2-0.6-0.3-1-0.3c-0.3,0.1-0.6,0.3-0.7,0.6c-0.2-0.2-0.3-0.4-0.5-0.6
				C436.6,341.4,435.5,342.4,435.1,343.6z"/>
			<path class="st7" d="M437.6,346.6c2.5,4.7,3.6,10,3.2,15.4c0,0.7-1,0.7-1,0c0.3-5.2-0.6-10.4-2.6-15.2
				C437.1,346.6,437.5,346.5,437.6,346.6z"/>
			<path class="st6" d="M501.6,301c-0.7-0.9-1.9-1.1-2.9-0.5c-0.9,0.7-1.4,1.6-1.6,2.7c-0.3,1.1-0.4,2.2-0.5,3.3
				c0,1.6,0.4,3.2,0.4,4.8c0.1,1.7,0,3.4-0.2,5c0,0.1,0,0.1,0,0.2c0.1,0.1,0.3,0,0.4,0c0.8-0.5,1.5-1,2.2-1.6
				c2.5-2.1,4.4-4.9,5.4-8.1c0.5-1.4,0.6-2.9,0.4-4.3c-0.1-0.3-0.3-0.5-0.5-0.6c-0.2-0.1-0.5-0.1-0.7,0.1c0-0.2-0.1-0.4-0.1-0.6
				C503.6,300.1,502.4,300.3,501.6,301z"/>
			<path class="st7" d="M501.9,304.2c-0.4,4.4-1.9,8.7-4.4,12.3c-0.3,0.5-1,0.1-0.7-0.4c2.4-3.6,4.1-7.6,4.7-11.9
				C501.6,304,502,304,501.9,304.2z"/>
			<path class="st6" d="M484.7,313.3c-0.5-0.5-1.3-0.5-1.9,0c-0.5,0.5-0.7,1.1-0.7,1.8c-0.1,0.7,0,1.4,0.1,2.1c0.2,1,0.6,2,0.8,3
				c0.2,1,0.4,2.1,0.4,3.1c0,0,0,0.1,0,0.1s0.2,0,0.2,0c0.4-0.4,0.8-0.8,1.2-1.2c1.4-1.6,2.3-3.5,2.5-5.6c0.2-0.9,0.1-1.9-0.3-2.7
				c-0.1-0.2-0.2-0.3-0.4-0.3c-0.2,0-0.3,0-0.4,0.1c0-0.1-0.1-0.3-0.1-0.4C485.8,312.6,485.1,312.8,484.7,313.3z"/>
			<path class="st7" d="M485.3,315.3c0.3,2.8-0.3,5.6-1.5,8.1c-0.2,0.3-0.6,0.1-0.5-0.2c1.2-2.4,1.8-5.1,1.7-7.9
				C485,315.2,485.2,315.2,485.3,315.3z"/>
			<path class="st6" d="M518.2,302.4c-0.2-0.5-0.8-0.8-1.4-0.5c-0.5,0.3-0.8,0.7-1,1.2c-0.2,0.5-0.4,1.1-0.5,1.6
				c-0.2,0.8-0.1,1.7-0.3,2.5c-0.1,0.9-0.3,1.7-0.6,2.5c0,0,0,0.1,0,0.1c0,0.1,0.1,0.1,0.2,0c0.4-0.2,0.8-0.4,1.2-0.6
				c1.5-0.8,2.7-2.1,3.5-3.6c0.4-0.7,0.6-1.4,0.6-2.2c0-0.1-0.1-0.3-0.2-0.4c-0.1-0.1-0.2-0.1-0.3,0c0-0.1,0-0.2,0-0.3
				C519.2,302.2,518.7,302.1,518.2,302.4z"/>
			<path class="st7" d="M518.1,304.1c-0.6,2.2-1.8,4.2-3.4,5.8c-0.2,0.2-0.5-0.1-0.3-0.3c1.6-1.6,2.8-3.5,3.5-5.6
				C517.9,304,518.1,304,518.1,304.1z"/>
			<path class="st6" d="M528.3,302c-0.2-0.4-0.6-0.5-0.9-0.4c-0.3,0.2-0.6,0.5-0.7,0.8c-0.2,0.4-0.3,0.7-0.4,1.1
				c-0.1,0.6-0.1,1.2-0.2,1.8c-0.1,0.6-0.3,1.2-0.5,1.8c0,0,0,0,0,0.1c0,0,0.1,0,0.1,0c0.3-0.1,0.6-0.2,0.9-0.4
				c1.1-0.5,1.9-1.4,2.5-2.4c0.3-0.5,0.4-1,0.4-1.5c0-0.1-0.1-0.2-0.1-0.2c-0.1,0-0.2,0-0.2,0c0-0.1,0-0.2,0-0.2
				C529.1,301.9,528.7,301.9,528.3,302z"/>
			<path class="st7" d="M528.2,303.2c-0.5,1.5-1.3,2.9-2.5,4c-0.2,0.1-0.4-0.1-0.2-0.2c1.1-1.1,2-2.4,2.6-3.8
				C528.1,303.2,528.1,303.1,528.2,303.2C528.2,303.2,528.2,303.2,528.2,303.2z"/>
			<path class="st6" d="M427.5,367.3c-0.7-0.2-1.4,0.2-1.7,0.8c-0.2,0.6-0.1,1.3,0.2,1.9c0.2,0.6,0.6,1.2,1,1.8
				c0.6,0.8,1.4,1.5,2.1,2.2c0.7,0.8,1.3,1.7,1.8,2.6c0,0,0,0.1,0.1,0.1s0.1-0.1,0.2-0.1c0.2-0.5,0.4-1.1,0.5-1.6
				c0.6-2,0.5-4.1-0.2-6c-0.3-0.9-0.8-1.7-1.5-2.2c-0.2-0.1-0.3-0.1-0.5-0.1c-0.2,0-0.3,0.2-0.3,0.3c-0.1-0.1-0.2-0.2-0.3-0.3
				C428.2,366.2,427.7,366.7,427.5,367.3z"/>
			<path class="st7" d="M428.9,368.8c1.5,2.3,2.3,5,2.3,7.7c0,0.1-0.1,0.3-0.2,0.3s-0.3-0.1-0.3-0.2c0,0,0-0.1,0-0.1
				c0-2.7-0.7-5.3-2-7.6C428.7,368.8,428.9,368.7,428.9,368.8z"/>
			<path class="st6" d="M485.9,339.4c-0.2-0.2-0.3-0.4-0.5-0.6c0.3-0.1,0.5-0.3,0.6-0.6c0.1-0.3,0-0.7-0.2-1c-1.1-1.4-2.6-2.4-4.3-3
				c-3.7-1.4-7.8-1.5-11.6-0.2c-1.1,0.3-2.1,0.7-3.1,1.2c-0.2,0.1-0.4,0.2-0.3,0.4c0,0.1,0.1,0.1,0.2,0.1c1.8,0.9,3.6,1.9,5.2,3.2
				c1.6,1.2,2.9,2.6,4.5,3.8c1.1,0.8,2.2,1.4,3.5,1.9c1.1,0.6,2.4,0.7,3.5,0.4c1.2-0.6,1.7-1.9,1.3-3.2
				C485.8,341.5,486.7,340.6,485.9,339.4z"/>
			<path class="st7" d="M481.8,339.1c-4.5-2.9-9.8-4.3-15.1-4c-0.3,0-0.5,0.2-0.5,0.5s0.2,0.5,0.5,0.5c5.2-0.3,10.3,0.9,14.9,3.4
				C481.8,339.5,481.9,339.2,481.8,339.1z"/>
			<path class="st6" d="M456.2,367.2c-0.2-0.2-0.4-0.3-0.7-0.4c0.2-0.2,0.4-0.4,0.4-0.7c0-0.3-0.2-0.6-0.5-0.9
				c-1.3-1.1-3.3-1.4-5-1.5c-4-0.2-8,0.9-11.2,3.2c-0.9,0.6-1.8,1.3-2.6,2.1c-0.1,0.1-0.3,0.3-0.1,0.5c0.1,0.1,0.1,0.1,0.2,0.1
				c2,0.3,4.1,0.8,6,1.4c1.9,0.6,3.6,1.6,5.5,2.2c1.3,0.4,2.6,0.7,3.9,0.8c1.2,0.2,2.5,0,3.5-0.6c0.9-0.9,1.1-2.4,0.3-3.4
				C456.8,369.3,457.4,368.1,456.2,367.2z"/>
			<path class="st7" d="M452.2,368.1c-5.2-1.4-10.7-1.2-15.7,0.6c-0.7,0.3-0.4,1.2,0.3,0.9c4.9-1.8,10.2-2.2,15.3-1.2
				C452.3,368.5,452.4,368.2,452.2,368.1z"/>
			<path class="st6" d="M465.3,348.2c-0.1-0.1-0.2-0.2-0.3-0.3c0.2-0.1,0.3-0.2,0.3-0.4c0-0.2-0.1-0.4-0.2-0.5
				c-0.8-0.7-1.7-1.1-2.7-1.2c-2.2-0.4-4.5-0.1-6.5,0.9c-0.6,0.3-1.1,0.6-1.6,0.9c-0.1,0-0.2,0.2-0.1,0.2c0,0,0.1,0.1,0.1,0.1
				c1.1,0.3,2.1,0.8,3.1,1.3c1,0.5,1.8,1.2,2.8,1.7c0.7,0.3,1.4,0.6,2.1,0.7c0.7,0.2,1.4,0.2,2-0.1c0.6-0.4,0.8-1.2,0.5-1.9
				C465.4,349.4,465.9,348.8,465.3,348.2z"/>
			<path class="st7" d="M463,348.4c-2.7-1.2-5.8-1.5-8.7-0.9c-0.1,0-0.3,0.1-0.2,0.3s0.1,0.3,0.3,0.2c0,0,0,0,0.1,0
				c2.8-0.6,5.8-0.4,8.5,0.6C463,348.7,463.1,348.5,463,348.4z"/>
			<path class="st6" d="M519,315.4c-0.1-0.1-0.2-0.2-0.3-0.3c0.2,0,0.3-0.2,0.3-0.3c0-0.2,0-0.4-0.1-0.5c-0.6-0.8-1.4-1.4-2.3-1.8
				c-2-0.9-4.3-1.1-6.5-0.6c-0.6,0.1-1.2,0.3-1.8,0.5c-0.1,0-0.2,0.1-0.2,0.2s0,0.1,0.1,0.1c1,0.6,1.9,1.3,2.8,2
				c0.8,0.7,1.5,1.6,2.4,2.3c0.6,0.5,1.2,0.9,1.9,1.2c0.6,0.4,1.3,0.5,2,0.3c0.7-0.3,1.1-1,0.9-1.7
				C518.9,316.6,519.5,316.1,519,315.4z"/>
			<path class="st7" d="M516.7,315.1c-2.4-1.8-5.3-2.8-8.2-2.8c-0.1,0-0.3,0.1-0.3,0.3c0,0.1,0.1,0.3,0.3,0.3
				c2.9,0.1,5.7,0.9,8.1,2.5C516.7,315.3,516.8,315.2,516.7,315.1z"/>
			<path class="st6" d="M528.5,311.5c0-0.1-0.1-0.2-0.1-0.2c0.1,0,0.2-0.1,0.2-0.2c0-0.1,0-0.2,0-0.4c-0.3-0.6-0.7-1.1-1.3-1.4
				c-1.2-0.8-2.7-1.2-4.1-1.1c-0.4,0-0.8,0.1-1.2,0.1c-0.1,0-0.2,0-0.1,0.1l0,0.1c0.6,0.5,1.1,1,1.6,1.6c0.5,0.6,0.8,1.2,1.3,1.8
				c0.3,0.4,0.7,0.7,1.1,1c0.3,0.3,0.8,0.5,1.2,0.5c0.5-0.1,0.8-0.6,0.8-1C528.2,312.3,528.7,312,528.5,311.5z"/>
			<path class="st7" d="M527,311c-1.3-1.4-3.1-2.4-5-2.8c-0.3,0-0.3,0.3-0.1,0.4c1.9,0.4,3.6,1.3,5,2.6
				C526.9,311.2,527,311.1,527,311z"/>
			<path class="st6" d="M507.3,326.5c-0.1-0.2-0.3-0.4-0.5-0.6c0.3,0,0.5-0.3,0.6-0.5c0.1-0.3,0-0.7-0.1-1c-1-1.5-2.4-2.6-4-3.3
				c-3.6-1.7-7.6-2.2-11.5-1.3c-1.1,0.2-2.2,0.5-3.2,0.9c-0.2,0.1-0.4,0.2-0.3,0.4s0.1,0.1,0.2,0.1c1.8,1.1,3.4,2.3,4.9,3.6
				c1.5,1.3,2.7,2.9,4.2,4.2c1,0.9,2.1,1.6,3.3,2.2c1,0.7,2.3,0.9,3.5,0.7c1.2-0.5,1.9-1.8,1.6-3.1C507,328.7,508,327.8,507.3,326.5
				z"/>
			<path class="st7" d="M503.3,325.9c-4.2-3.3-9.3-5.2-14.6-5.4c-0.7,0-0.8,1-0.1,1c5.2,0.2,10.2,1.9,14.4,4.7
				C503.2,326.3,503.4,326,503.3,325.9z"/>
			<path class="st7" d="M427.5,387.1c4.5-10,10.3-19.4,17.1-28c6.9-8.8,14.7-16.7,23.4-23.7c2.2-1.8,4.3-3.5,6.6-5.1
				c2.7-1.9,4.1-2.9,6.9-4.7s4.3-2.6,7.2-4.2c1.2-0.7,2.4-1.4,3.7-2c1.5-0.7,2.2-1.1,3.7-1.8c9.9-4.7,20.4-8.2,31.2-10.4l0,0
				c0.2,0,0.4-0.3,0.3-0.5c0-0.2-0.2-0.3-0.4-0.3c0,0,0,0,0,0c-10.9,2.1-21.5,5.5-31.5,10.1c-1.5,0.7-2.3,1-3.8,1.8
				c-1.3,0.6-2.5,1.3-3.7,2c-3,1.6-4.4,2.5-7.3,4.2s-4.2,2.8-7,4.7c-2.4,1.6-4.6,3.3-6.8,5c-8.9,7-16.9,14.9-24,23.7
				c-7.1,8.7-13,18.2-17.7,28.3c-0.3,0.5-0.1,1.2,0.5,1.5c0,0,0,0,0.1,0C426.6,388,427.2,387.8,427.5,387.1L427.5,387.1L427.5,387.1
				z"/>
			<path class="st6" d="M479.2,360.6c-0.1,0-0.2,0-0.3,0c0.1-0.1,0.1-0.2,0-0.4c-0.1-0.1-0.2-0.2-0.3-0.2c-0.7,0-1.4,0.2-2,0.5
				c-1.4,0.8-2.5,1.9-3.2,3.3c-0.2,0.4-0.4,0.8-0.5,1.2c0,0.1,0,0.2,0,0.2h0.1c0.8-0.2,1.5-0.4,2.3-0.5c0.8-0.1,1.5-0.1,2.3-0.2
				c0.5-0.1,1-0.3,1.5-0.5c0.5-0.2,0.9-0.5,1.1-1c0.2-0.5-0.1-1.1-0.5-1.4C479.8,361.2,479.8,360.7,479.2,360.6z"/>
			<path class="st7" d="M478.1,361.8c-2,0.6-3.8,1.7-5.2,3.2c-0.2,0.2,0.1,0.5,0.3,0.3c1.4-1.5,3.1-2.6,5-3.3
				C478.2,361.9,478.1,361.8,478.1,361.8z"/>
			<path class="st6" d="M478,371.3c-0.1,0-0.2,0-0.3,0c0.1-0.1,0.1-0.2,0-0.3c-0.1-0.1-0.2-0.2-0.3-0.2c-0.7-0.1-1.4,0-2,0.4
				c-1.4,0.6-2.6,1.7-3.4,3c-0.2,0.4-0.5,0.7-0.6,1.1c0,0.1,0,0.2,0,0.2h0.1c0.8-0.2,1.6-0.3,2.4-0.3c0.8,0,1.5,0.1,2.3,0
				c0.5,0,1-0.2,1.5-0.4c0.5-0.1,0.9-0.4,1.1-0.9c0.2-0.5,0-1.1-0.4-1.4C478.6,372,478.6,371.5,478,371.3z"/>
			<path class="st7" d="M476.8,372.4c-2,0.4-3.9,1.3-5.5,2.7c-0.2,0.2,0,0.5,0.2,0.3c1.5-1.3,3.3-2.3,5.3-2.8
				C476.9,372.6,476.9,372.4,476.8,372.4z"/>
			<path class="st6" d="M474.8,341.3c-0.1,0-0.2,0.1-0.2,0.1c0-0.1,0-0.2-0.1-0.2c-0.1,0-0.2,0-0.3,0c-0.5,0.3-1,0.6-1.2,1.1
				c-0.7,1.1-1.1,2.3-1.2,3.6c0,0.4,0,0.7,0,1.1c0,0,0,0.1,0.1,0.1s0,0,0.1,0c0.5-0.5,1-0.9,1.5-1.3c0.5-0.4,1.1-0.6,1.6-1
				c0.3-0.3,0.6-0.6,0.9-0.9c0.3-0.3,0.4-0.7,0.4-1.1c0-0.4-0.5-0.8-0.9-0.8C475.4,341.5,475.2,341.1,474.8,341.3z"/>
			<path class="st7" d="M474.3,342.6c-1.3,1.2-2.2,2.6-2.7,4.3c-0.1,0.2,0.2,0.3,0.3,0.1c0.5-1.6,1.4-3.1,2.5-4.3
				C474.5,342.7,474.4,342.6,474.3,342.6z"/>
			<path class="st6" d="M475.3,349.6h-0.1c0-0.1,0-0.1-0.1-0.2c-0.1,0-0.1-0.1-0.2,0c-0.3,0.1-0.7,0.3-0.9,0.6
				c-0.6,0.6-0.9,1.3-1,2.1c0,0.2-0.1,0.4-0.1,0.7c0,0,0,0.1,0,0.1l0,0c0.3-0.2,0.7-0.5,1.1-0.6c0.4-0.2,0.7-0.3,1.1-0.5
				c0.2-0.1,0.5-0.3,0.6-0.5c0.2-0.2,0.4-0.4,0.4-0.6c0-0.3-0.2-0.5-0.5-0.6C475.7,349.8,475.6,349.5,475.3,349.6z"/>
			<path class="st7" d="M474.9,350.4c-0.9,0.6-1.6,1.4-2.1,2.4c0,0,0,0.1,0,0.1c0,0,0.1,0,0.1,0c0,0,0,0,0,0
				C473.5,351.9,474.2,351.1,474.9,350.4C475,350.4,475,350.3,474.9,350.4z"/>
			<path class="st6" d="M470.6,337l-0.1,0.1c0-0.1,0-0.1-0.1-0.1c0,0-0.1,0-0.1,0c-0.2,0.2-0.4,0.4-0.5,0.7
				c-0.3,0.6-0.4,1.3-0.3,1.9c0,0.2,0.1,0.4,0.1,0.5c0,0,0,0.1,0.1,0l0,0c0.2-0.3,0.4-0.5,0.6-0.8c0.2-0.2,0.5-0.4,0.7-0.7
				c0.1-0.2,0.3-0.4,0.4-0.5c0.1-0.2,0.2-0.4,0.1-0.6c-0.1-0.2-0.3-0.3-0.5-0.3C471,337,470.8,336.8,470.6,337z"/>
			<path class="st7" d="M470.5,337.6c-0.5,0.7-0.9,1.5-1,2.4c0,0.1,0.1,0.1,0.1,0C469.8,339.2,470.1,338.4,470.5,337.6
				C470.5,337.7,470.5,337.6,470.5,337.6z"/>
			<path class="st6" d="M468.4,333.9L468.4,333.9c-0.1,0-0.1,0-0.1,0c0,0-0.1,0-0.1,0c-0.2,0.1-0.3,0.3-0.4,0.5
				c-0.2,0.4-0.2,0.9-0.1,1.3c0,0.1,0.1,0.2,0.1,0.4l0,0l0,0c0.1-0.2,0.3-0.4,0.4-0.6c0.1-0.2,0.3-0.3,0.5-0.5
				c0.1-0.1,0.2-0.3,0.2-0.4c0.1-0.1,0.1-0.3,0.1-0.4c-0.1-0.1-0.2-0.2-0.4-0.2C468.7,333.9,468.6,333.8,468.4,333.9z"/>
			<path class="st7" d="M468.4,334.4c-0.4,0.5-0.6,1.1-0.6,1.7c0,0,0,0.1,0,0.1c0,0,0.1,0,0.1,0c0,0,0,0,0,0
				C467.9,335.5,468.1,334.9,468.4,334.4C468.4,334.4,468.4,334.3,468.4,334.4z"/>
			<path class="st6" d="M472.8,379.9c-0.1,0-0.1,0-0.2,0c0-0.1,0-0.1,0-0.2c0-0.1-0.1-0.1-0.1-0.1c-0.4-0.1-0.7,0-1,0.1
				c-0.8,0.2-1.4,0.7-1.9,1.4c-0.1,0.2-0.3,0.4-0.4,0.5c0,0,0,0.1,0,0.1l0,0c0.4-0.1,0.8-0.1,1.2-0.1c0.4,0,0.8,0.1,1.2,0.1
				c0.3,0,0.5,0,0.8-0.1c0.3,0,0.5-0.2,0.6-0.4c0.1-0.2,0.1-0.5-0.2-0.7C473,380.2,473,379.9,472.8,379.9z"/>
			<path class="st7" d="M472.1,380.3c-1.1,0.1-2.1,0.5-2.9,1.1c-0.1,0.1,0,0.2,0.1,0.2C470.1,381,471,380.6,472.1,380.3
				C472.1,380.4,472.1,380.3,472.1,380.3z"/>
			<path class="st6" d="M467,356.9c-0.5,0.2-0.8,0.7-0.7,1.2c0.2,0.5,0.5,0.8,1,1c0.4,0.3,0.9,0.5,1.4,0.6c0.7,0.2,1.5,0.3,2.2,0.5
				c0.8,0.2,1.5,0.5,2.2,0.8h0.1c0.1,0,0.1-0.1,0-0.2c-0.1-0.4-0.2-0.8-0.4-1.2c-0.5-1.5-1.5-2.7-2.9-3.5c-0.6-0.4-1.2-0.6-1.9-0.6
				c-0.1,0-0.2,0.1-0.3,0.2c-0.1,0.1-0.1,0.2,0,0.3c-0.1,0-0.2,0-0.3,0C466.9,356,466.8,356.5,467,356.9z"/>
			<path class="st7" d="M468.5,357.1c2,0.7,3.7,1.9,4.8,3.6c0.2,0.2-0.1,0.5-0.3,0.2c-1.2-1.6-2.7-2.9-4.6-3.7
				C468.4,357.2,468.4,357.1,468.5,357.1z"/>
			<path class="st6" d="M465.3,372.4c-0.5,0-1,0.4-1,0.9c0,0.5,0.3,0.9,0.6,1.2c0.3,0.4,0.7,0.7,1.2,1c0.6,0.4,1.3,0.7,2,1.1
				c0.7,0.4,1.3,0.9,1.9,1.5c0,0,0,0,0.1,0c0.1,0,0.1-0.1,0.1-0.1c0-0.4,0-0.9,0-1.3c-0.1-1.6-0.7-3-1.7-4.2c-0.4-0.5-1-1-1.7-1.2
				c-0.1,0-0.3,0-0.4,0.1c-0.1,0.1-0.2,0.2-0.1,0.3c-0.1,0-0.2-0.1-0.3-0.1C465.5,371.5,465.3,372,465.3,372.4z"/>
			<path class="st7" d="M466.7,373.1c1.7,1.2,2.9,3,3.5,5c0.1,0.1,0,0.2-0.1,0.3c-0.1,0.1-0.2,0-0.3-0.1c0,0,0-0.1,0-0.1
				c-0.6-1.9-1.8-3.6-3.3-4.9C466.5,373.1,466.6,373,466.7,373.1z"/>
			<path class="st6" d="M469.3,364.8c-0.3,0.1-0.5,0.3-0.5,0.6c0.1,0.3,0.2,0.5,0.4,0.6c0.2,0.2,0.5,0.3,0.7,0.5
				c0.4,0.2,0.8,0.3,1.2,0.5c0.4,0.2,0.8,0.4,1.1,0.6l0,0c0,0,0-0.1,0-0.1c0-0.2-0.1-0.5-0.1-0.7c-0.2-0.8-0.6-1.6-1.3-2.2
				c-0.3-0.3-0.6-0.5-1-0.5c-0.1,0-0.2,0-0.2,0.1c0,0-0.1,0.1,0,0.2h-0.2C469.3,364.3,469.3,364.6,469.3,364.8z"/>
			<path class="st7" d="M470.1,365.1c1,0.6,1.8,1.4,2.4,2.4c0.1,0.1-0.1,0.2-0.2,0.1C471.8,366.6,471,365.8,470.1,365.1
				C470,365.1,470.1,365,470.1,365.1z"/>
			<path class="st6" d="M466.6,340.6c-0.3,0.1-0.4,0.4-0.3,0.7c0.1,0.2,0.3,0.4,0.6,0.5c0.3,0.1,0.5,0.2,0.8,0.3
				c0.4,0.1,0.8,0.1,1.3,0.2c0.4,0.1,0.9,0.2,1.3,0.4h0c0,0,0-0.1,0-0.1c-0.1-0.2-0.2-0.5-0.3-0.7c-0.4-0.8-1-1.4-1.7-1.8
				c-0.3-0.2-0.7-0.3-1.1-0.3c-0.1,0-0.1,0-0.2,0.1c0,0.1,0,0.1,0,0.2h-0.2C466.5,340.1,466.5,340.4,466.6,340.6z"/>
			<path class="st7" d="M467.5,340.7c1.1,0.3,2.1,1,2.8,1.8c0.1,0.1,0,0.3-0.1,0.1C469.4,341.8,468.5,341.2,467.5,340.7
				C467.5,340.8,467.4,340.7,467.5,340.7z"/>
			<path class="st6" d="M465.7,336.6c-0.2,0.1-0.2,0.3-0.1,0.5c0.1,0.1,0.3,0.2,0.4,0.3c0.2,0,0.4,0.1,0.6,0.1c0.3,0,0.6,0,0.9,0
				c0.3,0,0.6,0,0.9,0.1l0,0c0,0,0,0,0-0.1c-0.1-0.1-0.2-0.3-0.2-0.4c-0.3-0.5-0.8-0.8-1.3-1c-0.2-0.1-0.5-0.1-0.7-0.1
				c0,0-0.1,0-0.1,0.1c0,0,0,0.1,0,0.1h-0.1C465.6,336.3,465.6,336.5,465.7,336.6z"/>
			<path class="st7" d="M466.3,336.6c0.8,0.1,1.5,0.4,2.1,0.9c0.1,0.1,0,0.2-0.1,0.1C467.7,337.1,467,336.8,466.3,336.6
				C466.2,336.6,466.2,336.6,466.3,336.6z"/>
			<path class="st6" d="M465.9,347.3c-0.5,0.2-0.7,0.7-0.5,1.2c0.2,0.4,0.6,0.7,1,0.9c0.5,0.2,1,0.4,1.5,0.5
				c0.8,0.1,1.5,0.1,2.3,0.3c0.8,0.1,1.5,0.4,2.3,0.6c0,0,0.1,0,0.1,0c0.1,0,0-0.1,0-0.2c-0.1-0.4-0.3-0.8-0.5-1.2
				c-0.7-1.4-1.8-2.5-3.1-3.2c-0.6-0.3-1.3-0.5-2-0.4c-0.1,0-0.2,0.1-0.3,0.2c-0.1,0.1-0.1,0.2,0,0.3c-0.1,0-0.2,0-0.3,0
				C465.7,346.4,465.6,346.9,465.9,347.3z"/>
			<path class="st7" d="M467.4,347.4c2,0.5,3.8,1.6,5.1,3.2c0.2,0.2-0.1,0.5-0.3,0.3c-1.3-1.5-3-2.7-4.9-3.3
				C467.3,347.5,467.3,347.4,467.4,347.4z"/>
			<path class="st7" d="M466.8,385.2c2-3.8,3.5-7.8,4.5-11.9c1-4.2,1.6-8.5,1.6-12.8c0-1.1,0-2.2,0-3.2c-0.1-1.3-0.1-2-0.2-3.2
				s-0.2-1.9-0.4-3.2c-0.1-0.5-0.1-1.1-0.3-1.6l-0.4-1.6c-0.9-4.2-2.4-8.2-4.3-12l0,0c0-0.1,0-0.2,0.1-0.2c0,0,0,0,0,0
				c0.1,0,0.2,0,0.2,0.1c2,3.8,3.4,7.9,4.4,12c0.1,0.6,0.2,1,0.4,1.6s0.2,1.1,0.3,1.6c0.2,1.3,0.3,1.9,0.5,3.2s0.2,2,0.2,3.3
				c0.1,1.1,0.1,2.2,0.1,3.3c0,4.4-0.5,8.7-1.5,13c-1,4.2-2.4,8.3-4.4,12.2c-0.1,0.2-0.4,0.3-0.6,0.2c0,0,0,0,0,0
				C466.7,385.7,466.7,385.4,466.8,385.2L466.8,385.2L466.8,385.2z"/>
			<path class="st6" d="M476.4,366.6c-0.4,0-0.7,0.3-0.8,0.8c0,0.4,0.1,0.7,0.4,1c0.2,0.3,0.5,0.6,0.8,0.8c0.5,0.3,1,0.5,1.5,0.9
				c0.5,0.3,1,0.6,1.4,1c0,0,0,0,0,0c0,0,0.1-0.1,0.1-0.1c0-0.3,0-0.7,0-1c0-1.2-0.4-2.3-1.1-3.2c-0.3-0.4-0.7-0.8-1.1-1
				c-0.1,0-0.2,0-0.3,0c-0.1,0.1-0.1,0.1-0.1,0.2l-0.2-0.1C476.6,365.8,476.4,366.2,476.4,366.6z"/>
			<path class="st7" d="M477.4,367.1c1.2,1,2,2.3,2.5,3.8c0.1,0.2-0.2,0.3-0.3,0.1C479.1,369.6,478.4,368.3,477.4,367.1
				C477.3,367.2,477.4,367.1,477.4,367.1z"/>
			<path class="st6" d="M473.9,374.2c-0.4,0.1-0.7,0.4-0.7,0.8c0,0.4,0.2,0.8,0.5,1c0.3,0.3,0.6,0.5,0.9,0.7c0.5,0.3,1,0.5,1.5,0.7
				c0.5,0.3,1,0.6,1.5,0.9h0.1c0,0,0.1-0.1,0.1-0.1c0-0.3,0-0.7-0.1-1c-0.1-1.1-0.6-2.2-1.4-3.1c-0.3-0.4-0.7-0.7-1.2-0.9
				c-0.1,0-0.2,0-0.3,0.1c-0.1,0.1-0.1,0.1-0.1,0.2c-0.1,0-0.1-0.1-0.2-0.1C474,373.4,473.8,373.8,473.9,374.2z"/>
			<path class="st7" d="M474.9,374.6c1.2,0.9,2.2,2.1,2.8,3.5c0.1,0.2-0.2,0.3-0.2,0.1c-0.6-1.4-1.5-2.6-2.6-3.5
				C474.8,374.7,474.9,374.6,474.9,374.6z"/>
			<path class="st6" d="M485.5,354.7c-0.3-0.1-0.6,0-0.8,0.2c-0.1,0.3-0.2,0.6-0.1,0.9c0.1,0.3,0.2,0.6,0.3,0.9
				c0.2,0.4,0.5,0.8,0.7,1.2c0.2,0.4,0.4,0.9,0.6,1.3l0,0c0,0,0.1,0,0.1-0.1c0.1-0.2,0.2-0.5,0.3-0.7c0.4-0.9,0.5-1.8,0.4-2.8
				c0-0.4-0.2-0.8-0.5-1.2c-0.1-0.1-0.1-0.1-0.2-0.1c-0.1,0-0.1,0.1-0.2,0.1c0-0.1-0.1-0.1-0.1-0.1
				C485.8,354.2,485.6,354.4,485.5,354.7z"/>
			<path class="st7" d="M486,355.5c0.5,1.2,0.6,2.5,0.5,3.7c0,0.2-0.2,0.1-0.2,0C486.4,358,486.3,356.7,486,355.5
				C485.8,355.5,485.9,355.4,486,355.5z"/>
			<path class="st6" d="M482.7,360c-0.2-0.1-0.4,0.1-0.5,0.2c-0.1,0.2-0.1,0.4,0,0.5c0.1,0.2,0.2,0.4,0.3,0.5
				c0.2,0.2,0.4,0.4,0.6,0.7c0.2,0.2,0.4,0.5,0.5,0.8l0,0c0,0,0,0,0.1,0c0.1-0.2,0.1-0.3,0.1-0.5c0.2-0.6,0.1-1.2-0.1-1.8
				c-0.1-0.3-0.2-0.5-0.4-0.7c0,0-0.1,0-0.1,0c0,0-0.1,0-0.1,0.1l-0.1-0.1C482.9,359.7,482.8,359.9,482.7,360z"/>
			<path class="st7" d="M483.1,360.5c0.4,0.7,0.7,1.5,0.7,2.3c0,0.1-0.1,0.1-0.1,0C483.6,362,483.4,361.2,483.1,360.5
				C483,360.5,483.1,360.5,483.1,360.5z"/>
			<path class="st6" d="M489.9,352.9c-0.1-0.1-0.3-0.1-0.4,0c-0.1,0.1-0.1,0.3-0.1,0.5c0,0.2,0,0.3,0.1,0.5c0.1,0.2,0.2,0.5,0.2,0.7
				c0.1,0.2,0.1,0.5,0.2,0.7l0,0c0,0,0,0,0,0c0.1-0.1,0.2-0.2,0.2-0.3c0.3-0.4,0.4-0.9,0.4-1.4c0-0.2,0-0.4-0.1-0.6
				c0,0-0.1-0.1-0.1-0.1c0,0-0.1,0-0.1,0v-0.1C490.1,352.7,490,352.8,489.9,352.9z"/>
			<path class="st7" d="M490.1,353.4c0.1,0.6,0.1,1.3-0.1,1.9c0,0.1-0.1,0-0.1,0C490,354.7,490.1,354.1,490.1,353.4
				C490,353.4,490.1,353.4,490.1,353.4z"/>
			<path class="st6" d="M492.4,351.5c-0.1-0.1-0.2-0.1-0.3,0c-0.1,0.1-0.1,0.2-0.1,0.3c0,0.1,0,0.2,0,0.3c0,0.2,0.1,0.3,0.2,0.5
				c0.1,0.2,0.1,0.3,0.1,0.5l0,0l0,0c0.1-0.1,0.1-0.1,0.2-0.2c0.2-0.3,0.3-0.6,0.3-1c0-0.2,0-0.3-0.1-0.5c0,0,0,0-0.1,0
				c0,0,0,0-0.1,0v-0.1C492.6,351.4,492.5,351.4,492.4,351.5z"/>
			<path class="st7" d="M492.5,351.9c0.1,0.5,0,0.9-0.1,1.4c0,0-0.1,0-0.1,0C492.5,352.8,492.6,352.3,492.5,351.9
				C492.5,351.9,492.5,351.8,492.5,351.9z"/>
			<path class="st6" d="M475,381.2c-0.2,0.1-0.3,0.2-0.3,0.4c0,0.2,0.1,0.3,0.3,0.5c0.1,0.1,0.3,0.2,0.5,0.3
				c0.3,0.1,0.5,0.2,0.8,0.3c0.3,0.1,0.5,0.3,0.8,0.4l0,0c0,0,0,0,0-0.1c0-0.2,0-0.3-0.1-0.5c-0.1-0.6-0.4-1.1-0.8-1.5
				c-0.2-0.2-0.4-0.3-0.7-0.4c0,0-0.1,0-0.1,0c0,0,0,0.1,0,0.1h-0.1C475,380.9,475,381.1,475,381.2z"/>
			<path class="st7" d="M475.6,381.4c0.7,0.4,1.2,1,1.6,1.7c0,0,0,0.1,0,0.1s-0.1,0-0.1,0C476.7,382.5,476.2,381.9,475.6,381.4
				C475.5,381.5,475.5,381.4,475.6,381.4z"/>
			<path class="st6" d="M486.4,366.6c-0.1,0-0.1-0.1-0.2-0.1c0.1-0.1,0.1-0.1,0.1-0.2c0-0.1-0.1-0.2-0.2-0.2c-0.5-0.2-1-0.3-1.5-0.2
				c-1.1,0.1-2.2,0.6-3,1.4c-0.2,0.2-0.5,0.5-0.6,0.7c0,0-0.1,0.1,0,0.1h0.1c0.6,0,1.2,0,1.8,0.1c0.5,0.1,1.1,0.3,1.6,0.4
				c0.4,0,0.8,0,1.1,0c0.4,0,0.7-0.1,1-0.4c0.2-0.3,0.2-0.7-0.1-1C486.6,367.1,486.7,366.8,486.4,366.6z"/>
			<path class="st7" d="M485.3,367c-1.5-0.2-3.1,0.1-4.4,0.9c-0.2,0.1-0.1,0.4,0.1,0.2c1.3-0.7,2.8-1.1,4.2-1
				C485.3,367.1,485.3,367,485.3,367z"/>
			<path class="st6" d="M482.3,377.5c-0.1,0-0.1,0-0.2,0c0-0.1,0-0.2,0-0.2c-0.1-0.1-0.1-0.1-0.2-0.2c-0.5-0.1-1,0-1.5,0.3
				c-1,0.5-1.9,1.3-2.5,2.3c-0.2,0.3-0.3,0.6-0.4,0.9c0,0,0,0.1,0,0.1c0,0,0,0,0.1,0c0.6-0.2,1.1-0.3,1.7-0.4c0.6-0.1,1.1,0,1.7-0.1
				c0.4-0.1,0.7-0.2,1.1-0.3c0.3-0.1,0.6-0.3,0.8-0.6c0.1-0.4,0-0.7-0.4-0.9C482.8,378,482.8,377.6,482.3,377.5z"/>
			<path class="st7" d="M481.4,378.3c-1.5,0.3-2.9,1.1-3.9,2.2c-0.1,0.1,0.1,0.4,0.2,0.2c1-1.1,2.3-1.9,3.8-2.3
				C481.5,378.4,481.5,378.2,481.4,378.3z"/>
			<path class="st6" d="M482.2,371.5h-0.1c0,0,0-0.1,0-0.1c0,0-0.1-0.1-0.1-0.1c-0.3-0.1-0.6-0.1-0.8,0c-0.6,0.2-1.2,0.5-1.5,1
				c-0.1,0.1-0.2,0.3-0.3,0.5c0,0,0,0.1,0,0.1l0,0c0.3-0.1,0.7-0.1,1-0.1c0.3,0,0.6,0.1,0.9,0.1c0.2,0,0.4,0,0.6-0.1
				c0.2,0,0.4-0.1,0.5-0.3c0.1-0.2,0-0.4-0.1-0.5C482.4,371.8,482.5,371.5,482.2,371.5z"/>
			<path class="st7" d="M481.7,371.8c-0.9,0-1.7,0.4-2.3,0.9c-0.1,0.1,0,0.2,0.1,0.1C480.1,372.3,480.8,372,481.7,371.8
				C481.7,371.9,481.7,371.8,481.7,371.8z"/>
			<path class="st6" d="M491.8,356.1l-0.1,0c0,0,0.1-0.1,0-0.1c0-0.1,0-0.1-0.1-0.1c-0.3-0.1-0.5-0.2-0.8-0.1
				c-0.6,0-1.2,0.3-1.7,0.7c-0.1,0.1-0.3,0.2-0.4,0.4c0,0,0,0.1,0,0.1l0,0c0.3,0,0.7,0.1,1,0.1c0.3,0.1,0.6,0.2,0.9,0.3
				c0.2,0,0.4,0.1,0.6,0.1c0.2,0,0.4,0,0.5-0.2c0.1-0.2,0.1-0.4,0-0.5C491.9,356.5,492,356.3,491.8,356.1z"/>
			<path class="st7" d="M491.1,356.4c-0.8-0.1-1.7,0-2.5,0.3c-0.1,0,0,0.2,0.1,0.1C489.5,356.5,490.3,356.4,491.1,356.4L491.1,356.4
				z"/>
			<path class="st6" d="M493.7,353.9L493.7,353.9c-0.1-0.1-0.1-0.1-0.1-0.1c0,0,0-0.1,0-0.1c-0.2-0.1-0.3-0.2-0.5-0.2
				c-0.4-0.1-0.8,0-1.2,0.2c-0.1,0.1-0.2,0.1-0.3,0.2l0,0c0.2,0.1,0.4,0.1,0.6,0.2c0.2,0.1,0.4,0.2,0.5,0.3c0.1,0.1,0.3,0.1,0.4,0.1
				c0.1,0,0.3,0,0.4,0c0.1-0.1,0.1-0.2,0.1-0.4C493.7,354.2,493.8,354,493.7,353.9z"/>
			<path class="st7" d="M493.2,354c-0.5-0.2-1.1-0.2-1.6-0.1c-0.1,0,0,0.1,0,0.1C492.1,353.9,492.7,353.9,493.2,354
				C493.2,354,493.3,354,493.2,354z"/>
			<path class="st6" d="M490.2,360.5l-0.2-0.1c0.1-0.1,0.1-0.1,0.1-0.2c0-0.1-0.1-0.2-0.1-0.2c-0.4-0.3-1-0.4-1.5-0.3
				c-1.1,0-2.2,0.4-3.1,1.1c-0.3,0.2-0.5,0.4-0.7,0.6c0,0-0.1,0.1,0,0.1s0,0,0.1,0c0.6,0,1.2,0.1,1.7,0.3c0.5,0.1,1,0.4,1.6,0.5
				c0.4,0.1,0.7,0.1,1.1,0.1c0.4,0,0.7,0,1-0.3c0.3-0.3,0.3-0.7,0-1C490.4,361.1,490.5,360.8,490.2,360.5z"/>
			<path class="st7" d="M489.1,360.9c-1.5-0.3-3.1-0.1-4.5,0.5c-0.1,0-0.1,0.1-0.1,0.2s0.1,0.1,0.2,0.1c1.4-0.6,2.8-0.8,4.3-0.6
				C489.1,361,489.1,360.9,489.1,360.9z"/>
			<path class="st7" d="M477.6,386.3c-0.1-3.1,0.1-6.3,0.8-9.4c0.6-3.1,1.6-6.2,3-9.1c0.3-0.7,0.7-1.5,1.1-2.1s0.7-1.3,1.2-2.1
				s0.8-1.2,1.3-2c0.2-0.3,0.4-0.7,0.7-1s0.4-0.6,0.7-0.9c1.9-2.5,4.2-4.7,6.7-6.7l0,0c0,0,0-0.1,0-0.2c0,0,0,0,0,0c0,0-0.1,0-0.1,0
				c-2.5,1.9-4.8,4.2-6.8,6.7c-0.3,0.4-0.5,0.6-0.7,0.9s-0.5,0.7-0.7,1c-0.5,0.8-0.8,1.2-1.3,2s-0.7,1.2-1.2,2.1s-0.7,1.4-1.1,2.2
				c-1.4,2.9-2.4,6-3.1,9.2c-0.7,3.1-1,6.3-0.9,9.5c0,0.2,0.1,0.3,0.3,0.3c0,0,0,0,0,0C477.4,386.7,477.6,386.5,477.6,386.3
				C477.5,386.3,477.5,386.3,477.6,386.3L477.6,386.3L477.6,386.3z"/>
			<path class="st8" d="M175.6,64.4H402c5.9,0,10.7,4.8,10.7,10.7v309.3c0,5.9-4.8,10.7-10.7,10.7H175.6c-5.9,0-10.7-4.8-10.7-10.7
				V75.1C164.9,69.2,169.7,64.4,175.6,64.4z"/>
			<path class="st9" d="M402,65.4c5.4,0,9.7,4.3,9.7,9.7v309.3c0,5.4-4.3,9.7-9.7,9.7H175.6c-5.4,0-9.7-4.3-9.7-9.7V75.2
				c0-5.4,4.3-9.7,9.7-9.7L402,65.4"/>
			<rect x="178.8" y="75.8" class="st2" width="220" height="308"/>
			<path class="st10" d="M323.7,64.4h-69.9l0.7,1.5c1.6,3.2-0.8,6.7-4.5,6.7h-13.2c-1.8,0-3.4,0.9-4.3,2.4l-3.5,6.1
				c-0.4,0.7-0.6,1.6-0.5,2.4c0.4,2.7,2.8,4.7,5.6,4.6h109.5c2.8,0.1,5.2-1.9,5.6-4.6c0.1-0.8-0.1-1.7-0.5-2.4l-3.6-6.1
				c-0.9-1.5-2.6-2.4-4.3-2.3h-13.2c-3.8,0-6.1-3.5-4.5-6.7L323.7,64.4z"/>
			<path class="st11" d="M339.5,71.2h-12.9c-2.8,0-5.2-2.3-5.2-5.2c0-0.7,0.1-1.4,0.4-2l2.7-6.5c0.4-1.1,0.5-2.3,0.2-3.4l-11.1-39.4
				c-0.6-2.2-2.7-3.8-5-3.8h-39.7c-2.3,0-4.4,1.5-5,3.8l-11,39.5c-0.3,1.1-0.2,2.3,0.2,3.4l2.7,6.5c1.1,2.6-0.2,5.7-2.8,6.7
				c-0.6,0.3-1.3,0.4-1.9,0.4h-12.9c-1.8,0-3.5,0.9-4.4,2.5l-4,6.7c-0.5,0.8-0.7,1.7-0.8,2.7l0,0c0,2.8,2.3,5.1,5.1,5.2h109.5
				c2.8,0,5.2-2.3,5.2-5.1c0,0,0,0,0,0l0,0c0-0.9-0.3-1.9-0.8-2.7l-4-6.7C343,72.1,341.3,71.1,339.5,71.2z"/>
			<path class="st12" d="M308.7,11.7c2,0,3.7,1.3,4.2,3.2L324,54.4c0.3,0.9,0.2,2-0.2,2.9l-2.7,6.5c-1.2,3,0.2,6.5,3.2,7.7
				c0.7,0.3,1.5,0.4,2.2,0.4h12.9c1.5,0,2.9,0.8,3.7,2.1l4,6.7c1.3,2.1,0.6,4.8-1.5,6c-0.7,0.4-1.5,0.6-2.3,0.6H234
				c-2.4,0-4.4-2-4.4-4.4c0-0.8,0.2-1.6,0.6-2.3l4.1-6.7c0.8-1.3,2.2-2.1,3.8-2.1H251c3.3,0,5.9-2.7,5.9-6c0-0.8-0.2-1.5-0.4-2.2
				l-2.7-6.5c-0.4-0.9-0.4-1.9-0.2-2.9l11.1-39.4c0.5-1.9,2.3-3.2,4.2-3.2L308.7,11.7 M308.7,10.9h-39.8c-2.3,0-4.4,1.5-5,3.8
				l-11,39.5c-0.3,1.1-0.2,2.3,0.2,3.4l2.7,6.5c1.1,2.6-0.2,5.7-2.8,6.7c-0.6,0.3-1.3,0.4-1.9,0.4h-12.9c-1.8,0-3.5,0.9-4.4,2.5
				l-4,6.7c-1.5,2.4-0.7,5.6,1.7,7.1c0.8,0.5,1.7,0.7,2.6,0.8h109.5c2.8,0,5.2-2.3,5.2-5.1c0-0.9-0.3-1.9-0.8-2.7l-4-6.7
				c-0.9-1.5-2.6-2.5-4.4-2.5h-12.9c-2.8,0-5.2-2.3-5.2-5.1c0-0.7,0.1-1.4,0.4-2l2.7-6.5c0.4-1.1,0.5-2.3,0.2-3.4l-11.1-39.4
				C313,12.5,311,10.9,308.7,10.9L308.7,10.9z"/>
			<path class="st13" d="M348.7,83L348.7,83c0-0.5-0.1-1-0.2-1.4H229.1c-0.1,0.5-0.2,1-0.2,1.4c0,2.8,2.3,5.1,5.1,5.1h109.5
				C346.3,88.1,348.7,85.8,348.7,83C348.7,83,348.7,83,348.7,83z"/>
			<polygon class="st13" points="313,50 264.6,50 264.2,52 313.4,52 			"/>
			<polygon class="st13" points="311,40.2 266.6,40.2 266.2,41.9 311.3,41.9 			"/>
			<polygon class="st13" points="309.3,31.9 268.3,31.9 268,33.3 309.6,33.3 			"/>
			<circle class="st12" cx="288.8" cy="22" r="6.8"/>
			<circle class="st2" cx="288.8" cy="22" r="6.3"/>
			<path class="st14" d="M380.1,193.4h-76.4c-1.6,0-2.9,1.3-2.9,2.9c0,0,0,0,0,0l0,0c0,1.6,1.3,2.9,2.9,2.9c0,0,0,0,0,0h76.4
				c1.6,0,2.9-1.3,2.9-2.9l0,0C383,194.7,381.7,193.4,380.1,193.4z"/>
			<path class="st14" d="M294.3,193.4h-96.8c-1.6,0-2.9,1.3-2.9,2.9c0,0,0,0,0,0l0,0c0,1.6,1.3,2.9,2.9,2.9c0,0,0,0,0,0h96.8
				c1.6,0,2.9-1.3,2.9-2.9c0,0,0,0,0,0l0,0C297.2,194.7,295.9,193.4,294.3,193.4C294.3,193.4,294.3,193.4,294.3,193.4z"/>
			<path class="st14" d="M223.7,205.9h-26.2c-1.6,0-2.9,1.3-2.9,2.9l0,0c0,1.6,1.3,2.9,2.9,2.9c0,0,0,0,0,0h26.2
				c1.6,0,2.9-1.3,2.9-2.9l0,0C226.6,207.2,225.3,205.9,223.7,205.9C223.7,205.9,223.7,205.9,223.7,205.9z"/>
			<path class="st14" d="M315.9,205.9h-81.3c-1.6,0-2.9,1.3-2.9,2.9c0,0,0,0,0,0l0,0c0,1.6,1.3,2.9,2.9,2.9h81.3
				c1.6,0,2.9-1.3,2.9-2.9l0,0C318.8,207.2,317.5,205.9,315.9,205.9C315.9,205.9,315.9,205.9,315.9,205.9z"/>
			<path class="st14" d="M380.1,205.9h-53.4c-1.6,0-2.9,1.3-2.9,2.9c0,0,0,0,0,0l0,0c0,1.6,1.3,2.9,2.9,2.9h53.4
				c1.6,0,2.9-1.3,2.9-2.9l0,0C383,207.2,381.7,205.9,380.1,205.9C380.1,205.9,380.1,205.9,380.1,205.9z"/>
			<path class="st14" d="M252.7,218.4h-55.1c-1.6,0-2.9,1.3-2.9,2.9l0,0c0,1.6,1.3,2.9,2.9,2.9c0,0,0,0,0,0h55.1
				c1.6,0,2.9-1.3,2.9-2.9c0,0,0,0,0,0l0,0C255.6,219.7,254.3,218.4,252.7,218.4z"/>
			<path class="st14" d="M287.9,218.4h-24.7c-1.6,0-2.9,1.3-2.9,2.9c0,0,0,0,0,0l0,0c0,1.6,1.3,2.9,2.9,2.9h24.7
				c1.6,0,2.9-1.3,2.9-2.9c0,0,0,0,0,0l0,0C290.8,219.7,289.5,218.4,287.9,218.4L287.9,218.4z"/>
			<path class="st14" d="M353.1,218.4h-54.3c-1.6,0-2.9,1.3-2.9,2.9v0l0,0c0,1.6,1.3,2.9,2.9,2.9c0,0,0,0,0,0h54.3
				c1.6,0,2.9-1.3,2.9-2.9l0,0C356,219.7,354.8,218.4,353.1,218.4C353.2,218.4,353.2,218.4,353.1,218.4z"/>
			<path class="st14" d="M380.1,218.4h-16.3c-1.6,0-2.9,1.3-2.9,2.9c0,0,0,0,0,0l0,0c0,1.6,1.3,2.9,2.9,2.9h16.3
				c1.6,0,2.9-1.3,2.9-2.9l0,0C383,219.7,381.7,218.4,380.1,218.4C380.1,218.4,380.1,218.4,380.1,218.4z"/>
			<path class="st14" d="M226.2,230.9h-28.7c-1.6,0-2.9,1.3-2.9,2.9c0,0,0,0,0,0l0,0c0,1.6,1.3,2.9,2.9,2.9h28.7
				c1.6,0,2.9-1.3,2.9-2.9c0,0,0,0,0,0l0,0C229.1,232.2,227.8,230.9,226.2,230.9z"/>
			<path class="st14" d="M256.3,230.9h-20.6c-1.6,0-2.9,1.3-2.9,2.9l0,0c0,1.6,1.3,2.9,2.9,2.9c0,0,0,0,0,0h20.6
				c1.6,0,2.9-1.3,2.9-2.9c0,0,0,0,0,0l0,0C259.2,232.2,257.9,230.9,256.3,230.9z"/>
			<path class="st14" d="M271.9,230.9h-5.9c-1.6,0-2.9,1.3-2.9,2.9l0,0c0,1.6,1.3,2.9,2.9,2.9c0,0,0,0,0,0h5.9
				c1.6,0,2.9-1.3,2.9-2.9v0l0,0C274.8,232.2,273.5,230.9,271.9,230.9C271.9,230.9,271.9,230.9,271.9,230.9z"/>
			<path class="st3" d="M303.1,110H202.7c-4.5,0-8.1,3.6-8.1,8.1l0,0c0,4.5,3.6,8.1,8.1,8.1l0,0h100.4c4.5,0,8.1-3.6,8.1-8.1l0,0
				l0,0C311.2,113.6,307.6,110,303.1,110z"/>
			<path class="st3" d="M374.9,110h-47.9c-4.5,0-8.1,3.6-8.1,8.1l0,0c0,4.5,3.6,8.1,8.1,8.1c0,0,0,0,0,0h48c4.5,0,8.1-3.6,8.1-8.1
				c0,0,0,0,0,0l0,0C383,113.6,379.3,110,374.9,110C374.9,110,374.9,110,374.9,110z"/>
			<path class="st3" d="M250.6,178.5h-51.8c-2.3,0-4.2,1.9-4.2,4.2l0,0c0,2.3,1.9,4.2,4.2,4.2h51.8c2.3,0,4.2-1.9,4.2-4.2l0,0
				C254.7,180.4,252.9,178.5,250.6,178.5z"/>
			<path class="st3" d="M287.6,178.5h-24.7c-2.3,0-4.2,1.9-4.2,4.2l0,0c0,2.3,1.9,4.2,4.2,4.2l0,0h24.7c2.3,0,4.2-1.9,4.2-4.2l0,0
				C291.7,180.4,289.9,178.5,287.6,178.5z"/>
			<path class="st14" d="M380.1,271.2h-76.4c-1.6,0-2.9,1.3-2.9,2.9v0l0,0c0,1.6,1.3,2.9,2.9,2.9c0,0,0,0,0,0h76.4
				c1.6,0,2.9-1.3,2.9-2.9l0,0C383,272.5,381.7,271.2,380.1,271.2C380.1,271.2,380.1,271.2,380.1,271.2z"/>
			<path class="st14" d="M294.3,271.2h-96.8c-1.6,0-2.9,1.3-2.9,2.9l0,0l0,0c0,1.6,1.3,2.9,2.9,2.9c0,0,0,0,0,0h96.8
				c1.6,0,2.9-1.3,2.9-2.9c0,0,0,0,0,0l0,0C297.2,272.5,295.9,271.2,294.3,271.2L294.3,271.2z"/>
			<path class="st14" d="M223.7,283.7h-26.2c-1.6,0-2.9,1.3-2.9,2.9c0,0,0,0,0,0l0,0c0,1.6,1.3,2.9,2.9,2.9h0h26.2
				c1.6,0,2.9-1.3,2.9-2.9c0,0,0,0,0,0l0,0C226.6,285,225.3,283.7,223.7,283.7z"/>
			<path class="st14" d="M315.9,283.7h-81.3c-1.6,0-2.9,1.3-2.9,2.9l0,0c0,1.6,1.3,2.9,2.9,2.9c0,0,0,0,0,0h81.3
				c1.6,0,2.9-1.3,2.9-2.9c0,0,0,0,0,0l0,0C318.8,285,317.5,283.7,315.9,283.7z"/>
			<path class="st14" d="M380.1,283.7h-53.4c-1.6,0-2.9,1.3-2.9,2.9l0,0c0,1.6,1.3,2.9,2.9,2.9c0,0,0,0,0,0h53.4
				c1.6,0,2.9-1.3,2.9-2.9c0,0,0,0,0,0l0,0C383,285,381.7,283.7,380.1,283.7z"/>
			<path class="st14" d="M252.7,296.2h-55.1c-1.6,0-2.9,1.3-2.9,2.9c0,0,0,0,0,0l0,0c0,1.6,1.3,2.9,2.9,2.9h0h55.1
				c1.6,0,2.9-1.3,2.9-2.9l0,0l0,0C255.6,297.5,254.3,296.2,252.7,296.2C252.7,296.2,252.7,296.2,252.7,296.2z"/>
			<path class="st14" d="M287.9,296.2h-24.7c-1.6,0-2.9,1.3-2.9,2.9l0,0c0,1.6,1.3,2.9,2.9,2.9c0,0,0,0,0,0h24.7
				c1.6,0,2.9-1.3,2.9-2.9v0l0,0C290.8,297.5,289.5,296.2,287.9,296.2C287.9,296.2,287.9,296.2,287.9,296.2z"/>
			<path class="st14" d="M353.1,296.2h-54.3c-1.6,0-2.9,1.3-2.9,2.9c0,0,0,0,0,0l0,0c0,1.6,1.3,2.9,2.9,2.9h0h54.3
				c1.6,0,2.9-1.3,2.9-2.9c0,0,0,0,0,0l0,0C356,297.5,354.8,296.2,353.1,296.2z"/>
			<path class="st14" d="M380.1,296.2h-16.3c-1.6,0-2.9,1.3-2.9,2.9l0,0c0,1.6,1.3,2.9,2.9,2.9c0,0,0,0,0,0h16.3
				c1.6,0,2.9-1.3,2.9-2.9c0,0,0,0,0,0l0,0C383,297.5,381.7,296.2,380.1,296.2z"/>
			<path class="st14" d="M226.2,308.6h-28.7c-1.6,0-2.9,1.3-2.9,2.9c0,0,0,0,0,0l0,0c0,1.6,1.3,2.9,2.9,2.9c0,0,0,0,0,0h28.7
				c1.6,0,2.9-1.3,2.9-2.9l0,0C229.1,309.9,227.8,308.6,226.2,308.6z"/>
			<path class="st14" d="M256.3,308.6h-20.6c-1.6,0-2.9,1.3-2.9,2.9l0,0c0,1.6,1.3,2.9,2.9,2.9h20.6c1.6,0,2.9-1.3,2.9-2.9l0,0
				C259.2,309.9,257.9,308.6,256.3,308.6z"/>
			<path class="st14" d="M271.9,308.6h-5.9c-1.6,0-2.9,1.3-2.9,2.9l0,0c0,1.6,1.3,2.9,2.9,2.9h5.9c1.6,0,2.9-1.3,2.9-2.9
				c0,0,0,0,0,0l0,0C274.8,310,273.5,308.7,271.9,308.6C271.9,308.6,271.9,308.6,271.9,308.6z"/>
			<path class="st3" d="M250.6,256.3h-51.8c-2.3,0-4.2,1.9-4.2,4.2c0,0,0,0,0,0l0,0c0,2.3,1.9,4.2,4.2,4.2h51.8
				c2.3,0,4.2-1.9,4.2-4.2l0,0C254.7,258.2,252.9,256.3,250.6,256.3C250.6,256.3,250.6,256.3,250.6,256.3z"/>
			<path class="st3" d="M287.6,256.3h-24.7c-2.3,0-4.2,1.9-4.2,4.2v0l0,0c0,2.3,1.9,4.2,4.2,4.2h24.7c2.3,0,4.2-1.9,4.2-4.2l0,0
				C291.7,258.2,289.9,256.3,287.6,256.3C287.6,256.3,287.6,256.3,287.6,256.3z"/>
			<path class="st3" d="M224.5,361.8h-27.7c-1.2,0-2.2,1-2.2,2.2l0,0c0,1.2,1,2.2,2.2,2.2l0,0h27.7c1.2,0,2.2-1,2.2-2.2l0,0l0,0
				C226.7,362.8,225.7,361.8,224.5,361.8z"/>
			<path class="st3" d="M244.2,361.8H231c-1.2,0-2.2,1-2.2,2.2l0,0l0,0c0,1.2,1,2.2,2.2,2.2l0,0h13.2c1.2,0,2.2-1,2.2-2.2l0,0l0,0
				C246.4,362.8,245.5,361.8,244.2,361.8z"/>
			<path class="st14" d="M267,135.3h-45.4c-1.6,0-2.9,1.3-2.9,2.9l0,0c0,1.6,1.3,2.9,2.9,2.9c0,0,0,0,0,0H267c1.6,0,2.9-1.3,2.9-2.9
				c0,0,0,0,0,0l0,0C269.9,136.6,268.6,135.3,267,135.3z"/>
			<path class="st14" d="M356,135.3h-76.4c-1.6,0-2.9,1.3-2.9,2.9c0,0,0,0,0,0l0,0c0,1.6,1.3,2.9,2.9,2.9l0,0H356
				c1.6,0,2.9-1.3,2.9-2.9c0,0,0,0,0,0l0,0C358.9,136.6,357.6,135.3,356,135.3z"/>
			<path class="st14" d="M291.8,145.8H232c-1.6,0-2.9,1.3-2.9,2.9l0,0c0,1.6,1.3,2.9,2.9,2.9h59.7c1.6,0,2.9-1.3,2.9-2.9l0,0
				C294.6,147.2,293.4,145.9,291.8,145.8z"/>
			<path class="st14" d="M328.5,145.8h-24.6c-1.6,0-2.9,1.3-2.9,2.9l0,0c0,1.6,1.3,2.9,2.9,2.9h24.6c1.6,0,2.9-1.3,2.9-2.9
				c0,0,0,0,0,0l0,0C331.4,147.1,330.1,145.8,328.5,145.8C328.5,145.8,328.5,145.8,328.5,145.8z"/>
			<path class="st14" d="M345.5,145.8h-5.3c-1.6,0-2.9,1.3-2.9,2.9l0,0c0,1.6,1.3,2.9,2.9,2.9h5.3c1.6,0,2.9-1.3,2.9-2.9l0,0
				C348.4,147.1,347.1,145.8,345.5,145.8z"/>
			<path class="st14" d="M271.5,358.5h-76.4c-0.1,0-0.2-0.1-0.2-0.2s0.1-0.2,0.2-0.2h76.4c0.1,0,0.2,0.1,0.2,0.2
				S271.6,358.5,271.5,358.5L271.5,358.5z"/>
			<path class="st4" d="M368.4,316.8h68.3c2.8,0,5,2.2,5,5v68.3c0,2.8-2.2,5-5,5h-68.3c-2.8,0-5-2.2-5-5v-68.3
				C363.4,319,365.6,316.8,368.4,316.8z"/>
			<path class="st5" d="M436.7,317.8c2.2,0,4,1.8,4,4v68.3c0,2.2-1.8,4-4,4h-68.3c-2.2,0-4-1.8-4-4v-68.3c0-2.2,1.8-4,4-4
				L436.7,317.8"/>
			<path class="st9" d="M432.3,332.4c-16.5,9.5-29.9,22.9-42.6,36.9c-0.3-0.7-0.7-1.4-1.2-2.1c-2.8-4.6-6.1-9-9.8-12.9c-1-1-2-2-3-3
				c-0.9-0.9-1.9-1.8-3-2.4c-0.2-0.1-0.4-0.2-0.6-0.2c-0.5,0-0.8,0.3-0.9,0.8c0,0.5,0.1,0.9,0.4,1.3l0.9,1.4
				c5.2,8,9.5,16.4,13.1,25.2c0,0.1,0.1,0.2,0.1,0.3c0.7,1.9,1.6,5.2,4,5.5c1.8,0.2,3.1-1.4,4.2-2.6c6.1-7.5,11.9-15.5,18.5-22.6
				c4.4-4.4,8.4-9,12.5-13.5c3-3.3,5.1-4.8,8.8-10.6c0.2-0.5,0-1.1-0.5-1.3C433,332.2,432.6,332.2,432.3,332.4z"/>
			<polygon class="st15" points="211.4,217.6 213.2,210.5 220,208 220.3,200.8 226.4,196.9 225.2,189.7 230.4,184.6 227.7,177.8 
				231.8,171.8 227.7,165.7 230.4,159 225.2,153.9 226.4,146.7 220.3,142.8 220,135.6 213.2,133 211.4,126 204.2,124.9 200.9,118.4 
				193.7,118.9 189.2,113.2 182.2,115.1 176.6,110.5 170.1,113.9 164.9,111.1 164.9,278.9 170.1,264.2 192.1,325.7 210.9,305.4 
				238.2,309.2 205.9,218.4 			"/>
			<polygon class="st11" points="189.2,205.7 143.1,189.2 102,304.2 129.4,300.4 148.2,320.7 			"/>
			<polygon class="st6" points="185.3,204.3 146.9,190.6 108.4,298.6 131.2,295.5 146.8,312.3 			"/>
			<polygon class="st7" points="184,203.8 148.3,191.1 110.6,296.8 131.7,293.9 146.2,309.5 			"/>
			<polygon class="st11" points="151,205.7 197.2,189.2 238.2,304.2 210.9,300.4 192.1,320.7 			"/>
			<polygon class="st6" points="154.9,204.3 193.3,190.6 231.8,298.6 209.1,295.5 193.5,312.3 			"/>
			<polygon class="st7" points="156.3,203.8 191.9,191.1 229.7,296.8 208.5,293.9 194,309.5 			"/>
			<polygon class="st10" points="197.2,189.2 193.3,190.6 191.9,191.1 174.1,197.4 170.1,198.9 166.1,197.4 148.3,191.1 
				146.9,190.6 143.1,189.2 133.2,216.8 133.7,216.9 137.2,223.9 144.9,223.4 149.8,229.5 157.2,227.4 163.2,232.3 170.1,228.7 
				177,232.3 183,227.4 190.5,229.5 195.3,223.4 203.1,223.9 206.6,216.9 207.1,216.8 			"/>
			<polygon class="st7" points="170.1,108.9 176.6,105.5 182.2,110.1 189.2,108.2 193.7,113.9 200.9,113.4 204.2,119.9 211.4,121 
				213.2,128 220,130.6 220.3,137.8 226.4,141.7 225.2,148.9 230.4,154 227.7,160.7 231.8,166.8 227.7,172.8 230.4,179.6 
				225.2,184.7 226.4,191.9 220.3,195.8 220,203 213.2,205.5 211.4,212.6 204.2,213.6 200.9,220.1 193.7,219.7 189.2,225.4 
				182.2,223.4 176.6,228.1 170.1,224.7 163.7,228.1 158.1,223.4 151.1,225.4 146.6,219.7 139.3,220.1 136.1,213.6 128.9,212.6 
				127.1,205.5 120.3,203 120,195.8 113.8,191.9 115.1,184.7 109.9,179.6 112.5,172.8 108.5,166.8 112.5,160.7 109.9,154 
				115.1,148.9 113.8,141.7 120,137.8 120.3,130.6 127.1,128 128.9,121 136.1,119.9 139.3,113.4 146.6,113.9 151.1,108.2 
				158.1,110.1 163.7,105.5 			"/>
			<polygon class="st6" points="170.1,109.5 176.5,106.2 182,110.8 189,108.8 193.4,114.5 200.6,114 203.8,120.4 210.9,121.5 
				212.7,128.5 219.4,131 219.7,138.1 225.8,142 224.6,149.1 229.7,154.1 227.1,160.8 231.1,166.8 227.1,172.8 229.7,179.5 
				224.6,184.5 225.8,191.6 219.7,195.4 219.4,202.6 212.7,205.1 210.9,212.1 203.8,213.1 200.6,219.6 193.4,219.1 189,224.7 
				182,222.8 176.5,227.4 170.1,224.1 163.8,227.4 158.2,222.8 151.3,224.7 146.8,219.1 139.7,219.6 136.5,213.1 129.4,212.1 
				127.6,205.1 120.8,202.6 120.5,195.4 114.5,191.6 115.7,184.5 110.5,179.5 113.2,172.8 109.2,166.8 113.2,160.8 110.5,154.1 
				115.7,149.1 114.5,142 120.5,138.1 120.8,131 127.6,128.5 129.4,121.5 136.5,120.4 139.7,114 146.8,114.5 151.3,108.8 
				158.2,110.8 163.8,106.2 			"/>
			<circle class="st11" cx="170.1" cy="166.8" r="55.1"/>
			
				<ellipse transform="matrix(0.7071 -0.7071 0.7071 0.7071 -68.1047 169.1572)" class="st7" cx="170.1" cy="166.8" rx="54.3" ry="54.3"/>
		</g>
	</g>
</g>
</svg>
